%TF.GenerationSoftware,KiCad,Pcbnew,(5.1.7)-1*%
%TF.CreationDate,2020-10-22T13:49:28-07:00*%
%TF.ProjectId,ReflowOven,5265666c-6f77-44f7-9665-6e2e6b696361,rev?*%
%TF.SameCoordinates,Original*%
%TF.FileFunction,Soldermask,Bot*%
%TF.FilePolarity,Negative*%
%FSLAX46Y46*%
G04 Gerber Fmt 4.6, Leading zero omitted, Abs format (unit mm)*
G04 Created by KiCad (PCBNEW (5.1.7)-1) date 2020-10-22 13:49:28*
%MOMM*%
%LPD*%
G01*
G04 APERTURE LIST*
%ADD10C,1.950000*%
%ADD11C,1.320000*%
%ADD12C,1.200000*%
%ADD13C,3.100000*%
%ADD14C,1.800000*%
%ADD15C,1.624000*%
%ADD16O,1.800000X1.800000*%
%ADD17O,0.950000X0.950000*%
%ADD18C,2.100000*%
%ADD19C,0.900000*%
%ADD20C,6.500000*%
%ADD21C,0.641666*%
%ADD22C,1.598600*%
%ADD23O,1.700000X1.700000*%
%ADD24C,0.750000*%
%ADD25O,0.750000X1.050000*%
%ADD26O,1.500000X0.900000*%
%ADD27C,1.700000*%
%ADD28C,0.100000*%
G04 APERTURE END LIST*
%TO.C,SW403*%
G36*
G01*
X25602323Y-67909819D02*
X25602323Y-66059819D01*
G75*
G02*
X25652323Y-66009819I50000J0D01*
G01*
X27502323Y-66009819D01*
G75*
G02*
X27552323Y-66059819I0J-50000D01*
G01*
X27552323Y-67909819D01*
G75*
G02*
X27502323Y-67959819I-50000J0D01*
G01*
X25652323Y-67959819D01*
G75*
G02*
X25602323Y-67909819I0J50000D01*
G01*
G37*
D10*
X31737323Y-72064819D03*
D11*
X34197323Y-69444819D03*
X26577323Y-74524819D03*
%TD*%
%TO.C,SW402*%
G36*
G01*
X25655000Y-54305000D02*
X25655000Y-52455000D01*
G75*
G02*
X25705000Y-52405000I50000J0D01*
G01*
X27555000Y-52405000D01*
G75*
G02*
X27605000Y-52455000I0J-50000D01*
G01*
X27605000Y-54305000D01*
G75*
G02*
X27555000Y-54355000I-50000J0D01*
G01*
X25705000Y-54355000D01*
G75*
G02*
X25655000Y-54305000I0J50000D01*
G01*
G37*
D10*
X31790000Y-58460000D03*
D11*
X34250000Y-55840000D03*
X26630000Y-60920000D03*
%TD*%
%TO.C,SW401*%
G36*
G01*
X27582323Y-48136766D02*
X25732323Y-48136766D01*
G75*
G02*
X25682323Y-48086766I0J50000D01*
G01*
X25682323Y-46236766D01*
G75*
G02*
X25732323Y-46186766I50000J0D01*
G01*
X27582323Y-46186766D01*
G75*
G02*
X27632323Y-46236766I0J-50000D01*
G01*
X27632323Y-48086766D01*
G75*
G02*
X27582323Y-48136766I-50000J0D01*
G01*
G37*
D10*
X31737323Y-42001766D03*
D11*
X29117323Y-39541766D03*
X34197323Y-47161766D03*
%TD*%
%TO.C,J201*%
G36*
G01*
X154905000Y-77047000D02*
X154905000Y-78147000D01*
G75*
G02*
X154855000Y-78197000I-50000J0D01*
G01*
X153755000Y-78197000D01*
G75*
G02*
X153705000Y-78147000I0J50000D01*
G01*
X153705000Y-77047000D01*
G75*
G02*
X153755000Y-76997000I50000J0D01*
G01*
X154855000Y-76997000D01*
G75*
G02*
X154905000Y-77047000I0J-50000D01*
G01*
G37*
D12*
X154305000Y-78867000D03*
X153035000Y-77597000D03*
X153035000Y-78867000D03*
X151765000Y-77597000D03*
X151765000Y-78867000D03*
X150495000Y-77597000D03*
X150495000Y-78867000D03*
X149225000Y-77597000D03*
X149225000Y-78867000D03*
%TD*%
D13*
%TO.C,J601*%
X171234000Y-131096000D03*
X171234000Y-146796000D03*
X157734000Y-132096000D03*
X157734000Y-145796000D03*
%TD*%
D14*
%TO.C,SEG304*%
X75374000Y-40941000D03*
X75374000Y-38401000D03*
X82994000Y-40941000D03*
X82994000Y-43481000D03*
X75374000Y-46021000D03*
X82994000Y-38401000D03*
X82994000Y-46021000D03*
X75374000Y-43481000D03*
X75374000Y-48561000D03*
G36*
G01*
X83894000Y-47711000D02*
X83894000Y-49411000D01*
G75*
G02*
X83844000Y-49461000I-50000J0D01*
G01*
X82144000Y-49461000D01*
G75*
G02*
X82094000Y-49411000I0J50000D01*
G01*
X82094000Y-47711000D01*
G75*
G02*
X82144000Y-47661000I50000J0D01*
G01*
X83844000Y-47661000D01*
G75*
G02*
X83894000Y-47711000I0J-50000D01*
G01*
G37*
%TD*%
%TO.C,SEG302*%
X52641000Y-40814000D03*
X52641000Y-38274000D03*
X60261000Y-40814000D03*
X60261000Y-43354000D03*
X52641000Y-45894000D03*
X60261000Y-38274000D03*
X60261000Y-45894000D03*
X52641000Y-43354000D03*
X52641000Y-48434000D03*
G36*
G01*
X61161000Y-47584000D02*
X61161000Y-49284000D01*
G75*
G02*
X61111000Y-49334000I-50000J0D01*
G01*
X59411000Y-49334000D01*
G75*
G02*
X59361000Y-49284000I0J50000D01*
G01*
X59361000Y-47584000D01*
G75*
G02*
X59411000Y-47534000I50000J0D01*
G01*
X61111000Y-47534000D01*
G75*
G02*
X61161000Y-47584000I0J-50000D01*
G01*
G37*
%TD*%
%TO.C,SEG301*%
X63690000Y-40941000D03*
X63690000Y-38401000D03*
X71310000Y-40941000D03*
X71310000Y-43481000D03*
X63690000Y-46021000D03*
X71310000Y-38401000D03*
X71310000Y-46021000D03*
X63690000Y-43481000D03*
X63690000Y-48561000D03*
G36*
G01*
X72210000Y-47711000D02*
X72210000Y-49411000D01*
G75*
G02*
X72160000Y-49461000I-50000J0D01*
G01*
X70460000Y-49461000D01*
G75*
G02*
X70410000Y-49411000I0J50000D01*
G01*
X70410000Y-47711000D01*
G75*
G02*
X70460000Y-47661000I50000J0D01*
G01*
X72160000Y-47661000D01*
G75*
G02*
X72210000Y-47711000I0J-50000D01*
G01*
G37*
%TD*%
%TO.C,SEG303*%
X40957000Y-40814000D03*
X40957000Y-38274000D03*
X48577000Y-40814000D03*
X48577000Y-43354000D03*
X40957000Y-45894000D03*
X48577000Y-38274000D03*
X48577000Y-45894000D03*
X40957000Y-43354000D03*
X40957000Y-48434000D03*
G36*
G01*
X49477000Y-47584000D02*
X49477000Y-49284000D01*
G75*
G02*
X49427000Y-49334000I-50000J0D01*
G01*
X47727000Y-49334000D01*
G75*
G02*
X47677000Y-49284000I0J50000D01*
G01*
X47677000Y-47584000D01*
G75*
G02*
X47727000Y-47534000I50000J0D01*
G01*
X49427000Y-47534000D01*
G75*
G02*
X49477000Y-47584000I0J-50000D01*
G01*
G37*
%TD*%
D15*
%TO.C,K501*%
X59544000Y-130690000D03*
X59544000Y-123190000D03*
X54544000Y-130690000D03*
X54544000Y-123190000D03*
X49544000Y-123190000D03*
X49544000Y-130690000D03*
X34544000Y-130690000D03*
X34544000Y-123190000D03*
%TD*%
%TO.C,P501*%
X91821000Y-142240000D03*
X91821000Y-152400000D03*
X91821000Y-162560000D03*
X46101000Y-162560000D03*
X46101000Y-142240000D03*
%TD*%
D16*
%TO.C,J703*%
X172974000Y-79756000D03*
X170434000Y-79756000D03*
X167894000Y-79756000D03*
X165354000Y-79756000D03*
X162814000Y-79756000D03*
G36*
G01*
X161124000Y-80656000D02*
X159424000Y-80656000D01*
G75*
G02*
X159374000Y-80606000I0J50000D01*
G01*
X159374000Y-78906000D01*
G75*
G02*
X159424000Y-78856000I50000J0D01*
G01*
X161124000Y-78856000D01*
G75*
G02*
X161174000Y-78906000I0J-50000D01*
G01*
X161174000Y-80606000D01*
G75*
G02*
X161124000Y-80656000I-50000J0D01*
G01*
G37*
%TD*%
%TO.C,J701*%
X172910500Y-75692000D03*
X170370500Y-75692000D03*
G36*
G01*
X168680500Y-76592000D02*
X166980500Y-76592000D01*
G75*
G02*
X166930500Y-76542000I0J50000D01*
G01*
X166930500Y-74842000D01*
G75*
G02*
X166980500Y-74792000I50000J0D01*
G01*
X168680500Y-74792000D01*
G75*
G02*
X168730500Y-74842000I0J-50000D01*
G01*
X168730500Y-76542000D01*
G75*
G02*
X168680500Y-76592000I-50000J0D01*
G01*
G37*
%TD*%
%TO.C,J702*%
X158496000Y-69532500D03*
X158496000Y-66992500D03*
X161036000Y-69532500D03*
G36*
G01*
X160186000Y-66092500D02*
X161886000Y-66092500D01*
G75*
G02*
X161936000Y-66142500I0J-50000D01*
G01*
X161936000Y-67842500D01*
G75*
G02*
X161886000Y-67892500I-50000J0D01*
G01*
X160186000Y-67892500D01*
G75*
G02*
X160136000Y-67842500I0J50000D01*
G01*
X160136000Y-66142500D01*
G75*
G02*
X160186000Y-66092500I50000J0D01*
G01*
G37*
%TD*%
D17*
%TO.C,REF\u002A\u002A*%
X87359000Y-103568500D03*
X86359000Y-103568500D03*
X85359000Y-103568500D03*
X84359000Y-103568500D03*
X83359000Y-103568500D03*
X82359000Y-103568500D03*
X81359000Y-103568500D03*
X80359000Y-103568500D03*
X79359000Y-103568500D03*
G36*
G01*
X78784000Y-104043500D02*
X77934000Y-104043500D01*
G75*
G02*
X77884000Y-103993500I0J50000D01*
G01*
X77884000Y-103143500D01*
G75*
G02*
X77934000Y-103093500I50000J0D01*
G01*
X78784000Y-103093500D01*
G75*
G02*
X78834000Y-103143500I0J-50000D01*
G01*
X78834000Y-103993500D01*
G75*
G02*
X78784000Y-104043500I-50000J0D01*
G01*
G37*
%TD*%
%TO.C,REF\u002A\u002A*%
X87422500Y-94424500D03*
X86422500Y-94424500D03*
X85422500Y-94424500D03*
X84422500Y-94424500D03*
X83422500Y-94424500D03*
X82422500Y-94424500D03*
X81422500Y-94424500D03*
X80422500Y-94424500D03*
X79422500Y-94424500D03*
G36*
G01*
X78847500Y-94899500D02*
X77997500Y-94899500D01*
G75*
G02*
X77947500Y-94849500I0J50000D01*
G01*
X77947500Y-93999500D01*
G75*
G02*
X77997500Y-93949500I50000J0D01*
G01*
X78847500Y-93949500D01*
G75*
G02*
X78897500Y-93999500I0J-50000D01*
G01*
X78897500Y-94849500D01*
G75*
G02*
X78847500Y-94899500I-50000J0D01*
G01*
G37*
%TD*%
%TO.C,REF\u002A\u002A*%
X87359000Y-99314000D03*
X86359000Y-99314000D03*
X85359000Y-99314000D03*
X84359000Y-99314000D03*
X83359000Y-99314000D03*
X82359000Y-99314000D03*
X81359000Y-99314000D03*
X80359000Y-99314000D03*
X79359000Y-99314000D03*
G36*
G01*
X78784000Y-99789000D02*
X77934000Y-99789000D01*
G75*
G02*
X77884000Y-99739000I0J50000D01*
G01*
X77884000Y-98889000D01*
G75*
G02*
X77934000Y-98839000I50000J0D01*
G01*
X78784000Y-98839000D01*
G75*
G02*
X78834000Y-98889000I0J-50000D01*
G01*
X78834000Y-99739000D01*
G75*
G02*
X78784000Y-99789000I-50000J0D01*
G01*
G37*
%TD*%
D18*
%TO.C,U409*%
X168826000Y-113423000D03*
X168826000Y-89223000D03*
%TD*%
D19*
%TO.C,REF\u002A\u002A*%
X122601056Y-90504944D03*
X120904000Y-89802000D03*
X119206944Y-90504944D03*
X118504000Y-92202000D03*
X119206944Y-93899056D03*
X120904000Y-94602000D03*
X122601056Y-93899056D03*
X123304000Y-92202000D03*
D20*
X120904000Y-92202000D03*
%TD*%
D19*
%TO.C,REF\u002A\u002A*%
X25065056Y-104728944D03*
X23368000Y-104026000D03*
X21670944Y-104728944D03*
X20968000Y-106426000D03*
X21670944Y-108123056D03*
X23368000Y-108826000D03*
X25065056Y-108123056D03*
X25768000Y-106426000D03*
D20*
X23368000Y-106426000D03*
%TD*%
D19*
%TO.C,REF\u002A\u002A*%
X26081056Y-173308944D03*
X24384000Y-172606000D03*
X22686944Y-173308944D03*
X21984000Y-175006000D03*
X22686944Y-176703056D03*
X24384000Y-177406000D03*
X26081056Y-176703056D03*
X26784000Y-175006000D03*
D20*
X24384000Y-175006000D03*
%TD*%
D19*
%TO.C,REF\u002A\u002A*%
X170526112Y-172800944D03*
X168829056Y-172098000D03*
X167132000Y-172800944D03*
X166429056Y-174498000D03*
X167132000Y-176195056D03*
X168829056Y-176898000D03*
X170526112Y-176195056D03*
X171229056Y-174498000D03*
D20*
X168829056Y-174498000D03*
%TD*%
D19*
%TO.C,REF\u002A\u002A*%
X170353056Y-30052944D03*
X168656000Y-29350000D03*
X166958944Y-30052944D03*
X166256000Y-31750000D03*
X166958944Y-33447056D03*
X168656000Y-34150000D03*
X170353056Y-33447056D03*
X171056000Y-31750000D03*
D20*
X168656000Y-31750000D03*
%TD*%
D19*
%TO.C,REF\u002A\u002A*%
X122601056Y-30052944D03*
X120904000Y-29350000D03*
X119206944Y-30052944D03*
X118504000Y-31750000D03*
X119206944Y-33447056D03*
X120904000Y-34150000D03*
X122601056Y-33447056D03*
X123304000Y-31750000D03*
D20*
X120904000Y-31750000D03*
%TD*%
D19*
%TO.C,REF\u002A\u002A*%
X25065056Y-90504944D03*
X23368000Y-89802000D03*
X21670944Y-90504944D03*
X20968000Y-92202000D03*
X21670944Y-93899056D03*
X23368000Y-94602000D03*
X25065056Y-93899056D03*
X25768000Y-92202000D03*
D20*
X23368000Y-92202000D03*
%TD*%
D19*
%TO.C,REF\u002A\u002A*%
X104982944Y-90504944D03*
X104280000Y-92202000D03*
X104982944Y-93899056D03*
X106680000Y-94602000D03*
X108377056Y-93899056D03*
X109080000Y-92202000D03*
X108377056Y-90504944D03*
X106680000Y-89802000D03*
D20*
X106680000Y-92202000D03*
%TD*%
D19*
%TO.C,REF\u002A\u002A*%
X108377056Y-30052944D03*
X106680000Y-29350000D03*
X104982944Y-30052944D03*
X104280000Y-31750000D03*
X104982944Y-33447056D03*
X106680000Y-34150000D03*
X108377056Y-33447056D03*
X109080000Y-31750000D03*
D20*
X106680000Y-31750000D03*
%TD*%
D19*
%TO.C,REF\u002A\u002A*%
X25065056Y-30052944D03*
X23368000Y-29350000D03*
X21670944Y-30052944D03*
X20968000Y-31750000D03*
X21670944Y-33447056D03*
X23368000Y-34150000D03*
X25065056Y-33447056D03*
X25768000Y-31750000D03*
D20*
X23368000Y-31750000D03*
%TD*%
D21*
%TO.C,U601*%
X151130000Y-137922000D03*
X151130000Y-139005333D03*
X151130000Y-140088666D03*
X152213333Y-137922000D03*
X152213333Y-139005333D03*
X152213333Y-140088666D03*
X153296666Y-137922000D03*
X153296666Y-139005333D03*
X153296666Y-140088666D03*
%TD*%
%TO.C,SW404*%
G36*
G01*
X88198892Y-44677304D02*
X88198892Y-42177304D01*
G75*
G02*
X88248892Y-42127304I50000J0D01*
G01*
X90748892Y-42127304D01*
G75*
G02*
X90798892Y-42177304I0J-50000D01*
G01*
X90798892Y-44677304D01*
G75*
G02*
X90748892Y-44727304I-50000J0D01*
G01*
X88248892Y-44727304D01*
G75*
G02*
X88198892Y-44677304I0J50000D01*
G01*
G37*
D22*
X92898892Y-36865304D03*
X97898892Y-36865304D03*
X92898892Y-50615304D03*
X95398892Y-50615304D03*
X97898892Y-50615304D03*
G36*
G01*
X99998892Y-44777304D02*
X99998892Y-42277304D01*
G75*
G02*
X100048892Y-42227304I50000J0D01*
G01*
X102548892Y-42227304D01*
G75*
G02*
X102598892Y-42277304I0J-50000D01*
G01*
X102598892Y-44777304D01*
G75*
G02*
X102548892Y-44827304I-50000J0D01*
G01*
X100048892Y-44827304D01*
G75*
G02*
X99998892Y-44777304I0J50000D01*
G01*
G37*
%TD*%
D23*
%TO.C,RN201*%
X143764000Y-171450000D03*
X146304000Y-171450000D03*
X148844000Y-171450000D03*
X151384000Y-171450000D03*
X153924000Y-171450000D03*
X156464000Y-171450000D03*
G36*
G01*
X159854000Y-170650000D02*
X159854000Y-172250000D01*
G75*
G02*
X159804000Y-172300000I-50000J0D01*
G01*
X158204000Y-172300000D01*
G75*
G02*
X158154000Y-172250000I0J50000D01*
G01*
X158154000Y-170650000D01*
G75*
G02*
X158204000Y-170600000I50000J0D01*
G01*
X159804000Y-170600000D01*
G75*
G02*
X159854000Y-170650000I0J-50000D01*
G01*
G37*
%TD*%
D24*
%TO.C,J704*%
X165058000Y-126028000D03*
D25*
X165058000Y-118828000D03*
D26*
X172258000Y-126918000D03*
X172258000Y-117938000D03*
X166308000Y-118298000D03*
X166308000Y-126558000D03*
%TD*%
D27*
%TO.C,C518*%
X80772000Y-128810000D03*
G36*
G01*
X81572000Y-131660000D02*
X79972000Y-131660000D01*
G75*
G02*
X79922000Y-131610000I0J50000D01*
G01*
X79922000Y-130010000D01*
G75*
G02*
X79972000Y-129960000I50000J0D01*
G01*
X81572000Y-129960000D01*
G75*
G02*
X81622000Y-130010000I0J-50000D01*
G01*
X81622000Y-131610000D01*
G75*
G02*
X81572000Y-131660000I-50000J0D01*
G01*
G37*
%TD*%
%TO.C,C517*%
X80772000Y-121190000D03*
G36*
G01*
X81572000Y-124040000D02*
X79972000Y-124040000D01*
G75*
G02*
X79922000Y-123990000I0J50000D01*
G01*
X79922000Y-122390000D01*
G75*
G02*
X79972000Y-122340000I50000J0D01*
G01*
X81572000Y-122340000D01*
G75*
G02*
X81622000Y-122390000I0J-50000D01*
G01*
X81622000Y-123990000D01*
G75*
G02*
X81572000Y-124040000I-50000J0D01*
G01*
G37*
%TD*%
D28*
G36*
X78835990Y-103184049D02*
G01*
X78837891Y-103203359D01*
X78843469Y-103221744D01*
X78852524Y-103238685D01*
X78864710Y-103253534D01*
X78879559Y-103265720D01*
X78896500Y-103274775D01*
X78914885Y-103280353D01*
X78933999Y-103282235D01*
X78953113Y-103280353D01*
X78971498Y-103274775D01*
X78988439Y-103265720D01*
X78999643Y-103256525D01*
X79001617Y-103256199D01*
X79002885Y-103257745D01*
X79002326Y-103259485D01*
X78993374Y-103268437D01*
X78941860Y-103345534D01*
X78906377Y-103431197D01*
X78888287Y-103522141D01*
X78888287Y-103614859D01*
X78906377Y-103705803D01*
X78941860Y-103791466D01*
X78993374Y-103868563D01*
X79002326Y-103877515D01*
X79002844Y-103879447D01*
X79001430Y-103880861D01*
X78999643Y-103880475D01*
X78988439Y-103871280D01*
X78971498Y-103862225D01*
X78953113Y-103856647D01*
X78933999Y-103854765D01*
X78914885Y-103856647D01*
X78896500Y-103862225D01*
X78879559Y-103871280D01*
X78864710Y-103883466D01*
X78852524Y-103898315D01*
X78843469Y-103915256D01*
X78837891Y-103933641D01*
X78835990Y-103952951D01*
X78834825Y-103954577D01*
X78832835Y-103954381D01*
X78832000Y-103952755D01*
X78832000Y-103184245D01*
X78833000Y-103182513D01*
X78835000Y-103182513D01*
X78835990Y-103184049D01*
G37*
G36*
X84779705Y-103343911D02*
G01*
X84789711Y-103356104D01*
X84804560Y-103368290D01*
X84821501Y-103377345D01*
X84839886Y-103382923D01*
X84859000Y-103384805D01*
X84878114Y-103382922D01*
X84896499Y-103377345D01*
X84913441Y-103368290D01*
X84928289Y-103356104D01*
X84938295Y-103343911D01*
X84940167Y-103343207D01*
X84941713Y-103344475D01*
X84941689Y-103345945D01*
X84906377Y-103431197D01*
X84888287Y-103522141D01*
X84888287Y-103614859D01*
X84906377Y-103705803D01*
X84941689Y-103791055D01*
X84941428Y-103793038D01*
X84939580Y-103793803D01*
X84938295Y-103793089D01*
X84928289Y-103780896D01*
X84913440Y-103768710D01*
X84896499Y-103759655D01*
X84878114Y-103754077D01*
X84859000Y-103752195D01*
X84839886Y-103754078D01*
X84821501Y-103759655D01*
X84804559Y-103768710D01*
X84789711Y-103780896D01*
X84779705Y-103793089D01*
X84777833Y-103793793D01*
X84776287Y-103792525D01*
X84776311Y-103791055D01*
X84811623Y-103705803D01*
X84829713Y-103614859D01*
X84829713Y-103522141D01*
X84811623Y-103431197D01*
X84776311Y-103345945D01*
X84776572Y-103343962D01*
X84778420Y-103343197D01*
X84779705Y-103343911D01*
G37*
G36*
X81779705Y-103343911D02*
G01*
X81789711Y-103356104D01*
X81804560Y-103368290D01*
X81821501Y-103377345D01*
X81839886Y-103382923D01*
X81859000Y-103384805D01*
X81878114Y-103382922D01*
X81896499Y-103377345D01*
X81913441Y-103368290D01*
X81928289Y-103356104D01*
X81938295Y-103343911D01*
X81940167Y-103343207D01*
X81941713Y-103344475D01*
X81941689Y-103345945D01*
X81906377Y-103431197D01*
X81888287Y-103522141D01*
X81888287Y-103614859D01*
X81906377Y-103705803D01*
X81941689Y-103791055D01*
X81941428Y-103793038D01*
X81939580Y-103793803D01*
X81938295Y-103793089D01*
X81928289Y-103780896D01*
X81913440Y-103768710D01*
X81896499Y-103759655D01*
X81878114Y-103754077D01*
X81859000Y-103752195D01*
X81839886Y-103754078D01*
X81821501Y-103759655D01*
X81804559Y-103768710D01*
X81789711Y-103780896D01*
X81779705Y-103793089D01*
X81777833Y-103793793D01*
X81776287Y-103792525D01*
X81776311Y-103791055D01*
X81811623Y-103705803D01*
X81829713Y-103614859D01*
X81829713Y-103522141D01*
X81811623Y-103431197D01*
X81776311Y-103345945D01*
X81776572Y-103343962D01*
X81778420Y-103343197D01*
X81779705Y-103343911D01*
G37*
G36*
X83779705Y-103343911D02*
G01*
X83789711Y-103356104D01*
X83804560Y-103368290D01*
X83821501Y-103377345D01*
X83839886Y-103382923D01*
X83859000Y-103384805D01*
X83878114Y-103382922D01*
X83896499Y-103377345D01*
X83913441Y-103368290D01*
X83928289Y-103356104D01*
X83938295Y-103343911D01*
X83940167Y-103343207D01*
X83941713Y-103344475D01*
X83941689Y-103345945D01*
X83906377Y-103431197D01*
X83888287Y-103522141D01*
X83888287Y-103614859D01*
X83906377Y-103705803D01*
X83941689Y-103791055D01*
X83941428Y-103793038D01*
X83939580Y-103793803D01*
X83938295Y-103793089D01*
X83928289Y-103780896D01*
X83913440Y-103768710D01*
X83896499Y-103759655D01*
X83878114Y-103754077D01*
X83859000Y-103752195D01*
X83839886Y-103754078D01*
X83821501Y-103759655D01*
X83804559Y-103768710D01*
X83789711Y-103780896D01*
X83779705Y-103793089D01*
X83777833Y-103793793D01*
X83776287Y-103792525D01*
X83776311Y-103791055D01*
X83811623Y-103705803D01*
X83829713Y-103614859D01*
X83829713Y-103522141D01*
X83811623Y-103431197D01*
X83776311Y-103345945D01*
X83776572Y-103343962D01*
X83778420Y-103343197D01*
X83779705Y-103343911D01*
G37*
G36*
X86779705Y-103343911D02*
G01*
X86789711Y-103356104D01*
X86804560Y-103368290D01*
X86821501Y-103377345D01*
X86839886Y-103382923D01*
X86859000Y-103384805D01*
X86878114Y-103382922D01*
X86896499Y-103377345D01*
X86913441Y-103368290D01*
X86928289Y-103356104D01*
X86938295Y-103343911D01*
X86940167Y-103343207D01*
X86941713Y-103344475D01*
X86941689Y-103345945D01*
X86906377Y-103431197D01*
X86888287Y-103522141D01*
X86888287Y-103614859D01*
X86906377Y-103705803D01*
X86941689Y-103791055D01*
X86941428Y-103793038D01*
X86939580Y-103793803D01*
X86938295Y-103793089D01*
X86928289Y-103780896D01*
X86913440Y-103768710D01*
X86896499Y-103759655D01*
X86878114Y-103754077D01*
X86859000Y-103752195D01*
X86839886Y-103754078D01*
X86821501Y-103759655D01*
X86804559Y-103768710D01*
X86789711Y-103780896D01*
X86779705Y-103793089D01*
X86777833Y-103793793D01*
X86776287Y-103792525D01*
X86776311Y-103791055D01*
X86811623Y-103705803D01*
X86829713Y-103614859D01*
X86829713Y-103522141D01*
X86811623Y-103431197D01*
X86776311Y-103345945D01*
X86776572Y-103343962D01*
X86778420Y-103343197D01*
X86779705Y-103343911D01*
G37*
G36*
X82779705Y-103343911D02*
G01*
X82789711Y-103356104D01*
X82804560Y-103368290D01*
X82821501Y-103377345D01*
X82839886Y-103382923D01*
X82859000Y-103384805D01*
X82878114Y-103382922D01*
X82896499Y-103377345D01*
X82913441Y-103368290D01*
X82928289Y-103356104D01*
X82938295Y-103343911D01*
X82940167Y-103343207D01*
X82941713Y-103344475D01*
X82941689Y-103345945D01*
X82906377Y-103431197D01*
X82888287Y-103522141D01*
X82888287Y-103614859D01*
X82906377Y-103705803D01*
X82941689Y-103791055D01*
X82941428Y-103793038D01*
X82939580Y-103793803D01*
X82938295Y-103793089D01*
X82928289Y-103780896D01*
X82913440Y-103768710D01*
X82896499Y-103759655D01*
X82878114Y-103754077D01*
X82859000Y-103752195D01*
X82839886Y-103754078D01*
X82821501Y-103759655D01*
X82804559Y-103768710D01*
X82789711Y-103780896D01*
X82779705Y-103793089D01*
X82777833Y-103793793D01*
X82776287Y-103792525D01*
X82776311Y-103791055D01*
X82811623Y-103705803D01*
X82829713Y-103614859D01*
X82829713Y-103522141D01*
X82811623Y-103431197D01*
X82776311Y-103345945D01*
X82776572Y-103343962D01*
X82778420Y-103343197D01*
X82779705Y-103343911D01*
G37*
G36*
X79779705Y-103343911D02*
G01*
X79789711Y-103356104D01*
X79804560Y-103368290D01*
X79821501Y-103377345D01*
X79839886Y-103382923D01*
X79859000Y-103384805D01*
X79878114Y-103382922D01*
X79896499Y-103377345D01*
X79913441Y-103368290D01*
X79928289Y-103356104D01*
X79938295Y-103343911D01*
X79940167Y-103343207D01*
X79941713Y-103344475D01*
X79941689Y-103345945D01*
X79906377Y-103431197D01*
X79888287Y-103522141D01*
X79888287Y-103614859D01*
X79906377Y-103705803D01*
X79941689Y-103791055D01*
X79941428Y-103793038D01*
X79939580Y-103793803D01*
X79938295Y-103793089D01*
X79928289Y-103780896D01*
X79913440Y-103768710D01*
X79896499Y-103759655D01*
X79878114Y-103754077D01*
X79859000Y-103752195D01*
X79839886Y-103754078D01*
X79821501Y-103759655D01*
X79804559Y-103768710D01*
X79789711Y-103780896D01*
X79779705Y-103793089D01*
X79777833Y-103793793D01*
X79776287Y-103792525D01*
X79776311Y-103791055D01*
X79811623Y-103705803D01*
X79829713Y-103614859D01*
X79829713Y-103522141D01*
X79811623Y-103431197D01*
X79776311Y-103345945D01*
X79776572Y-103343962D01*
X79778420Y-103343197D01*
X79779705Y-103343911D01*
G37*
G36*
X85779705Y-103343911D02*
G01*
X85789711Y-103356104D01*
X85804560Y-103368290D01*
X85821501Y-103377345D01*
X85839886Y-103382923D01*
X85859000Y-103384805D01*
X85878114Y-103382922D01*
X85896499Y-103377345D01*
X85913441Y-103368290D01*
X85928289Y-103356104D01*
X85938295Y-103343911D01*
X85940167Y-103343207D01*
X85941713Y-103344475D01*
X85941689Y-103345945D01*
X85906377Y-103431197D01*
X85888287Y-103522141D01*
X85888287Y-103614859D01*
X85906377Y-103705803D01*
X85941689Y-103791055D01*
X85941428Y-103793038D01*
X85939580Y-103793803D01*
X85938295Y-103793089D01*
X85928289Y-103780896D01*
X85913440Y-103768710D01*
X85896499Y-103759655D01*
X85878114Y-103754077D01*
X85859000Y-103752195D01*
X85839886Y-103754078D01*
X85821501Y-103759655D01*
X85804559Y-103768710D01*
X85789711Y-103780896D01*
X85779705Y-103793089D01*
X85777833Y-103793793D01*
X85776287Y-103792525D01*
X85776311Y-103791055D01*
X85811623Y-103705803D01*
X85829713Y-103614859D01*
X85829713Y-103522141D01*
X85811623Y-103431197D01*
X85776311Y-103345945D01*
X85776572Y-103343962D01*
X85778420Y-103343197D01*
X85779705Y-103343911D01*
G37*
G36*
X80779705Y-103343911D02*
G01*
X80789711Y-103356104D01*
X80804560Y-103368290D01*
X80821501Y-103377345D01*
X80839886Y-103382923D01*
X80859000Y-103384805D01*
X80878114Y-103382922D01*
X80896499Y-103377345D01*
X80913441Y-103368290D01*
X80928289Y-103356104D01*
X80938295Y-103343911D01*
X80940167Y-103343207D01*
X80941713Y-103344475D01*
X80941689Y-103345945D01*
X80906377Y-103431197D01*
X80888287Y-103522141D01*
X80888287Y-103614859D01*
X80906377Y-103705803D01*
X80941689Y-103791055D01*
X80941428Y-103793038D01*
X80939580Y-103793803D01*
X80938295Y-103793089D01*
X80928289Y-103780896D01*
X80913440Y-103768710D01*
X80896499Y-103759655D01*
X80878114Y-103754077D01*
X80859000Y-103752195D01*
X80839886Y-103754078D01*
X80821501Y-103759655D01*
X80804559Y-103768710D01*
X80789711Y-103780896D01*
X80779705Y-103793089D01*
X80777833Y-103793793D01*
X80776287Y-103792525D01*
X80776311Y-103791055D01*
X80811623Y-103705803D01*
X80829713Y-103614859D01*
X80829713Y-103522141D01*
X80811623Y-103431197D01*
X80776311Y-103345945D01*
X80776572Y-103343962D01*
X80778420Y-103343197D01*
X80779705Y-103343911D01*
G37*
G36*
X78835990Y-98929549D02*
G01*
X78837891Y-98948859D01*
X78843469Y-98967244D01*
X78852524Y-98984185D01*
X78864710Y-98999034D01*
X78879559Y-99011220D01*
X78896500Y-99020275D01*
X78914885Y-99025853D01*
X78933999Y-99027735D01*
X78953113Y-99025853D01*
X78971498Y-99020275D01*
X78988439Y-99011220D01*
X78999643Y-99002025D01*
X79001617Y-99001699D01*
X79002885Y-99003245D01*
X79002326Y-99004985D01*
X78993374Y-99013937D01*
X78941860Y-99091034D01*
X78906377Y-99176697D01*
X78888287Y-99267641D01*
X78888287Y-99360359D01*
X78906377Y-99451303D01*
X78941860Y-99536966D01*
X78993374Y-99614063D01*
X79002326Y-99623015D01*
X79002844Y-99624947D01*
X79001430Y-99626361D01*
X78999643Y-99625975D01*
X78988439Y-99616780D01*
X78971498Y-99607725D01*
X78953113Y-99602147D01*
X78933999Y-99600265D01*
X78914885Y-99602147D01*
X78896500Y-99607725D01*
X78879559Y-99616780D01*
X78864710Y-99628966D01*
X78852524Y-99643815D01*
X78843469Y-99660756D01*
X78837891Y-99679141D01*
X78835990Y-99698451D01*
X78834825Y-99700077D01*
X78832835Y-99699881D01*
X78832000Y-99698255D01*
X78832000Y-98929745D01*
X78833000Y-98928013D01*
X78835000Y-98928013D01*
X78835990Y-98929549D01*
G37*
G36*
X80779705Y-99089411D02*
G01*
X80789711Y-99101604D01*
X80804560Y-99113790D01*
X80821501Y-99122845D01*
X80839886Y-99128423D01*
X80859000Y-99130305D01*
X80878114Y-99128422D01*
X80896499Y-99122845D01*
X80913441Y-99113790D01*
X80928289Y-99101604D01*
X80938295Y-99089411D01*
X80940167Y-99088707D01*
X80941713Y-99089975D01*
X80941689Y-99091445D01*
X80906377Y-99176697D01*
X80888287Y-99267641D01*
X80888287Y-99360359D01*
X80906377Y-99451303D01*
X80941689Y-99536555D01*
X80941428Y-99538538D01*
X80939580Y-99539303D01*
X80938295Y-99538589D01*
X80928289Y-99526396D01*
X80913440Y-99514210D01*
X80896499Y-99505155D01*
X80878114Y-99499577D01*
X80859000Y-99497695D01*
X80839886Y-99499578D01*
X80821501Y-99505155D01*
X80804559Y-99514210D01*
X80789711Y-99526396D01*
X80779705Y-99538589D01*
X80777833Y-99539293D01*
X80776287Y-99538025D01*
X80776311Y-99536555D01*
X80811623Y-99451303D01*
X80829713Y-99360359D01*
X80829713Y-99267641D01*
X80811623Y-99176697D01*
X80776311Y-99091445D01*
X80776572Y-99089462D01*
X80778420Y-99088697D01*
X80779705Y-99089411D01*
G37*
G36*
X79779705Y-99089411D02*
G01*
X79789711Y-99101604D01*
X79804560Y-99113790D01*
X79821501Y-99122845D01*
X79839886Y-99128423D01*
X79859000Y-99130305D01*
X79878114Y-99128422D01*
X79896499Y-99122845D01*
X79913441Y-99113790D01*
X79928289Y-99101604D01*
X79938295Y-99089411D01*
X79940167Y-99088707D01*
X79941713Y-99089975D01*
X79941689Y-99091445D01*
X79906377Y-99176697D01*
X79888287Y-99267641D01*
X79888287Y-99360359D01*
X79906377Y-99451303D01*
X79941689Y-99536555D01*
X79941428Y-99538538D01*
X79939580Y-99539303D01*
X79938295Y-99538589D01*
X79928289Y-99526396D01*
X79913440Y-99514210D01*
X79896499Y-99505155D01*
X79878114Y-99499577D01*
X79859000Y-99497695D01*
X79839886Y-99499578D01*
X79821501Y-99505155D01*
X79804559Y-99514210D01*
X79789711Y-99526396D01*
X79779705Y-99538589D01*
X79777833Y-99539293D01*
X79776287Y-99538025D01*
X79776311Y-99536555D01*
X79811623Y-99451303D01*
X79829713Y-99360359D01*
X79829713Y-99267641D01*
X79811623Y-99176697D01*
X79776311Y-99091445D01*
X79776572Y-99089462D01*
X79778420Y-99088697D01*
X79779705Y-99089411D01*
G37*
G36*
X86779705Y-99089411D02*
G01*
X86789711Y-99101604D01*
X86804560Y-99113790D01*
X86821501Y-99122845D01*
X86839886Y-99128423D01*
X86859000Y-99130305D01*
X86878114Y-99128422D01*
X86896499Y-99122845D01*
X86913441Y-99113790D01*
X86928289Y-99101604D01*
X86938295Y-99089411D01*
X86940167Y-99088707D01*
X86941713Y-99089975D01*
X86941689Y-99091445D01*
X86906377Y-99176697D01*
X86888287Y-99267641D01*
X86888287Y-99360359D01*
X86906377Y-99451303D01*
X86941689Y-99536555D01*
X86941428Y-99538538D01*
X86939580Y-99539303D01*
X86938295Y-99538589D01*
X86928289Y-99526396D01*
X86913440Y-99514210D01*
X86896499Y-99505155D01*
X86878114Y-99499577D01*
X86859000Y-99497695D01*
X86839886Y-99499578D01*
X86821501Y-99505155D01*
X86804559Y-99514210D01*
X86789711Y-99526396D01*
X86779705Y-99538589D01*
X86777833Y-99539293D01*
X86776287Y-99538025D01*
X86776311Y-99536555D01*
X86811623Y-99451303D01*
X86829713Y-99360359D01*
X86829713Y-99267641D01*
X86811623Y-99176697D01*
X86776311Y-99091445D01*
X86776572Y-99089462D01*
X86778420Y-99088697D01*
X86779705Y-99089411D01*
G37*
G36*
X85779705Y-99089411D02*
G01*
X85789711Y-99101604D01*
X85804560Y-99113790D01*
X85821501Y-99122845D01*
X85839886Y-99128423D01*
X85859000Y-99130305D01*
X85878114Y-99128422D01*
X85896499Y-99122845D01*
X85913441Y-99113790D01*
X85928289Y-99101604D01*
X85938295Y-99089411D01*
X85940167Y-99088707D01*
X85941713Y-99089975D01*
X85941689Y-99091445D01*
X85906377Y-99176697D01*
X85888287Y-99267641D01*
X85888287Y-99360359D01*
X85906377Y-99451303D01*
X85941689Y-99536555D01*
X85941428Y-99538538D01*
X85939580Y-99539303D01*
X85938295Y-99538589D01*
X85928289Y-99526396D01*
X85913440Y-99514210D01*
X85896499Y-99505155D01*
X85878114Y-99499577D01*
X85859000Y-99497695D01*
X85839886Y-99499578D01*
X85821501Y-99505155D01*
X85804559Y-99514210D01*
X85789711Y-99526396D01*
X85779705Y-99538589D01*
X85777833Y-99539293D01*
X85776287Y-99538025D01*
X85776311Y-99536555D01*
X85811623Y-99451303D01*
X85829713Y-99360359D01*
X85829713Y-99267641D01*
X85811623Y-99176697D01*
X85776311Y-99091445D01*
X85776572Y-99089462D01*
X85778420Y-99088697D01*
X85779705Y-99089411D01*
G37*
G36*
X84779705Y-99089411D02*
G01*
X84789711Y-99101604D01*
X84804560Y-99113790D01*
X84821501Y-99122845D01*
X84839886Y-99128423D01*
X84859000Y-99130305D01*
X84878114Y-99128422D01*
X84896499Y-99122845D01*
X84913441Y-99113790D01*
X84928289Y-99101604D01*
X84938295Y-99089411D01*
X84940167Y-99088707D01*
X84941713Y-99089975D01*
X84941689Y-99091445D01*
X84906377Y-99176697D01*
X84888287Y-99267641D01*
X84888287Y-99360359D01*
X84906377Y-99451303D01*
X84941689Y-99536555D01*
X84941428Y-99538538D01*
X84939580Y-99539303D01*
X84938295Y-99538589D01*
X84928289Y-99526396D01*
X84913440Y-99514210D01*
X84896499Y-99505155D01*
X84878114Y-99499577D01*
X84859000Y-99497695D01*
X84839886Y-99499578D01*
X84821501Y-99505155D01*
X84804559Y-99514210D01*
X84789711Y-99526396D01*
X84779705Y-99538589D01*
X84777833Y-99539293D01*
X84776287Y-99538025D01*
X84776311Y-99536555D01*
X84811623Y-99451303D01*
X84829713Y-99360359D01*
X84829713Y-99267641D01*
X84811623Y-99176697D01*
X84776311Y-99091445D01*
X84776572Y-99089462D01*
X84778420Y-99088697D01*
X84779705Y-99089411D01*
G37*
G36*
X82779705Y-99089411D02*
G01*
X82789711Y-99101604D01*
X82804560Y-99113790D01*
X82821501Y-99122845D01*
X82839886Y-99128423D01*
X82859000Y-99130305D01*
X82878114Y-99128422D01*
X82896499Y-99122845D01*
X82913441Y-99113790D01*
X82928289Y-99101604D01*
X82938295Y-99089411D01*
X82940167Y-99088707D01*
X82941713Y-99089975D01*
X82941689Y-99091445D01*
X82906377Y-99176697D01*
X82888287Y-99267641D01*
X82888287Y-99360359D01*
X82906377Y-99451303D01*
X82941689Y-99536555D01*
X82941428Y-99538538D01*
X82939580Y-99539303D01*
X82938295Y-99538589D01*
X82928289Y-99526396D01*
X82913440Y-99514210D01*
X82896499Y-99505155D01*
X82878114Y-99499577D01*
X82859000Y-99497695D01*
X82839886Y-99499578D01*
X82821501Y-99505155D01*
X82804559Y-99514210D01*
X82789711Y-99526396D01*
X82779705Y-99538589D01*
X82777833Y-99539293D01*
X82776287Y-99538025D01*
X82776311Y-99536555D01*
X82811623Y-99451303D01*
X82829713Y-99360359D01*
X82829713Y-99267641D01*
X82811623Y-99176697D01*
X82776311Y-99091445D01*
X82776572Y-99089462D01*
X82778420Y-99088697D01*
X82779705Y-99089411D01*
G37*
G36*
X83779705Y-99089411D02*
G01*
X83789711Y-99101604D01*
X83804560Y-99113790D01*
X83821501Y-99122845D01*
X83839886Y-99128423D01*
X83859000Y-99130305D01*
X83878114Y-99128422D01*
X83896499Y-99122845D01*
X83913441Y-99113790D01*
X83928289Y-99101604D01*
X83938295Y-99089411D01*
X83940167Y-99088707D01*
X83941713Y-99089975D01*
X83941689Y-99091445D01*
X83906377Y-99176697D01*
X83888287Y-99267641D01*
X83888287Y-99360359D01*
X83906377Y-99451303D01*
X83941689Y-99536555D01*
X83941428Y-99538538D01*
X83939580Y-99539303D01*
X83938295Y-99538589D01*
X83928289Y-99526396D01*
X83913440Y-99514210D01*
X83896499Y-99505155D01*
X83878114Y-99499577D01*
X83859000Y-99497695D01*
X83839886Y-99499578D01*
X83821501Y-99505155D01*
X83804559Y-99514210D01*
X83789711Y-99526396D01*
X83779705Y-99538589D01*
X83777833Y-99539293D01*
X83776287Y-99538025D01*
X83776311Y-99536555D01*
X83811623Y-99451303D01*
X83829713Y-99360359D01*
X83829713Y-99267641D01*
X83811623Y-99176697D01*
X83776311Y-99091445D01*
X83776572Y-99089462D01*
X83778420Y-99088697D01*
X83779705Y-99089411D01*
G37*
G36*
X81779705Y-99089411D02*
G01*
X81789711Y-99101604D01*
X81804560Y-99113790D01*
X81821501Y-99122845D01*
X81839886Y-99128423D01*
X81859000Y-99130305D01*
X81878114Y-99128422D01*
X81896499Y-99122845D01*
X81913441Y-99113790D01*
X81928289Y-99101604D01*
X81938295Y-99089411D01*
X81940167Y-99088707D01*
X81941713Y-99089975D01*
X81941689Y-99091445D01*
X81906377Y-99176697D01*
X81888287Y-99267641D01*
X81888287Y-99360359D01*
X81906377Y-99451303D01*
X81941689Y-99536555D01*
X81941428Y-99538538D01*
X81939580Y-99539303D01*
X81938295Y-99538589D01*
X81928289Y-99526396D01*
X81913440Y-99514210D01*
X81896499Y-99505155D01*
X81878114Y-99499577D01*
X81859000Y-99497695D01*
X81839886Y-99499578D01*
X81821501Y-99505155D01*
X81804559Y-99514210D01*
X81789711Y-99526396D01*
X81779705Y-99538589D01*
X81777833Y-99539293D01*
X81776287Y-99538025D01*
X81776311Y-99536555D01*
X81811623Y-99451303D01*
X81829713Y-99360359D01*
X81829713Y-99267641D01*
X81811623Y-99176697D01*
X81776311Y-99091445D01*
X81776572Y-99089462D01*
X81778420Y-99088697D01*
X81779705Y-99089411D01*
G37*
G36*
X78899490Y-94040049D02*
G01*
X78901391Y-94059359D01*
X78906969Y-94077744D01*
X78916024Y-94094685D01*
X78928210Y-94109534D01*
X78943059Y-94121720D01*
X78960000Y-94130775D01*
X78978385Y-94136353D01*
X78997499Y-94138235D01*
X79016613Y-94136353D01*
X79034998Y-94130775D01*
X79051939Y-94121720D01*
X79063143Y-94112525D01*
X79065117Y-94112199D01*
X79066385Y-94113745D01*
X79065826Y-94115485D01*
X79056874Y-94124437D01*
X79005360Y-94201534D01*
X78969877Y-94287197D01*
X78951787Y-94378141D01*
X78951787Y-94470859D01*
X78969877Y-94561803D01*
X79005360Y-94647466D01*
X79056874Y-94724563D01*
X79065826Y-94733515D01*
X79066344Y-94735447D01*
X79064930Y-94736861D01*
X79063143Y-94736475D01*
X79051939Y-94727280D01*
X79034998Y-94718225D01*
X79016613Y-94712647D01*
X78997499Y-94710765D01*
X78978385Y-94712647D01*
X78960000Y-94718225D01*
X78943059Y-94727280D01*
X78928210Y-94739466D01*
X78916024Y-94754315D01*
X78906969Y-94771256D01*
X78901391Y-94789641D01*
X78899490Y-94808951D01*
X78898325Y-94810577D01*
X78896335Y-94810381D01*
X78895500Y-94808755D01*
X78895500Y-94040245D01*
X78896500Y-94038513D01*
X78898500Y-94038513D01*
X78899490Y-94040049D01*
G37*
G36*
X80843205Y-94199911D02*
G01*
X80853211Y-94212104D01*
X80868060Y-94224290D01*
X80885001Y-94233345D01*
X80903386Y-94238923D01*
X80922500Y-94240805D01*
X80941614Y-94238922D01*
X80959999Y-94233345D01*
X80976941Y-94224290D01*
X80991789Y-94212104D01*
X81001795Y-94199911D01*
X81003667Y-94199207D01*
X81005213Y-94200475D01*
X81005189Y-94201945D01*
X80969877Y-94287197D01*
X80951787Y-94378141D01*
X80951787Y-94470859D01*
X80969877Y-94561803D01*
X81005189Y-94647055D01*
X81004928Y-94649038D01*
X81003080Y-94649803D01*
X81001795Y-94649089D01*
X80991789Y-94636896D01*
X80976940Y-94624710D01*
X80959999Y-94615655D01*
X80941614Y-94610077D01*
X80922500Y-94608195D01*
X80903386Y-94610078D01*
X80885001Y-94615655D01*
X80868059Y-94624710D01*
X80853211Y-94636896D01*
X80843205Y-94649089D01*
X80841333Y-94649793D01*
X80839787Y-94648525D01*
X80839811Y-94647055D01*
X80875123Y-94561803D01*
X80893213Y-94470859D01*
X80893213Y-94378141D01*
X80875123Y-94287197D01*
X80839811Y-94201945D01*
X80840072Y-94199962D01*
X80841920Y-94199197D01*
X80843205Y-94199911D01*
G37*
G36*
X79843205Y-94199911D02*
G01*
X79853211Y-94212104D01*
X79868060Y-94224290D01*
X79885001Y-94233345D01*
X79903386Y-94238923D01*
X79922500Y-94240805D01*
X79941614Y-94238922D01*
X79959999Y-94233345D01*
X79976941Y-94224290D01*
X79991789Y-94212104D01*
X80001795Y-94199911D01*
X80003667Y-94199207D01*
X80005213Y-94200475D01*
X80005189Y-94201945D01*
X79969877Y-94287197D01*
X79951787Y-94378141D01*
X79951787Y-94470859D01*
X79969877Y-94561803D01*
X80005189Y-94647055D01*
X80004928Y-94649038D01*
X80003080Y-94649803D01*
X80001795Y-94649089D01*
X79991789Y-94636896D01*
X79976940Y-94624710D01*
X79959999Y-94615655D01*
X79941614Y-94610077D01*
X79922500Y-94608195D01*
X79903386Y-94610078D01*
X79885001Y-94615655D01*
X79868059Y-94624710D01*
X79853211Y-94636896D01*
X79843205Y-94649089D01*
X79841333Y-94649793D01*
X79839787Y-94648525D01*
X79839811Y-94647055D01*
X79875123Y-94561803D01*
X79893213Y-94470859D01*
X79893213Y-94378141D01*
X79875123Y-94287197D01*
X79839811Y-94201945D01*
X79840072Y-94199962D01*
X79841920Y-94199197D01*
X79843205Y-94199911D01*
G37*
G36*
X84843205Y-94199911D02*
G01*
X84853211Y-94212104D01*
X84868060Y-94224290D01*
X84885001Y-94233345D01*
X84903386Y-94238923D01*
X84922500Y-94240805D01*
X84941614Y-94238922D01*
X84959999Y-94233345D01*
X84976941Y-94224290D01*
X84991789Y-94212104D01*
X85001795Y-94199911D01*
X85003667Y-94199207D01*
X85005213Y-94200475D01*
X85005189Y-94201945D01*
X84969877Y-94287197D01*
X84951787Y-94378141D01*
X84951787Y-94470859D01*
X84969877Y-94561803D01*
X85005189Y-94647055D01*
X85004928Y-94649038D01*
X85003080Y-94649803D01*
X85001795Y-94649089D01*
X84991789Y-94636896D01*
X84976940Y-94624710D01*
X84959999Y-94615655D01*
X84941614Y-94610077D01*
X84922500Y-94608195D01*
X84903386Y-94610078D01*
X84885001Y-94615655D01*
X84868059Y-94624710D01*
X84853211Y-94636896D01*
X84843205Y-94649089D01*
X84841333Y-94649793D01*
X84839787Y-94648525D01*
X84839811Y-94647055D01*
X84875123Y-94561803D01*
X84893213Y-94470859D01*
X84893213Y-94378141D01*
X84875123Y-94287197D01*
X84839811Y-94201945D01*
X84840072Y-94199962D01*
X84841920Y-94199197D01*
X84843205Y-94199911D01*
G37*
G36*
X86843205Y-94199911D02*
G01*
X86853211Y-94212104D01*
X86868060Y-94224290D01*
X86885001Y-94233345D01*
X86903386Y-94238923D01*
X86922500Y-94240805D01*
X86941614Y-94238922D01*
X86959999Y-94233345D01*
X86976941Y-94224290D01*
X86991789Y-94212104D01*
X87001795Y-94199911D01*
X87003667Y-94199207D01*
X87005213Y-94200475D01*
X87005189Y-94201945D01*
X86969877Y-94287197D01*
X86951787Y-94378141D01*
X86951787Y-94470859D01*
X86969877Y-94561803D01*
X87005189Y-94647055D01*
X87004928Y-94649038D01*
X87003080Y-94649803D01*
X87001795Y-94649089D01*
X86991789Y-94636896D01*
X86976940Y-94624710D01*
X86959999Y-94615655D01*
X86941614Y-94610077D01*
X86922500Y-94608195D01*
X86903386Y-94610078D01*
X86885001Y-94615655D01*
X86868059Y-94624710D01*
X86853211Y-94636896D01*
X86843205Y-94649089D01*
X86841333Y-94649793D01*
X86839787Y-94648525D01*
X86839811Y-94647055D01*
X86875123Y-94561803D01*
X86893213Y-94470859D01*
X86893213Y-94378141D01*
X86875123Y-94287197D01*
X86839811Y-94201945D01*
X86840072Y-94199962D01*
X86841920Y-94199197D01*
X86843205Y-94199911D01*
G37*
G36*
X85843205Y-94199911D02*
G01*
X85853211Y-94212104D01*
X85868060Y-94224290D01*
X85885001Y-94233345D01*
X85903386Y-94238923D01*
X85922500Y-94240805D01*
X85941614Y-94238922D01*
X85959999Y-94233345D01*
X85976941Y-94224290D01*
X85991789Y-94212104D01*
X86001795Y-94199911D01*
X86003667Y-94199207D01*
X86005213Y-94200475D01*
X86005189Y-94201945D01*
X85969877Y-94287197D01*
X85951787Y-94378141D01*
X85951787Y-94470859D01*
X85969877Y-94561803D01*
X86005189Y-94647055D01*
X86004928Y-94649038D01*
X86003080Y-94649803D01*
X86001795Y-94649089D01*
X85991789Y-94636896D01*
X85976940Y-94624710D01*
X85959999Y-94615655D01*
X85941614Y-94610077D01*
X85922500Y-94608195D01*
X85903386Y-94610078D01*
X85885001Y-94615655D01*
X85868059Y-94624710D01*
X85853211Y-94636896D01*
X85843205Y-94649089D01*
X85841333Y-94649793D01*
X85839787Y-94648525D01*
X85839811Y-94647055D01*
X85875123Y-94561803D01*
X85893213Y-94470859D01*
X85893213Y-94378141D01*
X85875123Y-94287197D01*
X85839811Y-94201945D01*
X85840072Y-94199962D01*
X85841920Y-94199197D01*
X85843205Y-94199911D01*
G37*
G36*
X81843205Y-94199911D02*
G01*
X81853211Y-94212104D01*
X81868060Y-94224290D01*
X81885001Y-94233345D01*
X81903386Y-94238923D01*
X81922500Y-94240805D01*
X81941614Y-94238922D01*
X81959999Y-94233345D01*
X81976941Y-94224290D01*
X81991789Y-94212104D01*
X82001795Y-94199911D01*
X82003667Y-94199207D01*
X82005213Y-94200475D01*
X82005189Y-94201945D01*
X81969877Y-94287197D01*
X81951787Y-94378141D01*
X81951787Y-94470859D01*
X81969877Y-94561803D01*
X82005189Y-94647055D01*
X82004928Y-94649038D01*
X82003080Y-94649803D01*
X82001795Y-94649089D01*
X81991789Y-94636896D01*
X81976940Y-94624710D01*
X81959999Y-94615655D01*
X81941614Y-94610077D01*
X81922500Y-94608195D01*
X81903386Y-94610078D01*
X81885001Y-94615655D01*
X81868059Y-94624710D01*
X81853211Y-94636896D01*
X81843205Y-94649089D01*
X81841333Y-94649793D01*
X81839787Y-94648525D01*
X81839811Y-94647055D01*
X81875123Y-94561803D01*
X81893213Y-94470859D01*
X81893213Y-94378141D01*
X81875123Y-94287197D01*
X81839811Y-94201945D01*
X81840072Y-94199962D01*
X81841920Y-94199197D01*
X81843205Y-94199911D01*
G37*
G36*
X82843205Y-94199911D02*
G01*
X82853211Y-94212104D01*
X82868060Y-94224290D01*
X82885001Y-94233345D01*
X82903386Y-94238923D01*
X82922500Y-94240805D01*
X82941614Y-94238922D01*
X82959999Y-94233345D01*
X82976941Y-94224290D01*
X82991789Y-94212104D01*
X83001795Y-94199911D01*
X83003667Y-94199207D01*
X83005213Y-94200475D01*
X83005189Y-94201945D01*
X82969877Y-94287197D01*
X82951787Y-94378141D01*
X82951787Y-94470859D01*
X82969877Y-94561803D01*
X83005189Y-94647055D01*
X83004928Y-94649038D01*
X83003080Y-94649803D01*
X83001795Y-94649089D01*
X82991789Y-94636896D01*
X82976940Y-94624710D01*
X82959999Y-94615655D01*
X82941614Y-94610077D01*
X82922500Y-94608195D01*
X82903386Y-94610078D01*
X82885001Y-94615655D01*
X82868059Y-94624710D01*
X82853211Y-94636896D01*
X82843205Y-94649089D01*
X82841333Y-94649793D01*
X82839787Y-94648525D01*
X82839811Y-94647055D01*
X82875123Y-94561803D01*
X82893213Y-94470859D01*
X82893213Y-94378141D01*
X82875123Y-94287197D01*
X82839811Y-94201945D01*
X82840072Y-94199962D01*
X82841920Y-94199197D01*
X82843205Y-94199911D01*
G37*
G36*
X83843205Y-94199911D02*
G01*
X83853211Y-94212104D01*
X83868060Y-94224290D01*
X83885001Y-94233345D01*
X83903386Y-94238923D01*
X83922500Y-94240805D01*
X83941614Y-94238922D01*
X83959999Y-94233345D01*
X83976941Y-94224290D01*
X83991789Y-94212104D01*
X84001795Y-94199911D01*
X84003667Y-94199207D01*
X84005213Y-94200475D01*
X84005189Y-94201945D01*
X83969877Y-94287197D01*
X83951787Y-94378141D01*
X83951787Y-94470859D01*
X83969877Y-94561803D01*
X84005189Y-94647055D01*
X84004928Y-94649038D01*
X84003080Y-94649803D01*
X84001795Y-94649089D01*
X83991789Y-94636896D01*
X83976940Y-94624710D01*
X83959999Y-94615655D01*
X83941614Y-94610077D01*
X83922500Y-94608195D01*
X83903386Y-94610078D01*
X83885001Y-94615655D01*
X83868059Y-94624710D01*
X83853211Y-94636896D01*
X83843205Y-94649089D01*
X83841333Y-94649793D01*
X83839787Y-94648525D01*
X83839811Y-94647055D01*
X83875123Y-94561803D01*
X83893213Y-94470859D01*
X83893213Y-94378141D01*
X83875123Y-94287197D01*
X83839811Y-94201945D01*
X83840072Y-94199962D01*
X83841920Y-94199197D01*
X83843205Y-94199911D01*
G37*
G36*
X153761769Y-78621192D02*
G01*
X153761919Y-78623013D01*
X153732760Y-78693411D01*
X153709889Y-78808389D01*
X153709889Y-78925611D01*
X153732760Y-79040589D01*
X153761919Y-79110986D01*
X153761658Y-79112969D01*
X153759810Y-79113734D01*
X153758307Y-79112694D01*
X153751475Y-79099911D01*
X153739289Y-79085063D01*
X153724440Y-79072877D01*
X153707499Y-79063822D01*
X153689114Y-79058244D01*
X153670000Y-79056362D01*
X153650886Y-79058245D01*
X153632501Y-79063822D01*
X153615559Y-79072877D01*
X153600711Y-79085063D01*
X153588525Y-79099912D01*
X153581693Y-79112695D01*
X153579994Y-79113751D01*
X153578231Y-79112808D01*
X153578081Y-79110987D01*
X153607240Y-79040589D01*
X153630111Y-78925611D01*
X153630111Y-78808389D01*
X153607240Y-78693411D01*
X153578081Y-78623014D01*
X153578342Y-78621031D01*
X153580190Y-78620266D01*
X153581693Y-78621306D01*
X153588525Y-78634089D01*
X153600711Y-78648937D01*
X153615560Y-78661123D01*
X153632501Y-78670178D01*
X153650886Y-78675756D01*
X153670000Y-78677638D01*
X153689114Y-78675755D01*
X153707499Y-78670178D01*
X153724441Y-78661123D01*
X153739289Y-78648937D01*
X153751475Y-78634088D01*
X153758307Y-78621305D01*
X153760006Y-78620249D01*
X153761769Y-78621192D01*
G37*
G36*
X151221769Y-78621192D02*
G01*
X151221919Y-78623013D01*
X151192760Y-78693411D01*
X151169889Y-78808389D01*
X151169889Y-78925611D01*
X151192760Y-79040589D01*
X151221919Y-79110986D01*
X151221658Y-79112969D01*
X151219810Y-79113734D01*
X151218307Y-79112694D01*
X151211475Y-79099911D01*
X151199289Y-79085063D01*
X151184440Y-79072877D01*
X151167499Y-79063822D01*
X151149114Y-79058244D01*
X151130000Y-79056362D01*
X151110886Y-79058245D01*
X151092501Y-79063822D01*
X151075559Y-79072877D01*
X151060711Y-79085063D01*
X151048525Y-79099912D01*
X151041693Y-79112695D01*
X151039994Y-79113751D01*
X151038231Y-79112808D01*
X151038081Y-79110987D01*
X151067240Y-79040589D01*
X151090111Y-78925611D01*
X151090111Y-78808389D01*
X151067240Y-78693411D01*
X151038081Y-78623014D01*
X151038342Y-78621031D01*
X151040190Y-78620266D01*
X151041693Y-78621306D01*
X151048525Y-78634089D01*
X151060711Y-78648937D01*
X151075560Y-78661123D01*
X151092501Y-78670178D01*
X151110886Y-78675756D01*
X151130000Y-78677638D01*
X151149114Y-78675755D01*
X151167499Y-78670178D01*
X151184441Y-78661123D01*
X151199289Y-78648937D01*
X151211475Y-78634088D01*
X151218307Y-78621305D01*
X151220006Y-78620249D01*
X151221769Y-78621192D01*
G37*
G36*
X149951769Y-78621192D02*
G01*
X149951919Y-78623013D01*
X149922760Y-78693411D01*
X149899889Y-78808389D01*
X149899889Y-78925611D01*
X149922760Y-79040589D01*
X149951919Y-79110986D01*
X149951658Y-79112969D01*
X149949810Y-79113734D01*
X149948307Y-79112694D01*
X149941475Y-79099911D01*
X149929289Y-79085063D01*
X149914440Y-79072877D01*
X149897499Y-79063822D01*
X149879114Y-79058244D01*
X149860000Y-79056362D01*
X149840886Y-79058245D01*
X149822501Y-79063822D01*
X149805559Y-79072877D01*
X149790711Y-79085063D01*
X149778525Y-79099912D01*
X149771693Y-79112695D01*
X149769994Y-79113751D01*
X149768231Y-79112808D01*
X149768081Y-79110987D01*
X149797240Y-79040589D01*
X149820111Y-78925611D01*
X149820111Y-78808389D01*
X149797240Y-78693411D01*
X149768081Y-78623014D01*
X149768342Y-78621031D01*
X149770190Y-78620266D01*
X149771693Y-78621306D01*
X149778525Y-78634089D01*
X149790711Y-78648937D01*
X149805560Y-78661123D01*
X149822501Y-78670178D01*
X149840886Y-78675756D01*
X149860000Y-78677638D01*
X149879114Y-78675755D01*
X149897499Y-78670178D01*
X149914441Y-78661123D01*
X149929289Y-78648937D01*
X149941475Y-78634088D01*
X149948307Y-78621305D01*
X149950006Y-78620249D01*
X149951769Y-78621192D01*
G37*
G36*
X152491769Y-78621192D02*
G01*
X152491919Y-78623013D01*
X152462760Y-78693411D01*
X152439889Y-78808389D01*
X152439889Y-78925611D01*
X152462760Y-79040589D01*
X152491919Y-79110986D01*
X152491658Y-79112969D01*
X152489810Y-79113734D01*
X152488307Y-79112694D01*
X152481475Y-79099911D01*
X152469289Y-79085063D01*
X152454440Y-79072877D01*
X152437499Y-79063822D01*
X152419114Y-79058244D01*
X152400000Y-79056362D01*
X152380886Y-79058245D01*
X152362501Y-79063822D01*
X152345559Y-79072877D01*
X152330711Y-79085063D01*
X152318525Y-79099912D01*
X152311693Y-79112695D01*
X152309994Y-79113751D01*
X152308231Y-79112808D01*
X152308081Y-79110987D01*
X152337240Y-79040589D01*
X152360111Y-78925611D01*
X152360111Y-78808389D01*
X152337240Y-78693411D01*
X152308081Y-78623014D01*
X152308342Y-78621031D01*
X152310190Y-78620266D01*
X152311693Y-78621306D01*
X152318525Y-78634089D01*
X152330711Y-78648937D01*
X152345560Y-78661123D01*
X152362501Y-78670178D01*
X152380886Y-78675756D01*
X152400000Y-78677638D01*
X152419114Y-78675755D01*
X152437499Y-78670178D01*
X152454441Y-78661123D01*
X152469289Y-78648937D01*
X152481475Y-78634088D01*
X152488307Y-78621305D01*
X152490006Y-78620249D01*
X152491769Y-78621192D01*
G37*
G36*
X154707564Y-78196000D02*
G01*
X154707564Y-78198000D01*
X154706028Y-78198990D01*
X154686718Y-78200891D01*
X154668333Y-78206469D01*
X154651392Y-78215524D01*
X154636543Y-78227710D01*
X154624357Y-78242559D01*
X154615302Y-78259500D01*
X154609724Y-78277885D01*
X154607842Y-78296999D01*
X154609724Y-78316113D01*
X154615302Y-78334498D01*
X154624357Y-78351439D01*
X154636543Y-78366288D01*
X154647754Y-78375488D01*
X154648458Y-78377360D01*
X154647190Y-78378906D01*
X154645374Y-78378697D01*
X154586891Y-78339620D01*
X154478589Y-78294760D01*
X154363611Y-78271889D01*
X154246389Y-78271889D01*
X154131411Y-78294760D01*
X154023109Y-78339620D01*
X153964626Y-78378697D01*
X153962630Y-78378828D01*
X153961519Y-78377165D01*
X153962246Y-78375488D01*
X153973457Y-78366288D01*
X153985643Y-78351440D01*
X153994698Y-78334498D01*
X154000276Y-78316113D01*
X154002158Y-78296999D01*
X154000276Y-78277885D01*
X153994698Y-78259500D01*
X153985643Y-78242559D01*
X153973457Y-78227710D01*
X153958609Y-78215524D01*
X153941667Y-78206469D01*
X153923282Y-78200891D01*
X153903972Y-78198990D01*
X153902346Y-78197825D01*
X153902542Y-78195835D01*
X153904168Y-78195000D01*
X154705832Y-78195000D01*
X154707564Y-78196000D01*
G37*
G36*
X149470969Y-78140342D02*
G01*
X149471734Y-78142190D01*
X149470694Y-78143693D01*
X149457911Y-78150525D01*
X149443063Y-78162711D01*
X149430877Y-78177560D01*
X149421822Y-78194501D01*
X149416244Y-78212886D01*
X149414362Y-78232000D01*
X149416245Y-78251114D01*
X149421822Y-78269499D01*
X149430877Y-78286441D01*
X149443063Y-78301289D01*
X149457912Y-78313475D01*
X149470695Y-78320307D01*
X149471751Y-78322006D01*
X149470808Y-78323769D01*
X149468987Y-78323919D01*
X149398589Y-78294760D01*
X149283611Y-78271889D01*
X149166389Y-78271889D01*
X149051411Y-78294760D01*
X148981014Y-78323919D01*
X148979031Y-78323658D01*
X148978266Y-78321810D01*
X148979306Y-78320307D01*
X148992089Y-78313475D01*
X149006937Y-78301289D01*
X149019123Y-78286440D01*
X149028178Y-78269499D01*
X149033756Y-78251114D01*
X149035638Y-78232000D01*
X149033755Y-78212886D01*
X149028178Y-78194501D01*
X149019123Y-78177559D01*
X149006937Y-78162711D01*
X148992088Y-78150525D01*
X148979305Y-78143693D01*
X148978249Y-78141994D01*
X148979192Y-78140231D01*
X148981013Y-78140081D01*
X149051411Y-78169240D01*
X149166389Y-78192111D01*
X149283611Y-78192111D01*
X149398589Y-78169240D01*
X149468986Y-78140081D01*
X149470969Y-78140342D01*
G37*
G36*
X152010969Y-78140342D02*
G01*
X152011734Y-78142190D01*
X152010694Y-78143693D01*
X151997911Y-78150525D01*
X151983063Y-78162711D01*
X151970877Y-78177560D01*
X151961822Y-78194501D01*
X151956244Y-78212886D01*
X151954362Y-78232000D01*
X151956245Y-78251114D01*
X151961822Y-78269499D01*
X151970877Y-78286441D01*
X151983063Y-78301289D01*
X151997912Y-78313475D01*
X152010695Y-78320307D01*
X152011751Y-78322006D01*
X152010808Y-78323769D01*
X152008987Y-78323919D01*
X151938589Y-78294760D01*
X151823611Y-78271889D01*
X151706389Y-78271889D01*
X151591411Y-78294760D01*
X151521014Y-78323919D01*
X151519031Y-78323658D01*
X151518266Y-78321810D01*
X151519306Y-78320307D01*
X151532089Y-78313475D01*
X151546937Y-78301289D01*
X151559123Y-78286440D01*
X151568178Y-78269499D01*
X151573756Y-78251114D01*
X151575638Y-78232000D01*
X151573755Y-78212886D01*
X151568178Y-78194501D01*
X151559123Y-78177559D01*
X151546937Y-78162711D01*
X151532088Y-78150525D01*
X151519305Y-78143693D01*
X151518249Y-78141994D01*
X151519192Y-78140231D01*
X151521013Y-78140081D01*
X151591411Y-78169240D01*
X151706389Y-78192111D01*
X151823611Y-78192111D01*
X151938589Y-78169240D01*
X152008986Y-78140081D01*
X152010969Y-78140342D01*
G37*
G36*
X153280969Y-78140342D02*
G01*
X153281734Y-78142190D01*
X153280694Y-78143693D01*
X153267911Y-78150525D01*
X153253063Y-78162711D01*
X153240877Y-78177560D01*
X153231822Y-78194501D01*
X153226244Y-78212886D01*
X153224362Y-78232000D01*
X153226245Y-78251114D01*
X153231822Y-78269499D01*
X153240877Y-78286441D01*
X153253063Y-78301289D01*
X153267912Y-78313475D01*
X153280695Y-78320307D01*
X153281751Y-78322006D01*
X153280808Y-78323769D01*
X153278987Y-78323919D01*
X153208589Y-78294760D01*
X153093611Y-78271889D01*
X152976389Y-78271889D01*
X152861411Y-78294760D01*
X152791014Y-78323919D01*
X152789031Y-78323658D01*
X152788266Y-78321810D01*
X152789306Y-78320307D01*
X152802089Y-78313475D01*
X152816937Y-78301289D01*
X152829123Y-78286440D01*
X152838178Y-78269499D01*
X152843756Y-78251114D01*
X152845638Y-78232000D01*
X152843755Y-78212886D01*
X152838178Y-78194501D01*
X152829123Y-78177559D01*
X152816937Y-78162711D01*
X152802088Y-78150525D01*
X152789305Y-78143693D01*
X152788249Y-78141994D01*
X152789192Y-78140231D01*
X152791013Y-78140081D01*
X152861411Y-78169240D01*
X152976389Y-78192111D01*
X153093611Y-78192111D01*
X153208589Y-78169240D01*
X153278986Y-78140081D01*
X153280969Y-78140342D01*
G37*
G36*
X150740969Y-78140342D02*
G01*
X150741734Y-78142190D01*
X150740694Y-78143693D01*
X150727911Y-78150525D01*
X150713063Y-78162711D01*
X150700877Y-78177560D01*
X150691822Y-78194501D01*
X150686244Y-78212886D01*
X150684362Y-78232000D01*
X150686245Y-78251114D01*
X150691822Y-78269499D01*
X150700877Y-78286441D01*
X150713063Y-78301289D01*
X150727912Y-78313475D01*
X150740695Y-78320307D01*
X150741751Y-78322006D01*
X150740808Y-78323769D01*
X150738987Y-78323919D01*
X150668589Y-78294760D01*
X150553611Y-78271889D01*
X150436389Y-78271889D01*
X150321411Y-78294760D01*
X150251014Y-78323919D01*
X150249031Y-78323658D01*
X150248266Y-78321810D01*
X150249306Y-78320307D01*
X150262089Y-78313475D01*
X150276937Y-78301289D01*
X150289123Y-78286440D01*
X150298178Y-78269499D01*
X150303756Y-78251114D01*
X150305638Y-78232000D01*
X150303755Y-78212886D01*
X150298178Y-78194501D01*
X150289123Y-78177559D01*
X150276937Y-78162711D01*
X150262088Y-78150525D01*
X150249305Y-78143693D01*
X150248249Y-78141994D01*
X150249192Y-78140231D01*
X150251013Y-78140081D01*
X150321411Y-78169240D01*
X150436389Y-78192111D01*
X150553611Y-78192111D01*
X150668589Y-78169240D01*
X150738986Y-78140081D01*
X150740969Y-78140342D01*
G37*
G36*
X153706165Y-77194542D02*
G01*
X153707000Y-77196168D01*
X153707000Y-77997832D01*
X153706000Y-77999564D01*
X153704000Y-77999564D01*
X153703010Y-77998028D01*
X153701109Y-77978718D01*
X153695531Y-77960333D01*
X153686476Y-77943392D01*
X153674290Y-77928543D01*
X153659441Y-77916357D01*
X153642500Y-77907302D01*
X153624115Y-77901724D01*
X153605001Y-77899842D01*
X153585887Y-77901724D01*
X153567502Y-77907302D01*
X153550561Y-77916357D01*
X153535712Y-77928543D01*
X153526512Y-77939754D01*
X153524640Y-77940458D01*
X153523094Y-77939190D01*
X153523303Y-77937374D01*
X153562380Y-77878891D01*
X153607240Y-77770589D01*
X153630111Y-77655611D01*
X153630111Y-77538389D01*
X153607240Y-77423411D01*
X153562380Y-77315109D01*
X153523303Y-77256626D01*
X153523172Y-77254630D01*
X153524835Y-77253519D01*
X153526512Y-77254246D01*
X153535712Y-77265457D01*
X153550560Y-77277643D01*
X153567502Y-77286698D01*
X153585887Y-77292276D01*
X153605001Y-77294158D01*
X153624115Y-77292276D01*
X153642500Y-77286698D01*
X153659441Y-77277643D01*
X153674290Y-77265457D01*
X153686476Y-77250609D01*
X153695531Y-77233667D01*
X153701109Y-77215282D01*
X153703010Y-77195972D01*
X153704175Y-77194346D01*
X153706165Y-77194542D01*
G37*
G36*
X149951769Y-77351192D02*
G01*
X149951919Y-77353013D01*
X149922760Y-77423411D01*
X149899889Y-77538389D01*
X149899889Y-77655611D01*
X149922760Y-77770589D01*
X149951919Y-77840986D01*
X149951658Y-77842969D01*
X149949810Y-77843734D01*
X149948307Y-77842694D01*
X149941475Y-77829911D01*
X149929289Y-77815063D01*
X149914440Y-77802877D01*
X149897499Y-77793822D01*
X149879114Y-77788244D01*
X149860000Y-77786362D01*
X149840886Y-77788245D01*
X149822501Y-77793822D01*
X149805559Y-77802877D01*
X149790711Y-77815063D01*
X149778525Y-77829912D01*
X149771693Y-77842695D01*
X149769994Y-77843751D01*
X149768231Y-77842808D01*
X149768081Y-77840987D01*
X149797240Y-77770589D01*
X149820111Y-77655611D01*
X149820111Y-77538389D01*
X149797240Y-77423411D01*
X149768081Y-77353014D01*
X149768342Y-77351031D01*
X149770190Y-77350266D01*
X149771693Y-77351306D01*
X149778525Y-77364089D01*
X149790711Y-77378937D01*
X149805560Y-77391123D01*
X149822501Y-77400178D01*
X149840886Y-77405756D01*
X149860000Y-77407638D01*
X149879114Y-77405755D01*
X149897499Y-77400178D01*
X149914441Y-77391123D01*
X149929289Y-77378937D01*
X149941475Y-77364088D01*
X149948307Y-77351305D01*
X149950006Y-77350249D01*
X149951769Y-77351192D01*
G37*
G36*
X152491769Y-77351192D02*
G01*
X152491919Y-77353013D01*
X152462760Y-77423411D01*
X152439889Y-77538389D01*
X152439889Y-77655611D01*
X152462760Y-77770589D01*
X152491919Y-77840986D01*
X152491658Y-77842969D01*
X152489810Y-77843734D01*
X152488307Y-77842694D01*
X152481475Y-77829911D01*
X152469289Y-77815063D01*
X152454440Y-77802877D01*
X152437499Y-77793822D01*
X152419114Y-77788244D01*
X152400000Y-77786362D01*
X152380886Y-77788245D01*
X152362501Y-77793822D01*
X152345559Y-77802877D01*
X152330711Y-77815063D01*
X152318525Y-77829912D01*
X152311693Y-77842695D01*
X152309994Y-77843751D01*
X152308231Y-77842808D01*
X152308081Y-77840987D01*
X152337240Y-77770589D01*
X152360111Y-77655611D01*
X152360111Y-77538389D01*
X152337240Y-77423411D01*
X152308081Y-77353014D01*
X152308342Y-77351031D01*
X152310190Y-77350266D01*
X152311693Y-77351306D01*
X152318525Y-77364089D01*
X152330711Y-77378937D01*
X152345560Y-77391123D01*
X152362501Y-77400178D01*
X152380886Y-77405756D01*
X152400000Y-77407638D01*
X152419114Y-77405755D01*
X152437499Y-77400178D01*
X152454441Y-77391123D01*
X152469289Y-77378937D01*
X152481475Y-77364088D01*
X152488307Y-77351305D01*
X152490006Y-77350249D01*
X152491769Y-77351192D01*
G37*
G36*
X151221769Y-77351192D02*
G01*
X151221919Y-77353013D01*
X151192760Y-77423411D01*
X151169889Y-77538389D01*
X151169889Y-77655611D01*
X151192760Y-77770589D01*
X151221919Y-77840986D01*
X151221658Y-77842969D01*
X151219810Y-77843734D01*
X151218307Y-77842694D01*
X151211475Y-77829911D01*
X151199289Y-77815063D01*
X151184440Y-77802877D01*
X151167499Y-77793822D01*
X151149114Y-77788244D01*
X151130000Y-77786362D01*
X151110886Y-77788245D01*
X151092501Y-77793822D01*
X151075559Y-77802877D01*
X151060711Y-77815063D01*
X151048525Y-77829912D01*
X151041693Y-77842695D01*
X151039994Y-77843751D01*
X151038231Y-77842808D01*
X151038081Y-77840987D01*
X151067240Y-77770589D01*
X151090111Y-77655611D01*
X151090111Y-77538389D01*
X151067240Y-77423411D01*
X151038081Y-77353014D01*
X151038342Y-77351031D01*
X151040190Y-77350266D01*
X151041693Y-77351306D01*
X151048525Y-77364089D01*
X151060711Y-77378937D01*
X151075560Y-77391123D01*
X151092501Y-77400178D01*
X151110886Y-77405756D01*
X151130000Y-77407638D01*
X151149114Y-77405755D01*
X151167499Y-77400178D01*
X151184441Y-77391123D01*
X151199289Y-77378937D01*
X151211475Y-77364088D01*
X151218307Y-77351305D01*
X151220006Y-77350249D01*
X151221769Y-77351192D01*
G37*
M02*
