%TF.GenerationSoftware,KiCad,Pcbnew,(5.1.7)-1*%
%TF.CreationDate,2020-10-22T13:49:28-07:00*%
%TF.ProjectId,ReflowOven,5265666c-6f77-44f7-9665-6e2e6b696361,rev?*%
%TF.SameCoordinates,Original*%
%TF.FileFunction,Profile,NP*%
%FSLAX46Y46*%
G04 Gerber Fmt 4.6, Leading zero omitted, Abs format (unit mm)*
G04 Created by KiCad (PCBNEW (5.1.7)-1) date 2020-10-22 13:49:28*
%MOMM*%
%LPD*%
G01*
G04 APERTURE LIST*
%TA.AperFunction,Profile*%
%ADD10C,0.050000*%
%TD*%
G04 APERTURE END LIST*
D10*
X114808000Y-92710000D02*
G75*
G02*
X107188000Y-100330000I-7620000J0D01*
G01*
X60579000Y-100330000D02*
X69850000Y-100330000D01*
X60579000Y-98298000D02*
X69850000Y-98298000D01*
X59563000Y-99314000D02*
G75*
G02*
X60579000Y-98298000I1016000J0D01*
G01*
X60579000Y-100330000D02*
G75*
G02*
X59563000Y-99314000I0J1016000D01*
G01*
X58674000Y-99314000D02*
G75*
G02*
X57658000Y-100330000I-1016000J0D01*
G01*
X57658000Y-98298000D02*
G75*
G02*
X58674000Y-99314000I0J-1016000D01*
G01*
X114808000Y-66802000D02*
X114808000Y-67310000D01*
X114808000Y-83566000D02*
X114808000Y-84074000D01*
X114808000Y-92710000D02*
X114808000Y-84074000D01*
X98552000Y-100330000D02*
X107188000Y-100330000D01*
X98552000Y-100330000D02*
X95504000Y-100330000D01*
X18288000Y-175006000D02*
X17272000Y-106426000D01*
X168656000Y-180594000D02*
X24384000Y-181102000D01*
X174752000Y-31750000D02*
X174752000Y-174498000D01*
X120904000Y-25654000D02*
X168656000Y-25654000D01*
X168656000Y-25654000D02*
G75*
G02*
X174752000Y-31750000I0J-6096000D01*
G01*
X114808000Y-46990000D02*
X114808000Y-31750000D01*
X114808000Y-31750000D02*
G75*
G02*
X120904000Y-25654000I6096000J0D01*
G01*
X174752000Y-174498000D02*
G75*
G02*
X168656000Y-180594000I-6096000J0D01*
G01*
X24384000Y-181102000D02*
G75*
G02*
X18288000Y-175006000I0J6096000D01*
G01*
X114808000Y-67310000D02*
X114808000Y-80518000D01*
X114808000Y-50038000D02*
X114808000Y-63754000D01*
X42164000Y-100330000D02*
X57658000Y-100330000D01*
X23368000Y-100330000D02*
X39116000Y-100330000D01*
X17272000Y-106426000D02*
G75*
G02*
X23368000Y-100330000I6096000J0D01*
G01*
X42164000Y-98298000D02*
X57658000Y-98298000D01*
X42164000Y-100330000D02*
G75*
G02*
X41148000Y-99314000I0J1016000D01*
G01*
X40132000Y-99314000D02*
G75*
G02*
X39116000Y-100330000I-1016000J0D01*
G01*
X41148000Y-99314000D02*
G75*
G02*
X42164000Y-98298000I1016000J0D01*
G01*
X39116000Y-98298000D02*
G75*
G02*
X40132000Y-99314000I0J-1016000D01*
G01*
X112776000Y-63754000D02*
X112776000Y-50038000D01*
X112776000Y-66802000D02*
G75*
G02*
X113792000Y-65786000I1016000J0D01*
G01*
X113792000Y-64770000D02*
G75*
G02*
X112776000Y-63754000I0J1016000D01*
G01*
X113792000Y-65786000D02*
G75*
G02*
X114808000Y-66802000I0J-1016000D01*
G01*
X114808000Y-63754000D02*
G75*
G02*
X113792000Y-64770000I-1016000J0D01*
G01*
X39116000Y-98298000D02*
X23368000Y-98298000D01*
X95504000Y-100330000D02*
G75*
G02*
X94488000Y-99314000I0J1016000D01*
G01*
X70866000Y-99314000D02*
G75*
G02*
X69850000Y-100330000I-1016000J0D01*
G01*
X69850000Y-98298000D02*
G75*
G02*
X70866000Y-99314000I0J-1016000D01*
G01*
X94488000Y-99314000D02*
G75*
G02*
X95504000Y-98298000I1016000J0D01*
G01*
X112776000Y-50038000D02*
G75*
G02*
X113792000Y-49022000I1016000J0D01*
G01*
X113792000Y-48006000D02*
G75*
G02*
X112776000Y-46990000I0J1016000D01*
G01*
X114808000Y-46990000D02*
G75*
G02*
X113792000Y-48006000I-1016000J0D01*
G01*
X113792000Y-49022000D02*
G75*
G02*
X114808000Y-50038000I0J-1016000D01*
G01*
X114808000Y-80518000D02*
G75*
G02*
X113792000Y-81534000I-1016000J0D01*
G01*
X113792000Y-82550000D02*
G75*
G02*
X114808000Y-83566000I0J-1016000D01*
G01*
X112776000Y-83566000D02*
G75*
G02*
X113792000Y-82550000I1016000J0D01*
G01*
X113792000Y-81534000D02*
G75*
G02*
X112776000Y-80518000I0J1016000D01*
G01*
X106680000Y-98298000D02*
X95504000Y-98298000D01*
X112776000Y-83566000D02*
X112776000Y-92202000D01*
X112776000Y-66802000D02*
X112776000Y-80518000D01*
X112776000Y-31750000D02*
X112776000Y-46990000D01*
X23368000Y-25654000D02*
X106680000Y-25654000D01*
X23368000Y-98298000D02*
G75*
G02*
X17272000Y-92202000I0J6096000D01*
G01*
X112776000Y-92202000D02*
G75*
G02*
X106680000Y-98298000I-6096000J0D01*
G01*
X106680000Y-25654000D02*
G75*
G02*
X112776000Y-31750000I0J-6096000D01*
G01*
X17272000Y-31750000D02*
G75*
G02*
X23368000Y-25654000I6096000J0D01*
G01*
X17272000Y-92202000D02*
X17272000Y-31750000D01*
M02*
