%TF.GenerationSoftware,KiCad,Pcbnew,(5.1.6)-1*%
%TF.CreationDate,2020-09-27T00:12:08-07:00*%
%TF.ProjectId,ReflowOven,5265666c-6f77-44f7-9665-6e2e6b696361,rev?*%
%TF.SameCoordinates,Original*%
%TF.FileFunction,Copper,L4,Bot*%
%TF.FilePolarity,Positive*%
%FSLAX46Y46*%
G04 Gerber Fmt 4.6, Leading zero omitted, Abs format (unit mm)*
G04 Created by KiCad (PCBNEW (5.1.6)-1) date 2020-09-27 00:12:08*
%MOMM*%
%LPD*%
G01*
G04 APERTURE LIST*
%TA.AperFunction,ComponentPad*%
%ADD10C,0.800000*%
%TD*%
%TA.AperFunction,ComponentPad*%
%ADD11C,6.400000*%
%TD*%
%TA.AperFunction,ComponentPad*%
%ADD12C,1.524000*%
%TD*%
%TA.AperFunction,ComponentPad*%
%ADD13C,2.000000*%
%TD*%
%TA.AperFunction,ComponentPad*%
%ADD14C,0.541666*%
%TD*%
%TA.AperFunction,ComponentPad*%
%ADD15R,2.500000X2.500000*%
%TD*%
%TA.AperFunction,ComponentPad*%
%ADD16C,1.498600*%
%TD*%
%TA.AperFunction,ComponentPad*%
%ADD17R,1.850000X1.850000*%
%TD*%
%TA.AperFunction,ComponentPad*%
%ADD18C,1.850000*%
%TD*%
%TA.AperFunction,ComponentPad*%
%ADD19C,1.700000*%
%TD*%
%TA.AperFunction,ComponentPad*%
%ADD20R,1.700000X1.700000*%
%TD*%
%TA.AperFunction,ComponentPad*%
%ADD21O,1.600000X1.600000*%
%TD*%
%TA.AperFunction,ComponentPad*%
%ADD22R,1.600000X1.600000*%
%TD*%
%TA.AperFunction,ComponentPad*%
%ADD23O,1.400000X0.800000*%
%TD*%
%TA.AperFunction,ComponentPad*%
%ADD24O,0.850000X0.850000*%
%TD*%
%TA.AperFunction,ComponentPad*%
%ADD25R,0.850000X0.850000*%
%TD*%
%TA.AperFunction,ComponentPad*%
%ADD26C,3.000000*%
%TD*%
%TA.AperFunction,ComponentPad*%
%ADD27R,1.100000X1.100000*%
%TD*%
%TA.AperFunction,ComponentPad*%
%ADD28C,1.100000*%
%TD*%
%TA.AperFunction,ComponentPad*%
%ADD29C,1.600000*%
%TD*%
%TA.AperFunction,ViaPad*%
%ADD30C,0.800000*%
%TD*%
%TA.AperFunction,ViaPad*%
%ADD31C,0.600000*%
%TD*%
%TA.AperFunction,Conductor*%
%ADD32C,0.250000*%
%TD*%
%TA.AperFunction,Conductor*%
%ADD33C,0.500000*%
%TD*%
%TA.AperFunction,Conductor*%
%ADD34C,0.254000*%
%TD*%
G04 APERTURE END LIST*
D10*
%TO.P,REF\u002A\u002A,1*%
%TO.N,N/C*%
X122601056Y-90504944D03*
X120904000Y-89802000D03*
X119206944Y-90504944D03*
X118504000Y-92202000D03*
X119206944Y-93899056D03*
X120904000Y-94602000D03*
X122601056Y-93899056D03*
X123304000Y-92202000D03*
D11*
X120904000Y-92202000D03*
%TD*%
D10*
%TO.P,REF\u002A\u002A,1*%
%TO.N,N/C*%
X25065056Y-104728944D03*
X23368000Y-104026000D03*
X21670944Y-104728944D03*
X20968000Y-106426000D03*
X21670944Y-108123056D03*
X23368000Y-108826000D03*
X25065056Y-108123056D03*
X25768000Y-106426000D03*
D11*
X23368000Y-106426000D03*
%TD*%
D10*
%TO.P,REF\u002A\u002A,1*%
%TO.N,N/C*%
X26081056Y-173308944D03*
X24384000Y-172606000D03*
X22686944Y-173308944D03*
X21984000Y-175006000D03*
X22686944Y-176703056D03*
X24384000Y-177406000D03*
X26081056Y-176703056D03*
X26784000Y-175006000D03*
D11*
X24384000Y-175006000D03*
%TD*%
D10*
%TO.P,REF\u002A\u002A,1*%
%TO.N,N/C*%
X170526112Y-172800944D03*
X168829056Y-172098000D03*
X167132000Y-172800944D03*
X166429056Y-174498000D03*
X167132000Y-176195056D03*
X168829056Y-176898000D03*
X170526112Y-176195056D03*
X171229056Y-174498000D03*
D11*
X168829056Y-174498000D03*
%TD*%
D10*
%TO.P,REF\u002A\u002A,1*%
%TO.N,N/C*%
X170353056Y-30052944D03*
X168656000Y-29350000D03*
X166958944Y-30052944D03*
X166256000Y-31750000D03*
X166958944Y-33447056D03*
X168656000Y-34150000D03*
X170353056Y-33447056D03*
X171056000Y-31750000D03*
D11*
X168656000Y-31750000D03*
%TD*%
D10*
%TO.P,REF\u002A\u002A,1*%
%TO.N,N/C*%
X122601056Y-30052944D03*
X120904000Y-29350000D03*
X119206944Y-30052944D03*
X118504000Y-31750000D03*
X119206944Y-33447056D03*
X120904000Y-34150000D03*
X122601056Y-33447056D03*
X123304000Y-31750000D03*
D11*
X120904000Y-31750000D03*
%TD*%
%TO.P,REF\u002A\u002A,1*%
%TO.N,N/C*%
X23368000Y-92202000D03*
D10*
X25768000Y-92202000D03*
X25065056Y-93899056D03*
X23368000Y-94602000D03*
X21670944Y-93899056D03*
X20968000Y-92202000D03*
X21670944Y-90504944D03*
X23368000Y-89802000D03*
X25065056Y-90504944D03*
%TD*%
D11*
%TO.P,REF\u002A\u002A,1*%
%TO.N,N/C*%
X106680000Y-92202000D03*
D10*
X106680000Y-89802000D03*
X108377056Y-90504944D03*
X109080000Y-92202000D03*
X108377056Y-93899056D03*
X106680000Y-94602000D03*
X104982944Y-93899056D03*
X104280000Y-92202000D03*
X104982944Y-90504944D03*
%TD*%
D11*
%TO.P,REF\u002A\u002A,1*%
%TO.N,N/C*%
X106680000Y-31750000D03*
D10*
X109080000Y-31750000D03*
X108377056Y-33447056D03*
X106680000Y-34150000D03*
X104982944Y-33447056D03*
X104280000Y-31750000D03*
X104982944Y-30052944D03*
X106680000Y-29350000D03*
X108377056Y-30052944D03*
%TD*%
%TO.P,REF\u002A\u002A,1*%
%TO.N,N/C*%
X25065056Y-30052944D03*
X23368000Y-29350000D03*
X21670944Y-30052944D03*
X20968000Y-31750000D03*
X21670944Y-33447056D03*
X23368000Y-34150000D03*
X25065056Y-33447056D03*
X25768000Y-31750000D03*
D11*
X23368000Y-31750000D03*
%TD*%
D12*
%TO.P,K501,5*%
%TO.N,/MainsPower/LN_OUT*%
X59544000Y-130690000D03*
%TO.P,K501,4*%
X59544000Y-123190000D03*
%TO.P,K501,6*%
%TO.N,Net-(F502-Pad1)*%
X54544000Y-130690000D03*
%TO.P,K501,3*%
X54544000Y-123190000D03*
%TO.P,K501,2*%
%TO.N,Net-(K501-Pad2)*%
X49544000Y-123190000D03*
%TO.P,K501,7*%
%TO.N,Net-(K501-Pad7)*%
X49544000Y-130690000D03*
%TO.P,K501,8*%
%TO.N,Net-(K501-Pad8)*%
X34544000Y-130690000D03*
%TO.P,K501,1*%
%TO.N,Net-(K501-Pad1)*%
X34544000Y-123190000D03*
%TD*%
D13*
%TO.P,U409,*%
%TO.N,*%
X168826000Y-113423000D03*
X168826000Y-89223000D03*
%TD*%
D14*
%TO.P,U601,21*%
%TO.N,N/C*%
X151130000Y-137922000D03*
X151130000Y-139005333D03*
X151130000Y-140088666D03*
X152213333Y-137922000D03*
X152213333Y-139005333D03*
X152213333Y-140088666D03*
X153296666Y-137922000D03*
X153296666Y-139005333D03*
X153296666Y-140088666D03*
%TD*%
D15*
%TO.P,SW404,6*%
%TO.N,N/C*%
X89498892Y-43427304D03*
D16*
%TO.P,SW404,S1*%
%TO.N,+3V3*%
X92898892Y-36865304D03*
%TO.P,SW404,S2*%
%TO.N,/HumanInterface/SW_BTN*%
X97898892Y-36865304D03*
%TO.P,SW404,A*%
%TO.N,/HumanInterface/CHANA*%
X92898892Y-50615304D03*
%TO.P,SW404,C*%
%TO.N,GND*%
X95398892Y-50615304D03*
%TO.P,SW404,B*%
%TO.N,/HumanInterface/CHANB*%
X97898892Y-50615304D03*
D15*
%TO.P,SW404,7*%
%TO.N,N/C*%
X101298892Y-43527304D03*
%TD*%
D17*
%TO.P,SW403,1*%
%TO.N,+3V3*%
X26577323Y-66984819D03*
D18*
%TO.P,SW403,2*%
%TO.N,/HumanInterface/SW1*%
X31737323Y-72064819D03*
%TD*%
D17*
%TO.P,SW402,1*%
%TO.N,+3V3*%
X26630000Y-53380000D03*
D18*
%TO.P,SW402,2*%
%TO.N,/HumanInterface/SW2*%
X31790000Y-58460000D03*
%TD*%
D17*
%TO.P,SW401,1*%
%TO.N,+3V3*%
X26657323Y-47161766D03*
D18*
%TO.P,SW401,2*%
%TO.N,/HumanInterface/SW3*%
X31737323Y-42001766D03*
%TD*%
D19*
%TO.P,SEG304,10*%
%TO.N,/Display/SEG8*%
X75692000Y-48514000D03*
%TO.P,SEG304,9*%
%TO.N,/Display/SEG9*%
X75692000Y-45974000D03*
%TO.P,SEG304,8*%
%TO.N,/Display/SEG10*%
X75692000Y-43434000D03*
%TO.P,SEG304,7*%
%TO.N,/Display/SEG15*%
X75692000Y-40894000D03*
%TO.P,SEG304,6*%
%TO.N,/Display/COM1*%
X75692000Y-38354000D03*
%TO.P,SEG304,5*%
%TO.N,/Display/SEG11*%
X83312000Y-38354000D03*
%TO.P,SEG304,4*%
%TO.N,/Display/SEG12*%
X83312000Y-40894000D03*
%TO.P,SEG304,3*%
%TO.N,/Display/SEG14*%
X83312000Y-43434000D03*
%TO.P,SEG304,2*%
%TO.N,/Display/SEG13*%
X83312000Y-45974000D03*
D20*
%TO.P,SEG304,1*%
%TO.N,/Display/COM1*%
X83312000Y-48514000D03*
%TD*%
D19*
%TO.P,SEG303,10*%
%TO.N,/Display/SEG0*%
X40640000Y-48514000D03*
%TO.P,SEG303,9*%
%TO.N,/Display/SEG1*%
X40640000Y-45974000D03*
%TO.P,SEG303,8*%
%TO.N,/Display/SEG2*%
X40640000Y-43434000D03*
%TO.P,SEG303,7*%
%TO.N,/Display/SEG7*%
X40640000Y-40894000D03*
%TO.P,SEG303,6*%
%TO.N,/Display/COM1*%
X40640000Y-38354000D03*
%TO.P,SEG303,5*%
%TO.N,/Display/SEG3*%
X48260000Y-38354000D03*
%TO.P,SEG303,4*%
%TO.N,/Display/SEG4*%
X48260000Y-40894000D03*
%TO.P,SEG303,3*%
%TO.N,/Display/SEG6*%
X48260000Y-43434000D03*
%TO.P,SEG303,2*%
%TO.N,/Display/SEG5*%
X48260000Y-45974000D03*
D20*
%TO.P,SEG303,1*%
%TO.N,/Display/COM1*%
X48260000Y-48514000D03*
%TD*%
D19*
%TO.P,SEG302,10*%
%TO.N,/Display/SEG0*%
X52324000Y-48514000D03*
%TO.P,SEG302,9*%
%TO.N,/Display/SEG1*%
X52324000Y-45974000D03*
%TO.P,SEG302,8*%
%TO.N,/Display/SEG2*%
X52324000Y-43434000D03*
%TO.P,SEG302,7*%
%TO.N,/Display/SEG7*%
X52324000Y-40894000D03*
%TO.P,SEG302,6*%
%TO.N,/Display/COM0*%
X52324000Y-38354000D03*
%TO.P,SEG302,5*%
%TO.N,/Display/SEG3*%
X59944000Y-38354000D03*
%TO.P,SEG302,4*%
%TO.N,/Display/SEG4*%
X59944000Y-40894000D03*
%TO.P,SEG302,3*%
%TO.N,/Display/SEG6*%
X59944000Y-43434000D03*
%TO.P,SEG302,2*%
%TO.N,/Display/SEG5*%
X59944000Y-45974000D03*
D20*
%TO.P,SEG302,1*%
%TO.N,/Display/COM0*%
X59944000Y-48514000D03*
%TD*%
D19*
%TO.P,SEG301,10*%
%TO.N,/Display/SEG8*%
X64008000Y-48514000D03*
%TO.P,SEG301,9*%
%TO.N,/Display/SEG9*%
X64008000Y-45974000D03*
%TO.P,SEG301,8*%
%TO.N,/Display/SEG10*%
X64008000Y-43434000D03*
%TO.P,SEG301,7*%
%TO.N,/Display/SEG15*%
X64008000Y-40894000D03*
%TO.P,SEG301,6*%
%TO.N,/Display/COM0*%
X64008000Y-38354000D03*
%TO.P,SEG301,5*%
%TO.N,/Display/SEG11*%
X71628000Y-38354000D03*
%TO.P,SEG301,4*%
%TO.N,/Display/SEG12*%
X71628000Y-40894000D03*
%TO.P,SEG301,3*%
%TO.N,/Display/SEG14*%
X71628000Y-43434000D03*
%TO.P,SEG301,2*%
%TO.N,/Display/SEG13*%
X71628000Y-45974000D03*
D20*
%TO.P,SEG301,1*%
%TO.N,/Display/COM0*%
X71628000Y-48514000D03*
%TD*%
D21*
%TO.P,RN201,7*%
%TO.N,Net-(D201-Pad1)*%
X143764000Y-171450000D03*
%TO.P,RN201,6*%
%TO.N,Net-(D202-Pad1)*%
X146304000Y-171450000D03*
%TO.P,RN201,5*%
%TO.N,Net-(D203-Pad1)*%
X148844000Y-171450000D03*
%TO.P,RN201,4*%
%TO.N,Net-(D204-Pad1)*%
X151384000Y-171450000D03*
%TO.P,RN201,3*%
%TO.N,Net-(D205-Pad1)*%
X153924000Y-171450000D03*
%TO.P,RN201,2*%
%TO.N,Net-(D206-Pad1)*%
X156464000Y-171450000D03*
D22*
%TO.P,RN201,1*%
%TO.N,GND*%
X159004000Y-171450000D03*
%TD*%
D12*
%TO.P,P501,5*%
%TO.N,/MainsPower/3V3_REG_OUT*%
X79756000Y-136906000D03*
%TO.P,P501,4*%
%TO.N,GND*%
X79756000Y-147066000D03*
%TO.P,P501,3*%
%TO.N,Net-(P501-Pad3)*%
X79756000Y-157226000D03*
%TO.P,P501,2*%
%TO.N,Net-(F501-Pad1)*%
X34036000Y-157226000D03*
%TO.P,P501,1*%
%TO.N,/MainsPower/VACN*%
X34036000Y-136906000D03*
%TD*%
D23*
%TO.P,J704,S1*%
%TO.N,Net-(FB701-Pad2)*%
X172258000Y-126918000D03*
X172258000Y-117938000D03*
X166308000Y-118298000D03*
X166308000Y-126558000D03*
%TD*%
D24*
%TO.P,J703,6*%
%TO.N,Net-(J701-Pad2)*%
X165830000Y-80010000D03*
%TO.P,J703,5*%
%TO.N,/Communication/UART_TX*%
X164830000Y-80010000D03*
%TO.P,J703,4*%
%TO.N,/Communication/UART_RX*%
X163830000Y-80010000D03*
%TO.P,J703,3*%
%TO.N,/Communication/UART_RTS*%
X162830000Y-80010000D03*
%TO.P,J703,2*%
%TO.N,/Communication/UART_CTS*%
X161830000Y-80010000D03*
D25*
%TO.P,J703,1*%
%TO.N,GND*%
X160830000Y-80010000D03*
%TD*%
D24*
%TO.P,J702,4*%
%TO.N,+3V3*%
X161560000Y-73676000D03*
%TO.P,J702,3*%
%TO.N,/Communication/CANH*%
X162560000Y-73676000D03*
%TO.P,J702,2*%
%TO.N,/Communication/CANL*%
X161560000Y-74676000D03*
D25*
%TO.P,J702,1*%
%TO.N,GND*%
X162560000Y-74676000D03*
%TD*%
D24*
%TO.P,J701,3*%
%TO.N,Net-(J701-Pad3)*%
X160814000Y-76962000D03*
%TO.P,J701,2*%
%TO.N,Net-(J701-Pad2)*%
X161814000Y-76962000D03*
D25*
%TO.P,J701,1*%
%TO.N,+3V3*%
X162814000Y-76962000D03*
%TD*%
D26*
%TO.P,J601,*%
%TO.N,*%
X171234000Y-131096000D03*
X171234000Y-146796000D03*
%TO.P,J601,2*%
%TO.N,Net-(J601-Pad2)*%
X157734000Y-132096000D03*
%TO.P,J601,1*%
%TO.N,Net-(J601-Pad1)*%
X157734000Y-145796000D03*
%TD*%
D27*
%TO.P,J201,1*%
%TO.N,+3V3*%
X154178000Y-77597000D03*
D28*
%TO.P,J201,2*%
%TO.N,GND*%
X154178000Y-78867000D03*
%TO.P,J201,3*%
X152908000Y-77597000D03*
%TO.P,J201,4*%
%TO.N,Net-(J201-Pad4)*%
X152908000Y-78867000D03*
%TO.P,J201,5*%
%TO.N,GND*%
X151638000Y-77597000D03*
%TO.P,J201,6*%
%TO.N,/Microcontroller/~RST*%
X151638000Y-78867000D03*
%TO.P,J201,7*%
%TO.N,Net-(J201-Pad7)*%
X150368000Y-77597000D03*
%TO.P,J201,8*%
%TO.N,/Microcontroller/TRACESWO*%
X150368000Y-78867000D03*
%TO.P,J201,9*%
%TO.N,/Microcontroller/SWDCLK*%
X149098000Y-77597000D03*
%TO.P,J201,10*%
%TO.N,/Microcontroller/SWDIO*%
X149098000Y-78867000D03*
%TD*%
D29*
%TO.P,C518,2*%
%TO.N,GND*%
X80772000Y-128810000D03*
D22*
%TO.P,C518,1*%
%TO.N,+3V3*%
X80772000Y-130810000D03*
%TD*%
D29*
%TO.P,C517,2*%
%TO.N,GND*%
X80772000Y-121190000D03*
D22*
%TO.P,C517,1*%
%TO.N,+3V3*%
X80772000Y-123190000D03*
%TD*%
D30*
%TO.N,*%
X91948000Y-99314000D03*
X88900000Y-99314000D03*
X85344000Y-99314000D03*
X82550000Y-99314000D03*
X79502000Y-99314000D03*
X77470000Y-99314000D03*
X75438000Y-99314000D03*
X73406000Y-99314000D03*
D31*
%TO.N,GND*%
X114604800Y-124561600D03*
X108712000Y-125603000D03*
X109982000Y-125603000D03*
X111379000Y-126111000D03*
X101854000Y-118364000D03*
X112776000Y-120396000D03*
X108585000Y-129413000D03*
X103632000Y-127635000D03*
X127381000Y-119253000D03*
X117602000Y-118745000D03*
X107950000Y-121920000D03*
X109728000Y-119634000D03*
X149098000Y-134874000D03*
X156019500Y-139001500D03*
X154368500Y-136969500D03*
X154432000Y-132207000D03*
X150177500Y-136842500D03*
X148209000Y-141795500D03*
X148272500Y-134239000D03*
X146431000Y-134239000D03*
X150114000Y-141160500D03*
X151574500Y-142176500D03*
X152400000Y-142113000D03*
X149352000Y-146113500D03*
X149288500Y-147256500D03*
X152082500Y-134493000D03*
X160274000Y-152146000D03*
X124460000Y-123825000D03*
X156000000Y-124500000D03*
X155250000Y-119000000D03*
X160000000Y-125250000D03*
X163500000Y-119500000D03*
X161500000Y-125250000D03*
X159500000Y-120750000D03*
X159500000Y-116750000D03*
X119570500Y-124650500D03*
X114655600Y-127050800D03*
X118160800Y-129590800D03*
X90830400Y-56642000D03*
X90678000Y-63601600D03*
X80365600Y-63550800D03*
X102412800Y-54813200D03*
X105664000Y-40538400D03*
X105664000Y-46939200D03*
X106984800Y-43688000D03*
X92506800Y-74320400D03*
X82042000Y-67360800D03*
X83921600Y-108407200D03*
X83820000Y-110032800D03*
X83870800Y-111506000D03*
X83769200Y-113030000D03*
X83870800Y-114554000D03*
X83769200Y-116078000D03*
X83769200Y-117551200D03*
X59309000Y-62484000D03*
X59309000Y-63246000D03*
X54610000Y-57150000D03*
X40005000Y-56896000D03*
X40132000Y-62865000D03*
X41021000Y-68453000D03*
%TO.N,+3V3*%
X112268000Y-123952000D03*
X115316000Y-121158000D03*
X114300000Y-119253000D03*
X110109000Y-129413000D03*
X100076000Y-127508000D03*
X127254000Y-120523000D03*
X122020708Y-117321708D03*
X118237000Y-116840000D03*
X106934000Y-123952000D03*
X111633000Y-122682000D03*
X106299000Y-119634000D03*
X114533579Y-128274149D03*
X144780000Y-147828000D03*
X144780000Y-145796000D03*
X144780000Y-146812000D03*
X148844000Y-152400000D03*
X121158000Y-123952000D03*
X124460000Y-125095000D03*
X119500000Y-130000000D03*
X76352400Y-133604000D03*
X77724000Y-133604000D03*
X79146400Y-133604000D03*
X80619600Y-133604000D03*
X82245200Y-133604000D03*
X76301600Y-131876800D03*
X77673200Y-131826000D03*
X77673200Y-128320800D03*
X76200000Y-128270000D03*
X83464400Y-128168400D03*
X85344000Y-128168400D03*
X85394800Y-129844800D03*
X83413600Y-129844800D03*
X90830400Y-54610000D03*
X87934800Y-51968400D03*
X97891600Y-54508400D03*
X100380800Y-54406800D03*
X102412800Y-53238400D03*
X104089200Y-40538400D03*
X83616800Y-124104400D03*
X85344000Y-124002800D03*
X83616800Y-122072400D03*
X85496400Y-122072400D03*
X83566000Y-120243600D03*
X85598000Y-120142000D03*
X78181200Y-123850400D03*
X76200000Y-123748800D03*
X76250800Y-120599200D03*
X78536800Y-120548400D03*
X60198000Y-62484000D03*
X54737000Y-59690000D03*
X54737000Y-58420000D03*
X59182000Y-65278000D03*
%TO.N,/HumanInterface/SW3*%
X120446800Y-138379200D03*
%TO.N,/HumanInterface/SW2*%
X119532400Y-138379200D03*
%TO.N,/HumanInterface/SW1*%
X118770400Y-137922000D03*
%TO.N,/HumanInterface/SW_BTN*%
X116713000Y-124587000D03*
%TO.N,/Microcontroller/DLED4*%
X118973600Y-127762000D03*
X116992400Y-138074400D03*
%TO.N,/Microcontroller/DLED5*%
X119583200Y-127152400D03*
X117856000Y-137972800D03*
%TO.N,/HumanInterface/SD_WR_PROT*%
X127050800Y-130302000D03*
%TO.N,/HumanInterface/SD_DET*%
X127050800Y-129387600D03*
%TO.N,/HumanInterface/SPI_MISO*%
X127203200Y-126580803D03*
%TO.N,/HumanInterface/SPI_SCK*%
X127152400Y-127508000D03*
%TO.N,/HumanInterface/SPI_MOSI*%
X127203200Y-125780800D03*
%TO.N,/HumanInterface/SPI_NSS*%
X127101600Y-128422400D03*
%TO.N,/Communication/UART_TX*%
X112369600Y-132791200D03*
%TO.N,/Communication/UART_RX*%
X113233200Y-132791200D03*
%TO.N,/Communication/UART_RTS*%
X111099600Y-131368800D03*
%TO.N,/Communication/UART_CTS*%
X110337600Y-131724400D03*
%TO.N,Net-(J704-PadA7)*%
X162250000Y-123000000D03*
X163250000Y-122077999D03*
X167250000Y-123000000D03*
%TO.N,Net-(J704-PadB5)*%
X163500000Y-118250000D03*
X167250000Y-122000000D03*
%TO.N,Net-(J704-PadA5)*%
X163000000Y-124449997D03*
X162500000Y-120750000D03*
%TO.N,/Microcontroller/BOOT0*%
X116078000Y-118745000D03*
X115824000Y-124714000D03*
%TO.N,/HumanInterface/CHANA*%
X85430190Y-60334990D03*
%TO.N,/MainsPower/RELAY_SET*%
X116967000Y-125222000D03*
%TO.N,/MainsPower/CURRENT_ALRT*%
X117427954Y-125748805D03*
%TO.N,/Microcontroller/TRACESWO*%
X118500000Y-125750000D03*
%TO.N,/Microcontroller/SWCLK*%
X120650000Y-123190000D03*
%TO.N,/Microcontroller/SWDIO*%
X119361062Y-125801308D03*
%TO.N,/Display/COM1*%
X62484000Y-56134000D03*
X62484000Y-57658000D03*
X62484000Y-59055000D03*
%TO.N,GND*%
X101854000Y-62484000D03*
X102616000Y-67310000D03*
X101473000Y-70739000D03*
X104902000Y-62484000D03*
X105029000Y-67310000D03*
%TO.N,+3V3*%
X101473000Y-69088000D03*
X100965000Y-65151000D03*
X95504000Y-65405000D03*
%TO.N,/Display/SEG3*%
X53340000Y-55499000D03*
X50546000Y-63373000D03*
%TO.N,/Display/SEG4*%
X54483000Y-55372000D03*
X50419000Y-65532000D03*
%TO.N,/Display/SEG7*%
X62357000Y-70485000D03*
X59309000Y-70485000D03*
%TO.N,/Display/SEG8*%
X72644000Y-65913000D03*
%TO.N,/Display/SEG9*%
X73787000Y-63246000D03*
%TO.N,/Display/COM0*%
X59944000Y-56388000D03*
X59944000Y-57785000D03*
X59944000Y-59182000D03*
%TO.N,Net-(U405-Pad2)*%
X85598000Y-59182000D03*
%TD*%
D32*
%TO.N,/HumanInterface/SW3*%
X119038780Y-139787220D02*
X117819580Y-139787220D01*
X120446800Y-138379200D02*
X119038780Y-139787220D01*
%TO.N,/HumanInterface/SW2*%
X119532400Y-138379200D02*
X118574390Y-139337210D01*
X118574390Y-139337210D02*
X118415864Y-139337210D01*
X118415864Y-139337210D02*
X117710790Y-139337210D01*
%TO.N,/HumanInterface/SW1*%
X118770400Y-138346264D02*
X118229464Y-138887200D01*
X118770400Y-137922000D02*
X118770400Y-138346264D01*
X118229464Y-138887200D02*
X117602000Y-138887200D01*
%TO.N,/Microcontroller/DLED4*%
X118973600Y-127762000D02*
X117957600Y-127762000D01*
X117957600Y-127762000D02*
X116586000Y-129133600D01*
X116586000Y-129133600D02*
X116586000Y-133451600D01*
X116586000Y-133451600D02*
X116586000Y-137312400D01*
X116586000Y-137312400D02*
X116586000Y-137668000D01*
X116586000Y-137668000D02*
X116992400Y-138074400D01*
%TO.N,/Microcontroller/DLED5*%
X119883199Y-127452399D02*
X119883199Y-128122401D01*
X119583200Y-127152400D02*
X119883199Y-127452399D01*
X119883199Y-128122401D02*
X119430800Y-128574800D01*
X119430800Y-128574800D02*
X117906800Y-128574800D01*
X117906800Y-128574800D02*
X117036010Y-129445590D01*
X117036010Y-129445590D02*
X117036010Y-133241210D01*
X117036010Y-133241210D02*
X117036010Y-137152810D01*
X117036010Y-137152810D02*
X117856000Y-137972800D01*
%TO.N,Net-(J704-PadA7)*%
X162250000Y-123000000D02*
X162327999Y-123000000D01*
X162327999Y-123000000D02*
X163250000Y-122077999D01*
X164172001Y-123000000D02*
X163250000Y-122077999D01*
X167250000Y-123000000D02*
X164172001Y-123000000D01*
%TO.N,Net-(J704-PadB5)*%
X164125001Y-118875001D02*
X164125001Y-120875001D01*
X163500000Y-118250000D02*
X164125001Y-118875001D01*
X164125001Y-120875001D02*
X165250000Y-122000000D01*
X165250000Y-122000000D02*
X167250000Y-122000000D01*
%TO.N,Net-(J704-PadA5)*%
X162500000Y-120750000D02*
X161500000Y-121750000D01*
X161500000Y-123175002D02*
X162774995Y-124449997D01*
X162774995Y-124449997D02*
X163000000Y-124449997D01*
X161500000Y-121750000D02*
X161500000Y-123175002D01*
%TO.N,/Microcontroller/BOOT0*%
X116078000Y-124035736D02*
X116078000Y-118745000D01*
X115824000Y-124289736D02*
X116078000Y-124035736D01*
X115824000Y-124714000D02*
X115824000Y-124289736D01*
D33*
%TO.N,/Display/SEG3*%
X52959000Y-59563000D02*
X50546000Y-61976000D01*
X52959000Y-55880000D02*
X52959000Y-59563000D01*
X50546000Y-61976000D02*
X50546000Y-63373000D01*
X53340000Y-55499000D02*
X52959000Y-55880000D01*
%TO.N,/Display/SEG4*%
X53659010Y-56830990D02*
X53659010Y-59878990D01*
X54483000Y-55372000D02*
X54483000Y-56007000D01*
X54483000Y-56007000D02*
X53659010Y-56830990D01*
X53659010Y-59878990D02*
X53659010Y-62291990D01*
X53659010Y-62291990D02*
X50419000Y-65532000D01*
%TO.N,/Display/SEG7*%
X62357000Y-70485000D02*
X59309000Y-70485000D01*
%TD*%
D34*
%TO.N,/Display/COM1*%
G36*
X85344000Y-50800000D02*
G01*
X81534000Y-50800000D01*
X81509224Y-50802440D01*
X81485399Y-50809667D01*
X81463443Y-50821403D01*
X81444197Y-50837197D01*
X81428403Y-50856443D01*
X81416667Y-50878399D01*
X81409440Y-50902224D01*
X81407000Y-50927000D01*
X81407000Y-53848000D01*
X77597000Y-53848000D01*
X77572224Y-53850440D01*
X77548399Y-53857667D01*
X77526443Y-53869403D01*
X77507197Y-53885197D01*
X77491403Y-53904443D01*
X77479667Y-53926399D01*
X77472440Y-53950224D01*
X77470000Y-53975000D01*
X77470000Y-55118905D01*
X66166092Y-55199735D01*
X66141334Y-55202353D01*
X66117561Y-55209750D01*
X66095689Y-55221643D01*
X66076558Y-55237574D01*
X66060902Y-55256931D01*
X66049323Y-55278971D01*
X66042266Y-55302847D01*
X66040000Y-55326732D01*
X66040000Y-59817000D01*
X61722000Y-59817000D01*
X61722000Y-51816000D01*
X73914000Y-51816000D01*
X73938776Y-51813560D01*
X73962601Y-51806333D01*
X73984557Y-51794597D01*
X74003803Y-51778803D01*
X74019597Y-51759557D01*
X74031333Y-51737601D01*
X74039272Y-51709879D01*
X74166272Y-50947879D01*
X74168000Y-50927000D01*
X74168000Y-40747740D01*
X74207000Y-40747740D01*
X74207000Y-41040260D01*
X74264068Y-41327158D01*
X74376010Y-41597411D01*
X74538525Y-41840632D01*
X74745368Y-42047475D01*
X74919760Y-42164000D01*
X74745368Y-42280525D01*
X74538525Y-42487368D01*
X74376010Y-42730589D01*
X74264068Y-43000842D01*
X74207000Y-43287740D01*
X74207000Y-43580260D01*
X74264068Y-43867158D01*
X74376010Y-44137411D01*
X74538525Y-44380632D01*
X74745368Y-44587475D01*
X74919760Y-44704000D01*
X74745368Y-44820525D01*
X74538525Y-45027368D01*
X74376010Y-45270589D01*
X74264068Y-45540842D01*
X74207000Y-45827740D01*
X74207000Y-46120260D01*
X74264068Y-46407158D01*
X74376010Y-46677411D01*
X74538525Y-46920632D01*
X74745368Y-47127475D01*
X74919760Y-47244000D01*
X74745368Y-47360525D01*
X74538525Y-47567368D01*
X74376010Y-47810589D01*
X74264068Y-48080842D01*
X74207000Y-48367740D01*
X74207000Y-48660260D01*
X74264068Y-48947158D01*
X74376010Y-49217411D01*
X74538525Y-49460632D01*
X74745368Y-49667475D01*
X74988589Y-49829990D01*
X75258842Y-49941932D01*
X75545740Y-49999000D01*
X75838260Y-49999000D01*
X76125158Y-49941932D01*
X76395411Y-49829990D01*
X76638632Y-49667475D01*
X76845475Y-49460632D01*
X76910042Y-49364000D01*
X81823928Y-49364000D01*
X81836188Y-49488482D01*
X81872498Y-49608180D01*
X81931463Y-49718494D01*
X82010815Y-49815185D01*
X82107506Y-49894537D01*
X82217820Y-49953502D01*
X82337518Y-49989812D01*
X82462000Y-50002072D01*
X83026250Y-49999000D01*
X83185000Y-49840250D01*
X83185000Y-48641000D01*
X83439000Y-48641000D01*
X83439000Y-49840250D01*
X83597750Y-49999000D01*
X84162000Y-50002072D01*
X84286482Y-49989812D01*
X84406180Y-49953502D01*
X84516494Y-49894537D01*
X84613185Y-49815185D01*
X84692537Y-49718494D01*
X84751502Y-49608180D01*
X84787812Y-49488482D01*
X84800072Y-49364000D01*
X84797000Y-48799750D01*
X84638250Y-48641000D01*
X83439000Y-48641000D01*
X83185000Y-48641000D01*
X81985750Y-48641000D01*
X81827000Y-48799750D01*
X81823928Y-49364000D01*
X76910042Y-49364000D01*
X77007990Y-49217411D01*
X77119932Y-48947158D01*
X77177000Y-48660260D01*
X77177000Y-48367740D01*
X77119932Y-48080842D01*
X77007990Y-47810589D01*
X76910043Y-47664000D01*
X81823928Y-47664000D01*
X81827000Y-48228250D01*
X81985750Y-48387000D01*
X83185000Y-48387000D01*
X83185000Y-48367000D01*
X83439000Y-48367000D01*
X83439000Y-48387000D01*
X84638250Y-48387000D01*
X84797000Y-48228250D01*
X84800072Y-47664000D01*
X84787812Y-47539518D01*
X84751502Y-47419820D01*
X84692537Y-47309506D01*
X84613185Y-47212815D01*
X84516494Y-47133463D01*
X84406180Y-47074498D01*
X84333620Y-47052487D01*
X84465475Y-46920632D01*
X84627990Y-46677411D01*
X84739932Y-46407158D01*
X84797000Y-46120260D01*
X84797000Y-45827740D01*
X84739932Y-45540842D01*
X84627990Y-45270589D01*
X84465475Y-45027368D01*
X84258632Y-44820525D01*
X84084240Y-44704000D01*
X84258632Y-44587475D01*
X84465475Y-44380632D01*
X84627990Y-44137411D01*
X84739932Y-43867158D01*
X84797000Y-43580260D01*
X84797000Y-43287740D01*
X84739932Y-43000842D01*
X84627990Y-42730589D01*
X84465475Y-42487368D01*
X84258632Y-42280525D01*
X84084240Y-42164000D01*
X84258632Y-42047475D01*
X84465475Y-41840632D01*
X84627990Y-41597411D01*
X84739932Y-41327158D01*
X84797000Y-41040260D01*
X84797000Y-40747740D01*
X84739932Y-40460842D01*
X84627990Y-40190589D01*
X84465475Y-39947368D01*
X84258632Y-39740525D01*
X84084240Y-39624000D01*
X84258632Y-39507475D01*
X84465475Y-39300632D01*
X84627990Y-39057411D01*
X84739932Y-38787158D01*
X84797000Y-38500260D01*
X84797000Y-38207740D01*
X84739932Y-37920842D01*
X84627990Y-37650589D01*
X84465475Y-37407368D01*
X84258632Y-37200525D01*
X84015411Y-37038010D01*
X83745158Y-36926068D01*
X83458260Y-36869000D01*
X83165740Y-36869000D01*
X82878842Y-36926068D01*
X82608589Y-37038010D01*
X82365368Y-37200525D01*
X82158525Y-37407368D01*
X81996010Y-37650589D01*
X81884068Y-37920842D01*
X81827000Y-38207740D01*
X81827000Y-38500260D01*
X81884068Y-38787158D01*
X81996010Y-39057411D01*
X82158525Y-39300632D01*
X82365368Y-39507475D01*
X82539760Y-39624000D01*
X82365368Y-39740525D01*
X82158525Y-39947368D01*
X81996010Y-40190589D01*
X81884068Y-40460842D01*
X81827000Y-40747740D01*
X81827000Y-41040260D01*
X81884068Y-41327158D01*
X81996010Y-41597411D01*
X82158525Y-41840632D01*
X82365368Y-42047475D01*
X82539760Y-42164000D01*
X82365368Y-42280525D01*
X82158525Y-42487368D01*
X81996010Y-42730589D01*
X81884068Y-43000842D01*
X81827000Y-43287740D01*
X81827000Y-43580260D01*
X81884068Y-43867158D01*
X81996010Y-44137411D01*
X82158525Y-44380632D01*
X82365368Y-44587475D01*
X82539760Y-44704000D01*
X82365368Y-44820525D01*
X82158525Y-45027368D01*
X81996010Y-45270589D01*
X81884068Y-45540842D01*
X81827000Y-45827740D01*
X81827000Y-46120260D01*
X81884068Y-46407158D01*
X81996010Y-46677411D01*
X82158525Y-46920632D01*
X82290380Y-47052487D01*
X82217820Y-47074498D01*
X82107506Y-47133463D01*
X82010815Y-47212815D01*
X81931463Y-47309506D01*
X81872498Y-47419820D01*
X81836188Y-47539518D01*
X81823928Y-47664000D01*
X76910043Y-47664000D01*
X76845475Y-47567368D01*
X76638632Y-47360525D01*
X76464240Y-47244000D01*
X76638632Y-47127475D01*
X76845475Y-46920632D01*
X77007990Y-46677411D01*
X77119932Y-46407158D01*
X77177000Y-46120260D01*
X77177000Y-45827740D01*
X77119932Y-45540842D01*
X77007990Y-45270589D01*
X76845475Y-45027368D01*
X76638632Y-44820525D01*
X76464240Y-44704000D01*
X76638632Y-44587475D01*
X76845475Y-44380632D01*
X77007990Y-44137411D01*
X77119932Y-43867158D01*
X77177000Y-43580260D01*
X77177000Y-43287740D01*
X77119932Y-43000842D01*
X77007990Y-42730589D01*
X76845475Y-42487368D01*
X76638632Y-42280525D01*
X76464240Y-42164000D01*
X76638632Y-42047475D01*
X76845475Y-41840632D01*
X77007990Y-41597411D01*
X77119932Y-41327158D01*
X77177000Y-41040260D01*
X77177000Y-40747740D01*
X77119932Y-40460842D01*
X77007990Y-40190589D01*
X76845475Y-39947368D01*
X76638632Y-39740525D01*
X76465271Y-39624689D01*
X76540792Y-39382397D01*
X75692000Y-38533605D01*
X74843208Y-39382397D01*
X74918729Y-39624689D01*
X74745368Y-39740525D01*
X74538525Y-39947368D01*
X74376010Y-40190589D01*
X74264068Y-40460842D01*
X74207000Y-40747740D01*
X74168000Y-40747740D01*
X74168000Y-38422531D01*
X74201389Y-38422531D01*
X74243401Y-38712019D01*
X74341081Y-38987747D01*
X74414528Y-39125157D01*
X74663603Y-39202792D01*
X75512395Y-38354000D01*
X75871605Y-38354000D01*
X76720397Y-39202792D01*
X76969472Y-39125157D01*
X77095371Y-38861117D01*
X77167339Y-38577589D01*
X77182611Y-38285469D01*
X77140599Y-37995981D01*
X77042919Y-37720253D01*
X76969472Y-37582843D01*
X76720397Y-37505208D01*
X75871605Y-38354000D01*
X75512395Y-38354000D01*
X74663603Y-37505208D01*
X74414528Y-37582843D01*
X74288629Y-37846883D01*
X74216661Y-38130411D01*
X74201389Y-38422531D01*
X74168000Y-38422531D01*
X74168000Y-37325603D01*
X74843208Y-37325603D01*
X75692000Y-38174395D01*
X76540792Y-37325603D01*
X76463157Y-37076528D01*
X76199117Y-36950629D01*
X75915589Y-36878661D01*
X75623469Y-36863389D01*
X75333981Y-36905401D01*
X75058253Y-37003081D01*
X74920843Y-37076528D01*
X74843208Y-37325603D01*
X74168000Y-37325603D01*
X74168000Y-35814000D01*
X74165560Y-35789224D01*
X74158333Y-35765399D01*
X74146597Y-35743443D01*
X74130803Y-35724197D01*
X74111557Y-35708403D01*
X74089601Y-35696667D01*
X74065776Y-35689440D01*
X74041000Y-35687000D01*
X49911000Y-35687000D01*
X49886224Y-35689440D01*
X49862399Y-35696667D01*
X49840443Y-35708403D01*
X49821197Y-35724197D01*
X49805403Y-35743443D01*
X49793667Y-35765399D01*
X49786440Y-35789224D01*
X49784000Y-35814000D01*
X49784000Y-51308000D01*
X38481000Y-51308000D01*
X38481000Y-40747740D01*
X39155000Y-40747740D01*
X39155000Y-41040260D01*
X39212068Y-41327158D01*
X39324010Y-41597411D01*
X39486525Y-41840632D01*
X39693368Y-42047475D01*
X39867760Y-42164000D01*
X39693368Y-42280525D01*
X39486525Y-42487368D01*
X39324010Y-42730589D01*
X39212068Y-43000842D01*
X39155000Y-43287740D01*
X39155000Y-43580260D01*
X39212068Y-43867158D01*
X39324010Y-44137411D01*
X39486525Y-44380632D01*
X39693368Y-44587475D01*
X39867760Y-44704000D01*
X39693368Y-44820525D01*
X39486525Y-45027368D01*
X39324010Y-45270589D01*
X39212068Y-45540842D01*
X39155000Y-45827740D01*
X39155000Y-46120260D01*
X39212068Y-46407158D01*
X39324010Y-46677411D01*
X39486525Y-46920632D01*
X39693368Y-47127475D01*
X39867760Y-47244000D01*
X39693368Y-47360525D01*
X39486525Y-47567368D01*
X39324010Y-47810589D01*
X39212068Y-48080842D01*
X39155000Y-48367740D01*
X39155000Y-48660260D01*
X39212068Y-48947158D01*
X39324010Y-49217411D01*
X39486525Y-49460632D01*
X39693368Y-49667475D01*
X39936589Y-49829990D01*
X40206842Y-49941932D01*
X40493740Y-49999000D01*
X40786260Y-49999000D01*
X41073158Y-49941932D01*
X41343411Y-49829990D01*
X41586632Y-49667475D01*
X41793475Y-49460632D01*
X41858042Y-49364000D01*
X46771928Y-49364000D01*
X46784188Y-49488482D01*
X46820498Y-49608180D01*
X46879463Y-49718494D01*
X46958815Y-49815185D01*
X47055506Y-49894537D01*
X47165820Y-49953502D01*
X47285518Y-49989812D01*
X47410000Y-50002072D01*
X47974250Y-49999000D01*
X48133000Y-49840250D01*
X48133000Y-48641000D01*
X48387000Y-48641000D01*
X48387000Y-49840250D01*
X48545750Y-49999000D01*
X49110000Y-50002072D01*
X49234482Y-49989812D01*
X49354180Y-49953502D01*
X49464494Y-49894537D01*
X49561185Y-49815185D01*
X49640537Y-49718494D01*
X49699502Y-49608180D01*
X49735812Y-49488482D01*
X49748072Y-49364000D01*
X49745000Y-48799750D01*
X49586250Y-48641000D01*
X48387000Y-48641000D01*
X48133000Y-48641000D01*
X46933750Y-48641000D01*
X46775000Y-48799750D01*
X46771928Y-49364000D01*
X41858042Y-49364000D01*
X41955990Y-49217411D01*
X42067932Y-48947158D01*
X42125000Y-48660260D01*
X42125000Y-48367740D01*
X42067932Y-48080842D01*
X41955990Y-47810589D01*
X41858043Y-47664000D01*
X46771928Y-47664000D01*
X46775000Y-48228250D01*
X46933750Y-48387000D01*
X48133000Y-48387000D01*
X48133000Y-48367000D01*
X48387000Y-48367000D01*
X48387000Y-48387000D01*
X49586250Y-48387000D01*
X49745000Y-48228250D01*
X49748072Y-47664000D01*
X49735812Y-47539518D01*
X49699502Y-47419820D01*
X49640537Y-47309506D01*
X49561185Y-47212815D01*
X49464494Y-47133463D01*
X49354180Y-47074498D01*
X49281620Y-47052487D01*
X49413475Y-46920632D01*
X49575990Y-46677411D01*
X49687932Y-46407158D01*
X49745000Y-46120260D01*
X49745000Y-45827740D01*
X49687932Y-45540842D01*
X49575990Y-45270589D01*
X49413475Y-45027368D01*
X49206632Y-44820525D01*
X49032240Y-44704000D01*
X49206632Y-44587475D01*
X49413475Y-44380632D01*
X49575990Y-44137411D01*
X49687932Y-43867158D01*
X49745000Y-43580260D01*
X49745000Y-43287740D01*
X49687932Y-43000842D01*
X49575990Y-42730589D01*
X49413475Y-42487368D01*
X49206632Y-42280525D01*
X49032240Y-42164000D01*
X49206632Y-42047475D01*
X49413475Y-41840632D01*
X49575990Y-41597411D01*
X49687932Y-41327158D01*
X49745000Y-41040260D01*
X49745000Y-40747740D01*
X49687932Y-40460842D01*
X49575990Y-40190589D01*
X49413475Y-39947368D01*
X49206632Y-39740525D01*
X49032240Y-39624000D01*
X49206632Y-39507475D01*
X49413475Y-39300632D01*
X49575990Y-39057411D01*
X49687932Y-38787158D01*
X49745000Y-38500260D01*
X49745000Y-38207740D01*
X49687932Y-37920842D01*
X49575990Y-37650589D01*
X49413475Y-37407368D01*
X49206632Y-37200525D01*
X48963411Y-37038010D01*
X48693158Y-36926068D01*
X48406260Y-36869000D01*
X48113740Y-36869000D01*
X47826842Y-36926068D01*
X47556589Y-37038010D01*
X47313368Y-37200525D01*
X47106525Y-37407368D01*
X46944010Y-37650589D01*
X46832068Y-37920842D01*
X46775000Y-38207740D01*
X46775000Y-38500260D01*
X46832068Y-38787158D01*
X46944010Y-39057411D01*
X47106525Y-39300632D01*
X47313368Y-39507475D01*
X47487760Y-39624000D01*
X47313368Y-39740525D01*
X47106525Y-39947368D01*
X46944010Y-40190589D01*
X46832068Y-40460842D01*
X46775000Y-40747740D01*
X46775000Y-41040260D01*
X46832068Y-41327158D01*
X46944010Y-41597411D01*
X47106525Y-41840632D01*
X47313368Y-42047475D01*
X47487760Y-42164000D01*
X47313368Y-42280525D01*
X47106525Y-42487368D01*
X46944010Y-42730589D01*
X46832068Y-43000842D01*
X46775000Y-43287740D01*
X46775000Y-43580260D01*
X46832068Y-43867158D01*
X46944010Y-44137411D01*
X47106525Y-44380632D01*
X47313368Y-44587475D01*
X47487760Y-44704000D01*
X47313368Y-44820525D01*
X47106525Y-45027368D01*
X46944010Y-45270589D01*
X46832068Y-45540842D01*
X46775000Y-45827740D01*
X46775000Y-46120260D01*
X46832068Y-46407158D01*
X46944010Y-46677411D01*
X47106525Y-46920632D01*
X47238380Y-47052487D01*
X47165820Y-47074498D01*
X47055506Y-47133463D01*
X46958815Y-47212815D01*
X46879463Y-47309506D01*
X46820498Y-47419820D01*
X46784188Y-47539518D01*
X46771928Y-47664000D01*
X41858043Y-47664000D01*
X41793475Y-47567368D01*
X41586632Y-47360525D01*
X41412240Y-47244000D01*
X41586632Y-47127475D01*
X41793475Y-46920632D01*
X41955990Y-46677411D01*
X42067932Y-46407158D01*
X42125000Y-46120260D01*
X42125000Y-45827740D01*
X42067932Y-45540842D01*
X41955990Y-45270589D01*
X41793475Y-45027368D01*
X41586632Y-44820525D01*
X41412240Y-44704000D01*
X41586632Y-44587475D01*
X41793475Y-44380632D01*
X41955990Y-44137411D01*
X42067932Y-43867158D01*
X42125000Y-43580260D01*
X42125000Y-43287740D01*
X42067932Y-43000842D01*
X41955990Y-42730589D01*
X41793475Y-42487368D01*
X41586632Y-42280525D01*
X41412240Y-42164000D01*
X41586632Y-42047475D01*
X41793475Y-41840632D01*
X41955990Y-41597411D01*
X42067932Y-41327158D01*
X42125000Y-41040260D01*
X42125000Y-40747740D01*
X42067932Y-40460842D01*
X41955990Y-40190589D01*
X41793475Y-39947368D01*
X41586632Y-39740525D01*
X41413271Y-39624689D01*
X41488792Y-39382397D01*
X40640000Y-38533605D01*
X39791208Y-39382397D01*
X39866729Y-39624689D01*
X39693368Y-39740525D01*
X39486525Y-39947368D01*
X39324010Y-40190589D01*
X39212068Y-40460842D01*
X39155000Y-40747740D01*
X38481000Y-40747740D01*
X38481000Y-38422531D01*
X39149389Y-38422531D01*
X39191401Y-38712019D01*
X39289081Y-38987747D01*
X39362528Y-39125157D01*
X39611603Y-39202792D01*
X40460395Y-38354000D01*
X40819605Y-38354000D01*
X41668397Y-39202792D01*
X41917472Y-39125157D01*
X42043371Y-38861117D01*
X42115339Y-38577589D01*
X42130611Y-38285469D01*
X42088599Y-37995981D01*
X41990919Y-37720253D01*
X41917472Y-37582843D01*
X41668397Y-37505208D01*
X40819605Y-38354000D01*
X40460395Y-38354000D01*
X39611603Y-37505208D01*
X39362528Y-37582843D01*
X39236629Y-37846883D01*
X39164661Y-38130411D01*
X39149389Y-38422531D01*
X38481000Y-38422531D01*
X38481000Y-37325603D01*
X39791208Y-37325603D01*
X40640000Y-38174395D01*
X41488792Y-37325603D01*
X41411157Y-37076528D01*
X41147117Y-36950629D01*
X40863589Y-36878661D01*
X40571469Y-36863389D01*
X40281981Y-36905401D01*
X40006253Y-37003081D01*
X39868843Y-37076528D01*
X39791208Y-37325603D01*
X38481000Y-37325603D01*
X38481000Y-31623000D01*
X85344000Y-31623000D01*
X85344000Y-50800000D01*
G37*
X85344000Y-50800000D02*
X81534000Y-50800000D01*
X81509224Y-50802440D01*
X81485399Y-50809667D01*
X81463443Y-50821403D01*
X81444197Y-50837197D01*
X81428403Y-50856443D01*
X81416667Y-50878399D01*
X81409440Y-50902224D01*
X81407000Y-50927000D01*
X81407000Y-53848000D01*
X77597000Y-53848000D01*
X77572224Y-53850440D01*
X77548399Y-53857667D01*
X77526443Y-53869403D01*
X77507197Y-53885197D01*
X77491403Y-53904443D01*
X77479667Y-53926399D01*
X77472440Y-53950224D01*
X77470000Y-53975000D01*
X77470000Y-55118905D01*
X66166092Y-55199735D01*
X66141334Y-55202353D01*
X66117561Y-55209750D01*
X66095689Y-55221643D01*
X66076558Y-55237574D01*
X66060902Y-55256931D01*
X66049323Y-55278971D01*
X66042266Y-55302847D01*
X66040000Y-55326732D01*
X66040000Y-59817000D01*
X61722000Y-59817000D01*
X61722000Y-51816000D01*
X73914000Y-51816000D01*
X73938776Y-51813560D01*
X73962601Y-51806333D01*
X73984557Y-51794597D01*
X74003803Y-51778803D01*
X74019597Y-51759557D01*
X74031333Y-51737601D01*
X74039272Y-51709879D01*
X74166272Y-50947879D01*
X74168000Y-50927000D01*
X74168000Y-40747740D01*
X74207000Y-40747740D01*
X74207000Y-41040260D01*
X74264068Y-41327158D01*
X74376010Y-41597411D01*
X74538525Y-41840632D01*
X74745368Y-42047475D01*
X74919760Y-42164000D01*
X74745368Y-42280525D01*
X74538525Y-42487368D01*
X74376010Y-42730589D01*
X74264068Y-43000842D01*
X74207000Y-43287740D01*
X74207000Y-43580260D01*
X74264068Y-43867158D01*
X74376010Y-44137411D01*
X74538525Y-44380632D01*
X74745368Y-44587475D01*
X74919760Y-44704000D01*
X74745368Y-44820525D01*
X74538525Y-45027368D01*
X74376010Y-45270589D01*
X74264068Y-45540842D01*
X74207000Y-45827740D01*
X74207000Y-46120260D01*
X74264068Y-46407158D01*
X74376010Y-46677411D01*
X74538525Y-46920632D01*
X74745368Y-47127475D01*
X74919760Y-47244000D01*
X74745368Y-47360525D01*
X74538525Y-47567368D01*
X74376010Y-47810589D01*
X74264068Y-48080842D01*
X74207000Y-48367740D01*
X74207000Y-48660260D01*
X74264068Y-48947158D01*
X74376010Y-49217411D01*
X74538525Y-49460632D01*
X74745368Y-49667475D01*
X74988589Y-49829990D01*
X75258842Y-49941932D01*
X75545740Y-49999000D01*
X75838260Y-49999000D01*
X76125158Y-49941932D01*
X76395411Y-49829990D01*
X76638632Y-49667475D01*
X76845475Y-49460632D01*
X76910042Y-49364000D01*
X81823928Y-49364000D01*
X81836188Y-49488482D01*
X81872498Y-49608180D01*
X81931463Y-49718494D01*
X82010815Y-49815185D01*
X82107506Y-49894537D01*
X82217820Y-49953502D01*
X82337518Y-49989812D01*
X82462000Y-50002072D01*
X83026250Y-49999000D01*
X83185000Y-49840250D01*
X83185000Y-48641000D01*
X83439000Y-48641000D01*
X83439000Y-49840250D01*
X83597750Y-49999000D01*
X84162000Y-50002072D01*
X84286482Y-49989812D01*
X84406180Y-49953502D01*
X84516494Y-49894537D01*
X84613185Y-49815185D01*
X84692537Y-49718494D01*
X84751502Y-49608180D01*
X84787812Y-49488482D01*
X84800072Y-49364000D01*
X84797000Y-48799750D01*
X84638250Y-48641000D01*
X83439000Y-48641000D01*
X83185000Y-48641000D01*
X81985750Y-48641000D01*
X81827000Y-48799750D01*
X81823928Y-49364000D01*
X76910042Y-49364000D01*
X77007990Y-49217411D01*
X77119932Y-48947158D01*
X77177000Y-48660260D01*
X77177000Y-48367740D01*
X77119932Y-48080842D01*
X77007990Y-47810589D01*
X76910043Y-47664000D01*
X81823928Y-47664000D01*
X81827000Y-48228250D01*
X81985750Y-48387000D01*
X83185000Y-48387000D01*
X83185000Y-48367000D01*
X83439000Y-48367000D01*
X83439000Y-48387000D01*
X84638250Y-48387000D01*
X84797000Y-48228250D01*
X84800072Y-47664000D01*
X84787812Y-47539518D01*
X84751502Y-47419820D01*
X84692537Y-47309506D01*
X84613185Y-47212815D01*
X84516494Y-47133463D01*
X84406180Y-47074498D01*
X84333620Y-47052487D01*
X84465475Y-46920632D01*
X84627990Y-46677411D01*
X84739932Y-46407158D01*
X84797000Y-46120260D01*
X84797000Y-45827740D01*
X84739932Y-45540842D01*
X84627990Y-45270589D01*
X84465475Y-45027368D01*
X84258632Y-44820525D01*
X84084240Y-44704000D01*
X84258632Y-44587475D01*
X84465475Y-44380632D01*
X84627990Y-44137411D01*
X84739932Y-43867158D01*
X84797000Y-43580260D01*
X84797000Y-43287740D01*
X84739932Y-43000842D01*
X84627990Y-42730589D01*
X84465475Y-42487368D01*
X84258632Y-42280525D01*
X84084240Y-42164000D01*
X84258632Y-42047475D01*
X84465475Y-41840632D01*
X84627990Y-41597411D01*
X84739932Y-41327158D01*
X84797000Y-41040260D01*
X84797000Y-40747740D01*
X84739932Y-40460842D01*
X84627990Y-40190589D01*
X84465475Y-39947368D01*
X84258632Y-39740525D01*
X84084240Y-39624000D01*
X84258632Y-39507475D01*
X84465475Y-39300632D01*
X84627990Y-39057411D01*
X84739932Y-38787158D01*
X84797000Y-38500260D01*
X84797000Y-38207740D01*
X84739932Y-37920842D01*
X84627990Y-37650589D01*
X84465475Y-37407368D01*
X84258632Y-37200525D01*
X84015411Y-37038010D01*
X83745158Y-36926068D01*
X83458260Y-36869000D01*
X83165740Y-36869000D01*
X82878842Y-36926068D01*
X82608589Y-37038010D01*
X82365368Y-37200525D01*
X82158525Y-37407368D01*
X81996010Y-37650589D01*
X81884068Y-37920842D01*
X81827000Y-38207740D01*
X81827000Y-38500260D01*
X81884068Y-38787158D01*
X81996010Y-39057411D01*
X82158525Y-39300632D01*
X82365368Y-39507475D01*
X82539760Y-39624000D01*
X82365368Y-39740525D01*
X82158525Y-39947368D01*
X81996010Y-40190589D01*
X81884068Y-40460842D01*
X81827000Y-40747740D01*
X81827000Y-41040260D01*
X81884068Y-41327158D01*
X81996010Y-41597411D01*
X82158525Y-41840632D01*
X82365368Y-42047475D01*
X82539760Y-42164000D01*
X82365368Y-42280525D01*
X82158525Y-42487368D01*
X81996010Y-42730589D01*
X81884068Y-43000842D01*
X81827000Y-43287740D01*
X81827000Y-43580260D01*
X81884068Y-43867158D01*
X81996010Y-44137411D01*
X82158525Y-44380632D01*
X82365368Y-44587475D01*
X82539760Y-44704000D01*
X82365368Y-44820525D01*
X82158525Y-45027368D01*
X81996010Y-45270589D01*
X81884068Y-45540842D01*
X81827000Y-45827740D01*
X81827000Y-46120260D01*
X81884068Y-46407158D01*
X81996010Y-46677411D01*
X82158525Y-46920632D01*
X82290380Y-47052487D01*
X82217820Y-47074498D01*
X82107506Y-47133463D01*
X82010815Y-47212815D01*
X81931463Y-47309506D01*
X81872498Y-47419820D01*
X81836188Y-47539518D01*
X81823928Y-47664000D01*
X76910043Y-47664000D01*
X76845475Y-47567368D01*
X76638632Y-47360525D01*
X76464240Y-47244000D01*
X76638632Y-47127475D01*
X76845475Y-46920632D01*
X77007990Y-46677411D01*
X77119932Y-46407158D01*
X77177000Y-46120260D01*
X77177000Y-45827740D01*
X77119932Y-45540842D01*
X77007990Y-45270589D01*
X76845475Y-45027368D01*
X76638632Y-44820525D01*
X76464240Y-44704000D01*
X76638632Y-44587475D01*
X76845475Y-44380632D01*
X77007990Y-44137411D01*
X77119932Y-43867158D01*
X77177000Y-43580260D01*
X77177000Y-43287740D01*
X77119932Y-43000842D01*
X77007990Y-42730589D01*
X76845475Y-42487368D01*
X76638632Y-42280525D01*
X76464240Y-42164000D01*
X76638632Y-42047475D01*
X76845475Y-41840632D01*
X77007990Y-41597411D01*
X77119932Y-41327158D01*
X77177000Y-41040260D01*
X77177000Y-40747740D01*
X77119932Y-40460842D01*
X77007990Y-40190589D01*
X76845475Y-39947368D01*
X76638632Y-39740525D01*
X76465271Y-39624689D01*
X76540792Y-39382397D01*
X75692000Y-38533605D01*
X74843208Y-39382397D01*
X74918729Y-39624689D01*
X74745368Y-39740525D01*
X74538525Y-39947368D01*
X74376010Y-40190589D01*
X74264068Y-40460842D01*
X74207000Y-40747740D01*
X74168000Y-40747740D01*
X74168000Y-38422531D01*
X74201389Y-38422531D01*
X74243401Y-38712019D01*
X74341081Y-38987747D01*
X74414528Y-39125157D01*
X74663603Y-39202792D01*
X75512395Y-38354000D01*
X75871605Y-38354000D01*
X76720397Y-39202792D01*
X76969472Y-39125157D01*
X77095371Y-38861117D01*
X77167339Y-38577589D01*
X77182611Y-38285469D01*
X77140599Y-37995981D01*
X77042919Y-37720253D01*
X76969472Y-37582843D01*
X76720397Y-37505208D01*
X75871605Y-38354000D01*
X75512395Y-38354000D01*
X74663603Y-37505208D01*
X74414528Y-37582843D01*
X74288629Y-37846883D01*
X74216661Y-38130411D01*
X74201389Y-38422531D01*
X74168000Y-38422531D01*
X74168000Y-37325603D01*
X74843208Y-37325603D01*
X75692000Y-38174395D01*
X76540792Y-37325603D01*
X76463157Y-37076528D01*
X76199117Y-36950629D01*
X75915589Y-36878661D01*
X75623469Y-36863389D01*
X75333981Y-36905401D01*
X75058253Y-37003081D01*
X74920843Y-37076528D01*
X74843208Y-37325603D01*
X74168000Y-37325603D01*
X74168000Y-35814000D01*
X74165560Y-35789224D01*
X74158333Y-35765399D01*
X74146597Y-35743443D01*
X74130803Y-35724197D01*
X74111557Y-35708403D01*
X74089601Y-35696667D01*
X74065776Y-35689440D01*
X74041000Y-35687000D01*
X49911000Y-35687000D01*
X49886224Y-35689440D01*
X49862399Y-35696667D01*
X49840443Y-35708403D01*
X49821197Y-35724197D01*
X49805403Y-35743443D01*
X49793667Y-35765399D01*
X49786440Y-35789224D01*
X49784000Y-35814000D01*
X49784000Y-51308000D01*
X38481000Y-51308000D01*
X38481000Y-40747740D01*
X39155000Y-40747740D01*
X39155000Y-41040260D01*
X39212068Y-41327158D01*
X39324010Y-41597411D01*
X39486525Y-41840632D01*
X39693368Y-42047475D01*
X39867760Y-42164000D01*
X39693368Y-42280525D01*
X39486525Y-42487368D01*
X39324010Y-42730589D01*
X39212068Y-43000842D01*
X39155000Y-43287740D01*
X39155000Y-43580260D01*
X39212068Y-43867158D01*
X39324010Y-44137411D01*
X39486525Y-44380632D01*
X39693368Y-44587475D01*
X39867760Y-44704000D01*
X39693368Y-44820525D01*
X39486525Y-45027368D01*
X39324010Y-45270589D01*
X39212068Y-45540842D01*
X39155000Y-45827740D01*
X39155000Y-46120260D01*
X39212068Y-46407158D01*
X39324010Y-46677411D01*
X39486525Y-46920632D01*
X39693368Y-47127475D01*
X39867760Y-47244000D01*
X39693368Y-47360525D01*
X39486525Y-47567368D01*
X39324010Y-47810589D01*
X39212068Y-48080842D01*
X39155000Y-48367740D01*
X39155000Y-48660260D01*
X39212068Y-48947158D01*
X39324010Y-49217411D01*
X39486525Y-49460632D01*
X39693368Y-49667475D01*
X39936589Y-49829990D01*
X40206842Y-49941932D01*
X40493740Y-49999000D01*
X40786260Y-49999000D01*
X41073158Y-49941932D01*
X41343411Y-49829990D01*
X41586632Y-49667475D01*
X41793475Y-49460632D01*
X41858042Y-49364000D01*
X46771928Y-49364000D01*
X46784188Y-49488482D01*
X46820498Y-49608180D01*
X46879463Y-49718494D01*
X46958815Y-49815185D01*
X47055506Y-49894537D01*
X47165820Y-49953502D01*
X47285518Y-49989812D01*
X47410000Y-50002072D01*
X47974250Y-49999000D01*
X48133000Y-49840250D01*
X48133000Y-48641000D01*
X48387000Y-48641000D01*
X48387000Y-49840250D01*
X48545750Y-49999000D01*
X49110000Y-50002072D01*
X49234482Y-49989812D01*
X49354180Y-49953502D01*
X49464494Y-49894537D01*
X49561185Y-49815185D01*
X49640537Y-49718494D01*
X49699502Y-49608180D01*
X49735812Y-49488482D01*
X49748072Y-49364000D01*
X49745000Y-48799750D01*
X49586250Y-48641000D01*
X48387000Y-48641000D01*
X48133000Y-48641000D01*
X46933750Y-48641000D01*
X46775000Y-48799750D01*
X46771928Y-49364000D01*
X41858042Y-49364000D01*
X41955990Y-49217411D01*
X42067932Y-48947158D01*
X42125000Y-48660260D01*
X42125000Y-48367740D01*
X42067932Y-48080842D01*
X41955990Y-47810589D01*
X41858043Y-47664000D01*
X46771928Y-47664000D01*
X46775000Y-48228250D01*
X46933750Y-48387000D01*
X48133000Y-48387000D01*
X48133000Y-48367000D01*
X48387000Y-48367000D01*
X48387000Y-48387000D01*
X49586250Y-48387000D01*
X49745000Y-48228250D01*
X49748072Y-47664000D01*
X49735812Y-47539518D01*
X49699502Y-47419820D01*
X49640537Y-47309506D01*
X49561185Y-47212815D01*
X49464494Y-47133463D01*
X49354180Y-47074498D01*
X49281620Y-47052487D01*
X49413475Y-46920632D01*
X49575990Y-46677411D01*
X49687932Y-46407158D01*
X49745000Y-46120260D01*
X49745000Y-45827740D01*
X49687932Y-45540842D01*
X49575990Y-45270589D01*
X49413475Y-45027368D01*
X49206632Y-44820525D01*
X49032240Y-44704000D01*
X49206632Y-44587475D01*
X49413475Y-44380632D01*
X49575990Y-44137411D01*
X49687932Y-43867158D01*
X49745000Y-43580260D01*
X49745000Y-43287740D01*
X49687932Y-43000842D01*
X49575990Y-42730589D01*
X49413475Y-42487368D01*
X49206632Y-42280525D01*
X49032240Y-42164000D01*
X49206632Y-42047475D01*
X49413475Y-41840632D01*
X49575990Y-41597411D01*
X49687932Y-41327158D01*
X49745000Y-41040260D01*
X49745000Y-40747740D01*
X49687932Y-40460842D01*
X49575990Y-40190589D01*
X49413475Y-39947368D01*
X49206632Y-39740525D01*
X49032240Y-39624000D01*
X49206632Y-39507475D01*
X49413475Y-39300632D01*
X49575990Y-39057411D01*
X49687932Y-38787158D01*
X49745000Y-38500260D01*
X49745000Y-38207740D01*
X49687932Y-37920842D01*
X49575990Y-37650589D01*
X49413475Y-37407368D01*
X49206632Y-37200525D01*
X48963411Y-37038010D01*
X48693158Y-36926068D01*
X48406260Y-36869000D01*
X48113740Y-36869000D01*
X47826842Y-36926068D01*
X47556589Y-37038010D01*
X47313368Y-37200525D01*
X47106525Y-37407368D01*
X46944010Y-37650589D01*
X46832068Y-37920842D01*
X46775000Y-38207740D01*
X46775000Y-38500260D01*
X46832068Y-38787158D01*
X46944010Y-39057411D01*
X47106525Y-39300632D01*
X47313368Y-39507475D01*
X47487760Y-39624000D01*
X47313368Y-39740525D01*
X47106525Y-39947368D01*
X46944010Y-40190589D01*
X46832068Y-40460842D01*
X46775000Y-40747740D01*
X46775000Y-41040260D01*
X46832068Y-41327158D01*
X46944010Y-41597411D01*
X47106525Y-41840632D01*
X47313368Y-42047475D01*
X47487760Y-42164000D01*
X47313368Y-42280525D01*
X47106525Y-42487368D01*
X46944010Y-42730589D01*
X46832068Y-43000842D01*
X46775000Y-43287740D01*
X46775000Y-43580260D01*
X46832068Y-43867158D01*
X46944010Y-44137411D01*
X47106525Y-44380632D01*
X47313368Y-44587475D01*
X47487760Y-44704000D01*
X47313368Y-44820525D01*
X47106525Y-45027368D01*
X46944010Y-45270589D01*
X46832068Y-45540842D01*
X46775000Y-45827740D01*
X46775000Y-46120260D01*
X46832068Y-46407158D01*
X46944010Y-46677411D01*
X47106525Y-46920632D01*
X47238380Y-47052487D01*
X47165820Y-47074498D01*
X47055506Y-47133463D01*
X46958815Y-47212815D01*
X46879463Y-47309506D01*
X46820498Y-47419820D01*
X46784188Y-47539518D01*
X46771928Y-47664000D01*
X41858043Y-47664000D01*
X41793475Y-47567368D01*
X41586632Y-47360525D01*
X41412240Y-47244000D01*
X41586632Y-47127475D01*
X41793475Y-46920632D01*
X41955990Y-46677411D01*
X42067932Y-46407158D01*
X42125000Y-46120260D01*
X42125000Y-45827740D01*
X42067932Y-45540842D01*
X41955990Y-45270589D01*
X41793475Y-45027368D01*
X41586632Y-44820525D01*
X41412240Y-44704000D01*
X41586632Y-44587475D01*
X41793475Y-44380632D01*
X41955990Y-44137411D01*
X42067932Y-43867158D01*
X42125000Y-43580260D01*
X42125000Y-43287740D01*
X42067932Y-43000842D01*
X41955990Y-42730589D01*
X41793475Y-42487368D01*
X41586632Y-42280525D01*
X41412240Y-42164000D01*
X41586632Y-42047475D01*
X41793475Y-41840632D01*
X41955990Y-41597411D01*
X42067932Y-41327158D01*
X42125000Y-41040260D01*
X42125000Y-40747740D01*
X42067932Y-40460842D01*
X41955990Y-40190589D01*
X41793475Y-39947368D01*
X41586632Y-39740525D01*
X41413271Y-39624689D01*
X41488792Y-39382397D01*
X40640000Y-38533605D01*
X39791208Y-39382397D01*
X39866729Y-39624689D01*
X39693368Y-39740525D01*
X39486525Y-39947368D01*
X39324010Y-40190589D01*
X39212068Y-40460842D01*
X39155000Y-40747740D01*
X38481000Y-40747740D01*
X38481000Y-38422531D01*
X39149389Y-38422531D01*
X39191401Y-38712019D01*
X39289081Y-38987747D01*
X39362528Y-39125157D01*
X39611603Y-39202792D01*
X40460395Y-38354000D01*
X40819605Y-38354000D01*
X41668397Y-39202792D01*
X41917472Y-39125157D01*
X42043371Y-38861117D01*
X42115339Y-38577589D01*
X42130611Y-38285469D01*
X42088599Y-37995981D01*
X41990919Y-37720253D01*
X41917472Y-37582843D01*
X41668397Y-37505208D01*
X40819605Y-38354000D01*
X40460395Y-38354000D01*
X39611603Y-37505208D01*
X39362528Y-37582843D01*
X39236629Y-37846883D01*
X39164661Y-38130411D01*
X39149389Y-38422531D01*
X38481000Y-38422531D01*
X38481000Y-37325603D01*
X39791208Y-37325603D01*
X40640000Y-38174395D01*
X41488792Y-37325603D01*
X41411157Y-37076528D01*
X41147117Y-36950629D01*
X40863589Y-36878661D01*
X40571469Y-36863389D01*
X40281981Y-36905401D01*
X40006253Y-37003081D01*
X39868843Y-37076528D01*
X39791208Y-37325603D01*
X38481000Y-37325603D01*
X38481000Y-31623000D01*
X85344000Y-31623000D01*
X85344000Y-50800000D01*
%TO.N,/Display/COM0*%
G36*
X73279000Y-50927000D02*
G01*
X61087000Y-50927000D01*
X61062224Y-50929440D01*
X61038399Y-50936667D01*
X61016443Y-50948403D01*
X60997197Y-50964197D01*
X60981403Y-50983443D01*
X60969667Y-51005399D01*
X60962440Y-51029224D01*
X60960000Y-51054000D01*
X60960000Y-59563000D01*
X55665056Y-59563000D01*
X55636068Y-59417271D01*
X55626000Y-59392964D01*
X55626000Y-58717036D01*
X55636068Y-58692729D01*
X55672000Y-58512089D01*
X55672000Y-58327911D01*
X55636068Y-58147271D01*
X55626000Y-58122964D01*
X55626000Y-51054000D01*
X55623560Y-51029224D01*
X55616333Y-51005399D01*
X55604597Y-50983443D01*
X55588803Y-50964197D01*
X55569557Y-50948403D01*
X55547601Y-50936667D01*
X55523776Y-50929440D01*
X55499000Y-50927000D01*
X50927000Y-50927000D01*
X50927000Y-49021835D01*
X51008010Y-49217411D01*
X51170525Y-49460632D01*
X51377368Y-49667475D01*
X51620589Y-49829990D01*
X51890842Y-49941932D01*
X52177740Y-49999000D01*
X52470260Y-49999000D01*
X52757158Y-49941932D01*
X53027411Y-49829990D01*
X53270632Y-49667475D01*
X53477475Y-49460632D01*
X53542042Y-49364000D01*
X58455928Y-49364000D01*
X58468188Y-49488482D01*
X58504498Y-49608180D01*
X58563463Y-49718494D01*
X58642815Y-49815185D01*
X58739506Y-49894537D01*
X58849820Y-49953502D01*
X58969518Y-49989812D01*
X59094000Y-50002072D01*
X59658250Y-49999000D01*
X59817000Y-49840250D01*
X59817000Y-48641000D01*
X60071000Y-48641000D01*
X60071000Y-49840250D01*
X60229750Y-49999000D01*
X60794000Y-50002072D01*
X60918482Y-49989812D01*
X61038180Y-49953502D01*
X61148494Y-49894537D01*
X61245185Y-49815185D01*
X61324537Y-49718494D01*
X61383502Y-49608180D01*
X61419812Y-49488482D01*
X61432072Y-49364000D01*
X61429000Y-48799750D01*
X61270250Y-48641000D01*
X60071000Y-48641000D01*
X59817000Y-48641000D01*
X58617750Y-48641000D01*
X58459000Y-48799750D01*
X58455928Y-49364000D01*
X53542042Y-49364000D01*
X53639990Y-49217411D01*
X53751932Y-48947158D01*
X53809000Y-48660260D01*
X53809000Y-48367740D01*
X53751932Y-48080842D01*
X53639990Y-47810589D01*
X53542043Y-47664000D01*
X58455928Y-47664000D01*
X58459000Y-48228250D01*
X58617750Y-48387000D01*
X59817000Y-48387000D01*
X59817000Y-48367000D01*
X60071000Y-48367000D01*
X60071000Y-48387000D01*
X61270250Y-48387000D01*
X61429000Y-48228250D01*
X61432072Y-47664000D01*
X61419812Y-47539518D01*
X61383502Y-47419820D01*
X61324537Y-47309506D01*
X61245185Y-47212815D01*
X61148494Y-47133463D01*
X61038180Y-47074498D01*
X60965620Y-47052487D01*
X61097475Y-46920632D01*
X61259990Y-46677411D01*
X61371932Y-46407158D01*
X61429000Y-46120260D01*
X61429000Y-45827740D01*
X61371932Y-45540842D01*
X61259990Y-45270589D01*
X61097475Y-45027368D01*
X60890632Y-44820525D01*
X60716240Y-44704000D01*
X60890632Y-44587475D01*
X61097475Y-44380632D01*
X61259990Y-44137411D01*
X61371932Y-43867158D01*
X61429000Y-43580260D01*
X61429000Y-43287740D01*
X61371932Y-43000842D01*
X61259990Y-42730589D01*
X61097475Y-42487368D01*
X60890632Y-42280525D01*
X60716240Y-42164000D01*
X60890632Y-42047475D01*
X61097475Y-41840632D01*
X61259990Y-41597411D01*
X61371932Y-41327158D01*
X61429000Y-41040260D01*
X61429000Y-40747740D01*
X62523000Y-40747740D01*
X62523000Y-41040260D01*
X62580068Y-41327158D01*
X62692010Y-41597411D01*
X62854525Y-41840632D01*
X63061368Y-42047475D01*
X63235760Y-42164000D01*
X63061368Y-42280525D01*
X62854525Y-42487368D01*
X62692010Y-42730589D01*
X62580068Y-43000842D01*
X62523000Y-43287740D01*
X62523000Y-43580260D01*
X62580068Y-43867158D01*
X62692010Y-44137411D01*
X62854525Y-44380632D01*
X63061368Y-44587475D01*
X63235760Y-44704000D01*
X63061368Y-44820525D01*
X62854525Y-45027368D01*
X62692010Y-45270589D01*
X62580068Y-45540842D01*
X62523000Y-45827740D01*
X62523000Y-46120260D01*
X62580068Y-46407158D01*
X62692010Y-46677411D01*
X62854525Y-46920632D01*
X63061368Y-47127475D01*
X63235760Y-47244000D01*
X63061368Y-47360525D01*
X62854525Y-47567368D01*
X62692010Y-47810589D01*
X62580068Y-48080842D01*
X62523000Y-48367740D01*
X62523000Y-48660260D01*
X62580068Y-48947158D01*
X62692010Y-49217411D01*
X62854525Y-49460632D01*
X63061368Y-49667475D01*
X63304589Y-49829990D01*
X63574842Y-49941932D01*
X63861740Y-49999000D01*
X64154260Y-49999000D01*
X64441158Y-49941932D01*
X64711411Y-49829990D01*
X64954632Y-49667475D01*
X65161475Y-49460632D01*
X65226042Y-49364000D01*
X70139928Y-49364000D01*
X70152188Y-49488482D01*
X70188498Y-49608180D01*
X70247463Y-49718494D01*
X70326815Y-49815185D01*
X70423506Y-49894537D01*
X70533820Y-49953502D01*
X70653518Y-49989812D01*
X70778000Y-50002072D01*
X71342250Y-49999000D01*
X71501000Y-49840250D01*
X71501000Y-48641000D01*
X71755000Y-48641000D01*
X71755000Y-49840250D01*
X71913750Y-49999000D01*
X72478000Y-50002072D01*
X72602482Y-49989812D01*
X72722180Y-49953502D01*
X72832494Y-49894537D01*
X72929185Y-49815185D01*
X73008537Y-49718494D01*
X73067502Y-49608180D01*
X73103812Y-49488482D01*
X73116072Y-49364000D01*
X73113000Y-48799750D01*
X72954250Y-48641000D01*
X71755000Y-48641000D01*
X71501000Y-48641000D01*
X70301750Y-48641000D01*
X70143000Y-48799750D01*
X70139928Y-49364000D01*
X65226042Y-49364000D01*
X65323990Y-49217411D01*
X65435932Y-48947158D01*
X65493000Y-48660260D01*
X65493000Y-48367740D01*
X65435932Y-48080842D01*
X65323990Y-47810589D01*
X65226043Y-47664000D01*
X70139928Y-47664000D01*
X70143000Y-48228250D01*
X70301750Y-48387000D01*
X71501000Y-48387000D01*
X71501000Y-48367000D01*
X71755000Y-48367000D01*
X71755000Y-48387000D01*
X72954250Y-48387000D01*
X73113000Y-48228250D01*
X73116072Y-47664000D01*
X73103812Y-47539518D01*
X73067502Y-47419820D01*
X73008537Y-47309506D01*
X72929185Y-47212815D01*
X72832494Y-47133463D01*
X72722180Y-47074498D01*
X72649620Y-47052487D01*
X72781475Y-46920632D01*
X72943990Y-46677411D01*
X73055932Y-46407158D01*
X73113000Y-46120260D01*
X73113000Y-45827740D01*
X73055932Y-45540842D01*
X72943990Y-45270589D01*
X72781475Y-45027368D01*
X72574632Y-44820525D01*
X72400240Y-44704000D01*
X72574632Y-44587475D01*
X72781475Y-44380632D01*
X72943990Y-44137411D01*
X73055932Y-43867158D01*
X73113000Y-43580260D01*
X73113000Y-43287740D01*
X73055932Y-43000842D01*
X72943990Y-42730589D01*
X72781475Y-42487368D01*
X72574632Y-42280525D01*
X72400240Y-42164000D01*
X72574632Y-42047475D01*
X72781475Y-41840632D01*
X72943990Y-41597411D01*
X73055932Y-41327158D01*
X73113000Y-41040260D01*
X73113000Y-40747740D01*
X73055932Y-40460842D01*
X72943990Y-40190589D01*
X72781475Y-39947368D01*
X72574632Y-39740525D01*
X72400240Y-39624000D01*
X72574632Y-39507475D01*
X72781475Y-39300632D01*
X72943990Y-39057411D01*
X73055932Y-38787158D01*
X73113000Y-38500260D01*
X73113000Y-38207740D01*
X73055932Y-37920842D01*
X72943990Y-37650589D01*
X72781475Y-37407368D01*
X72574632Y-37200525D01*
X72331411Y-37038010D01*
X72061158Y-36926068D01*
X71774260Y-36869000D01*
X71481740Y-36869000D01*
X71194842Y-36926068D01*
X70924589Y-37038010D01*
X70681368Y-37200525D01*
X70474525Y-37407368D01*
X70312010Y-37650589D01*
X70200068Y-37920842D01*
X70143000Y-38207740D01*
X70143000Y-38500260D01*
X70200068Y-38787158D01*
X70312010Y-39057411D01*
X70474525Y-39300632D01*
X70681368Y-39507475D01*
X70855760Y-39624000D01*
X70681368Y-39740525D01*
X70474525Y-39947368D01*
X70312010Y-40190589D01*
X70200068Y-40460842D01*
X70143000Y-40747740D01*
X70143000Y-41040260D01*
X70200068Y-41327158D01*
X70312010Y-41597411D01*
X70474525Y-41840632D01*
X70681368Y-42047475D01*
X70855760Y-42164000D01*
X70681368Y-42280525D01*
X70474525Y-42487368D01*
X70312010Y-42730589D01*
X70200068Y-43000842D01*
X70143000Y-43287740D01*
X70143000Y-43580260D01*
X70200068Y-43867158D01*
X70312010Y-44137411D01*
X70474525Y-44380632D01*
X70681368Y-44587475D01*
X70855760Y-44704000D01*
X70681368Y-44820525D01*
X70474525Y-45027368D01*
X70312010Y-45270589D01*
X70200068Y-45540842D01*
X70143000Y-45827740D01*
X70143000Y-46120260D01*
X70200068Y-46407158D01*
X70312010Y-46677411D01*
X70474525Y-46920632D01*
X70606380Y-47052487D01*
X70533820Y-47074498D01*
X70423506Y-47133463D01*
X70326815Y-47212815D01*
X70247463Y-47309506D01*
X70188498Y-47419820D01*
X70152188Y-47539518D01*
X70139928Y-47664000D01*
X65226043Y-47664000D01*
X65161475Y-47567368D01*
X64954632Y-47360525D01*
X64780240Y-47244000D01*
X64954632Y-47127475D01*
X65161475Y-46920632D01*
X65323990Y-46677411D01*
X65435932Y-46407158D01*
X65493000Y-46120260D01*
X65493000Y-45827740D01*
X65435932Y-45540842D01*
X65323990Y-45270589D01*
X65161475Y-45027368D01*
X64954632Y-44820525D01*
X64780240Y-44704000D01*
X64954632Y-44587475D01*
X65161475Y-44380632D01*
X65323990Y-44137411D01*
X65435932Y-43867158D01*
X65493000Y-43580260D01*
X65493000Y-43287740D01*
X65435932Y-43000842D01*
X65323990Y-42730589D01*
X65161475Y-42487368D01*
X64954632Y-42280525D01*
X64780240Y-42164000D01*
X64954632Y-42047475D01*
X65161475Y-41840632D01*
X65323990Y-41597411D01*
X65435932Y-41327158D01*
X65493000Y-41040260D01*
X65493000Y-40747740D01*
X65435932Y-40460842D01*
X65323990Y-40190589D01*
X65161475Y-39947368D01*
X64954632Y-39740525D01*
X64781271Y-39624689D01*
X64856792Y-39382397D01*
X64008000Y-38533605D01*
X63159208Y-39382397D01*
X63234729Y-39624689D01*
X63061368Y-39740525D01*
X62854525Y-39947368D01*
X62692010Y-40190589D01*
X62580068Y-40460842D01*
X62523000Y-40747740D01*
X61429000Y-40747740D01*
X61371932Y-40460842D01*
X61259990Y-40190589D01*
X61097475Y-39947368D01*
X60890632Y-39740525D01*
X60716240Y-39624000D01*
X60890632Y-39507475D01*
X61097475Y-39300632D01*
X61259990Y-39057411D01*
X61371932Y-38787158D01*
X61429000Y-38500260D01*
X61429000Y-38422531D01*
X62517389Y-38422531D01*
X62559401Y-38712019D01*
X62657081Y-38987747D01*
X62730528Y-39125157D01*
X62979603Y-39202792D01*
X63828395Y-38354000D01*
X64187605Y-38354000D01*
X65036397Y-39202792D01*
X65285472Y-39125157D01*
X65411371Y-38861117D01*
X65483339Y-38577589D01*
X65498611Y-38285469D01*
X65456599Y-37995981D01*
X65358919Y-37720253D01*
X65285472Y-37582843D01*
X65036397Y-37505208D01*
X64187605Y-38354000D01*
X63828395Y-38354000D01*
X62979603Y-37505208D01*
X62730528Y-37582843D01*
X62604629Y-37846883D01*
X62532661Y-38130411D01*
X62517389Y-38422531D01*
X61429000Y-38422531D01*
X61429000Y-38207740D01*
X61371932Y-37920842D01*
X61259990Y-37650589D01*
X61097475Y-37407368D01*
X61015710Y-37325603D01*
X63159208Y-37325603D01*
X64008000Y-38174395D01*
X64856792Y-37325603D01*
X64779157Y-37076528D01*
X64515117Y-36950629D01*
X64231589Y-36878661D01*
X63939469Y-36863389D01*
X63649981Y-36905401D01*
X63374253Y-37003081D01*
X63236843Y-37076528D01*
X63159208Y-37325603D01*
X61015710Y-37325603D01*
X60890632Y-37200525D01*
X60647411Y-37038010D01*
X60377158Y-36926068D01*
X60090260Y-36869000D01*
X59797740Y-36869000D01*
X59510842Y-36926068D01*
X59240589Y-37038010D01*
X58997368Y-37200525D01*
X58790525Y-37407368D01*
X58628010Y-37650589D01*
X58516068Y-37920842D01*
X58459000Y-38207740D01*
X58459000Y-38500260D01*
X58516068Y-38787158D01*
X58628010Y-39057411D01*
X58790525Y-39300632D01*
X58997368Y-39507475D01*
X59171760Y-39624000D01*
X58997368Y-39740525D01*
X58790525Y-39947368D01*
X58628010Y-40190589D01*
X58516068Y-40460842D01*
X58459000Y-40747740D01*
X58459000Y-41040260D01*
X58516068Y-41327158D01*
X58628010Y-41597411D01*
X58790525Y-41840632D01*
X58997368Y-42047475D01*
X59171760Y-42164000D01*
X58997368Y-42280525D01*
X58790525Y-42487368D01*
X58628010Y-42730589D01*
X58516068Y-43000842D01*
X58459000Y-43287740D01*
X58459000Y-43580260D01*
X58516068Y-43867158D01*
X58628010Y-44137411D01*
X58790525Y-44380632D01*
X58997368Y-44587475D01*
X59171760Y-44704000D01*
X58997368Y-44820525D01*
X58790525Y-45027368D01*
X58628010Y-45270589D01*
X58516068Y-45540842D01*
X58459000Y-45827740D01*
X58459000Y-46120260D01*
X58516068Y-46407158D01*
X58628010Y-46677411D01*
X58790525Y-46920632D01*
X58922380Y-47052487D01*
X58849820Y-47074498D01*
X58739506Y-47133463D01*
X58642815Y-47212815D01*
X58563463Y-47309506D01*
X58504498Y-47419820D01*
X58468188Y-47539518D01*
X58455928Y-47664000D01*
X53542043Y-47664000D01*
X53477475Y-47567368D01*
X53270632Y-47360525D01*
X53096240Y-47244000D01*
X53270632Y-47127475D01*
X53477475Y-46920632D01*
X53639990Y-46677411D01*
X53751932Y-46407158D01*
X53809000Y-46120260D01*
X53809000Y-45827740D01*
X53751932Y-45540842D01*
X53639990Y-45270589D01*
X53477475Y-45027368D01*
X53270632Y-44820525D01*
X53096240Y-44704000D01*
X53270632Y-44587475D01*
X53477475Y-44380632D01*
X53639990Y-44137411D01*
X53751932Y-43867158D01*
X53809000Y-43580260D01*
X53809000Y-43287740D01*
X53751932Y-43000842D01*
X53639990Y-42730589D01*
X53477475Y-42487368D01*
X53270632Y-42280525D01*
X53096240Y-42164000D01*
X53270632Y-42047475D01*
X53477475Y-41840632D01*
X53639990Y-41597411D01*
X53751932Y-41327158D01*
X53809000Y-41040260D01*
X53809000Y-40747740D01*
X53751932Y-40460842D01*
X53639990Y-40190589D01*
X53477475Y-39947368D01*
X53270632Y-39740525D01*
X53097271Y-39624689D01*
X53172792Y-39382397D01*
X52324000Y-38533605D01*
X51475208Y-39382397D01*
X51550729Y-39624689D01*
X51377368Y-39740525D01*
X51170525Y-39947368D01*
X51008010Y-40190589D01*
X50927000Y-40386165D01*
X50927000Y-38857671D01*
X50973081Y-38987747D01*
X51046528Y-39125157D01*
X51295603Y-39202792D01*
X52144395Y-38354000D01*
X52503605Y-38354000D01*
X53352397Y-39202792D01*
X53601472Y-39125157D01*
X53727371Y-38861117D01*
X53799339Y-38577589D01*
X53814611Y-38285469D01*
X53772599Y-37995981D01*
X53674919Y-37720253D01*
X53601472Y-37582843D01*
X53352397Y-37505208D01*
X52503605Y-38354000D01*
X52144395Y-38354000D01*
X51295603Y-37505208D01*
X51046528Y-37582843D01*
X50927000Y-37833522D01*
X50927000Y-37325603D01*
X51475208Y-37325603D01*
X52324000Y-38174395D01*
X53172792Y-37325603D01*
X53095157Y-37076528D01*
X52831117Y-36950629D01*
X52547589Y-36878661D01*
X52255469Y-36863389D01*
X51965981Y-36905401D01*
X51690253Y-37003081D01*
X51552843Y-37076528D01*
X51475208Y-37325603D01*
X50927000Y-37325603D01*
X50927000Y-36703000D01*
X73279000Y-36703000D01*
X73279000Y-50927000D01*
G37*
X73279000Y-50927000D02*
X61087000Y-50927000D01*
X61062224Y-50929440D01*
X61038399Y-50936667D01*
X61016443Y-50948403D01*
X60997197Y-50964197D01*
X60981403Y-50983443D01*
X60969667Y-51005399D01*
X60962440Y-51029224D01*
X60960000Y-51054000D01*
X60960000Y-59563000D01*
X55665056Y-59563000D01*
X55636068Y-59417271D01*
X55626000Y-59392964D01*
X55626000Y-58717036D01*
X55636068Y-58692729D01*
X55672000Y-58512089D01*
X55672000Y-58327911D01*
X55636068Y-58147271D01*
X55626000Y-58122964D01*
X55626000Y-51054000D01*
X55623560Y-51029224D01*
X55616333Y-51005399D01*
X55604597Y-50983443D01*
X55588803Y-50964197D01*
X55569557Y-50948403D01*
X55547601Y-50936667D01*
X55523776Y-50929440D01*
X55499000Y-50927000D01*
X50927000Y-50927000D01*
X50927000Y-49021835D01*
X51008010Y-49217411D01*
X51170525Y-49460632D01*
X51377368Y-49667475D01*
X51620589Y-49829990D01*
X51890842Y-49941932D01*
X52177740Y-49999000D01*
X52470260Y-49999000D01*
X52757158Y-49941932D01*
X53027411Y-49829990D01*
X53270632Y-49667475D01*
X53477475Y-49460632D01*
X53542042Y-49364000D01*
X58455928Y-49364000D01*
X58468188Y-49488482D01*
X58504498Y-49608180D01*
X58563463Y-49718494D01*
X58642815Y-49815185D01*
X58739506Y-49894537D01*
X58849820Y-49953502D01*
X58969518Y-49989812D01*
X59094000Y-50002072D01*
X59658250Y-49999000D01*
X59817000Y-49840250D01*
X59817000Y-48641000D01*
X60071000Y-48641000D01*
X60071000Y-49840250D01*
X60229750Y-49999000D01*
X60794000Y-50002072D01*
X60918482Y-49989812D01*
X61038180Y-49953502D01*
X61148494Y-49894537D01*
X61245185Y-49815185D01*
X61324537Y-49718494D01*
X61383502Y-49608180D01*
X61419812Y-49488482D01*
X61432072Y-49364000D01*
X61429000Y-48799750D01*
X61270250Y-48641000D01*
X60071000Y-48641000D01*
X59817000Y-48641000D01*
X58617750Y-48641000D01*
X58459000Y-48799750D01*
X58455928Y-49364000D01*
X53542042Y-49364000D01*
X53639990Y-49217411D01*
X53751932Y-48947158D01*
X53809000Y-48660260D01*
X53809000Y-48367740D01*
X53751932Y-48080842D01*
X53639990Y-47810589D01*
X53542043Y-47664000D01*
X58455928Y-47664000D01*
X58459000Y-48228250D01*
X58617750Y-48387000D01*
X59817000Y-48387000D01*
X59817000Y-48367000D01*
X60071000Y-48367000D01*
X60071000Y-48387000D01*
X61270250Y-48387000D01*
X61429000Y-48228250D01*
X61432072Y-47664000D01*
X61419812Y-47539518D01*
X61383502Y-47419820D01*
X61324537Y-47309506D01*
X61245185Y-47212815D01*
X61148494Y-47133463D01*
X61038180Y-47074498D01*
X60965620Y-47052487D01*
X61097475Y-46920632D01*
X61259990Y-46677411D01*
X61371932Y-46407158D01*
X61429000Y-46120260D01*
X61429000Y-45827740D01*
X61371932Y-45540842D01*
X61259990Y-45270589D01*
X61097475Y-45027368D01*
X60890632Y-44820525D01*
X60716240Y-44704000D01*
X60890632Y-44587475D01*
X61097475Y-44380632D01*
X61259990Y-44137411D01*
X61371932Y-43867158D01*
X61429000Y-43580260D01*
X61429000Y-43287740D01*
X61371932Y-43000842D01*
X61259990Y-42730589D01*
X61097475Y-42487368D01*
X60890632Y-42280525D01*
X60716240Y-42164000D01*
X60890632Y-42047475D01*
X61097475Y-41840632D01*
X61259990Y-41597411D01*
X61371932Y-41327158D01*
X61429000Y-41040260D01*
X61429000Y-40747740D01*
X62523000Y-40747740D01*
X62523000Y-41040260D01*
X62580068Y-41327158D01*
X62692010Y-41597411D01*
X62854525Y-41840632D01*
X63061368Y-42047475D01*
X63235760Y-42164000D01*
X63061368Y-42280525D01*
X62854525Y-42487368D01*
X62692010Y-42730589D01*
X62580068Y-43000842D01*
X62523000Y-43287740D01*
X62523000Y-43580260D01*
X62580068Y-43867158D01*
X62692010Y-44137411D01*
X62854525Y-44380632D01*
X63061368Y-44587475D01*
X63235760Y-44704000D01*
X63061368Y-44820525D01*
X62854525Y-45027368D01*
X62692010Y-45270589D01*
X62580068Y-45540842D01*
X62523000Y-45827740D01*
X62523000Y-46120260D01*
X62580068Y-46407158D01*
X62692010Y-46677411D01*
X62854525Y-46920632D01*
X63061368Y-47127475D01*
X63235760Y-47244000D01*
X63061368Y-47360525D01*
X62854525Y-47567368D01*
X62692010Y-47810589D01*
X62580068Y-48080842D01*
X62523000Y-48367740D01*
X62523000Y-48660260D01*
X62580068Y-48947158D01*
X62692010Y-49217411D01*
X62854525Y-49460632D01*
X63061368Y-49667475D01*
X63304589Y-49829990D01*
X63574842Y-49941932D01*
X63861740Y-49999000D01*
X64154260Y-49999000D01*
X64441158Y-49941932D01*
X64711411Y-49829990D01*
X64954632Y-49667475D01*
X65161475Y-49460632D01*
X65226042Y-49364000D01*
X70139928Y-49364000D01*
X70152188Y-49488482D01*
X70188498Y-49608180D01*
X70247463Y-49718494D01*
X70326815Y-49815185D01*
X70423506Y-49894537D01*
X70533820Y-49953502D01*
X70653518Y-49989812D01*
X70778000Y-50002072D01*
X71342250Y-49999000D01*
X71501000Y-49840250D01*
X71501000Y-48641000D01*
X71755000Y-48641000D01*
X71755000Y-49840250D01*
X71913750Y-49999000D01*
X72478000Y-50002072D01*
X72602482Y-49989812D01*
X72722180Y-49953502D01*
X72832494Y-49894537D01*
X72929185Y-49815185D01*
X73008537Y-49718494D01*
X73067502Y-49608180D01*
X73103812Y-49488482D01*
X73116072Y-49364000D01*
X73113000Y-48799750D01*
X72954250Y-48641000D01*
X71755000Y-48641000D01*
X71501000Y-48641000D01*
X70301750Y-48641000D01*
X70143000Y-48799750D01*
X70139928Y-49364000D01*
X65226042Y-49364000D01*
X65323990Y-49217411D01*
X65435932Y-48947158D01*
X65493000Y-48660260D01*
X65493000Y-48367740D01*
X65435932Y-48080842D01*
X65323990Y-47810589D01*
X65226043Y-47664000D01*
X70139928Y-47664000D01*
X70143000Y-48228250D01*
X70301750Y-48387000D01*
X71501000Y-48387000D01*
X71501000Y-48367000D01*
X71755000Y-48367000D01*
X71755000Y-48387000D01*
X72954250Y-48387000D01*
X73113000Y-48228250D01*
X73116072Y-47664000D01*
X73103812Y-47539518D01*
X73067502Y-47419820D01*
X73008537Y-47309506D01*
X72929185Y-47212815D01*
X72832494Y-47133463D01*
X72722180Y-47074498D01*
X72649620Y-47052487D01*
X72781475Y-46920632D01*
X72943990Y-46677411D01*
X73055932Y-46407158D01*
X73113000Y-46120260D01*
X73113000Y-45827740D01*
X73055932Y-45540842D01*
X72943990Y-45270589D01*
X72781475Y-45027368D01*
X72574632Y-44820525D01*
X72400240Y-44704000D01*
X72574632Y-44587475D01*
X72781475Y-44380632D01*
X72943990Y-44137411D01*
X73055932Y-43867158D01*
X73113000Y-43580260D01*
X73113000Y-43287740D01*
X73055932Y-43000842D01*
X72943990Y-42730589D01*
X72781475Y-42487368D01*
X72574632Y-42280525D01*
X72400240Y-42164000D01*
X72574632Y-42047475D01*
X72781475Y-41840632D01*
X72943990Y-41597411D01*
X73055932Y-41327158D01*
X73113000Y-41040260D01*
X73113000Y-40747740D01*
X73055932Y-40460842D01*
X72943990Y-40190589D01*
X72781475Y-39947368D01*
X72574632Y-39740525D01*
X72400240Y-39624000D01*
X72574632Y-39507475D01*
X72781475Y-39300632D01*
X72943990Y-39057411D01*
X73055932Y-38787158D01*
X73113000Y-38500260D01*
X73113000Y-38207740D01*
X73055932Y-37920842D01*
X72943990Y-37650589D01*
X72781475Y-37407368D01*
X72574632Y-37200525D01*
X72331411Y-37038010D01*
X72061158Y-36926068D01*
X71774260Y-36869000D01*
X71481740Y-36869000D01*
X71194842Y-36926068D01*
X70924589Y-37038010D01*
X70681368Y-37200525D01*
X70474525Y-37407368D01*
X70312010Y-37650589D01*
X70200068Y-37920842D01*
X70143000Y-38207740D01*
X70143000Y-38500260D01*
X70200068Y-38787158D01*
X70312010Y-39057411D01*
X70474525Y-39300632D01*
X70681368Y-39507475D01*
X70855760Y-39624000D01*
X70681368Y-39740525D01*
X70474525Y-39947368D01*
X70312010Y-40190589D01*
X70200068Y-40460842D01*
X70143000Y-40747740D01*
X70143000Y-41040260D01*
X70200068Y-41327158D01*
X70312010Y-41597411D01*
X70474525Y-41840632D01*
X70681368Y-42047475D01*
X70855760Y-42164000D01*
X70681368Y-42280525D01*
X70474525Y-42487368D01*
X70312010Y-42730589D01*
X70200068Y-43000842D01*
X70143000Y-43287740D01*
X70143000Y-43580260D01*
X70200068Y-43867158D01*
X70312010Y-44137411D01*
X70474525Y-44380632D01*
X70681368Y-44587475D01*
X70855760Y-44704000D01*
X70681368Y-44820525D01*
X70474525Y-45027368D01*
X70312010Y-45270589D01*
X70200068Y-45540842D01*
X70143000Y-45827740D01*
X70143000Y-46120260D01*
X70200068Y-46407158D01*
X70312010Y-46677411D01*
X70474525Y-46920632D01*
X70606380Y-47052487D01*
X70533820Y-47074498D01*
X70423506Y-47133463D01*
X70326815Y-47212815D01*
X70247463Y-47309506D01*
X70188498Y-47419820D01*
X70152188Y-47539518D01*
X70139928Y-47664000D01*
X65226043Y-47664000D01*
X65161475Y-47567368D01*
X64954632Y-47360525D01*
X64780240Y-47244000D01*
X64954632Y-47127475D01*
X65161475Y-46920632D01*
X65323990Y-46677411D01*
X65435932Y-46407158D01*
X65493000Y-46120260D01*
X65493000Y-45827740D01*
X65435932Y-45540842D01*
X65323990Y-45270589D01*
X65161475Y-45027368D01*
X64954632Y-44820525D01*
X64780240Y-44704000D01*
X64954632Y-44587475D01*
X65161475Y-44380632D01*
X65323990Y-44137411D01*
X65435932Y-43867158D01*
X65493000Y-43580260D01*
X65493000Y-43287740D01*
X65435932Y-43000842D01*
X65323990Y-42730589D01*
X65161475Y-42487368D01*
X64954632Y-42280525D01*
X64780240Y-42164000D01*
X64954632Y-42047475D01*
X65161475Y-41840632D01*
X65323990Y-41597411D01*
X65435932Y-41327158D01*
X65493000Y-41040260D01*
X65493000Y-40747740D01*
X65435932Y-40460842D01*
X65323990Y-40190589D01*
X65161475Y-39947368D01*
X64954632Y-39740525D01*
X64781271Y-39624689D01*
X64856792Y-39382397D01*
X64008000Y-38533605D01*
X63159208Y-39382397D01*
X63234729Y-39624689D01*
X63061368Y-39740525D01*
X62854525Y-39947368D01*
X62692010Y-40190589D01*
X62580068Y-40460842D01*
X62523000Y-40747740D01*
X61429000Y-40747740D01*
X61371932Y-40460842D01*
X61259990Y-40190589D01*
X61097475Y-39947368D01*
X60890632Y-39740525D01*
X60716240Y-39624000D01*
X60890632Y-39507475D01*
X61097475Y-39300632D01*
X61259990Y-39057411D01*
X61371932Y-38787158D01*
X61429000Y-38500260D01*
X61429000Y-38422531D01*
X62517389Y-38422531D01*
X62559401Y-38712019D01*
X62657081Y-38987747D01*
X62730528Y-39125157D01*
X62979603Y-39202792D01*
X63828395Y-38354000D01*
X64187605Y-38354000D01*
X65036397Y-39202792D01*
X65285472Y-39125157D01*
X65411371Y-38861117D01*
X65483339Y-38577589D01*
X65498611Y-38285469D01*
X65456599Y-37995981D01*
X65358919Y-37720253D01*
X65285472Y-37582843D01*
X65036397Y-37505208D01*
X64187605Y-38354000D01*
X63828395Y-38354000D01*
X62979603Y-37505208D01*
X62730528Y-37582843D01*
X62604629Y-37846883D01*
X62532661Y-38130411D01*
X62517389Y-38422531D01*
X61429000Y-38422531D01*
X61429000Y-38207740D01*
X61371932Y-37920842D01*
X61259990Y-37650589D01*
X61097475Y-37407368D01*
X61015710Y-37325603D01*
X63159208Y-37325603D01*
X64008000Y-38174395D01*
X64856792Y-37325603D01*
X64779157Y-37076528D01*
X64515117Y-36950629D01*
X64231589Y-36878661D01*
X63939469Y-36863389D01*
X63649981Y-36905401D01*
X63374253Y-37003081D01*
X63236843Y-37076528D01*
X63159208Y-37325603D01*
X61015710Y-37325603D01*
X60890632Y-37200525D01*
X60647411Y-37038010D01*
X60377158Y-36926068D01*
X60090260Y-36869000D01*
X59797740Y-36869000D01*
X59510842Y-36926068D01*
X59240589Y-37038010D01*
X58997368Y-37200525D01*
X58790525Y-37407368D01*
X58628010Y-37650589D01*
X58516068Y-37920842D01*
X58459000Y-38207740D01*
X58459000Y-38500260D01*
X58516068Y-38787158D01*
X58628010Y-39057411D01*
X58790525Y-39300632D01*
X58997368Y-39507475D01*
X59171760Y-39624000D01*
X58997368Y-39740525D01*
X58790525Y-39947368D01*
X58628010Y-40190589D01*
X58516068Y-40460842D01*
X58459000Y-40747740D01*
X58459000Y-41040260D01*
X58516068Y-41327158D01*
X58628010Y-41597411D01*
X58790525Y-41840632D01*
X58997368Y-42047475D01*
X59171760Y-42164000D01*
X58997368Y-42280525D01*
X58790525Y-42487368D01*
X58628010Y-42730589D01*
X58516068Y-43000842D01*
X58459000Y-43287740D01*
X58459000Y-43580260D01*
X58516068Y-43867158D01*
X58628010Y-44137411D01*
X58790525Y-44380632D01*
X58997368Y-44587475D01*
X59171760Y-44704000D01*
X58997368Y-44820525D01*
X58790525Y-45027368D01*
X58628010Y-45270589D01*
X58516068Y-45540842D01*
X58459000Y-45827740D01*
X58459000Y-46120260D01*
X58516068Y-46407158D01*
X58628010Y-46677411D01*
X58790525Y-46920632D01*
X58922380Y-47052487D01*
X58849820Y-47074498D01*
X58739506Y-47133463D01*
X58642815Y-47212815D01*
X58563463Y-47309506D01*
X58504498Y-47419820D01*
X58468188Y-47539518D01*
X58455928Y-47664000D01*
X53542043Y-47664000D01*
X53477475Y-47567368D01*
X53270632Y-47360525D01*
X53096240Y-47244000D01*
X53270632Y-47127475D01*
X53477475Y-46920632D01*
X53639990Y-46677411D01*
X53751932Y-46407158D01*
X53809000Y-46120260D01*
X53809000Y-45827740D01*
X53751932Y-45540842D01*
X53639990Y-45270589D01*
X53477475Y-45027368D01*
X53270632Y-44820525D01*
X53096240Y-44704000D01*
X53270632Y-44587475D01*
X53477475Y-44380632D01*
X53639990Y-44137411D01*
X53751932Y-43867158D01*
X53809000Y-43580260D01*
X53809000Y-43287740D01*
X53751932Y-43000842D01*
X53639990Y-42730589D01*
X53477475Y-42487368D01*
X53270632Y-42280525D01*
X53096240Y-42164000D01*
X53270632Y-42047475D01*
X53477475Y-41840632D01*
X53639990Y-41597411D01*
X53751932Y-41327158D01*
X53809000Y-41040260D01*
X53809000Y-40747740D01*
X53751932Y-40460842D01*
X53639990Y-40190589D01*
X53477475Y-39947368D01*
X53270632Y-39740525D01*
X53097271Y-39624689D01*
X53172792Y-39382397D01*
X52324000Y-38533605D01*
X51475208Y-39382397D01*
X51550729Y-39624689D01*
X51377368Y-39740525D01*
X51170525Y-39947368D01*
X51008010Y-40190589D01*
X50927000Y-40386165D01*
X50927000Y-38857671D01*
X50973081Y-38987747D01*
X51046528Y-39125157D01*
X51295603Y-39202792D01*
X52144395Y-38354000D01*
X52503605Y-38354000D01*
X53352397Y-39202792D01*
X53601472Y-39125157D01*
X53727371Y-38861117D01*
X53799339Y-38577589D01*
X53814611Y-38285469D01*
X53772599Y-37995981D01*
X53674919Y-37720253D01*
X53601472Y-37582843D01*
X53352397Y-37505208D01*
X52503605Y-38354000D01*
X52144395Y-38354000D01*
X51295603Y-37505208D01*
X51046528Y-37582843D01*
X50927000Y-37833522D01*
X50927000Y-37325603D01*
X51475208Y-37325603D01*
X52324000Y-38174395D01*
X53172792Y-37325603D01*
X53095157Y-37076528D01*
X52831117Y-36950629D01*
X52547589Y-36878661D01*
X52255469Y-36863389D01*
X51965981Y-36905401D01*
X51690253Y-37003081D01*
X51552843Y-37076528D01*
X51475208Y-37325603D01*
X50927000Y-37325603D01*
X50927000Y-36703000D01*
X73279000Y-36703000D01*
X73279000Y-50927000D01*
%TD*%
M02*
