%TF.GenerationSoftware,KiCad,Pcbnew,(5.1.6)-1*%
%TF.CreationDate,2020-10-20T11:52:01-07:00*%
%TF.ProjectId,ReflowOven,5265666c-6f77-44f7-9665-6e2e6b696361,rev?*%
%TF.SameCoordinates,Original*%
%TF.FileFunction,Soldermask,Bot*%
%TF.FilePolarity,Negative*%
%FSLAX46Y46*%
G04 Gerber Fmt 4.6, Leading zero omitted, Abs format (unit mm)*
G04 Created by KiCad (PCBNEW (5.1.6)-1) date 2020-10-20 11:52:01*
%MOMM*%
%LPD*%
G01*
G04 APERTURE LIST*
%ADD10C,0.100000*%
G04 APERTURE END LIST*
D10*
G36*
X25331990Y-171880896D02*
G01*
X25331992Y-171880897D01*
X25331993Y-171880897D01*
X25341524Y-171884845D01*
X25923452Y-172125888D01*
X26078159Y-172229260D01*
X26455753Y-172481559D01*
X26908441Y-172934247D01*
X26955573Y-173004785D01*
X27264112Y-173466548D01*
X27509104Y-174058010D01*
X27634000Y-174685903D01*
X27634000Y-175326097D01*
X27509104Y-175953990D01*
X27509103Y-175953993D01*
X27463621Y-176063796D01*
X27264112Y-176545452D01*
X27220219Y-176611142D01*
X26908441Y-177077753D01*
X26455753Y-177530441D01*
X26317074Y-177623103D01*
X25923452Y-177886112D01*
X25505229Y-178059346D01*
X25331993Y-178131103D01*
X25331992Y-178131103D01*
X25331990Y-178131104D01*
X24704097Y-178256000D01*
X24063903Y-178256000D01*
X23436010Y-178131104D01*
X23436008Y-178131103D01*
X23436007Y-178131103D01*
X23262771Y-178059346D01*
X22844548Y-177886112D01*
X22450926Y-177623103D01*
X22312247Y-177530441D01*
X21859559Y-177077753D01*
X21547781Y-176611142D01*
X21503888Y-176545452D01*
X21304379Y-176063796D01*
X21258897Y-175953993D01*
X21258896Y-175953990D01*
X21134000Y-175326097D01*
X21134000Y-174685903D01*
X21258896Y-174058010D01*
X21503888Y-173466548D01*
X21812427Y-173004785D01*
X21859559Y-172934247D01*
X22312247Y-172481559D01*
X22689841Y-172229260D01*
X22844548Y-172125888D01*
X23426476Y-171884845D01*
X23436007Y-171880897D01*
X23436008Y-171880897D01*
X23436010Y-171880896D01*
X24063903Y-171756000D01*
X24704097Y-171756000D01*
X25331990Y-171880896D01*
G37*
G36*
X169777046Y-171372896D02*
G01*
X169777048Y-171372897D01*
X169777049Y-171372897D01*
X169950285Y-171444654D01*
X170368508Y-171617888D01*
X170563926Y-171748462D01*
X170900809Y-171973559D01*
X171353497Y-172426247D01*
X171385899Y-172474740D01*
X171709168Y-172958548D01*
X171872665Y-173353265D01*
X171919589Y-173466547D01*
X171954160Y-173550010D01*
X172079056Y-174177903D01*
X172079056Y-174818097D01*
X171954160Y-175445990D01*
X171709168Y-176037452D01*
X171633475Y-176150735D01*
X171353497Y-176569753D01*
X170900809Y-177022441D01*
X170756085Y-177119142D01*
X170368508Y-177378112D01*
X170194180Y-177450321D01*
X169777049Y-177623103D01*
X169777048Y-177623103D01*
X169777046Y-177623104D01*
X169149153Y-177748000D01*
X168508959Y-177748000D01*
X167881066Y-177623104D01*
X167881064Y-177623103D01*
X167881063Y-177623103D01*
X167463932Y-177450321D01*
X167289604Y-177378112D01*
X166902027Y-177119142D01*
X166757303Y-177022441D01*
X166304615Y-176569753D01*
X166024637Y-176150735D01*
X165948944Y-176037452D01*
X165703952Y-175445990D01*
X165579056Y-174818097D01*
X165579056Y-174177903D01*
X165703952Y-173550010D01*
X165738524Y-173466547D01*
X165785447Y-173353265D01*
X165948944Y-172958548D01*
X166272213Y-172474740D01*
X166304615Y-172426247D01*
X166757303Y-171973559D01*
X167094186Y-171748462D01*
X167289604Y-171617888D01*
X167707827Y-171444654D01*
X167881063Y-171372897D01*
X167881064Y-171372897D01*
X167881066Y-171372896D01*
X168508959Y-171248000D01*
X169149153Y-171248000D01*
X169777046Y-171372896D01*
G37*
G36*
X159854000Y-172300000D02*
G01*
X158154000Y-172300000D01*
X158154000Y-170600000D01*
X159854000Y-170600000D01*
X159854000Y-172300000D01*
G37*
G36*
X156711936Y-170632665D02*
G01*
X156711938Y-170632666D01*
X156711939Y-170632666D01*
X156866628Y-170696740D01*
X157005842Y-170789760D01*
X157124240Y-170908158D01*
X157217260Y-171047372D01*
X157281334Y-171202061D01*
X157281335Y-171202064D01*
X157314000Y-171366282D01*
X157314000Y-171533718D01*
X157287828Y-171665294D01*
X157281334Y-171697939D01*
X157217260Y-171852628D01*
X157124240Y-171991842D01*
X157005842Y-172110240D01*
X156866628Y-172203260D01*
X156711939Y-172267334D01*
X156711938Y-172267334D01*
X156711936Y-172267335D01*
X156547718Y-172300000D01*
X156380282Y-172300000D01*
X156216064Y-172267335D01*
X156216062Y-172267334D01*
X156216061Y-172267334D01*
X156061372Y-172203260D01*
X155922158Y-172110240D01*
X155803760Y-171991842D01*
X155710740Y-171852628D01*
X155646666Y-171697939D01*
X155640173Y-171665294D01*
X155614000Y-171533718D01*
X155614000Y-171366282D01*
X155646665Y-171202064D01*
X155646666Y-171202061D01*
X155710740Y-171047372D01*
X155803760Y-170908158D01*
X155922158Y-170789760D01*
X156061372Y-170696740D01*
X156216061Y-170632666D01*
X156216062Y-170632666D01*
X156216064Y-170632665D01*
X156380282Y-170600000D01*
X156547718Y-170600000D01*
X156711936Y-170632665D01*
G37*
G36*
X151631936Y-170632665D02*
G01*
X151631938Y-170632666D01*
X151631939Y-170632666D01*
X151786628Y-170696740D01*
X151925842Y-170789760D01*
X152044240Y-170908158D01*
X152137260Y-171047372D01*
X152201334Y-171202061D01*
X152201335Y-171202064D01*
X152234000Y-171366282D01*
X152234000Y-171533718D01*
X152207828Y-171665294D01*
X152201334Y-171697939D01*
X152137260Y-171852628D01*
X152044240Y-171991842D01*
X151925842Y-172110240D01*
X151786628Y-172203260D01*
X151631939Y-172267334D01*
X151631938Y-172267334D01*
X151631936Y-172267335D01*
X151467718Y-172300000D01*
X151300282Y-172300000D01*
X151136064Y-172267335D01*
X151136062Y-172267334D01*
X151136061Y-172267334D01*
X150981372Y-172203260D01*
X150842158Y-172110240D01*
X150723760Y-171991842D01*
X150630740Y-171852628D01*
X150566666Y-171697939D01*
X150560173Y-171665294D01*
X150534000Y-171533718D01*
X150534000Y-171366282D01*
X150566665Y-171202064D01*
X150566666Y-171202061D01*
X150630740Y-171047372D01*
X150723760Y-170908158D01*
X150842158Y-170789760D01*
X150981372Y-170696740D01*
X151136061Y-170632666D01*
X151136062Y-170632666D01*
X151136064Y-170632665D01*
X151300282Y-170600000D01*
X151467718Y-170600000D01*
X151631936Y-170632665D01*
G37*
G36*
X149091936Y-170632665D02*
G01*
X149091938Y-170632666D01*
X149091939Y-170632666D01*
X149246628Y-170696740D01*
X149385842Y-170789760D01*
X149504240Y-170908158D01*
X149597260Y-171047372D01*
X149661334Y-171202061D01*
X149661335Y-171202064D01*
X149694000Y-171366282D01*
X149694000Y-171533718D01*
X149667828Y-171665294D01*
X149661334Y-171697939D01*
X149597260Y-171852628D01*
X149504240Y-171991842D01*
X149385842Y-172110240D01*
X149246628Y-172203260D01*
X149091939Y-172267334D01*
X149091938Y-172267334D01*
X149091936Y-172267335D01*
X148927718Y-172300000D01*
X148760282Y-172300000D01*
X148596064Y-172267335D01*
X148596062Y-172267334D01*
X148596061Y-172267334D01*
X148441372Y-172203260D01*
X148302158Y-172110240D01*
X148183760Y-171991842D01*
X148090740Y-171852628D01*
X148026666Y-171697939D01*
X148020173Y-171665294D01*
X147994000Y-171533718D01*
X147994000Y-171366282D01*
X148026665Y-171202064D01*
X148026666Y-171202061D01*
X148090740Y-171047372D01*
X148183760Y-170908158D01*
X148302158Y-170789760D01*
X148441372Y-170696740D01*
X148596061Y-170632666D01*
X148596062Y-170632666D01*
X148596064Y-170632665D01*
X148760282Y-170600000D01*
X148927718Y-170600000D01*
X149091936Y-170632665D01*
G37*
G36*
X146551936Y-170632665D02*
G01*
X146551938Y-170632666D01*
X146551939Y-170632666D01*
X146706628Y-170696740D01*
X146845842Y-170789760D01*
X146964240Y-170908158D01*
X147057260Y-171047372D01*
X147121334Y-171202061D01*
X147121335Y-171202064D01*
X147154000Y-171366282D01*
X147154000Y-171533718D01*
X147127828Y-171665294D01*
X147121334Y-171697939D01*
X147057260Y-171852628D01*
X146964240Y-171991842D01*
X146845842Y-172110240D01*
X146706628Y-172203260D01*
X146551939Y-172267334D01*
X146551938Y-172267334D01*
X146551936Y-172267335D01*
X146387718Y-172300000D01*
X146220282Y-172300000D01*
X146056064Y-172267335D01*
X146056062Y-172267334D01*
X146056061Y-172267334D01*
X145901372Y-172203260D01*
X145762158Y-172110240D01*
X145643760Y-171991842D01*
X145550740Y-171852628D01*
X145486666Y-171697939D01*
X145480173Y-171665294D01*
X145454000Y-171533718D01*
X145454000Y-171366282D01*
X145486665Y-171202064D01*
X145486666Y-171202061D01*
X145550740Y-171047372D01*
X145643760Y-170908158D01*
X145762158Y-170789760D01*
X145901372Y-170696740D01*
X146056061Y-170632666D01*
X146056062Y-170632666D01*
X146056064Y-170632665D01*
X146220282Y-170600000D01*
X146387718Y-170600000D01*
X146551936Y-170632665D01*
G37*
G36*
X144011936Y-170632665D02*
G01*
X144011938Y-170632666D01*
X144011939Y-170632666D01*
X144166628Y-170696740D01*
X144305842Y-170789760D01*
X144424240Y-170908158D01*
X144517260Y-171047372D01*
X144581334Y-171202061D01*
X144581335Y-171202064D01*
X144614000Y-171366282D01*
X144614000Y-171533718D01*
X144587828Y-171665294D01*
X144581334Y-171697939D01*
X144517260Y-171852628D01*
X144424240Y-171991842D01*
X144305842Y-172110240D01*
X144166628Y-172203260D01*
X144011939Y-172267334D01*
X144011938Y-172267334D01*
X144011936Y-172267335D01*
X143847718Y-172300000D01*
X143680282Y-172300000D01*
X143516064Y-172267335D01*
X143516062Y-172267334D01*
X143516061Y-172267334D01*
X143361372Y-172203260D01*
X143222158Y-172110240D01*
X143103760Y-171991842D01*
X143010740Y-171852628D01*
X142946666Y-171697939D01*
X142940173Y-171665294D01*
X142914000Y-171533718D01*
X142914000Y-171366282D01*
X142946665Y-171202064D01*
X142946666Y-171202061D01*
X143010740Y-171047372D01*
X143103760Y-170908158D01*
X143222158Y-170789760D01*
X143361372Y-170696740D01*
X143516061Y-170632666D01*
X143516062Y-170632666D01*
X143516064Y-170632665D01*
X143680282Y-170600000D01*
X143847718Y-170600000D01*
X144011936Y-170632665D01*
G37*
G36*
X154171936Y-170632665D02*
G01*
X154171938Y-170632666D01*
X154171939Y-170632666D01*
X154326628Y-170696740D01*
X154465842Y-170789760D01*
X154584240Y-170908158D01*
X154677260Y-171047372D01*
X154741334Y-171202061D01*
X154741335Y-171202064D01*
X154774000Y-171366282D01*
X154774000Y-171533718D01*
X154747828Y-171665294D01*
X154741334Y-171697939D01*
X154677260Y-171852628D01*
X154584240Y-171991842D01*
X154465842Y-172110240D01*
X154326628Y-172203260D01*
X154171939Y-172267334D01*
X154171938Y-172267334D01*
X154171936Y-172267335D01*
X154007718Y-172300000D01*
X153840282Y-172300000D01*
X153676064Y-172267335D01*
X153676062Y-172267334D01*
X153676061Y-172267334D01*
X153521372Y-172203260D01*
X153382158Y-172110240D01*
X153263760Y-171991842D01*
X153170740Y-171852628D01*
X153106666Y-171697939D01*
X153100173Y-171665294D01*
X153074000Y-171533718D01*
X153074000Y-171366282D01*
X153106665Y-171202064D01*
X153106666Y-171202061D01*
X153170740Y-171047372D01*
X153263760Y-170908158D01*
X153382158Y-170789760D01*
X153521372Y-170696740D01*
X153676061Y-170632666D01*
X153676062Y-170632666D01*
X153676064Y-170632665D01*
X153840282Y-170600000D01*
X154007718Y-170600000D01*
X154171936Y-170632665D01*
G37*
G36*
X91979414Y-161763603D02*
G01*
X92057854Y-161779205D01*
X92205628Y-161840416D01*
X92338619Y-161929277D01*
X92451723Y-162042381D01*
X92540584Y-162175372D01*
X92601795Y-162323146D01*
X92633000Y-162480027D01*
X92633000Y-162639973D01*
X92601795Y-162796854D01*
X92540584Y-162944628D01*
X92451723Y-163077619D01*
X92338619Y-163190723D01*
X92205628Y-163279584D01*
X92057854Y-163340795D01*
X91979413Y-163356398D01*
X91900975Y-163372000D01*
X91741025Y-163372000D01*
X91662587Y-163356398D01*
X91584146Y-163340795D01*
X91436372Y-163279584D01*
X91303381Y-163190723D01*
X91190277Y-163077619D01*
X91101416Y-162944628D01*
X91040205Y-162796854D01*
X91009000Y-162639973D01*
X91009000Y-162480027D01*
X91040205Y-162323146D01*
X91101416Y-162175372D01*
X91190277Y-162042381D01*
X91303381Y-161929277D01*
X91436372Y-161840416D01*
X91584146Y-161779205D01*
X91662586Y-161763603D01*
X91741025Y-161748000D01*
X91900975Y-161748000D01*
X91979414Y-161763603D01*
G37*
G36*
X46259414Y-161763603D02*
G01*
X46337854Y-161779205D01*
X46485628Y-161840416D01*
X46618619Y-161929277D01*
X46731723Y-162042381D01*
X46820584Y-162175372D01*
X46881795Y-162323146D01*
X46913000Y-162480027D01*
X46913000Y-162639973D01*
X46881795Y-162796854D01*
X46820584Y-162944628D01*
X46731723Y-163077619D01*
X46618619Y-163190723D01*
X46485628Y-163279584D01*
X46337854Y-163340795D01*
X46259413Y-163356398D01*
X46180975Y-163372000D01*
X46021025Y-163372000D01*
X45942587Y-163356398D01*
X45864146Y-163340795D01*
X45716372Y-163279584D01*
X45583381Y-163190723D01*
X45470277Y-163077619D01*
X45381416Y-162944628D01*
X45320205Y-162796854D01*
X45289000Y-162639973D01*
X45289000Y-162480027D01*
X45320205Y-162323146D01*
X45381416Y-162175372D01*
X45470277Y-162042381D01*
X45583381Y-161929277D01*
X45716372Y-161840416D01*
X45864146Y-161779205D01*
X45942586Y-161763603D01*
X46021025Y-161748000D01*
X46180975Y-161748000D01*
X46259414Y-161763603D01*
G37*
G36*
X91979413Y-151603602D02*
G01*
X92057854Y-151619205D01*
X92205628Y-151680416D01*
X92338619Y-151769277D01*
X92451723Y-151882381D01*
X92540584Y-152015372D01*
X92601795Y-152163146D01*
X92633000Y-152320027D01*
X92633000Y-152479973D01*
X92601795Y-152636854D01*
X92540584Y-152784628D01*
X92451723Y-152917619D01*
X92338619Y-153030723D01*
X92205628Y-153119584D01*
X92057854Y-153180795D01*
X91979414Y-153196397D01*
X91900975Y-153212000D01*
X91741025Y-153212000D01*
X91662586Y-153196397D01*
X91584146Y-153180795D01*
X91436372Y-153119584D01*
X91303381Y-153030723D01*
X91190277Y-152917619D01*
X91101416Y-152784628D01*
X91040205Y-152636854D01*
X91009000Y-152479973D01*
X91009000Y-152320027D01*
X91040205Y-152163146D01*
X91101416Y-152015372D01*
X91190277Y-151882381D01*
X91303381Y-151769277D01*
X91436372Y-151680416D01*
X91584146Y-151619205D01*
X91662587Y-151603602D01*
X91741025Y-151588000D01*
X91900975Y-151588000D01*
X91979413Y-151603602D01*
G37*
G36*
X171686118Y-145305565D02*
G01*
X171686120Y-145305566D01*
X171686121Y-145305566D01*
X171968202Y-145422409D01*
X172095134Y-145507222D01*
X172222068Y-145592036D01*
X172437964Y-145807932D01*
X172607592Y-146061800D01*
X172724435Y-146343882D01*
X172784000Y-146643338D01*
X172784000Y-146948662D01*
X172740055Y-147169592D01*
X172724434Y-147248121D01*
X172683891Y-147346000D01*
X172607592Y-147530200D01*
X172437964Y-147784068D01*
X172222068Y-147999964D01*
X172095134Y-148084778D01*
X171968202Y-148169591D01*
X171686121Y-148286434D01*
X171686120Y-148286434D01*
X171686118Y-148286435D01*
X171386662Y-148346000D01*
X171081338Y-148346000D01*
X170781882Y-148286435D01*
X170781880Y-148286434D01*
X170781879Y-148286434D01*
X170499798Y-148169591D01*
X170372866Y-148084778D01*
X170245932Y-147999964D01*
X170030036Y-147784068D01*
X169860408Y-147530200D01*
X169784109Y-147346000D01*
X169743566Y-147248121D01*
X169727946Y-147169592D01*
X169684000Y-146948662D01*
X169684000Y-146643338D01*
X169743565Y-146343882D01*
X169860408Y-146061800D01*
X170030036Y-145807932D01*
X170245932Y-145592036D01*
X170372866Y-145507222D01*
X170499798Y-145422409D01*
X170781879Y-145305566D01*
X170781880Y-145305566D01*
X170781882Y-145305565D01*
X171081338Y-145246000D01*
X171386662Y-145246000D01*
X171686118Y-145305565D01*
G37*
G36*
X158186118Y-144305565D02*
G01*
X158186120Y-144305566D01*
X158186121Y-144305566D01*
X158468202Y-144422409D01*
X158595134Y-144507222D01*
X158722068Y-144592036D01*
X158937964Y-144807932D01*
X158937965Y-144807934D01*
X159107591Y-145061798D01*
X159208564Y-145305565D01*
X159224435Y-145343882D01*
X159284000Y-145643338D01*
X159284000Y-145948662D01*
X159224435Y-146248118D01*
X159107592Y-146530200D01*
X158937964Y-146784068D01*
X158722068Y-146999964D01*
X158595134Y-147084778D01*
X158468202Y-147169591D01*
X158186121Y-147286434D01*
X158186120Y-147286434D01*
X158186118Y-147286435D01*
X157886662Y-147346000D01*
X157581338Y-147346000D01*
X157281882Y-147286435D01*
X157281880Y-147286434D01*
X157281879Y-147286434D01*
X156999798Y-147169591D01*
X156872866Y-147084778D01*
X156745932Y-146999964D01*
X156530036Y-146784068D01*
X156360408Y-146530200D01*
X156243565Y-146248118D01*
X156184000Y-145948662D01*
X156184000Y-145643338D01*
X156243565Y-145343882D01*
X156259437Y-145305565D01*
X156360409Y-145061798D01*
X156530035Y-144807934D01*
X156530036Y-144807932D01*
X156745932Y-144592036D01*
X156872866Y-144507222D01*
X156999798Y-144422409D01*
X157281879Y-144305566D01*
X157281880Y-144305566D01*
X157281882Y-144305565D01*
X157581338Y-144246000D01*
X157886662Y-144246000D01*
X158186118Y-144305565D01*
G37*
G36*
X91979413Y-141443602D02*
G01*
X92057854Y-141459205D01*
X92205628Y-141520416D01*
X92338619Y-141609277D01*
X92451723Y-141722381D01*
X92540584Y-141855372D01*
X92601795Y-142003146D01*
X92633000Y-142160027D01*
X92633000Y-142319973D01*
X92601795Y-142476854D01*
X92540584Y-142624628D01*
X92451723Y-142757619D01*
X92338619Y-142870723D01*
X92205628Y-142959584D01*
X92057854Y-143020795D01*
X91979414Y-143036397D01*
X91900975Y-143052000D01*
X91741025Y-143052000D01*
X91662586Y-143036397D01*
X91584146Y-143020795D01*
X91436372Y-142959584D01*
X91303381Y-142870723D01*
X91190277Y-142757619D01*
X91101416Y-142624628D01*
X91040205Y-142476854D01*
X91009000Y-142319973D01*
X91009000Y-142160027D01*
X91040205Y-142003146D01*
X91101416Y-141855372D01*
X91190277Y-141722381D01*
X91303381Y-141609277D01*
X91436372Y-141520416D01*
X91584146Y-141459205D01*
X91662587Y-141443602D01*
X91741025Y-141428000D01*
X91900975Y-141428000D01*
X91979413Y-141443602D01*
G37*
G36*
X46259413Y-141443602D02*
G01*
X46337854Y-141459205D01*
X46485628Y-141520416D01*
X46618619Y-141609277D01*
X46731723Y-141722381D01*
X46820584Y-141855372D01*
X46881795Y-142003146D01*
X46913000Y-142160027D01*
X46913000Y-142319973D01*
X46881795Y-142476854D01*
X46820584Y-142624628D01*
X46731723Y-142757619D01*
X46618619Y-142870723D01*
X46485628Y-142959584D01*
X46337854Y-143020795D01*
X46259414Y-143036397D01*
X46180975Y-143052000D01*
X46021025Y-143052000D01*
X45942586Y-143036397D01*
X45864146Y-143020795D01*
X45716372Y-142959584D01*
X45583381Y-142870723D01*
X45470277Y-142757619D01*
X45381416Y-142624628D01*
X45320205Y-142476854D01*
X45289000Y-142319973D01*
X45289000Y-142160027D01*
X45320205Y-142003146D01*
X45381416Y-141855372D01*
X45470277Y-141722381D01*
X45583381Y-141609277D01*
X45716372Y-141520416D01*
X45864146Y-141459205D01*
X45942587Y-141443602D01*
X46021025Y-141428000D01*
X46180975Y-141428000D01*
X46259413Y-141443602D01*
G37*
G36*
X151223582Y-139780162D02*
G01*
X151281971Y-139804348D01*
X151334520Y-139839460D01*
X151379206Y-139884146D01*
X151414318Y-139936695D01*
X151438504Y-139995084D01*
X151450833Y-140057066D01*
X151450833Y-140120266D01*
X151438504Y-140182248D01*
X151414318Y-140240637D01*
X151379206Y-140293186D01*
X151334520Y-140337872D01*
X151281971Y-140372984D01*
X151223582Y-140397170D01*
X151161600Y-140409499D01*
X151098400Y-140409499D01*
X151036418Y-140397170D01*
X150978029Y-140372984D01*
X150925480Y-140337872D01*
X150880794Y-140293186D01*
X150845682Y-140240637D01*
X150821496Y-140182248D01*
X150809167Y-140120266D01*
X150809167Y-140057066D01*
X150821496Y-139995084D01*
X150845682Y-139936695D01*
X150880794Y-139884146D01*
X150925480Y-139839460D01*
X150978029Y-139804348D01*
X151036418Y-139780162D01*
X151098400Y-139767833D01*
X151161600Y-139767833D01*
X151223582Y-139780162D01*
G37*
G36*
X152306915Y-139780162D02*
G01*
X152365304Y-139804348D01*
X152417853Y-139839460D01*
X152462539Y-139884146D01*
X152497651Y-139936695D01*
X152521837Y-139995084D01*
X152534166Y-140057066D01*
X152534166Y-140120266D01*
X152521837Y-140182248D01*
X152497651Y-140240637D01*
X152462539Y-140293186D01*
X152417853Y-140337872D01*
X152365304Y-140372984D01*
X152306915Y-140397170D01*
X152244933Y-140409499D01*
X152181733Y-140409499D01*
X152119751Y-140397170D01*
X152061362Y-140372984D01*
X152008813Y-140337872D01*
X151964127Y-140293186D01*
X151929015Y-140240637D01*
X151904829Y-140182248D01*
X151892500Y-140120266D01*
X151892500Y-140057066D01*
X151904829Y-139995084D01*
X151929015Y-139936695D01*
X151964127Y-139884146D01*
X152008813Y-139839460D01*
X152061362Y-139804348D01*
X152119751Y-139780162D01*
X152181733Y-139767833D01*
X152244933Y-139767833D01*
X152306915Y-139780162D01*
G37*
G36*
X153390248Y-139780162D02*
G01*
X153448637Y-139804348D01*
X153501186Y-139839460D01*
X153545872Y-139884146D01*
X153580984Y-139936695D01*
X153605170Y-139995084D01*
X153617499Y-140057066D01*
X153617499Y-140120266D01*
X153605170Y-140182248D01*
X153580984Y-140240637D01*
X153545872Y-140293186D01*
X153501186Y-140337872D01*
X153448637Y-140372984D01*
X153390248Y-140397170D01*
X153328266Y-140409499D01*
X153265066Y-140409499D01*
X153203084Y-140397170D01*
X153144695Y-140372984D01*
X153092146Y-140337872D01*
X153047460Y-140293186D01*
X153012348Y-140240637D01*
X152988162Y-140182248D01*
X152975833Y-140120266D01*
X152975833Y-140057066D01*
X152988162Y-139995084D01*
X153012348Y-139936695D01*
X153047460Y-139884146D01*
X153092146Y-139839460D01*
X153144695Y-139804348D01*
X153203084Y-139780162D01*
X153265066Y-139767833D01*
X153328266Y-139767833D01*
X153390248Y-139780162D01*
G37*
G36*
X151223582Y-138696829D02*
G01*
X151281971Y-138721015D01*
X151334520Y-138756127D01*
X151379206Y-138800813D01*
X151414318Y-138853362D01*
X151438504Y-138911751D01*
X151450833Y-138973733D01*
X151450833Y-139036933D01*
X151438504Y-139098915D01*
X151414318Y-139157304D01*
X151379206Y-139209853D01*
X151334520Y-139254539D01*
X151281971Y-139289651D01*
X151223582Y-139313837D01*
X151161600Y-139326166D01*
X151098400Y-139326166D01*
X151036418Y-139313837D01*
X150978029Y-139289651D01*
X150925480Y-139254539D01*
X150880794Y-139209853D01*
X150845682Y-139157304D01*
X150821496Y-139098915D01*
X150809167Y-139036933D01*
X150809167Y-138973733D01*
X150821496Y-138911751D01*
X150845682Y-138853362D01*
X150880794Y-138800813D01*
X150925480Y-138756127D01*
X150978029Y-138721015D01*
X151036418Y-138696829D01*
X151098400Y-138684500D01*
X151161600Y-138684500D01*
X151223582Y-138696829D01*
G37*
G36*
X152306915Y-138696829D02*
G01*
X152365304Y-138721015D01*
X152417853Y-138756127D01*
X152462539Y-138800813D01*
X152497651Y-138853362D01*
X152521837Y-138911751D01*
X152534166Y-138973733D01*
X152534166Y-139036933D01*
X152521837Y-139098915D01*
X152497651Y-139157304D01*
X152462539Y-139209853D01*
X152417853Y-139254539D01*
X152365304Y-139289651D01*
X152306915Y-139313837D01*
X152244933Y-139326166D01*
X152181733Y-139326166D01*
X152119751Y-139313837D01*
X152061362Y-139289651D01*
X152008813Y-139254539D01*
X151964127Y-139209853D01*
X151929015Y-139157304D01*
X151904829Y-139098915D01*
X151892500Y-139036933D01*
X151892500Y-138973733D01*
X151904829Y-138911751D01*
X151929015Y-138853362D01*
X151964127Y-138800813D01*
X152008813Y-138756127D01*
X152061362Y-138721015D01*
X152119751Y-138696829D01*
X152181733Y-138684500D01*
X152244933Y-138684500D01*
X152306915Y-138696829D01*
G37*
G36*
X153390248Y-138696829D02*
G01*
X153448637Y-138721015D01*
X153501186Y-138756127D01*
X153545872Y-138800813D01*
X153580984Y-138853362D01*
X153605170Y-138911751D01*
X153617499Y-138973733D01*
X153617499Y-139036933D01*
X153605170Y-139098915D01*
X153580984Y-139157304D01*
X153545872Y-139209853D01*
X153501186Y-139254539D01*
X153448637Y-139289651D01*
X153390248Y-139313837D01*
X153328266Y-139326166D01*
X153265066Y-139326166D01*
X153203084Y-139313837D01*
X153144695Y-139289651D01*
X153092146Y-139254539D01*
X153047460Y-139209853D01*
X153012348Y-139157304D01*
X152988162Y-139098915D01*
X152975833Y-139036933D01*
X152975833Y-138973733D01*
X152988162Y-138911751D01*
X153012348Y-138853362D01*
X153047460Y-138800813D01*
X153092146Y-138756127D01*
X153144695Y-138721015D01*
X153203084Y-138696829D01*
X153265066Y-138684500D01*
X153328266Y-138684500D01*
X153390248Y-138696829D01*
G37*
G36*
X151223582Y-137613496D02*
G01*
X151281971Y-137637682D01*
X151334520Y-137672794D01*
X151379206Y-137717480D01*
X151414318Y-137770029D01*
X151438504Y-137828418D01*
X151450833Y-137890400D01*
X151450833Y-137953600D01*
X151438504Y-138015582D01*
X151414318Y-138073971D01*
X151379206Y-138126520D01*
X151334520Y-138171206D01*
X151281971Y-138206318D01*
X151223582Y-138230504D01*
X151161600Y-138242833D01*
X151098400Y-138242833D01*
X151036418Y-138230504D01*
X150978029Y-138206318D01*
X150925480Y-138171206D01*
X150880794Y-138126520D01*
X150845682Y-138073971D01*
X150821496Y-138015582D01*
X150809167Y-137953600D01*
X150809167Y-137890400D01*
X150821496Y-137828418D01*
X150845682Y-137770029D01*
X150880794Y-137717480D01*
X150925480Y-137672794D01*
X150978029Y-137637682D01*
X151036418Y-137613496D01*
X151098400Y-137601167D01*
X151161600Y-137601167D01*
X151223582Y-137613496D01*
G37*
G36*
X153390248Y-137613496D02*
G01*
X153448637Y-137637682D01*
X153501186Y-137672794D01*
X153545872Y-137717480D01*
X153580984Y-137770029D01*
X153605170Y-137828418D01*
X153617499Y-137890400D01*
X153617499Y-137953600D01*
X153605170Y-138015582D01*
X153580984Y-138073971D01*
X153545872Y-138126520D01*
X153501186Y-138171206D01*
X153448637Y-138206318D01*
X153390248Y-138230504D01*
X153328266Y-138242833D01*
X153265066Y-138242833D01*
X153203084Y-138230504D01*
X153144695Y-138206318D01*
X153092146Y-138171206D01*
X153047460Y-138126520D01*
X153012348Y-138073971D01*
X152988162Y-138015582D01*
X152975833Y-137953600D01*
X152975833Y-137890400D01*
X152988162Y-137828418D01*
X153012348Y-137770029D01*
X153047460Y-137717480D01*
X153092146Y-137672794D01*
X153144695Y-137637682D01*
X153203084Y-137613496D01*
X153265066Y-137601167D01*
X153328266Y-137601167D01*
X153390248Y-137613496D01*
G37*
G36*
X152306915Y-137613496D02*
G01*
X152365304Y-137637682D01*
X152417853Y-137672794D01*
X152462539Y-137717480D01*
X152497651Y-137770029D01*
X152521837Y-137828418D01*
X152534166Y-137890400D01*
X152534166Y-137953600D01*
X152521837Y-138015582D01*
X152497651Y-138073971D01*
X152462539Y-138126520D01*
X152417853Y-138171206D01*
X152365304Y-138206318D01*
X152306915Y-138230504D01*
X152244933Y-138242833D01*
X152181733Y-138242833D01*
X152119751Y-138230504D01*
X152061362Y-138206318D01*
X152008813Y-138171206D01*
X151964127Y-138126520D01*
X151929015Y-138073971D01*
X151904829Y-138015582D01*
X151892500Y-137953600D01*
X151892500Y-137890400D01*
X151904829Y-137828418D01*
X151929015Y-137770029D01*
X151964127Y-137717480D01*
X152008813Y-137672794D01*
X152061362Y-137637682D01*
X152119751Y-137613496D01*
X152181733Y-137601167D01*
X152244933Y-137601167D01*
X152306915Y-137613496D01*
G37*
G36*
X158186118Y-130605565D02*
G01*
X158186120Y-130605566D01*
X158186121Y-130605566D01*
X158468202Y-130722409D01*
X158539387Y-130769973D01*
X158722068Y-130892036D01*
X158937964Y-131107932D01*
X158937965Y-131107934D01*
X159080146Y-131320723D01*
X159107592Y-131361800D01*
X159224435Y-131643882D01*
X159284000Y-131943338D01*
X159284000Y-132248662D01*
X159240055Y-132469592D01*
X159224434Y-132548121D01*
X159183891Y-132646000D01*
X159107592Y-132830200D01*
X158937964Y-133084068D01*
X158722068Y-133299964D01*
X158595134Y-133384778D01*
X158468202Y-133469591D01*
X158186121Y-133586434D01*
X158186120Y-133586434D01*
X158186118Y-133586435D01*
X157886662Y-133646000D01*
X157581338Y-133646000D01*
X157281882Y-133586435D01*
X157281880Y-133586434D01*
X157281879Y-133586434D01*
X156999798Y-133469591D01*
X156872866Y-133384778D01*
X156745932Y-133299964D01*
X156530036Y-133084068D01*
X156360408Y-132830200D01*
X156284109Y-132646000D01*
X156243566Y-132548121D01*
X156227946Y-132469592D01*
X156184000Y-132248662D01*
X156184000Y-131943338D01*
X156243565Y-131643882D01*
X156360408Y-131361800D01*
X156387855Y-131320723D01*
X156530035Y-131107934D01*
X156530036Y-131107932D01*
X156745932Y-130892036D01*
X156928613Y-130769973D01*
X156999798Y-130722409D01*
X157281879Y-130605566D01*
X157281880Y-130605566D01*
X157281882Y-130605565D01*
X157581338Y-130546000D01*
X157886662Y-130546000D01*
X158186118Y-130605565D01*
G37*
G36*
X171686118Y-129605565D02*
G01*
X171686120Y-129605566D01*
X171686121Y-129605566D01*
X171968202Y-129722409D01*
X172095134Y-129807222D01*
X172222068Y-129892036D01*
X172437964Y-130107932D01*
X172437965Y-130107934D01*
X172607591Y-130361798D01*
X172708564Y-130605565D01*
X172724435Y-130643882D01*
X172784000Y-130943338D01*
X172784000Y-131248662D01*
X172724435Y-131548118D01*
X172607592Y-131830200D01*
X172437964Y-132084068D01*
X172222068Y-132299964D01*
X172095134Y-132384778D01*
X171968202Y-132469591D01*
X171686121Y-132586434D01*
X171686120Y-132586434D01*
X171686118Y-132586435D01*
X171386662Y-132646000D01*
X171081338Y-132646000D01*
X170781882Y-132586435D01*
X170781880Y-132586434D01*
X170781879Y-132586434D01*
X170499798Y-132469591D01*
X170372866Y-132384778D01*
X170245932Y-132299964D01*
X170030036Y-132084068D01*
X169860408Y-131830200D01*
X169743565Y-131548118D01*
X169684000Y-131248662D01*
X169684000Y-130943338D01*
X169743565Y-130643882D01*
X169759437Y-130605565D01*
X169860409Y-130361798D01*
X170030035Y-130107934D01*
X170030036Y-130107932D01*
X170245932Y-129892036D01*
X170372866Y-129807222D01*
X170499798Y-129722409D01*
X170781879Y-129605566D01*
X170781880Y-129605566D01*
X170781882Y-129605565D01*
X171081338Y-129546000D01*
X171386662Y-129546000D01*
X171686118Y-129605565D01*
G37*
G36*
X81622000Y-131660000D02*
G01*
X79922000Y-131660000D01*
X79922000Y-129960000D01*
X81622000Y-129960000D01*
X81622000Y-131660000D01*
G37*
G36*
X34694533Y-129892035D02*
G01*
X34780854Y-129909205D01*
X34928628Y-129970416D01*
X35061619Y-130059277D01*
X35174723Y-130172381D01*
X35263584Y-130305372D01*
X35324795Y-130453146D01*
X35324795Y-130453148D01*
X35355113Y-130605565D01*
X35356000Y-130610027D01*
X35356000Y-130769973D01*
X35324795Y-130926854D01*
X35263584Y-131074628D01*
X35174723Y-131207619D01*
X35061619Y-131320723D01*
X34928628Y-131409584D01*
X34780854Y-131470795D01*
X34702413Y-131486398D01*
X34623975Y-131502000D01*
X34464025Y-131502000D01*
X34385587Y-131486398D01*
X34307146Y-131470795D01*
X34159372Y-131409584D01*
X34026381Y-131320723D01*
X33913277Y-131207619D01*
X33824416Y-131074628D01*
X33763205Y-130926854D01*
X33732000Y-130769973D01*
X33732000Y-130610027D01*
X33732888Y-130605565D01*
X33763205Y-130453148D01*
X33763205Y-130453146D01*
X33824416Y-130305372D01*
X33913277Y-130172381D01*
X34026381Y-130059277D01*
X34159372Y-129970416D01*
X34307146Y-129909205D01*
X34393467Y-129892035D01*
X34464025Y-129878000D01*
X34623975Y-129878000D01*
X34694533Y-129892035D01*
G37*
G36*
X49694533Y-129892035D02*
G01*
X49780854Y-129909205D01*
X49928628Y-129970416D01*
X50061619Y-130059277D01*
X50174723Y-130172381D01*
X50263584Y-130305372D01*
X50324795Y-130453146D01*
X50324795Y-130453148D01*
X50355113Y-130605565D01*
X50356000Y-130610027D01*
X50356000Y-130769973D01*
X50324795Y-130926854D01*
X50263584Y-131074628D01*
X50174723Y-131207619D01*
X50061619Y-131320723D01*
X49928628Y-131409584D01*
X49780854Y-131470795D01*
X49702413Y-131486398D01*
X49623975Y-131502000D01*
X49464025Y-131502000D01*
X49385587Y-131486398D01*
X49307146Y-131470795D01*
X49159372Y-131409584D01*
X49026381Y-131320723D01*
X48913277Y-131207619D01*
X48824416Y-131074628D01*
X48763205Y-130926854D01*
X48732000Y-130769973D01*
X48732000Y-130610027D01*
X48732888Y-130605565D01*
X48763205Y-130453148D01*
X48763205Y-130453146D01*
X48824416Y-130305372D01*
X48913277Y-130172381D01*
X49026381Y-130059277D01*
X49159372Y-129970416D01*
X49307146Y-129909205D01*
X49393467Y-129892035D01*
X49464025Y-129878000D01*
X49623975Y-129878000D01*
X49694533Y-129892035D01*
G37*
G36*
X54694533Y-129892035D02*
G01*
X54780854Y-129909205D01*
X54928628Y-129970416D01*
X55061619Y-130059277D01*
X55174723Y-130172381D01*
X55263584Y-130305372D01*
X55324795Y-130453146D01*
X55324795Y-130453148D01*
X55355113Y-130605565D01*
X55356000Y-130610027D01*
X55356000Y-130769973D01*
X55324795Y-130926854D01*
X55263584Y-131074628D01*
X55174723Y-131207619D01*
X55061619Y-131320723D01*
X54928628Y-131409584D01*
X54780854Y-131470795D01*
X54702413Y-131486398D01*
X54623975Y-131502000D01*
X54464025Y-131502000D01*
X54385587Y-131486398D01*
X54307146Y-131470795D01*
X54159372Y-131409584D01*
X54026381Y-131320723D01*
X53913277Y-131207619D01*
X53824416Y-131074628D01*
X53763205Y-130926854D01*
X53732000Y-130769973D01*
X53732000Y-130610027D01*
X53732888Y-130605565D01*
X53763205Y-130453148D01*
X53763205Y-130453146D01*
X53824416Y-130305372D01*
X53913277Y-130172381D01*
X54026381Y-130059277D01*
X54159372Y-129970416D01*
X54307146Y-129909205D01*
X54393467Y-129892035D01*
X54464025Y-129878000D01*
X54623975Y-129878000D01*
X54694533Y-129892035D01*
G37*
G36*
X59694533Y-129892035D02*
G01*
X59780854Y-129909205D01*
X59928628Y-129970416D01*
X60061619Y-130059277D01*
X60174723Y-130172381D01*
X60263584Y-130305372D01*
X60324795Y-130453146D01*
X60324795Y-130453148D01*
X60355113Y-130605565D01*
X60356000Y-130610027D01*
X60356000Y-130769973D01*
X60324795Y-130926854D01*
X60263584Y-131074628D01*
X60174723Y-131207619D01*
X60061619Y-131320723D01*
X59928628Y-131409584D01*
X59780854Y-131470795D01*
X59702413Y-131486398D01*
X59623975Y-131502000D01*
X59464025Y-131502000D01*
X59385587Y-131486398D01*
X59307146Y-131470795D01*
X59159372Y-131409584D01*
X59026381Y-131320723D01*
X58913277Y-131207619D01*
X58824416Y-131074628D01*
X58763205Y-130926854D01*
X58732000Y-130769973D01*
X58732000Y-130610027D01*
X58732888Y-130605565D01*
X58763205Y-130453148D01*
X58763205Y-130453146D01*
X58824416Y-130305372D01*
X58913277Y-130172381D01*
X59026381Y-130059277D01*
X59159372Y-129970416D01*
X59307146Y-129909205D01*
X59393467Y-129892035D01*
X59464025Y-129878000D01*
X59623975Y-129878000D01*
X59694533Y-129892035D01*
G37*
G36*
X81019936Y-127992665D02*
G01*
X81019938Y-127992666D01*
X81019939Y-127992666D01*
X81174628Y-128056740D01*
X81313842Y-128149760D01*
X81432240Y-128268158D01*
X81525260Y-128407372D01*
X81589334Y-128562061D01*
X81622000Y-128726284D01*
X81622000Y-128893716D01*
X81589334Y-129057939D01*
X81525260Y-129212628D01*
X81432240Y-129351842D01*
X81313842Y-129470240D01*
X81174628Y-129563260D01*
X81019939Y-129627334D01*
X81019938Y-129627334D01*
X81019936Y-129627335D01*
X80855718Y-129660000D01*
X80688282Y-129660000D01*
X80524064Y-129627335D01*
X80524062Y-129627334D01*
X80524061Y-129627334D01*
X80369372Y-129563260D01*
X80230158Y-129470240D01*
X80111760Y-129351842D01*
X80018740Y-129212628D01*
X79954666Y-129057939D01*
X79922000Y-128893716D01*
X79922000Y-128726284D01*
X79954666Y-128562061D01*
X80018740Y-128407372D01*
X80111760Y-128268158D01*
X80230158Y-128149760D01*
X80369372Y-128056740D01*
X80524061Y-127992666D01*
X80524062Y-127992666D01*
X80524064Y-127992665D01*
X80688282Y-127960000D01*
X80855718Y-127960000D01*
X81019936Y-127992665D01*
G37*
G36*
X172646215Y-126474511D02*
G01*
X172731041Y-126500243D01*
X172731043Y-126500244D01*
X172809214Y-126542027D01*
X172877738Y-126598262D01*
X172933973Y-126666786D01*
X172975756Y-126744957D01*
X173001490Y-126829788D01*
X173010178Y-126918000D01*
X173001490Y-127006212D01*
X172975756Y-127091043D01*
X172933973Y-127169214D01*
X172877738Y-127237738D01*
X172809214Y-127293973D01*
X172731043Y-127335756D01*
X172731041Y-127335757D01*
X172646215Y-127361489D01*
X172580105Y-127368000D01*
X171935895Y-127368000D01*
X171869785Y-127361489D01*
X171784959Y-127335757D01*
X171784957Y-127335756D01*
X171706786Y-127293973D01*
X171638262Y-127237738D01*
X171582027Y-127169214D01*
X171540244Y-127091043D01*
X171514510Y-127006212D01*
X171505822Y-126918000D01*
X171514510Y-126829788D01*
X171540244Y-126744957D01*
X171582027Y-126666786D01*
X171638262Y-126598262D01*
X171706786Y-126542027D01*
X171784957Y-126500244D01*
X171784959Y-126500243D01*
X171869785Y-126474511D01*
X171935895Y-126468000D01*
X172580105Y-126468000D01*
X172646215Y-126474511D01*
G37*
G36*
X166696215Y-126114511D02*
G01*
X166781041Y-126140243D01*
X166781043Y-126140244D01*
X166859214Y-126182027D01*
X166927738Y-126238262D01*
X166983973Y-126306786D01*
X167012587Y-126360320D01*
X167025757Y-126384959D01*
X167046700Y-126453998D01*
X167051490Y-126469788D01*
X167060178Y-126558000D01*
X167051490Y-126646212D01*
X167025756Y-126731043D01*
X166983973Y-126809214D01*
X166927738Y-126877738D01*
X166859214Y-126933973D01*
X166781043Y-126975756D01*
X166781041Y-126975757D01*
X166696215Y-127001489D01*
X166630105Y-127008000D01*
X165985895Y-127008000D01*
X165919785Y-127001489D01*
X165834959Y-126975757D01*
X165834957Y-126975756D01*
X165756786Y-126933973D01*
X165688262Y-126877738D01*
X165632027Y-126809214D01*
X165590244Y-126731043D01*
X165564510Y-126646212D01*
X165555822Y-126558000D01*
X165564510Y-126469788D01*
X165569300Y-126453998D01*
X165590243Y-126384959D01*
X165603413Y-126360320D01*
X165632027Y-126306786D01*
X165688262Y-126238262D01*
X165756786Y-126182027D01*
X165834957Y-126140244D01*
X165834959Y-126140243D01*
X165919785Y-126114511D01*
X165985895Y-126108000D01*
X166630105Y-126108000D01*
X166696215Y-126114511D01*
G37*
G36*
X165167383Y-125667411D02*
G01*
X165235629Y-125695680D01*
X165276483Y-125722978D01*
X165297050Y-125736720D01*
X165349280Y-125788950D01*
X165349281Y-125788952D01*
X165390320Y-125850371D01*
X165418589Y-125918617D01*
X165433000Y-125991066D01*
X165433000Y-126064934D01*
X165418589Y-126137383D01*
X165390320Y-126205629D01*
X165363022Y-126246483D01*
X165349280Y-126267050D01*
X165297050Y-126319280D01*
X165276483Y-126333022D01*
X165235629Y-126360320D01*
X165167383Y-126388589D01*
X165094934Y-126403000D01*
X165021066Y-126403000D01*
X164948617Y-126388589D01*
X164880371Y-126360320D01*
X164839517Y-126333022D01*
X164818950Y-126319280D01*
X164766720Y-126267050D01*
X164752978Y-126246483D01*
X164725680Y-126205629D01*
X164697411Y-126137383D01*
X164683000Y-126064934D01*
X164683000Y-125991066D01*
X164697411Y-125918617D01*
X164725680Y-125850371D01*
X164766719Y-125788952D01*
X164766720Y-125788950D01*
X164818950Y-125736720D01*
X164839517Y-125722978D01*
X164880371Y-125695680D01*
X164948617Y-125667411D01*
X165021066Y-125653000D01*
X165094934Y-125653000D01*
X165167383Y-125667411D01*
G37*
G36*
X81622000Y-124040000D02*
G01*
X79922000Y-124040000D01*
X79922000Y-122340000D01*
X81622000Y-122340000D01*
X81622000Y-124040000D01*
G37*
G36*
X49702413Y-122393602D02*
G01*
X49780854Y-122409205D01*
X49928628Y-122470416D01*
X50061619Y-122559277D01*
X50174723Y-122672381D01*
X50263584Y-122805372D01*
X50324795Y-122953146D01*
X50356000Y-123110027D01*
X50356000Y-123269973D01*
X50324795Y-123426854D01*
X50263584Y-123574628D01*
X50174723Y-123707619D01*
X50061619Y-123820723D01*
X49928628Y-123909584D01*
X49780854Y-123970795D01*
X49702414Y-123986397D01*
X49623975Y-124002000D01*
X49464025Y-124002000D01*
X49385586Y-123986397D01*
X49307146Y-123970795D01*
X49159372Y-123909584D01*
X49026381Y-123820723D01*
X48913277Y-123707619D01*
X48824416Y-123574628D01*
X48763205Y-123426854D01*
X48732000Y-123269973D01*
X48732000Y-123110027D01*
X48763205Y-122953146D01*
X48824416Y-122805372D01*
X48913277Y-122672381D01*
X49026381Y-122559277D01*
X49159372Y-122470416D01*
X49307146Y-122409205D01*
X49385587Y-122393602D01*
X49464025Y-122378000D01*
X49623975Y-122378000D01*
X49702413Y-122393602D01*
G37*
G36*
X34702413Y-122393602D02*
G01*
X34780854Y-122409205D01*
X34928628Y-122470416D01*
X35061619Y-122559277D01*
X35174723Y-122672381D01*
X35263584Y-122805372D01*
X35324795Y-122953146D01*
X35356000Y-123110027D01*
X35356000Y-123269973D01*
X35324795Y-123426854D01*
X35263584Y-123574628D01*
X35174723Y-123707619D01*
X35061619Y-123820723D01*
X34928628Y-123909584D01*
X34780854Y-123970795D01*
X34702414Y-123986397D01*
X34623975Y-124002000D01*
X34464025Y-124002000D01*
X34385586Y-123986397D01*
X34307146Y-123970795D01*
X34159372Y-123909584D01*
X34026381Y-123820723D01*
X33913277Y-123707619D01*
X33824416Y-123574628D01*
X33763205Y-123426854D01*
X33732000Y-123269973D01*
X33732000Y-123110027D01*
X33763205Y-122953146D01*
X33824416Y-122805372D01*
X33913277Y-122672381D01*
X34026381Y-122559277D01*
X34159372Y-122470416D01*
X34307146Y-122409205D01*
X34385587Y-122393602D01*
X34464025Y-122378000D01*
X34623975Y-122378000D01*
X34702413Y-122393602D01*
G37*
G36*
X54702413Y-122393602D02*
G01*
X54780854Y-122409205D01*
X54928628Y-122470416D01*
X55061619Y-122559277D01*
X55174723Y-122672381D01*
X55263584Y-122805372D01*
X55324795Y-122953146D01*
X55356000Y-123110027D01*
X55356000Y-123269973D01*
X55324795Y-123426854D01*
X55263584Y-123574628D01*
X55174723Y-123707619D01*
X55061619Y-123820723D01*
X54928628Y-123909584D01*
X54780854Y-123970795D01*
X54702414Y-123986397D01*
X54623975Y-124002000D01*
X54464025Y-124002000D01*
X54385586Y-123986397D01*
X54307146Y-123970795D01*
X54159372Y-123909584D01*
X54026381Y-123820723D01*
X53913277Y-123707619D01*
X53824416Y-123574628D01*
X53763205Y-123426854D01*
X53732000Y-123269973D01*
X53732000Y-123110027D01*
X53763205Y-122953146D01*
X53824416Y-122805372D01*
X53913277Y-122672381D01*
X54026381Y-122559277D01*
X54159372Y-122470416D01*
X54307146Y-122409205D01*
X54385587Y-122393602D01*
X54464025Y-122378000D01*
X54623975Y-122378000D01*
X54702413Y-122393602D01*
G37*
G36*
X59702413Y-122393602D02*
G01*
X59780854Y-122409205D01*
X59928628Y-122470416D01*
X60061619Y-122559277D01*
X60174723Y-122672381D01*
X60263584Y-122805372D01*
X60324795Y-122953146D01*
X60356000Y-123110027D01*
X60356000Y-123269973D01*
X60324795Y-123426854D01*
X60263584Y-123574628D01*
X60174723Y-123707619D01*
X60061619Y-123820723D01*
X59928628Y-123909584D01*
X59780854Y-123970795D01*
X59702414Y-123986397D01*
X59623975Y-124002000D01*
X59464025Y-124002000D01*
X59385586Y-123986397D01*
X59307146Y-123970795D01*
X59159372Y-123909584D01*
X59026381Y-123820723D01*
X58913277Y-123707619D01*
X58824416Y-123574628D01*
X58763205Y-123426854D01*
X58732000Y-123269973D01*
X58732000Y-123110027D01*
X58763205Y-122953146D01*
X58824416Y-122805372D01*
X58913277Y-122672381D01*
X59026381Y-122559277D01*
X59159372Y-122470416D01*
X59307146Y-122409205D01*
X59385587Y-122393602D01*
X59464025Y-122378000D01*
X59623975Y-122378000D01*
X59702413Y-122393602D01*
G37*
G36*
X81019936Y-120372665D02*
G01*
X81019938Y-120372666D01*
X81019939Y-120372666D01*
X81174628Y-120436740D01*
X81313842Y-120529760D01*
X81432240Y-120648158D01*
X81525260Y-120787372D01*
X81589334Y-120942061D01*
X81622000Y-121106284D01*
X81622000Y-121273716D01*
X81589334Y-121437939D01*
X81525260Y-121592628D01*
X81432240Y-121731842D01*
X81313842Y-121850240D01*
X81174628Y-121943260D01*
X81019939Y-122007334D01*
X81019938Y-122007334D01*
X81019936Y-122007335D01*
X80855718Y-122040000D01*
X80688282Y-122040000D01*
X80524064Y-122007335D01*
X80524062Y-122007334D01*
X80524061Y-122007334D01*
X80369372Y-121943260D01*
X80230158Y-121850240D01*
X80111760Y-121731842D01*
X80018740Y-121592628D01*
X79954666Y-121437939D01*
X79922000Y-121273716D01*
X79922000Y-121106284D01*
X79954666Y-120942061D01*
X80018740Y-120787372D01*
X80111760Y-120648158D01*
X80230158Y-120529760D01*
X80369372Y-120436740D01*
X80524061Y-120372666D01*
X80524062Y-120372666D01*
X80524064Y-120372665D01*
X80688282Y-120340000D01*
X80855718Y-120340000D01*
X81019936Y-120372665D01*
G37*
G36*
X165118328Y-118307128D02*
G01*
X165131512Y-118308426D01*
X165166855Y-118319147D01*
X165202201Y-118329869D01*
X165267346Y-118364690D01*
X165324448Y-118411552D01*
X165371309Y-118468653D01*
X165397252Y-118517188D01*
X165408143Y-118533487D01*
X165411413Y-118536757D01*
X165411413Y-118544593D01*
X165415236Y-118563814D01*
X165427574Y-118604487D01*
X165427575Y-118604491D01*
X165433000Y-118659575D01*
X165433000Y-118996425D01*
X165427575Y-119051511D01*
X165406131Y-119122202D01*
X165371311Y-119187346D01*
X165324448Y-119244448D01*
X165267346Y-119291311D01*
X165202202Y-119326131D01*
X165131511Y-119347575D01*
X165058001Y-119354815D01*
X164997672Y-119348872D01*
X164984488Y-119347574D01*
X164949145Y-119336853D01*
X164913799Y-119326131D01*
X164848655Y-119291311D01*
X164791553Y-119244448D01*
X164744690Y-119187346D01*
X164709871Y-119122203D01*
X164709869Y-119122200D01*
X164688426Y-119051513D01*
X164688426Y-119051511D01*
X164688425Y-119051509D01*
X164683000Y-118996425D01*
X164683000Y-118659576D01*
X164688425Y-118604490D01*
X164709869Y-118533799D01*
X164744690Y-118468654D01*
X164791552Y-118411552D01*
X164848654Y-118364689D01*
X164913798Y-118329869D01*
X164984489Y-118308425D01*
X165057999Y-118301185D01*
X165118328Y-118307128D01*
G37*
G36*
X166696215Y-117854511D02*
G01*
X166781041Y-117880243D01*
X166781043Y-117880244D01*
X166859214Y-117922027D01*
X166927738Y-117978262D01*
X166983973Y-118046786D01*
X167025756Y-118124957D01*
X167051490Y-118209788D01*
X167060178Y-118298000D01*
X167051490Y-118386212D01*
X167051489Y-118386215D01*
X167026655Y-118468082D01*
X167025756Y-118471043D01*
X166983973Y-118549214D01*
X166927738Y-118617738D01*
X166859214Y-118673973D01*
X166781043Y-118715756D01*
X166781041Y-118715757D01*
X166696215Y-118741489D01*
X166630105Y-118748000D01*
X165985895Y-118748000D01*
X165919785Y-118741489D01*
X165834959Y-118715757D01*
X165834957Y-118715756D01*
X165756786Y-118673973D01*
X165688262Y-118617738D01*
X165632029Y-118549216D01*
X165599121Y-118487651D01*
X165588230Y-118471352D01*
X165584960Y-118468082D01*
X165584960Y-118460246D01*
X165581136Y-118441019D01*
X165564510Y-118386212D01*
X165555822Y-118298000D01*
X165564510Y-118209788D01*
X165590244Y-118124957D01*
X165632027Y-118046786D01*
X165688262Y-117978262D01*
X165756786Y-117922027D01*
X165834957Y-117880244D01*
X165834959Y-117880243D01*
X165919785Y-117854511D01*
X165985895Y-117848000D01*
X166630105Y-117848000D01*
X166696215Y-117854511D01*
G37*
G36*
X172646215Y-117494511D02*
G01*
X172731041Y-117520243D01*
X172731043Y-117520244D01*
X172809214Y-117562027D01*
X172877738Y-117618262D01*
X172933973Y-117686786D01*
X172975756Y-117764957D01*
X173001490Y-117849788D01*
X173010178Y-117938000D01*
X173001490Y-118026212D01*
X172975756Y-118111043D01*
X172933973Y-118189214D01*
X172877738Y-118257738D01*
X172809214Y-118313973D01*
X172731043Y-118355756D01*
X172731041Y-118355757D01*
X172646215Y-118381489D01*
X172580105Y-118388000D01*
X171935895Y-118388000D01*
X171869785Y-118381489D01*
X171784959Y-118355757D01*
X171784957Y-118355756D01*
X171706786Y-118313973D01*
X171638262Y-118257738D01*
X171582027Y-118189214D01*
X171540244Y-118111043D01*
X171514510Y-118026212D01*
X171505822Y-117938000D01*
X171514510Y-117849788D01*
X171540244Y-117764957D01*
X171582027Y-117686786D01*
X171638262Y-117618262D01*
X171706786Y-117562027D01*
X171784957Y-117520244D01*
X171784959Y-117520243D01*
X171869785Y-117494511D01*
X171935895Y-117488000D01*
X172580105Y-117488000D01*
X172646215Y-117494511D01*
G37*
G36*
X169132274Y-112413350D02*
G01*
X169323362Y-112492502D01*
X169495336Y-112607411D01*
X169641589Y-112753664D01*
X169756498Y-112925638D01*
X169835650Y-113116726D01*
X169876000Y-113319584D01*
X169876000Y-113526416D01*
X169835650Y-113729274D01*
X169756498Y-113920362D01*
X169641589Y-114092336D01*
X169495336Y-114238589D01*
X169323362Y-114353498D01*
X169132274Y-114432650D01*
X168929416Y-114473000D01*
X168722584Y-114473000D01*
X168519726Y-114432650D01*
X168328638Y-114353498D01*
X168156664Y-114238589D01*
X168010411Y-114092336D01*
X167895502Y-113920362D01*
X167816350Y-113729274D01*
X167776000Y-113526416D01*
X167776000Y-113319584D01*
X167816350Y-113116726D01*
X167895502Y-112925638D01*
X168010411Y-112753664D01*
X168156664Y-112607411D01*
X168328638Y-112492502D01*
X168519726Y-112413350D01*
X168722584Y-112373000D01*
X168929416Y-112373000D01*
X169132274Y-112413350D01*
G37*
G36*
X24315990Y-103300896D02*
G01*
X24315992Y-103300897D01*
X24315993Y-103300897D01*
X24404092Y-103337389D01*
X24907452Y-103545888D01*
X25173603Y-103723724D01*
X25439753Y-103901559D01*
X25892441Y-104354247D01*
X25939573Y-104424785D01*
X26248112Y-104886548D01*
X26493104Y-105478010D01*
X26618000Y-106105903D01*
X26618000Y-106746097D01*
X26493104Y-107373990D01*
X26248112Y-107965452D01*
X26172419Y-108078735D01*
X25892441Y-108497753D01*
X25439753Y-108950441D01*
X25196678Y-109112858D01*
X24907452Y-109306112D01*
X24489229Y-109479346D01*
X24315993Y-109551103D01*
X24315992Y-109551103D01*
X24315990Y-109551104D01*
X23688097Y-109676000D01*
X23047903Y-109676000D01*
X22420010Y-109551104D01*
X22420008Y-109551103D01*
X22420007Y-109551103D01*
X22246771Y-109479346D01*
X21828548Y-109306112D01*
X21539322Y-109112858D01*
X21296247Y-108950441D01*
X20843559Y-108497753D01*
X20563581Y-108078735D01*
X20487888Y-107965452D01*
X20242896Y-107373990D01*
X20118000Y-106746097D01*
X20118000Y-106105903D01*
X20242896Y-105478010D01*
X20487888Y-104886548D01*
X20796427Y-104424785D01*
X20843559Y-104354247D01*
X21296247Y-103901559D01*
X21562397Y-103723724D01*
X21828548Y-103545888D01*
X22331908Y-103337389D01*
X22420007Y-103300897D01*
X22420008Y-103300897D01*
X22420010Y-103300896D01*
X23047903Y-103176000D01*
X23688097Y-103176000D01*
X24315990Y-103300896D01*
G37*
G36*
X78834000Y-103180330D02*
G01*
X78835921Y-103199839D01*
X78841612Y-103218598D01*
X78850853Y-103235886D01*
X78863289Y-103251040D01*
X78878443Y-103263476D01*
X78895731Y-103272717D01*
X78914490Y-103278408D01*
X78933999Y-103280329D01*
X78953508Y-103278408D01*
X78972267Y-103272717D01*
X78989555Y-103263476D01*
X79004709Y-103251040D01*
X79056207Y-103199542D01*
X79134002Y-103147562D01*
X79134003Y-103147561D01*
X79220448Y-103111754D01*
X79312217Y-103093500D01*
X79405783Y-103093500D01*
X79497552Y-103111754D01*
X79583997Y-103147561D01*
X79583998Y-103147562D01*
X79661793Y-103199542D01*
X79727958Y-103265707D01*
X79775854Y-103337389D01*
X79788290Y-103352543D01*
X79803443Y-103364979D01*
X79820732Y-103374220D01*
X79839491Y-103379910D01*
X79859000Y-103381832D01*
X79878508Y-103379911D01*
X79897268Y-103374220D01*
X79914556Y-103364979D01*
X79929710Y-103352543D01*
X79942146Y-103337389D01*
X79990042Y-103265707D01*
X80056207Y-103199542D01*
X80134002Y-103147562D01*
X80134003Y-103147561D01*
X80220448Y-103111754D01*
X80312217Y-103093500D01*
X80405783Y-103093500D01*
X80497552Y-103111754D01*
X80583997Y-103147561D01*
X80583998Y-103147562D01*
X80661793Y-103199542D01*
X80727958Y-103265707D01*
X80775854Y-103337389D01*
X80788290Y-103352543D01*
X80803443Y-103364979D01*
X80820732Y-103374220D01*
X80839491Y-103379910D01*
X80859000Y-103381832D01*
X80878508Y-103379911D01*
X80897268Y-103374220D01*
X80914556Y-103364979D01*
X80929710Y-103352543D01*
X80942146Y-103337389D01*
X80990042Y-103265707D01*
X81056207Y-103199542D01*
X81134002Y-103147562D01*
X81134003Y-103147561D01*
X81220448Y-103111754D01*
X81312217Y-103093500D01*
X81405783Y-103093500D01*
X81497552Y-103111754D01*
X81583997Y-103147561D01*
X81583998Y-103147562D01*
X81661793Y-103199542D01*
X81727958Y-103265707D01*
X81775854Y-103337389D01*
X81788290Y-103352543D01*
X81803443Y-103364979D01*
X81820732Y-103374220D01*
X81839491Y-103379910D01*
X81859000Y-103381832D01*
X81878508Y-103379911D01*
X81897268Y-103374220D01*
X81914556Y-103364979D01*
X81929710Y-103352543D01*
X81942146Y-103337389D01*
X81990042Y-103265707D01*
X82056207Y-103199542D01*
X82134002Y-103147562D01*
X82134003Y-103147561D01*
X82220448Y-103111754D01*
X82312217Y-103093500D01*
X82405783Y-103093500D01*
X82497552Y-103111754D01*
X82583997Y-103147561D01*
X82583998Y-103147562D01*
X82661793Y-103199542D01*
X82727958Y-103265707D01*
X82775854Y-103337389D01*
X82788290Y-103352543D01*
X82803443Y-103364979D01*
X82820732Y-103374220D01*
X82839491Y-103379910D01*
X82859000Y-103381832D01*
X82878508Y-103379911D01*
X82897268Y-103374220D01*
X82914556Y-103364979D01*
X82929710Y-103352543D01*
X82942146Y-103337389D01*
X82990042Y-103265707D01*
X83056207Y-103199542D01*
X83134002Y-103147562D01*
X83134003Y-103147561D01*
X83220448Y-103111754D01*
X83312217Y-103093500D01*
X83405783Y-103093500D01*
X83497552Y-103111754D01*
X83583997Y-103147561D01*
X83583998Y-103147562D01*
X83661793Y-103199542D01*
X83727958Y-103265707D01*
X83775854Y-103337389D01*
X83788290Y-103352543D01*
X83803443Y-103364979D01*
X83820732Y-103374220D01*
X83839491Y-103379910D01*
X83859000Y-103381832D01*
X83878508Y-103379911D01*
X83897268Y-103374220D01*
X83914556Y-103364979D01*
X83929710Y-103352543D01*
X83942146Y-103337389D01*
X83990042Y-103265707D01*
X84056207Y-103199542D01*
X84134002Y-103147562D01*
X84134003Y-103147561D01*
X84220448Y-103111754D01*
X84312217Y-103093500D01*
X84405783Y-103093500D01*
X84497552Y-103111754D01*
X84583997Y-103147561D01*
X84583998Y-103147562D01*
X84661793Y-103199542D01*
X84727958Y-103265707D01*
X84775854Y-103337389D01*
X84788290Y-103352543D01*
X84803443Y-103364979D01*
X84820732Y-103374220D01*
X84839491Y-103379910D01*
X84859000Y-103381832D01*
X84878508Y-103379911D01*
X84897268Y-103374220D01*
X84914556Y-103364979D01*
X84929710Y-103352543D01*
X84942146Y-103337389D01*
X84990042Y-103265707D01*
X85056207Y-103199542D01*
X85134002Y-103147562D01*
X85134003Y-103147561D01*
X85220448Y-103111754D01*
X85312217Y-103093500D01*
X85405783Y-103093500D01*
X85497552Y-103111754D01*
X85583997Y-103147561D01*
X85583998Y-103147562D01*
X85661793Y-103199542D01*
X85727958Y-103265707D01*
X85775854Y-103337389D01*
X85788290Y-103352543D01*
X85803443Y-103364979D01*
X85820732Y-103374220D01*
X85839491Y-103379910D01*
X85859000Y-103381832D01*
X85878508Y-103379911D01*
X85897268Y-103374220D01*
X85914556Y-103364979D01*
X85929710Y-103352543D01*
X85942146Y-103337389D01*
X85990042Y-103265707D01*
X86056207Y-103199542D01*
X86134002Y-103147562D01*
X86134003Y-103147561D01*
X86220448Y-103111754D01*
X86312217Y-103093500D01*
X86405783Y-103093500D01*
X86497552Y-103111754D01*
X86583997Y-103147561D01*
X86583998Y-103147562D01*
X86661793Y-103199542D01*
X86727958Y-103265707D01*
X86775854Y-103337389D01*
X86788290Y-103352543D01*
X86803443Y-103364979D01*
X86820732Y-103374220D01*
X86839491Y-103379910D01*
X86859000Y-103381832D01*
X86878508Y-103379911D01*
X86897268Y-103374220D01*
X86914556Y-103364979D01*
X86929710Y-103352543D01*
X86942146Y-103337389D01*
X86990042Y-103265707D01*
X87056207Y-103199542D01*
X87134002Y-103147562D01*
X87134003Y-103147561D01*
X87220448Y-103111754D01*
X87312217Y-103093500D01*
X87405783Y-103093500D01*
X87497552Y-103111754D01*
X87583997Y-103147561D01*
X87583998Y-103147562D01*
X87661793Y-103199542D01*
X87727958Y-103265707D01*
X87751470Y-103300896D01*
X87779939Y-103343503D01*
X87815746Y-103429948D01*
X87834000Y-103521717D01*
X87834000Y-103615283D01*
X87815746Y-103707052D01*
X87779939Y-103793497D01*
X87767011Y-103812845D01*
X87727958Y-103871293D01*
X87661793Y-103937458D01*
X87609930Y-103972111D01*
X87583997Y-103989439D01*
X87497552Y-104025246D01*
X87405783Y-104043500D01*
X87312217Y-104043500D01*
X87220448Y-104025246D01*
X87134003Y-103989439D01*
X87108070Y-103972111D01*
X87056207Y-103937458D01*
X86990042Y-103871293D01*
X86942146Y-103799611D01*
X86929710Y-103784457D01*
X86914557Y-103772021D01*
X86897268Y-103762780D01*
X86878509Y-103757090D01*
X86859000Y-103755168D01*
X86839492Y-103757089D01*
X86820732Y-103762780D01*
X86803444Y-103772021D01*
X86788290Y-103784457D01*
X86775854Y-103799611D01*
X86727958Y-103871293D01*
X86661793Y-103937458D01*
X86609930Y-103972111D01*
X86583997Y-103989439D01*
X86497552Y-104025246D01*
X86405783Y-104043500D01*
X86312217Y-104043500D01*
X86220448Y-104025246D01*
X86134003Y-103989439D01*
X86108070Y-103972111D01*
X86056207Y-103937458D01*
X85990042Y-103871293D01*
X85942146Y-103799611D01*
X85929710Y-103784457D01*
X85914557Y-103772021D01*
X85897268Y-103762780D01*
X85878509Y-103757090D01*
X85859000Y-103755168D01*
X85839492Y-103757089D01*
X85820732Y-103762780D01*
X85803444Y-103772021D01*
X85788290Y-103784457D01*
X85775854Y-103799611D01*
X85727958Y-103871293D01*
X85661793Y-103937458D01*
X85609930Y-103972111D01*
X85583997Y-103989439D01*
X85497552Y-104025246D01*
X85405783Y-104043500D01*
X85312217Y-104043500D01*
X85220448Y-104025246D01*
X85134003Y-103989439D01*
X85108070Y-103972111D01*
X85056207Y-103937458D01*
X84990042Y-103871293D01*
X84942146Y-103799611D01*
X84929710Y-103784457D01*
X84914557Y-103772021D01*
X84897268Y-103762780D01*
X84878509Y-103757090D01*
X84859000Y-103755168D01*
X84839492Y-103757089D01*
X84820732Y-103762780D01*
X84803444Y-103772021D01*
X84788290Y-103784457D01*
X84775854Y-103799611D01*
X84727958Y-103871293D01*
X84661793Y-103937458D01*
X84609930Y-103972111D01*
X84583997Y-103989439D01*
X84497552Y-104025246D01*
X84405783Y-104043500D01*
X84312217Y-104043500D01*
X84220448Y-104025246D01*
X84134003Y-103989439D01*
X84108070Y-103972111D01*
X84056207Y-103937458D01*
X83990042Y-103871293D01*
X83942146Y-103799611D01*
X83929710Y-103784457D01*
X83914557Y-103772021D01*
X83897268Y-103762780D01*
X83878509Y-103757090D01*
X83859000Y-103755168D01*
X83839492Y-103757089D01*
X83820732Y-103762780D01*
X83803444Y-103772021D01*
X83788290Y-103784457D01*
X83775854Y-103799611D01*
X83727958Y-103871293D01*
X83661793Y-103937458D01*
X83609930Y-103972111D01*
X83583997Y-103989439D01*
X83497552Y-104025246D01*
X83405783Y-104043500D01*
X83312217Y-104043500D01*
X83220448Y-104025246D01*
X83134003Y-103989439D01*
X83108070Y-103972111D01*
X83056207Y-103937458D01*
X82990042Y-103871293D01*
X82942146Y-103799611D01*
X82929710Y-103784457D01*
X82914557Y-103772021D01*
X82897268Y-103762780D01*
X82878509Y-103757090D01*
X82859000Y-103755168D01*
X82839492Y-103757089D01*
X82820732Y-103762780D01*
X82803444Y-103772021D01*
X82788290Y-103784457D01*
X82775854Y-103799611D01*
X82727958Y-103871293D01*
X82661793Y-103937458D01*
X82609930Y-103972111D01*
X82583997Y-103989439D01*
X82497552Y-104025246D01*
X82405783Y-104043500D01*
X82312217Y-104043500D01*
X82220448Y-104025246D01*
X82134003Y-103989439D01*
X82108070Y-103972111D01*
X82056207Y-103937458D01*
X81990042Y-103871293D01*
X81942146Y-103799611D01*
X81929710Y-103784457D01*
X81914557Y-103772021D01*
X81897268Y-103762780D01*
X81878509Y-103757090D01*
X81859000Y-103755168D01*
X81839492Y-103757089D01*
X81820732Y-103762780D01*
X81803444Y-103772021D01*
X81788290Y-103784457D01*
X81775854Y-103799611D01*
X81727958Y-103871293D01*
X81661793Y-103937458D01*
X81609930Y-103972111D01*
X81583997Y-103989439D01*
X81497552Y-104025246D01*
X81405783Y-104043500D01*
X81312217Y-104043500D01*
X81220448Y-104025246D01*
X81134003Y-103989439D01*
X81108070Y-103972111D01*
X81056207Y-103937458D01*
X80990042Y-103871293D01*
X80942146Y-103799611D01*
X80929710Y-103784457D01*
X80914557Y-103772021D01*
X80897268Y-103762780D01*
X80878509Y-103757090D01*
X80859000Y-103755168D01*
X80839492Y-103757089D01*
X80820732Y-103762780D01*
X80803444Y-103772021D01*
X80788290Y-103784457D01*
X80775854Y-103799611D01*
X80727958Y-103871293D01*
X80661793Y-103937458D01*
X80609930Y-103972111D01*
X80583997Y-103989439D01*
X80497552Y-104025246D01*
X80405783Y-104043500D01*
X80312217Y-104043500D01*
X80220448Y-104025246D01*
X80134003Y-103989439D01*
X80108070Y-103972111D01*
X80056207Y-103937458D01*
X79990042Y-103871293D01*
X79942146Y-103799611D01*
X79929710Y-103784457D01*
X79914557Y-103772021D01*
X79897268Y-103762780D01*
X79878509Y-103757090D01*
X79859000Y-103755168D01*
X79839492Y-103757089D01*
X79820732Y-103762780D01*
X79803444Y-103772021D01*
X79788290Y-103784457D01*
X79775854Y-103799611D01*
X79727958Y-103871293D01*
X79661793Y-103937458D01*
X79609930Y-103972111D01*
X79583997Y-103989439D01*
X79497552Y-104025246D01*
X79405783Y-104043500D01*
X79312217Y-104043500D01*
X79220448Y-104025246D01*
X79134003Y-103989439D01*
X79108070Y-103972111D01*
X79056207Y-103937458D01*
X79004709Y-103885960D01*
X78989555Y-103873524D01*
X78972267Y-103864283D01*
X78953508Y-103858592D01*
X78933999Y-103856671D01*
X78914490Y-103858592D01*
X78895731Y-103864283D01*
X78878443Y-103873524D01*
X78863289Y-103885960D01*
X78850853Y-103901114D01*
X78841612Y-103918402D01*
X78835921Y-103937161D01*
X78834000Y-103956670D01*
X78834000Y-104043500D01*
X77884000Y-104043500D01*
X77884000Y-103093500D01*
X78834000Y-103093500D01*
X78834000Y-103180330D01*
G37*
G36*
X78834000Y-98925830D02*
G01*
X78835921Y-98945339D01*
X78841612Y-98964098D01*
X78850853Y-98981386D01*
X78863289Y-98996540D01*
X78878443Y-99008976D01*
X78895731Y-99018217D01*
X78914490Y-99023908D01*
X78933999Y-99025829D01*
X78953508Y-99023908D01*
X78972267Y-99018217D01*
X78989555Y-99008976D01*
X79004709Y-98996540D01*
X79056207Y-98945042D01*
X79134002Y-98893062D01*
X79134003Y-98893061D01*
X79220448Y-98857254D01*
X79312217Y-98839000D01*
X79405783Y-98839000D01*
X79497552Y-98857254D01*
X79583997Y-98893061D01*
X79583998Y-98893062D01*
X79661793Y-98945042D01*
X79727958Y-99011207D01*
X79775854Y-99082889D01*
X79788290Y-99098043D01*
X79803443Y-99110479D01*
X79820732Y-99119720D01*
X79839491Y-99125410D01*
X79859000Y-99127332D01*
X79878508Y-99125411D01*
X79897268Y-99119720D01*
X79914556Y-99110479D01*
X79929710Y-99098043D01*
X79942146Y-99082889D01*
X79990042Y-99011207D01*
X80056207Y-98945042D01*
X80134002Y-98893062D01*
X80134003Y-98893061D01*
X80220448Y-98857254D01*
X80312217Y-98839000D01*
X80405783Y-98839000D01*
X80497552Y-98857254D01*
X80583997Y-98893061D01*
X80583998Y-98893062D01*
X80661793Y-98945042D01*
X80727958Y-99011207D01*
X80775854Y-99082889D01*
X80788290Y-99098043D01*
X80803443Y-99110479D01*
X80820732Y-99119720D01*
X80839491Y-99125410D01*
X80859000Y-99127332D01*
X80878508Y-99125411D01*
X80897268Y-99119720D01*
X80914556Y-99110479D01*
X80929710Y-99098043D01*
X80942146Y-99082889D01*
X80990042Y-99011207D01*
X81056207Y-98945042D01*
X81134002Y-98893062D01*
X81134003Y-98893061D01*
X81220448Y-98857254D01*
X81312217Y-98839000D01*
X81405783Y-98839000D01*
X81497552Y-98857254D01*
X81583997Y-98893061D01*
X81583998Y-98893062D01*
X81661793Y-98945042D01*
X81727958Y-99011207D01*
X81775854Y-99082889D01*
X81788290Y-99098043D01*
X81803443Y-99110479D01*
X81820732Y-99119720D01*
X81839491Y-99125410D01*
X81859000Y-99127332D01*
X81878508Y-99125411D01*
X81897268Y-99119720D01*
X81914556Y-99110479D01*
X81929710Y-99098043D01*
X81942146Y-99082889D01*
X81990042Y-99011207D01*
X82056207Y-98945042D01*
X82134002Y-98893062D01*
X82134003Y-98893061D01*
X82220448Y-98857254D01*
X82312217Y-98839000D01*
X82405783Y-98839000D01*
X82497552Y-98857254D01*
X82583997Y-98893061D01*
X82583998Y-98893062D01*
X82661793Y-98945042D01*
X82727958Y-99011207D01*
X82775854Y-99082889D01*
X82788290Y-99098043D01*
X82803443Y-99110479D01*
X82820732Y-99119720D01*
X82839491Y-99125410D01*
X82859000Y-99127332D01*
X82878508Y-99125411D01*
X82897268Y-99119720D01*
X82914556Y-99110479D01*
X82929710Y-99098043D01*
X82942146Y-99082889D01*
X82990042Y-99011207D01*
X83056207Y-98945042D01*
X83134002Y-98893062D01*
X83134003Y-98893061D01*
X83220448Y-98857254D01*
X83312217Y-98839000D01*
X83405783Y-98839000D01*
X83497552Y-98857254D01*
X83583997Y-98893061D01*
X83583998Y-98893062D01*
X83661793Y-98945042D01*
X83727958Y-99011207D01*
X83775854Y-99082889D01*
X83788290Y-99098043D01*
X83803443Y-99110479D01*
X83820732Y-99119720D01*
X83839491Y-99125410D01*
X83859000Y-99127332D01*
X83878508Y-99125411D01*
X83897268Y-99119720D01*
X83914556Y-99110479D01*
X83929710Y-99098043D01*
X83942146Y-99082889D01*
X83990042Y-99011207D01*
X84056207Y-98945042D01*
X84134002Y-98893062D01*
X84134003Y-98893061D01*
X84220448Y-98857254D01*
X84312217Y-98839000D01*
X84405783Y-98839000D01*
X84497552Y-98857254D01*
X84583997Y-98893061D01*
X84583998Y-98893062D01*
X84661793Y-98945042D01*
X84727958Y-99011207D01*
X84775854Y-99082889D01*
X84788290Y-99098043D01*
X84803443Y-99110479D01*
X84820732Y-99119720D01*
X84839491Y-99125410D01*
X84859000Y-99127332D01*
X84878508Y-99125411D01*
X84897268Y-99119720D01*
X84914556Y-99110479D01*
X84929710Y-99098043D01*
X84942146Y-99082889D01*
X84990042Y-99011207D01*
X85056207Y-98945042D01*
X85134002Y-98893062D01*
X85134003Y-98893061D01*
X85220448Y-98857254D01*
X85312217Y-98839000D01*
X85405783Y-98839000D01*
X85497552Y-98857254D01*
X85583997Y-98893061D01*
X85583998Y-98893062D01*
X85661793Y-98945042D01*
X85727958Y-99011207D01*
X85775854Y-99082889D01*
X85788290Y-99098043D01*
X85803443Y-99110479D01*
X85820732Y-99119720D01*
X85839491Y-99125410D01*
X85859000Y-99127332D01*
X85878508Y-99125411D01*
X85897268Y-99119720D01*
X85914556Y-99110479D01*
X85929710Y-99098043D01*
X85942146Y-99082889D01*
X85990042Y-99011207D01*
X86056207Y-98945042D01*
X86134002Y-98893062D01*
X86134003Y-98893061D01*
X86220448Y-98857254D01*
X86312217Y-98839000D01*
X86405783Y-98839000D01*
X86497552Y-98857254D01*
X86583997Y-98893061D01*
X86583998Y-98893062D01*
X86661793Y-98945042D01*
X86727958Y-99011207D01*
X86775854Y-99082889D01*
X86788290Y-99098043D01*
X86803443Y-99110479D01*
X86820732Y-99119720D01*
X86839491Y-99125410D01*
X86859000Y-99127332D01*
X86878508Y-99125411D01*
X86897268Y-99119720D01*
X86914556Y-99110479D01*
X86929710Y-99098043D01*
X86942146Y-99082889D01*
X86990042Y-99011207D01*
X87056207Y-98945042D01*
X87134002Y-98893062D01*
X87134003Y-98893061D01*
X87220448Y-98857254D01*
X87312217Y-98839000D01*
X87405783Y-98839000D01*
X87497552Y-98857254D01*
X87583997Y-98893061D01*
X87583998Y-98893062D01*
X87661793Y-98945042D01*
X87727958Y-99011207D01*
X87762611Y-99063070D01*
X87779939Y-99089003D01*
X87815746Y-99175448D01*
X87834000Y-99267217D01*
X87834000Y-99360783D01*
X87815746Y-99452552D01*
X87779939Y-99538997D01*
X87762611Y-99564930D01*
X87727958Y-99616793D01*
X87661793Y-99682958D01*
X87609930Y-99717611D01*
X87583997Y-99734939D01*
X87497552Y-99770746D01*
X87405783Y-99789000D01*
X87312217Y-99789000D01*
X87220448Y-99770746D01*
X87134003Y-99734939D01*
X87108070Y-99717611D01*
X87056207Y-99682958D01*
X86990042Y-99616793D01*
X86942146Y-99545111D01*
X86929710Y-99529957D01*
X86914557Y-99517521D01*
X86897268Y-99508280D01*
X86878509Y-99502590D01*
X86859000Y-99500668D01*
X86839492Y-99502589D01*
X86820732Y-99508280D01*
X86803444Y-99517521D01*
X86788290Y-99529957D01*
X86775854Y-99545111D01*
X86727958Y-99616793D01*
X86661793Y-99682958D01*
X86609930Y-99717611D01*
X86583997Y-99734939D01*
X86497552Y-99770746D01*
X86405783Y-99789000D01*
X86312217Y-99789000D01*
X86220448Y-99770746D01*
X86134003Y-99734939D01*
X86108070Y-99717611D01*
X86056207Y-99682958D01*
X85990042Y-99616793D01*
X85942146Y-99545111D01*
X85929710Y-99529957D01*
X85914557Y-99517521D01*
X85897268Y-99508280D01*
X85878509Y-99502590D01*
X85859000Y-99500668D01*
X85839492Y-99502589D01*
X85820732Y-99508280D01*
X85803444Y-99517521D01*
X85788290Y-99529957D01*
X85775854Y-99545111D01*
X85727958Y-99616793D01*
X85661793Y-99682958D01*
X85609930Y-99717611D01*
X85583997Y-99734939D01*
X85497552Y-99770746D01*
X85405783Y-99789000D01*
X85312217Y-99789000D01*
X85220448Y-99770746D01*
X85134003Y-99734939D01*
X85108070Y-99717611D01*
X85056207Y-99682958D01*
X84990042Y-99616793D01*
X84942146Y-99545111D01*
X84929710Y-99529957D01*
X84914557Y-99517521D01*
X84897268Y-99508280D01*
X84878509Y-99502590D01*
X84859000Y-99500668D01*
X84839492Y-99502589D01*
X84820732Y-99508280D01*
X84803444Y-99517521D01*
X84788290Y-99529957D01*
X84775854Y-99545111D01*
X84727958Y-99616793D01*
X84661793Y-99682958D01*
X84609930Y-99717611D01*
X84583997Y-99734939D01*
X84497552Y-99770746D01*
X84405783Y-99789000D01*
X84312217Y-99789000D01*
X84220448Y-99770746D01*
X84134003Y-99734939D01*
X84108070Y-99717611D01*
X84056207Y-99682958D01*
X83990042Y-99616793D01*
X83942146Y-99545111D01*
X83929710Y-99529957D01*
X83914557Y-99517521D01*
X83897268Y-99508280D01*
X83878509Y-99502590D01*
X83859000Y-99500668D01*
X83839492Y-99502589D01*
X83820732Y-99508280D01*
X83803444Y-99517521D01*
X83788290Y-99529957D01*
X83775854Y-99545111D01*
X83727958Y-99616793D01*
X83661793Y-99682958D01*
X83609930Y-99717611D01*
X83583997Y-99734939D01*
X83497552Y-99770746D01*
X83405783Y-99789000D01*
X83312217Y-99789000D01*
X83220448Y-99770746D01*
X83134003Y-99734939D01*
X83108070Y-99717611D01*
X83056207Y-99682958D01*
X82990042Y-99616793D01*
X82942146Y-99545111D01*
X82929710Y-99529957D01*
X82914557Y-99517521D01*
X82897268Y-99508280D01*
X82878509Y-99502590D01*
X82859000Y-99500668D01*
X82839492Y-99502589D01*
X82820732Y-99508280D01*
X82803444Y-99517521D01*
X82788290Y-99529957D01*
X82775854Y-99545111D01*
X82727958Y-99616793D01*
X82661793Y-99682958D01*
X82609930Y-99717611D01*
X82583997Y-99734939D01*
X82497552Y-99770746D01*
X82405783Y-99789000D01*
X82312217Y-99789000D01*
X82220448Y-99770746D01*
X82134003Y-99734939D01*
X82108070Y-99717611D01*
X82056207Y-99682958D01*
X81990042Y-99616793D01*
X81942146Y-99545111D01*
X81929710Y-99529957D01*
X81914557Y-99517521D01*
X81897268Y-99508280D01*
X81878509Y-99502590D01*
X81859000Y-99500668D01*
X81839492Y-99502589D01*
X81820732Y-99508280D01*
X81803444Y-99517521D01*
X81788290Y-99529957D01*
X81775854Y-99545111D01*
X81727958Y-99616793D01*
X81661793Y-99682958D01*
X81609930Y-99717611D01*
X81583997Y-99734939D01*
X81497552Y-99770746D01*
X81405783Y-99789000D01*
X81312217Y-99789000D01*
X81220448Y-99770746D01*
X81134003Y-99734939D01*
X81108070Y-99717611D01*
X81056207Y-99682958D01*
X80990042Y-99616793D01*
X80942146Y-99545111D01*
X80929710Y-99529957D01*
X80914557Y-99517521D01*
X80897268Y-99508280D01*
X80878509Y-99502590D01*
X80859000Y-99500668D01*
X80839492Y-99502589D01*
X80820732Y-99508280D01*
X80803444Y-99517521D01*
X80788290Y-99529957D01*
X80775854Y-99545111D01*
X80727958Y-99616793D01*
X80661793Y-99682958D01*
X80609930Y-99717611D01*
X80583997Y-99734939D01*
X80497552Y-99770746D01*
X80405783Y-99789000D01*
X80312217Y-99789000D01*
X80220448Y-99770746D01*
X80134003Y-99734939D01*
X80108070Y-99717611D01*
X80056207Y-99682958D01*
X79990042Y-99616793D01*
X79942146Y-99545111D01*
X79929710Y-99529957D01*
X79914557Y-99517521D01*
X79897268Y-99508280D01*
X79878509Y-99502590D01*
X79859000Y-99500668D01*
X79839492Y-99502589D01*
X79820732Y-99508280D01*
X79803444Y-99517521D01*
X79788290Y-99529957D01*
X79775854Y-99545111D01*
X79727958Y-99616793D01*
X79661793Y-99682958D01*
X79609930Y-99717611D01*
X79583997Y-99734939D01*
X79497552Y-99770746D01*
X79405783Y-99789000D01*
X79312217Y-99789000D01*
X79220448Y-99770746D01*
X79134003Y-99734939D01*
X79108070Y-99717611D01*
X79056207Y-99682958D01*
X79004709Y-99631460D01*
X78989555Y-99619024D01*
X78972267Y-99609783D01*
X78953508Y-99604092D01*
X78933999Y-99602171D01*
X78914490Y-99604092D01*
X78895731Y-99609783D01*
X78878443Y-99619024D01*
X78863289Y-99631460D01*
X78850853Y-99646614D01*
X78841612Y-99663902D01*
X78835921Y-99682661D01*
X78834000Y-99702170D01*
X78834000Y-99789000D01*
X77884000Y-99789000D01*
X77884000Y-98839000D01*
X78834000Y-98839000D01*
X78834000Y-98925830D01*
G37*
G36*
X121851990Y-89076896D02*
G01*
X121851992Y-89076897D01*
X121851993Y-89076897D01*
X121955048Y-89119584D01*
X122443452Y-89321888D01*
X122638870Y-89452462D01*
X122975753Y-89677559D01*
X123428441Y-90130247D01*
X123475573Y-90200785D01*
X123784112Y-90662548D01*
X124029104Y-91254010D01*
X124154000Y-91881903D01*
X124154000Y-92522097D01*
X124029104Y-93149990D01*
X123784112Y-93741452D01*
X123608977Y-94003561D01*
X123428441Y-94273753D01*
X122975753Y-94726441D01*
X122797659Y-94845439D01*
X122443452Y-95082112D01*
X122025229Y-95255346D01*
X121851993Y-95327103D01*
X121851992Y-95327103D01*
X121851990Y-95327104D01*
X121224097Y-95452000D01*
X120583903Y-95452000D01*
X119956010Y-95327104D01*
X119956008Y-95327103D01*
X119956007Y-95327103D01*
X119782771Y-95255346D01*
X119364548Y-95082112D01*
X119010341Y-94845439D01*
X118832247Y-94726441D01*
X118379559Y-94273753D01*
X118199023Y-94003561D01*
X118023888Y-93741452D01*
X117778896Y-93149990D01*
X117654000Y-92522097D01*
X117654000Y-91881903D01*
X117778896Y-91254010D01*
X118023888Y-90662548D01*
X118332427Y-90200785D01*
X118379559Y-90130247D01*
X118832247Y-89677559D01*
X119169130Y-89452462D01*
X119364548Y-89321888D01*
X119852952Y-89119584D01*
X119956007Y-89076897D01*
X119956008Y-89076897D01*
X119956010Y-89076896D01*
X120583903Y-88952000D01*
X121224097Y-88952000D01*
X121851990Y-89076896D01*
G37*
G36*
X107627990Y-89076896D02*
G01*
X107627992Y-89076897D01*
X107627993Y-89076897D01*
X107731048Y-89119584D01*
X108219452Y-89321888D01*
X108414870Y-89452462D01*
X108751753Y-89677559D01*
X109204441Y-90130247D01*
X109251573Y-90200785D01*
X109560112Y-90662548D01*
X109805104Y-91254010D01*
X109930000Y-91881903D01*
X109930000Y-92522097D01*
X109805104Y-93149990D01*
X109560112Y-93741452D01*
X109384977Y-94003561D01*
X109204441Y-94273753D01*
X108751753Y-94726441D01*
X108573659Y-94845439D01*
X108219452Y-95082112D01*
X107801229Y-95255346D01*
X107627993Y-95327103D01*
X107627992Y-95327103D01*
X107627990Y-95327104D01*
X107000097Y-95452000D01*
X106359903Y-95452000D01*
X105732010Y-95327104D01*
X105732008Y-95327103D01*
X105732007Y-95327103D01*
X105558771Y-95255346D01*
X105140548Y-95082112D01*
X104786341Y-94845439D01*
X104608247Y-94726441D01*
X104155559Y-94273753D01*
X103975023Y-94003561D01*
X103799888Y-93741452D01*
X103554896Y-93149990D01*
X103430000Y-92522097D01*
X103430000Y-91881903D01*
X103554896Y-91254010D01*
X103799888Y-90662548D01*
X104108427Y-90200785D01*
X104155559Y-90130247D01*
X104608247Y-89677559D01*
X104945130Y-89452462D01*
X105140548Y-89321888D01*
X105628952Y-89119584D01*
X105732007Y-89076897D01*
X105732008Y-89076897D01*
X105732010Y-89076896D01*
X106359903Y-88952000D01*
X107000097Y-88952000D01*
X107627990Y-89076896D01*
G37*
G36*
X24315990Y-89076896D02*
G01*
X24315992Y-89076897D01*
X24315993Y-89076897D01*
X24419048Y-89119584D01*
X24907452Y-89321888D01*
X25102870Y-89452462D01*
X25439753Y-89677559D01*
X25892441Y-90130247D01*
X25939573Y-90200785D01*
X26248112Y-90662548D01*
X26493104Y-91254010D01*
X26618000Y-91881903D01*
X26618000Y-92522097D01*
X26493104Y-93149990D01*
X26248112Y-93741452D01*
X26072977Y-94003561D01*
X25892441Y-94273753D01*
X25439753Y-94726441D01*
X25261659Y-94845439D01*
X24907452Y-95082112D01*
X24489229Y-95255346D01*
X24315993Y-95327103D01*
X24315992Y-95327103D01*
X24315990Y-95327104D01*
X23688097Y-95452000D01*
X23047903Y-95452000D01*
X22420010Y-95327104D01*
X22420008Y-95327103D01*
X22420007Y-95327103D01*
X22246771Y-95255346D01*
X21828548Y-95082112D01*
X21474341Y-94845439D01*
X21296247Y-94726441D01*
X20843559Y-94273753D01*
X20663023Y-94003561D01*
X20487888Y-93741452D01*
X20242896Y-93149990D01*
X20118000Y-92522097D01*
X20118000Y-91881903D01*
X20242896Y-91254010D01*
X20487888Y-90662548D01*
X20796427Y-90200785D01*
X20843559Y-90130247D01*
X21296247Y-89677559D01*
X21633130Y-89452462D01*
X21828548Y-89321888D01*
X22316952Y-89119584D01*
X22420007Y-89076897D01*
X22420008Y-89076897D01*
X22420010Y-89076896D01*
X23047903Y-88952000D01*
X23688097Y-88952000D01*
X24315990Y-89076896D01*
G37*
G36*
X78897500Y-94036330D02*
G01*
X78899421Y-94055839D01*
X78905112Y-94074598D01*
X78914353Y-94091886D01*
X78926789Y-94107040D01*
X78941943Y-94119476D01*
X78959231Y-94128717D01*
X78977990Y-94134408D01*
X78997499Y-94136329D01*
X79017008Y-94134408D01*
X79035767Y-94128717D01*
X79053055Y-94119476D01*
X79068209Y-94107040D01*
X79119707Y-94055542D01*
X79197502Y-94003562D01*
X79197503Y-94003561D01*
X79283948Y-93967754D01*
X79375717Y-93949500D01*
X79469283Y-93949500D01*
X79561052Y-93967754D01*
X79647497Y-94003561D01*
X79647498Y-94003562D01*
X79725293Y-94055542D01*
X79791458Y-94121707D01*
X79839354Y-94193389D01*
X79851790Y-94208543D01*
X79866943Y-94220979D01*
X79884232Y-94230220D01*
X79902991Y-94235910D01*
X79922500Y-94237832D01*
X79942008Y-94235911D01*
X79960768Y-94230220D01*
X79978056Y-94220979D01*
X79993210Y-94208543D01*
X80005646Y-94193389D01*
X80053542Y-94121707D01*
X80119707Y-94055542D01*
X80197502Y-94003562D01*
X80197503Y-94003561D01*
X80283948Y-93967754D01*
X80375717Y-93949500D01*
X80469283Y-93949500D01*
X80561052Y-93967754D01*
X80647497Y-94003561D01*
X80647498Y-94003562D01*
X80725293Y-94055542D01*
X80791458Y-94121707D01*
X80839354Y-94193389D01*
X80851790Y-94208543D01*
X80866943Y-94220979D01*
X80884232Y-94230220D01*
X80902991Y-94235910D01*
X80922500Y-94237832D01*
X80942008Y-94235911D01*
X80960768Y-94230220D01*
X80978056Y-94220979D01*
X80993210Y-94208543D01*
X81005646Y-94193389D01*
X81053542Y-94121707D01*
X81119707Y-94055542D01*
X81197502Y-94003562D01*
X81197503Y-94003561D01*
X81283948Y-93967754D01*
X81375717Y-93949500D01*
X81469283Y-93949500D01*
X81561052Y-93967754D01*
X81647497Y-94003561D01*
X81647498Y-94003562D01*
X81725293Y-94055542D01*
X81791458Y-94121707D01*
X81839354Y-94193389D01*
X81851790Y-94208543D01*
X81866943Y-94220979D01*
X81884232Y-94230220D01*
X81902991Y-94235910D01*
X81922500Y-94237832D01*
X81942008Y-94235911D01*
X81960768Y-94230220D01*
X81978056Y-94220979D01*
X81993210Y-94208543D01*
X82005646Y-94193389D01*
X82053542Y-94121707D01*
X82119707Y-94055542D01*
X82197502Y-94003562D01*
X82197503Y-94003561D01*
X82283948Y-93967754D01*
X82375717Y-93949500D01*
X82469283Y-93949500D01*
X82561052Y-93967754D01*
X82647497Y-94003561D01*
X82647498Y-94003562D01*
X82725293Y-94055542D01*
X82791458Y-94121707D01*
X82839354Y-94193389D01*
X82851790Y-94208543D01*
X82866943Y-94220979D01*
X82884232Y-94230220D01*
X82902991Y-94235910D01*
X82922500Y-94237832D01*
X82942008Y-94235911D01*
X82960768Y-94230220D01*
X82978056Y-94220979D01*
X82993210Y-94208543D01*
X83005646Y-94193389D01*
X83053542Y-94121707D01*
X83119707Y-94055542D01*
X83197502Y-94003562D01*
X83197503Y-94003561D01*
X83283948Y-93967754D01*
X83375717Y-93949500D01*
X83469283Y-93949500D01*
X83561052Y-93967754D01*
X83647497Y-94003561D01*
X83647498Y-94003562D01*
X83725293Y-94055542D01*
X83791458Y-94121707D01*
X83839354Y-94193389D01*
X83851790Y-94208543D01*
X83866943Y-94220979D01*
X83884232Y-94230220D01*
X83902991Y-94235910D01*
X83922500Y-94237832D01*
X83942008Y-94235911D01*
X83960768Y-94230220D01*
X83978056Y-94220979D01*
X83993210Y-94208543D01*
X84005646Y-94193389D01*
X84053542Y-94121707D01*
X84119707Y-94055542D01*
X84197502Y-94003562D01*
X84197503Y-94003561D01*
X84283948Y-93967754D01*
X84375717Y-93949500D01*
X84469283Y-93949500D01*
X84561052Y-93967754D01*
X84647497Y-94003561D01*
X84647498Y-94003562D01*
X84725293Y-94055542D01*
X84791458Y-94121707D01*
X84839354Y-94193389D01*
X84851790Y-94208543D01*
X84866943Y-94220979D01*
X84884232Y-94230220D01*
X84902991Y-94235910D01*
X84922500Y-94237832D01*
X84942008Y-94235911D01*
X84960768Y-94230220D01*
X84978056Y-94220979D01*
X84993210Y-94208543D01*
X85005646Y-94193389D01*
X85053542Y-94121707D01*
X85119707Y-94055542D01*
X85197502Y-94003562D01*
X85197503Y-94003561D01*
X85283948Y-93967754D01*
X85375717Y-93949500D01*
X85469283Y-93949500D01*
X85561052Y-93967754D01*
X85647497Y-94003561D01*
X85647498Y-94003562D01*
X85725293Y-94055542D01*
X85791458Y-94121707D01*
X85839354Y-94193389D01*
X85851790Y-94208543D01*
X85866943Y-94220979D01*
X85884232Y-94230220D01*
X85902991Y-94235910D01*
X85922500Y-94237832D01*
X85942008Y-94235911D01*
X85960768Y-94230220D01*
X85978056Y-94220979D01*
X85993210Y-94208543D01*
X86005646Y-94193389D01*
X86053542Y-94121707D01*
X86119707Y-94055542D01*
X86197502Y-94003562D01*
X86197503Y-94003561D01*
X86283948Y-93967754D01*
X86375717Y-93949500D01*
X86469283Y-93949500D01*
X86561052Y-93967754D01*
X86647497Y-94003561D01*
X86647498Y-94003562D01*
X86725293Y-94055542D01*
X86791458Y-94121707D01*
X86839354Y-94193389D01*
X86851790Y-94208543D01*
X86866943Y-94220979D01*
X86884232Y-94230220D01*
X86902991Y-94235910D01*
X86922500Y-94237832D01*
X86942008Y-94235911D01*
X86960768Y-94230220D01*
X86978056Y-94220979D01*
X86993210Y-94208543D01*
X87005646Y-94193389D01*
X87053542Y-94121707D01*
X87119707Y-94055542D01*
X87197502Y-94003562D01*
X87197503Y-94003561D01*
X87283948Y-93967754D01*
X87375717Y-93949500D01*
X87469283Y-93949500D01*
X87561052Y-93967754D01*
X87647497Y-94003561D01*
X87647498Y-94003562D01*
X87725293Y-94055542D01*
X87791458Y-94121707D01*
X87823254Y-94169294D01*
X87843439Y-94199503D01*
X87879246Y-94285948D01*
X87897500Y-94377717D01*
X87897500Y-94471283D01*
X87879246Y-94563052D01*
X87843439Y-94649497D01*
X87826111Y-94675430D01*
X87791458Y-94727293D01*
X87725293Y-94793458D01*
X87673430Y-94828111D01*
X87647497Y-94845439D01*
X87561052Y-94881246D01*
X87469283Y-94899500D01*
X87375717Y-94899500D01*
X87283948Y-94881246D01*
X87197503Y-94845439D01*
X87171570Y-94828111D01*
X87119707Y-94793458D01*
X87053542Y-94727293D01*
X87005646Y-94655611D01*
X86993210Y-94640457D01*
X86978057Y-94628021D01*
X86960768Y-94618780D01*
X86942009Y-94613090D01*
X86922500Y-94611168D01*
X86902992Y-94613089D01*
X86884232Y-94618780D01*
X86866944Y-94628021D01*
X86851790Y-94640457D01*
X86839354Y-94655611D01*
X86791458Y-94727293D01*
X86725293Y-94793458D01*
X86673430Y-94828111D01*
X86647497Y-94845439D01*
X86561052Y-94881246D01*
X86469283Y-94899500D01*
X86375717Y-94899500D01*
X86283948Y-94881246D01*
X86197503Y-94845439D01*
X86171570Y-94828111D01*
X86119707Y-94793458D01*
X86053542Y-94727293D01*
X86005646Y-94655611D01*
X85993210Y-94640457D01*
X85978057Y-94628021D01*
X85960768Y-94618780D01*
X85942009Y-94613090D01*
X85922500Y-94611168D01*
X85902992Y-94613089D01*
X85884232Y-94618780D01*
X85866944Y-94628021D01*
X85851790Y-94640457D01*
X85839354Y-94655611D01*
X85791458Y-94727293D01*
X85725293Y-94793458D01*
X85673430Y-94828111D01*
X85647497Y-94845439D01*
X85561052Y-94881246D01*
X85469283Y-94899500D01*
X85375717Y-94899500D01*
X85283948Y-94881246D01*
X85197503Y-94845439D01*
X85171570Y-94828111D01*
X85119707Y-94793458D01*
X85053542Y-94727293D01*
X85005646Y-94655611D01*
X84993210Y-94640457D01*
X84978057Y-94628021D01*
X84960768Y-94618780D01*
X84942009Y-94613090D01*
X84922500Y-94611168D01*
X84902992Y-94613089D01*
X84884232Y-94618780D01*
X84866944Y-94628021D01*
X84851790Y-94640457D01*
X84839354Y-94655611D01*
X84791458Y-94727293D01*
X84725293Y-94793458D01*
X84673430Y-94828111D01*
X84647497Y-94845439D01*
X84561052Y-94881246D01*
X84469283Y-94899500D01*
X84375717Y-94899500D01*
X84283948Y-94881246D01*
X84197503Y-94845439D01*
X84171570Y-94828111D01*
X84119707Y-94793458D01*
X84053542Y-94727293D01*
X84005646Y-94655611D01*
X83993210Y-94640457D01*
X83978057Y-94628021D01*
X83960768Y-94618780D01*
X83942009Y-94613090D01*
X83922500Y-94611168D01*
X83902992Y-94613089D01*
X83884232Y-94618780D01*
X83866944Y-94628021D01*
X83851790Y-94640457D01*
X83839354Y-94655611D01*
X83791458Y-94727293D01*
X83725293Y-94793458D01*
X83673430Y-94828111D01*
X83647497Y-94845439D01*
X83561052Y-94881246D01*
X83469283Y-94899500D01*
X83375717Y-94899500D01*
X83283948Y-94881246D01*
X83197503Y-94845439D01*
X83171570Y-94828111D01*
X83119707Y-94793458D01*
X83053542Y-94727293D01*
X83005646Y-94655611D01*
X82993210Y-94640457D01*
X82978057Y-94628021D01*
X82960768Y-94618780D01*
X82942009Y-94613090D01*
X82922500Y-94611168D01*
X82902992Y-94613089D01*
X82884232Y-94618780D01*
X82866944Y-94628021D01*
X82851790Y-94640457D01*
X82839354Y-94655611D01*
X82791458Y-94727293D01*
X82725293Y-94793458D01*
X82673430Y-94828111D01*
X82647497Y-94845439D01*
X82561052Y-94881246D01*
X82469283Y-94899500D01*
X82375717Y-94899500D01*
X82283948Y-94881246D01*
X82197503Y-94845439D01*
X82171570Y-94828111D01*
X82119707Y-94793458D01*
X82053542Y-94727293D01*
X82005646Y-94655611D01*
X81993210Y-94640457D01*
X81978057Y-94628021D01*
X81960768Y-94618780D01*
X81942009Y-94613090D01*
X81922500Y-94611168D01*
X81902992Y-94613089D01*
X81884232Y-94618780D01*
X81866944Y-94628021D01*
X81851790Y-94640457D01*
X81839354Y-94655611D01*
X81791458Y-94727293D01*
X81725293Y-94793458D01*
X81673430Y-94828111D01*
X81647497Y-94845439D01*
X81561052Y-94881246D01*
X81469283Y-94899500D01*
X81375717Y-94899500D01*
X81283948Y-94881246D01*
X81197503Y-94845439D01*
X81171570Y-94828111D01*
X81119707Y-94793458D01*
X81053542Y-94727293D01*
X81005646Y-94655611D01*
X80993210Y-94640457D01*
X80978057Y-94628021D01*
X80960768Y-94618780D01*
X80942009Y-94613090D01*
X80922500Y-94611168D01*
X80902992Y-94613089D01*
X80884232Y-94618780D01*
X80866944Y-94628021D01*
X80851790Y-94640457D01*
X80839354Y-94655611D01*
X80791458Y-94727293D01*
X80725293Y-94793458D01*
X80673430Y-94828111D01*
X80647497Y-94845439D01*
X80561052Y-94881246D01*
X80469283Y-94899500D01*
X80375717Y-94899500D01*
X80283948Y-94881246D01*
X80197503Y-94845439D01*
X80171570Y-94828111D01*
X80119707Y-94793458D01*
X80053542Y-94727293D01*
X80005646Y-94655611D01*
X79993210Y-94640457D01*
X79978057Y-94628021D01*
X79960768Y-94618780D01*
X79942009Y-94613090D01*
X79922500Y-94611168D01*
X79902992Y-94613089D01*
X79884232Y-94618780D01*
X79866944Y-94628021D01*
X79851790Y-94640457D01*
X79839354Y-94655611D01*
X79791458Y-94727293D01*
X79725293Y-94793458D01*
X79673430Y-94828111D01*
X79647497Y-94845439D01*
X79561052Y-94881246D01*
X79469283Y-94899500D01*
X79375717Y-94899500D01*
X79283948Y-94881246D01*
X79197503Y-94845439D01*
X79171570Y-94828111D01*
X79119707Y-94793458D01*
X79068209Y-94741960D01*
X79053055Y-94729524D01*
X79035767Y-94720283D01*
X79017008Y-94714592D01*
X78997499Y-94712671D01*
X78977990Y-94714592D01*
X78959231Y-94720283D01*
X78941943Y-94729524D01*
X78926789Y-94741960D01*
X78914353Y-94757114D01*
X78905112Y-94774402D01*
X78899421Y-94793161D01*
X78897500Y-94812670D01*
X78897500Y-94899500D01*
X77947500Y-94899500D01*
X77947500Y-93949500D01*
X78897500Y-93949500D01*
X78897500Y-94036330D01*
G37*
G36*
X169132274Y-88213350D02*
G01*
X169323362Y-88292502D01*
X169495336Y-88407411D01*
X169641589Y-88553664D01*
X169756498Y-88725638D01*
X169835650Y-88916726D01*
X169876000Y-89119584D01*
X169876000Y-89326416D01*
X169835650Y-89529274D01*
X169756498Y-89720362D01*
X169641589Y-89892336D01*
X169495336Y-90038589D01*
X169323362Y-90153498D01*
X169132274Y-90232650D01*
X168929416Y-90273000D01*
X168722584Y-90273000D01*
X168519726Y-90232650D01*
X168328638Y-90153498D01*
X168156664Y-90038589D01*
X168010411Y-89892336D01*
X167895502Y-89720362D01*
X167816350Y-89529274D01*
X167776000Y-89326416D01*
X167776000Y-89119584D01*
X167816350Y-88916726D01*
X167895502Y-88725638D01*
X168010411Y-88553664D01*
X168156664Y-88407411D01*
X168328638Y-88292502D01*
X168519726Y-88213350D01*
X168722584Y-88173000D01*
X168929416Y-88173000D01*
X169132274Y-88213350D01*
G37*
G36*
X170696520Y-78890586D02*
G01*
X170696522Y-78890587D01*
X170696523Y-78890587D01*
X170757025Y-78915648D01*
X170860310Y-78958430D01*
X171007717Y-79056924D01*
X171133076Y-79182283D01*
X171231570Y-79329690D01*
X171299414Y-79493480D01*
X171334000Y-79667358D01*
X171334000Y-79844642D01*
X171299414Y-80018520D01*
X171231570Y-80182310D01*
X171133076Y-80329717D01*
X171007717Y-80455076D01*
X170860310Y-80553570D01*
X170757025Y-80596352D01*
X170696523Y-80621413D01*
X170696522Y-80621413D01*
X170696520Y-80621414D01*
X170522642Y-80656000D01*
X170345358Y-80656000D01*
X170171480Y-80621414D01*
X170171478Y-80621413D01*
X170171477Y-80621413D01*
X170110975Y-80596352D01*
X170007690Y-80553570D01*
X169860283Y-80455076D01*
X169734924Y-80329717D01*
X169636430Y-80182310D01*
X169568586Y-80018520D01*
X169534000Y-79844642D01*
X169534000Y-79667358D01*
X169568586Y-79493480D01*
X169636430Y-79329690D01*
X169734924Y-79182283D01*
X169860283Y-79056924D01*
X170007690Y-78958430D01*
X170110975Y-78915648D01*
X170171477Y-78890587D01*
X170171478Y-78890587D01*
X170171480Y-78890586D01*
X170345358Y-78856000D01*
X170522642Y-78856000D01*
X170696520Y-78890586D01*
G37*
G36*
X173236520Y-78890586D02*
G01*
X173236522Y-78890587D01*
X173236523Y-78890587D01*
X173297025Y-78915648D01*
X173400310Y-78958430D01*
X173547717Y-79056924D01*
X173673076Y-79182283D01*
X173771570Y-79329690D01*
X173839414Y-79493480D01*
X173874000Y-79667358D01*
X173874000Y-79844642D01*
X173839414Y-80018520D01*
X173771570Y-80182310D01*
X173673076Y-80329717D01*
X173547717Y-80455076D01*
X173400310Y-80553570D01*
X173297025Y-80596352D01*
X173236523Y-80621413D01*
X173236522Y-80621413D01*
X173236520Y-80621414D01*
X173062642Y-80656000D01*
X172885358Y-80656000D01*
X172711480Y-80621414D01*
X172711478Y-80621413D01*
X172711477Y-80621413D01*
X172650975Y-80596352D01*
X172547690Y-80553570D01*
X172400283Y-80455076D01*
X172274924Y-80329717D01*
X172176430Y-80182310D01*
X172108586Y-80018520D01*
X172074000Y-79844642D01*
X172074000Y-79667358D01*
X172108586Y-79493480D01*
X172176430Y-79329690D01*
X172274924Y-79182283D01*
X172400283Y-79056924D01*
X172547690Y-78958430D01*
X172650975Y-78915648D01*
X172711477Y-78890587D01*
X172711478Y-78890587D01*
X172711480Y-78890586D01*
X172885358Y-78856000D01*
X173062642Y-78856000D01*
X173236520Y-78890586D01*
G37*
G36*
X168156520Y-78890586D02*
G01*
X168156522Y-78890587D01*
X168156523Y-78890587D01*
X168217025Y-78915648D01*
X168320310Y-78958430D01*
X168467717Y-79056924D01*
X168593076Y-79182283D01*
X168691570Y-79329690D01*
X168759414Y-79493480D01*
X168794000Y-79667358D01*
X168794000Y-79844642D01*
X168759414Y-80018520D01*
X168691570Y-80182310D01*
X168593076Y-80329717D01*
X168467717Y-80455076D01*
X168320310Y-80553570D01*
X168217025Y-80596352D01*
X168156523Y-80621413D01*
X168156522Y-80621413D01*
X168156520Y-80621414D01*
X167982642Y-80656000D01*
X167805358Y-80656000D01*
X167631480Y-80621414D01*
X167631478Y-80621413D01*
X167631477Y-80621413D01*
X167570975Y-80596352D01*
X167467690Y-80553570D01*
X167320283Y-80455076D01*
X167194924Y-80329717D01*
X167096430Y-80182310D01*
X167028586Y-80018520D01*
X166994000Y-79844642D01*
X166994000Y-79667358D01*
X167028586Y-79493480D01*
X167096430Y-79329690D01*
X167194924Y-79182283D01*
X167320283Y-79056924D01*
X167467690Y-78958430D01*
X167570975Y-78915648D01*
X167631477Y-78890587D01*
X167631478Y-78890587D01*
X167631480Y-78890586D01*
X167805358Y-78856000D01*
X167982642Y-78856000D01*
X168156520Y-78890586D01*
G37*
G36*
X165616520Y-78890586D02*
G01*
X165616522Y-78890587D01*
X165616523Y-78890587D01*
X165677025Y-78915648D01*
X165780310Y-78958430D01*
X165927717Y-79056924D01*
X166053076Y-79182283D01*
X166151570Y-79329690D01*
X166219414Y-79493480D01*
X166254000Y-79667358D01*
X166254000Y-79844642D01*
X166219414Y-80018520D01*
X166151570Y-80182310D01*
X166053076Y-80329717D01*
X165927717Y-80455076D01*
X165780310Y-80553570D01*
X165677025Y-80596352D01*
X165616523Y-80621413D01*
X165616522Y-80621413D01*
X165616520Y-80621414D01*
X165442642Y-80656000D01*
X165265358Y-80656000D01*
X165091480Y-80621414D01*
X165091478Y-80621413D01*
X165091477Y-80621413D01*
X165030975Y-80596352D01*
X164927690Y-80553570D01*
X164780283Y-80455076D01*
X164654924Y-80329717D01*
X164556430Y-80182310D01*
X164488586Y-80018520D01*
X164454000Y-79844642D01*
X164454000Y-79667358D01*
X164488586Y-79493480D01*
X164556430Y-79329690D01*
X164654924Y-79182283D01*
X164780283Y-79056924D01*
X164927690Y-78958430D01*
X165030975Y-78915648D01*
X165091477Y-78890587D01*
X165091478Y-78890587D01*
X165091480Y-78890586D01*
X165265358Y-78856000D01*
X165442642Y-78856000D01*
X165616520Y-78890586D01*
G37*
G36*
X163076520Y-78890586D02*
G01*
X163076522Y-78890587D01*
X163076523Y-78890587D01*
X163137025Y-78915648D01*
X163240310Y-78958430D01*
X163387717Y-79056924D01*
X163513076Y-79182283D01*
X163611570Y-79329690D01*
X163679414Y-79493480D01*
X163714000Y-79667358D01*
X163714000Y-79844642D01*
X163679414Y-80018520D01*
X163611570Y-80182310D01*
X163513076Y-80329717D01*
X163387717Y-80455076D01*
X163240310Y-80553570D01*
X163137025Y-80596352D01*
X163076523Y-80621413D01*
X163076522Y-80621413D01*
X163076520Y-80621414D01*
X162902642Y-80656000D01*
X162725358Y-80656000D01*
X162551480Y-80621414D01*
X162551478Y-80621413D01*
X162551477Y-80621413D01*
X162490975Y-80596352D01*
X162387690Y-80553570D01*
X162240283Y-80455076D01*
X162114924Y-80329717D01*
X162016430Y-80182310D01*
X161948586Y-80018520D01*
X161914000Y-79844642D01*
X161914000Y-79667358D01*
X161948586Y-79493480D01*
X162016430Y-79329690D01*
X162114924Y-79182283D01*
X162240283Y-79056924D01*
X162387690Y-78958430D01*
X162490975Y-78915648D01*
X162551477Y-78890587D01*
X162551478Y-78890587D01*
X162551480Y-78890586D01*
X162725358Y-78856000D01*
X162902642Y-78856000D01*
X163076520Y-78890586D01*
G37*
G36*
X161174000Y-80656000D02*
G01*
X159374000Y-80656000D01*
X159374000Y-78856000D01*
X161174000Y-78856000D01*
X161174000Y-80656000D01*
G37*
G36*
X149400011Y-77020057D02*
G01*
X149400013Y-77020058D01*
X149400014Y-77020058D01*
X149509207Y-77065287D01*
X149509209Y-77065288D01*
X149607476Y-77130948D01*
X149691052Y-77214524D01*
X149721980Y-77260812D01*
X149756713Y-77312793D01*
X149767193Y-77338093D01*
X149767613Y-77339108D01*
X149776854Y-77356397D01*
X149789290Y-77371550D01*
X149804444Y-77383986D01*
X149821732Y-77393227D01*
X149840491Y-77398918D01*
X149860000Y-77400839D01*
X149879509Y-77398918D01*
X149898268Y-77393227D01*
X149915557Y-77383986D01*
X149930710Y-77371550D01*
X149943146Y-77356396D01*
X149952387Y-77339108D01*
X149952807Y-77338093D01*
X149963287Y-77312793D01*
X149998020Y-77260812D01*
X150028948Y-77214524D01*
X150112524Y-77130948D01*
X150210791Y-77065288D01*
X150210793Y-77065287D01*
X150319986Y-77020058D01*
X150319987Y-77020058D01*
X150319989Y-77020057D01*
X150435903Y-76997000D01*
X150554097Y-76997000D01*
X150670011Y-77020057D01*
X150670013Y-77020058D01*
X150670014Y-77020058D01*
X150779207Y-77065287D01*
X150779209Y-77065288D01*
X150877476Y-77130948D01*
X150961052Y-77214524D01*
X150991980Y-77260812D01*
X151026713Y-77312793D01*
X151037193Y-77338093D01*
X151037613Y-77339108D01*
X151046854Y-77356397D01*
X151059290Y-77371550D01*
X151074444Y-77383986D01*
X151091732Y-77393227D01*
X151110491Y-77398918D01*
X151130000Y-77400839D01*
X151149509Y-77398918D01*
X151168268Y-77393227D01*
X151185557Y-77383986D01*
X151200710Y-77371550D01*
X151213146Y-77356396D01*
X151222387Y-77339108D01*
X151222807Y-77338093D01*
X151233287Y-77312793D01*
X151268020Y-77260812D01*
X151298948Y-77214524D01*
X151382524Y-77130948D01*
X151480791Y-77065288D01*
X151480793Y-77065287D01*
X151589986Y-77020058D01*
X151589987Y-77020058D01*
X151589989Y-77020057D01*
X151705903Y-76997000D01*
X151824097Y-76997000D01*
X151940011Y-77020057D01*
X151940013Y-77020058D01*
X151940014Y-77020058D01*
X152049207Y-77065287D01*
X152049209Y-77065288D01*
X152147476Y-77130948D01*
X152231052Y-77214524D01*
X152261980Y-77260812D01*
X152296713Y-77312793D01*
X152307193Y-77338093D01*
X152307613Y-77339108D01*
X152316854Y-77356397D01*
X152329290Y-77371550D01*
X152344444Y-77383986D01*
X152361732Y-77393227D01*
X152380491Y-77398918D01*
X152400000Y-77400839D01*
X152419509Y-77398918D01*
X152438268Y-77393227D01*
X152455557Y-77383986D01*
X152470710Y-77371550D01*
X152483146Y-77356396D01*
X152492387Y-77339108D01*
X152492807Y-77338093D01*
X152503287Y-77312793D01*
X152538020Y-77260812D01*
X152568948Y-77214524D01*
X152652524Y-77130948D01*
X152750791Y-77065288D01*
X152750793Y-77065287D01*
X152859986Y-77020058D01*
X152859987Y-77020058D01*
X152859989Y-77020057D01*
X152975903Y-76997000D01*
X153094097Y-76997000D01*
X153210011Y-77020057D01*
X153210013Y-77020058D01*
X153210014Y-77020058D01*
X153319207Y-77065287D01*
X153319209Y-77065288D01*
X153417476Y-77130948D01*
X153501052Y-77214524D01*
X153521855Y-77245658D01*
X153534291Y-77260812D01*
X153549444Y-77273248D01*
X153566733Y-77282489D01*
X153585492Y-77288180D01*
X153605001Y-77290101D01*
X153624510Y-77288180D01*
X153643269Y-77282489D01*
X153660557Y-77273248D01*
X153675711Y-77260812D01*
X153688147Y-77245659D01*
X153697388Y-77228370D01*
X153703079Y-77209611D01*
X153705000Y-77190102D01*
X153705000Y-76997000D01*
X154905000Y-76997000D01*
X154905000Y-78197000D01*
X154711898Y-78197000D01*
X154692389Y-78198921D01*
X154673630Y-78204612D01*
X154656342Y-78213853D01*
X154641188Y-78226289D01*
X154628752Y-78241443D01*
X154619511Y-78258731D01*
X154613820Y-78277490D01*
X154611899Y-78296999D01*
X154613820Y-78316508D01*
X154619511Y-78335267D01*
X154628752Y-78352555D01*
X154641188Y-78367709D01*
X154656342Y-78380145D01*
X154687476Y-78400948D01*
X154771052Y-78484524D01*
X154836712Y-78582791D01*
X154836713Y-78582793D01*
X154881942Y-78691986D01*
X154905000Y-78807905D01*
X154905000Y-78926095D01*
X154881942Y-79042014D01*
X154866202Y-79080014D01*
X154836712Y-79151209D01*
X154771052Y-79249476D01*
X154687476Y-79333052D01*
X154589209Y-79398712D01*
X154589208Y-79398713D01*
X154589207Y-79398713D01*
X154480014Y-79443942D01*
X154480013Y-79443942D01*
X154480011Y-79443943D01*
X154364097Y-79467000D01*
X154245903Y-79467000D01*
X154129989Y-79443943D01*
X154129987Y-79443942D01*
X154129986Y-79443942D01*
X154020793Y-79398713D01*
X154020792Y-79398713D01*
X154020791Y-79398712D01*
X153922524Y-79333052D01*
X153838948Y-79249476D01*
X153794051Y-79182283D01*
X153773287Y-79151207D01*
X153762387Y-79124892D01*
X153753146Y-79107603D01*
X153740710Y-79092450D01*
X153725556Y-79080014D01*
X153708268Y-79070773D01*
X153689509Y-79065082D01*
X153670000Y-79063161D01*
X153650491Y-79065082D01*
X153631732Y-79070773D01*
X153614443Y-79080014D01*
X153599290Y-79092450D01*
X153586854Y-79107604D01*
X153577613Y-79124892D01*
X153566713Y-79151207D01*
X153545949Y-79182283D01*
X153501052Y-79249476D01*
X153417476Y-79333052D01*
X153319209Y-79398712D01*
X153319208Y-79398713D01*
X153319207Y-79398713D01*
X153210014Y-79443942D01*
X153210013Y-79443942D01*
X153210011Y-79443943D01*
X153094097Y-79467000D01*
X152975903Y-79467000D01*
X152859989Y-79443943D01*
X152859987Y-79443942D01*
X152859986Y-79443942D01*
X152750793Y-79398713D01*
X152750792Y-79398713D01*
X152750791Y-79398712D01*
X152652524Y-79333052D01*
X152568948Y-79249476D01*
X152524051Y-79182283D01*
X152503287Y-79151207D01*
X152492387Y-79124892D01*
X152483146Y-79107603D01*
X152470710Y-79092450D01*
X152455556Y-79080014D01*
X152438268Y-79070773D01*
X152419509Y-79065082D01*
X152400000Y-79063161D01*
X152380491Y-79065082D01*
X152361732Y-79070773D01*
X152344443Y-79080014D01*
X152329290Y-79092450D01*
X152316854Y-79107604D01*
X152307613Y-79124892D01*
X152296713Y-79151207D01*
X152275949Y-79182283D01*
X152231052Y-79249476D01*
X152147476Y-79333052D01*
X152049209Y-79398712D01*
X152049208Y-79398713D01*
X152049207Y-79398713D01*
X151940014Y-79443942D01*
X151940013Y-79443942D01*
X151940011Y-79443943D01*
X151824097Y-79467000D01*
X151705903Y-79467000D01*
X151589989Y-79443943D01*
X151589987Y-79443942D01*
X151589986Y-79443942D01*
X151480793Y-79398713D01*
X151480792Y-79398713D01*
X151480791Y-79398712D01*
X151382524Y-79333052D01*
X151298948Y-79249476D01*
X151254051Y-79182283D01*
X151233287Y-79151207D01*
X151222387Y-79124892D01*
X151213146Y-79107603D01*
X151200710Y-79092450D01*
X151185556Y-79080014D01*
X151168268Y-79070773D01*
X151149509Y-79065082D01*
X151130000Y-79063161D01*
X151110491Y-79065082D01*
X151091732Y-79070773D01*
X151074443Y-79080014D01*
X151059290Y-79092450D01*
X151046854Y-79107604D01*
X151037613Y-79124892D01*
X151026713Y-79151207D01*
X151005949Y-79182283D01*
X150961052Y-79249476D01*
X150877476Y-79333052D01*
X150779209Y-79398712D01*
X150779208Y-79398713D01*
X150779207Y-79398713D01*
X150670014Y-79443942D01*
X150670013Y-79443942D01*
X150670011Y-79443943D01*
X150554097Y-79467000D01*
X150435903Y-79467000D01*
X150319989Y-79443943D01*
X150319987Y-79443942D01*
X150319986Y-79443942D01*
X150210793Y-79398713D01*
X150210792Y-79398713D01*
X150210791Y-79398712D01*
X150112524Y-79333052D01*
X150028948Y-79249476D01*
X149984051Y-79182283D01*
X149963287Y-79151207D01*
X149952387Y-79124892D01*
X149943146Y-79107603D01*
X149930710Y-79092450D01*
X149915556Y-79080014D01*
X149898268Y-79070773D01*
X149879509Y-79065082D01*
X149860000Y-79063161D01*
X149840491Y-79065082D01*
X149821732Y-79070773D01*
X149804443Y-79080014D01*
X149789290Y-79092450D01*
X149776854Y-79107604D01*
X149767613Y-79124892D01*
X149756713Y-79151207D01*
X149735949Y-79182283D01*
X149691052Y-79249476D01*
X149607476Y-79333052D01*
X149509209Y-79398712D01*
X149509208Y-79398713D01*
X149509207Y-79398713D01*
X149400014Y-79443942D01*
X149400013Y-79443942D01*
X149400011Y-79443943D01*
X149284097Y-79467000D01*
X149165903Y-79467000D01*
X149049989Y-79443943D01*
X149049987Y-79443942D01*
X149049986Y-79443942D01*
X148940793Y-79398713D01*
X148940792Y-79398713D01*
X148940791Y-79398712D01*
X148842524Y-79333052D01*
X148758948Y-79249476D01*
X148693288Y-79151209D01*
X148663798Y-79080014D01*
X148648058Y-79042014D01*
X148625000Y-78926095D01*
X148625000Y-78807905D01*
X148648058Y-78691986D01*
X148693287Y-78582793D01*
X148693288Y-78582791D01*
X148758948Y-78484524D01*
X148842524Y-78400948D01*
X148940792Y-78335288D01*
X148940793Y-78335287D01*
X148967108Y-78324387D01*
X148984397Y-78315146D01*
X148999550Y-78302710D01*
X149011986Y-78287556D01*
X149021227Y-78270268D01*
X149026918Y-78251509D01*
X149028839Y-78232000D01*
X149421161Y-78232000D01*
X149423082Y-78251509D01*
X149428773Y-78270268D01*
X149438014Y-78287557D01*
X149450450Y-78302710D01*
X149465604Y-78315146D01*
X149482892Y-78324387D01*
X149509207Y-78335287D01*
X149509208Y-78335288D01*
X149607476Y-78400948D01*
X149691052Y-78484524D01*
X149734825Y-78550036D01*
X149756713Y-78582793D01*
X149767193Y-78608093D01*
X149767613Y-78609108D01*
X149776854Y-78626397D01*
X149789290Y-78641550D01*
X149804444Y-78653986D01*
X149821732Y-78663227D01*
X149840491Y-78668918D01*
X149860000Y-78670839D01*
X149879509Y-78668918D01*
X149898268Y-78663227D01*
X149915557Y-78653986D01*
X149930710Y-78641550D01*
X149943146Y-78626396D01*
X149952387Y-78609108D01*
X149952807Y-78608093D01*
X149963287Y-78582793D01*
X149985175Y-78550036D01*
X150028948Y-78484524D01*
X150112524Y-78400948D01*
X150210792Y-78335288D01*
X150210793Y-78335287D01*
X150237108Y-78324387D01*
X150254397Y-78315146D01*
X150269550Y-78302710D01*
X150281986Y-78287556D01*
X150291227Y-78270268D01*
X150296918Y-78251509D01*
X150298839Y-78232000D01*
X150691161Y-78232000D01*
X150693082Y-78251509D01*
X150698773Y-78270268D01*
X150708014Y-78287557D01*
X150720450Y-78302710D01*
X150735604Y-78315146D01*
X150752892Y-78324387D01*
X150779207Y-78335287D01*
X150779208Y-78335288D01*
X150877476Y-78400948D01*
X150961052Y-78484524D01*
X151004825Y-78550036D01*
X151026713Y-78582793D01*
X151037193Y-78608093D01*
X151037613Y-78609108D01*
X151046854Y-78626397D01*
X151059290Y-78641550D01*
X151074444Y-78653986D01*
X151091732Y-78663227D01*
X151110491Y-78668918D01*
X151130000Y-78670839D01*
X151149509Y-78668918D01*
X151168268Y-78663227D01*
X151185557Y-78653986D01*
X151200710Y-78641550D01*
X151213146Y-78626396D01*
X151222387Y-78609108D01*
X151222807Y-78608093D01*
X151233287Y-78582793D01*
X151255175Y-78550036D01*
X151298948Y-78484524D01*
X151382524Y-78400948D01*
X151480792Y-78335288D01*
X151480793Y-78335287D01*
X151507108Y-78324387D01*
X151524397Y-78315146D01*
X151539550Y-78302710D01*
X151551986Y-78287556D01*
X151561227Y-78270268D01*
X151566918Y-78251509D01*
X151568839Y-78232000D01*
X151961161Y-78232000D01*
X151963082Y-78251509D01*
X151968773Y-78270268D01*
X151978014Y-78287557D01*
X151990450Y-78302710D01*
X152005604Y-78315146D01*
X152022892Y-78324387D01*
X152049207Y-78335287D01*
X152049208Y-78335288D01*
X152147476Y-78400948D01*
X152231052Y-78484524D01*
X152274825Y-78550036D01*
X152296713Y-78582793D01*
X152307193Y-78608093D01*
X152307613Y-78609108D01*
X152316854Y-78626397D01*
X152329290Y-78641550D01*
X152344444Y-78653986D01*
X152361732Y-78663227D01*
X152380491Y-78668918D01*
X152400000Y-78670839D01*
X152419509Y-78668918D01*
X152438268Y-78663227D01*
X152455557Y-78653986D01*
X152470710Y-78641550D01*
X152483146Y-78626396D01*
X152492387Y-78609108D01*
X152492807Y-78608093D01*
X152503287Y-78582793D01*
X152525175Y-78550036D01*
X152568948Y-78484524D01*
X152652524Y-78400948D01*
X152750792Y-78335288D01*
X152750793Y-78335287D01*
X152777108Y-78324387D01*
X152794397Y-78315146D01*
X152809550Y-78302710D01*
X152821986Y-78287556D01*
X152831227Y-78270268D01*
X152836918Y-78251509D01*
X152838839Y-78232000D01*
X153231161Y-78232000D01*
X153233082Y-78251509D01*
X153238773Y-78270268D01*
X153248014Y-78287557D01*
X153260450Y-78302710D01*
X153275604Y-78315146D01*
X153292892Y-78324387D01*
X153319207Y-78335287D01*
X153319208Y-78335288D01*
X153417476Y-78400948D01*
X153501052Y-78484524D01*
X153544825Y-78550036D01*
X153566713Y-78582793D01*
X153577193Y-78608093D01*
X153577613Y-78609108D01*
X153586854Y-78626397D01*
X153599290Y-78641550D01*
X153614444Y-78653986D01*
X153631732Y-78663227D01*
X153650491Y-78668918D01*
X153670000Y-78670839D01*
X153689509Y-78668918D01*
X153708268Y-78663227D01*
X153725557Y-78653986D01*
X153740710Y-78641550D01*
X153753146Y-78626396D01*
X153762387Y-78609108D01*
X153762807Y-78608093D01*
X153773287Y-78582793D01*
X153795175Y-78550036D01*
X153838948Y-78484524D01*
X153922524Y-78400948D01*
X153953658Y-78380145D01*
X153968812Y-78367709D01*
X153981248Y-78352556D01*
X153990489Y-78335267D01*
X153996180Y-78316508D01*
X153998101Y-78296999D01*
X153996180Y-78277490D01*
X153990489Y-78258731D01*
X153981248Y-78241443D01*
X153968812Y-78226289D01*
X153953659Y-78213853D01*
X153936370Y-78204612D01*
X153917611Y-78198921D01*
X153898102Y-78197000D01*
X153705000Y-78197000D01*
X153705000Y-78003898D01*
X153703079Y-77984389D01*
X153697388Y-77965630D01*
X153688147Y-77948342D01*
X153675711Y-77933188D01*
X153660557Y-77920752D01*
X153643269Y-77911511D01*
X153624510Y-77905820D01*
X153605001Y-77903899D01*
X153585492Y-77905820D01*
X153566733Y-77911511D01*
X153549445Y-77920752D01*
X153534291Y-77933188D01*
X153521855Y-77948342D01*
X153501052Y-77979476D01*
X153417476Y-78063052D01*
X153351964Y-78106825D01*
X153319207Y-78128713D01*
X153293907Y-78139193D01*
X153292892Y-78139613D01*
X153275603Y-78148854D01*
X153260450Y-78161290D01*
X153248014Y-78176444D01*
X153238773Y-78193732D01*
X153233082Y-78212491D01*
X153231161Y-78232000D01*
X152838839Y-78232000D01*
X152836918Y-78212491D01*
X152831227Y-78193732D01*
X152821986Y-78176443D01*
X152809550Y-78161290D01*
X152794396Y-78148854D01*
X152777108Y-78139613D01*
X152776093Y-78139193D01*
X152750793Y-78128713D01*
X152718036Y-78106825D01*
X152652524Y-78063052D01*
X152568948Y-77979476D01*
X152519733Y-77905820D01*
X152503287Y-77881207D01*
X152492387Y-77854892D01*
X152483146Y-77837603D01*
X152470710Y-77822450D01*
X152455556Y-77810014D01*
X152438268Y-77800773D01*
X152419509Y-77795082D01*
X152400000Y-77793161D01*
X152380491Y-77795082D01*
X152361732Y-77800773D01*
X152344443Y-77810014D01*
X152329290Y-77822450D01*
X152316854Y-77837604D01*
X152307613Y-77854892D01*
X152296713Y-77881207D01*
X152280267Y-77905820D01*
X152231052Y-77979476D01*
X152147476Y-78063052D01*
X152081964Y-78106825D01*
X152049207Y-78128713D01*
X152023907Y-78139193D01*
X152022892Y-78139613D01*
X152005603Y-78148854D01*
X151990450Y-78161290D01*
X151978014Y-78176444D01*
X151968773Y-78193732D01*
X151963082Y-78212491D01*
X151961161Y-78232000D01*
X151568839Y-78232000D01*
X151566918Y-78212491D01*
X151561227Y-78193732D01*
X151551986Y-78176443D01*
X151539550Y-78161290D01*
X151524396Y-78148854D01*
X151507108Y-78139613D01*
X151506093Y-78139193D01*
X151480793Y-78128713D01*
X151448036Y-78106825D01*
X151382524Y-78063052D01*
X151298948Y-77979476D01*
X151249733Y-77905820D01*
X151233287Y-77881207D01*
X151222387Y-77854892D01*
X151213146Y-77837603D01*
X151200710Y-77822450D01*
X151185556Y-77810014D01*
X151168268Y-77800773D01*
X151149509Y-77795082D01*
X151130000Y-77793161D01*
X151110491Y-77795082D01*
X151091732Y-77800773D01*
X151074443Y-77810014D01*
X151059290Y-77822450D01*
X151046854Y-77837604D01*
X151037613Y-77854892D01*
X151026713Y-77881207D01*
X151010267Y-77905820D01*
X150961052Y-77979476D01*
X150877476Y-78063052D01*
X150811964Y-78106825D01*
X150779207Y-78128713D01*
X150753907Y-78139193D01*
X150752892Y-78139613D01*
X150735603Y-78148854D01*
X150720450Y-78161290D01*
X150708014Y-78176444D01*
X150698773Y-78193732D01*
X150693082Y-78212491D01*
X150691161Y-78232000D01*
X150298839Y-78232000D01*
X150296918Y-78212491D01*
X150291227Y-78193732D01*
X150281986Y-78176443D01*
X150269550Y-78161290D01*
X150254396Y-78148854D01*
X150237108Y-78139613D01*
X150236093Y-78139193D01*
X150210793Y-78128713D01*
X150178036Y-78106825D01*
X150112524Y-78063052D01*
X150028948Y-77979476D01*
X149979733Y-77905820D01*
X149963287Y-77881207D01*
X149952387Y-77854892D01*
X149943146Y-77837603D01*
X149930710Y-77822450D01*
X149915556Y-77810014D01*
X149898268Y-77800773D01*
X149879509Y-77795082D01*
X149860000Y-77793161D01*
X149840491Y-77795082D01*
X149821732Y-77800773D01*
X149804443Y-77810014D01*
X149789290Y-77822450D01*
X149776854Y-77837604D01*
X149767613Y-77854892D01*
X149756713Y-77881207D01*
X149740267Y-77905820D01*
X149691052Y-77979476D01*
X149607476Y-78063052D01*
X149541964Y-78106825D01*
X149509207Y-78128713D01*
X149483907Y-78139193D01*
X149482892Y-78139613D01*
X149465603Y-78148854D01*
X149450450Y-78161290D01*
X149438014Y-78176444D01*
X149428773Y-78193732D01*
X149423082Y-78212491D01*
X149421161Y-78232000D01*
X149028839Y-78232000D01*
X149026918Y-78212491D01*
X149021227Y-78193732D01*
X149011986Y-78176443D01*
X148999550Y-78161290D01*
X148984396Y-78148854D01*
X148967108Y-78139613D01*
X148966093Y-78139193D01*
X148940793Y-78128713D01*
X148908036Y-78106825D01*
X148842524Y-78063052D01*
X148758948Y-77979476D01*
X148693288Y-77881209D01*
X148663798Y-77810014D01*
X148648058Y-77772014D01*
X148625000Y-77656095D01*
X148625000Y-77537905D01*
X148648058Y-77421986D01*
X148693287Y-77312793D01*
X148709733Y-77288180D01*
X148758948Y-77214524D01*
X148842524Y-77130948D01*
X148940791Y-77065288D01*
X148940793Y-77065287D01*
X149049986Y-77020058D01*
X149049987Y-77020058D01*
X149049989Y-77020057D01*
X149165903Y-76997000D01*
X149284097Y-76997000D01*
X149400011Y-77020057D01*
G37*
G36*
X168730500Y-76592000D02*
G01*
X166930500Y-76592000D01*
X166930500Y-74792000D01*
X168730500Y-74792000D01*
X168730500Y-76592000D01*
G37*
G36*
X170633020Y-74826586D02*
G01*
X170633022Y-74826587D01*
X170633023Y-74826587D01*
X170693525Y-74851648D01*
X170796810Y-74894430D01*
X170944217Y-74992924D01*
X171069576Y-75118283D01*
X171168070Y-75265690D01*
X171235914Y-75429480D01*
X171270500Y-75603358D01*
X171270500Y-75780642D01*
X171235914Y-75954520D01*
X171168070Y-76118310D01*
X171069576Y-76265717D01*
X170944217Y-76391076D01*
X170796810Y-76489570D01*
X170693525Y-76532352D01*
X170633023Y-76557413D01*
X170633022Y-76557413D01*
X170633020Y-76557414D01*
X170459142Y-76592000D01*
X170281858Y-76592000D01*
X170107980Y-76557414D01*
X170107978Y-76557413D01*
X170107977Y-76557413D01*
X170047475Y-76532352D01*
X169944190Y-76489570D01*
X169796783Y-76391076D01*
X169671424Y-76265717D01*
X169572930Y-76118310D01*
X169505086Y-75954520D01*
X169470500Y-75780642D01*
X169470500Y-75603358D01*
X169505086Y-75429480D01*
X169572930Y-75265690D01*
X169671424Y-75118283D01*
X169796783Y-74992924D01*
X169944190Y-74894430D01*
X170047475Y-74851648D01*
X170107977Y-74826587D01*
X170107978Y-74826587D01*
X170107980Y-74826586D01*
X170281858Y-74792000D01*
X170459142Y-74792000D01*
X170633020Y-74826586D01*
G37*
G36*
X173173020Y-74826586D02*
G01*
X173173022Y-74826587D01*
X173173023Y-74826587D01*
X173233525Y-74851648D01*
X173336810Y-74894430D01*
X173484217Y-74992924D01*
X173609576Y-75118283D01*
X173708070Y-75265690D01*
X173775914Y-75429480D01*
X173810500Y-75603358D01*
X173810500Y-75780642D01*
X173775914Y-75954520D01*
X173708070Y-76118310D01*
X173609576Y-76265717D01*
X173484217Y-76391076D01*
X173336810Y-76489570D01*
X173233525Y-76532352D01*
X173173023Y-76557413D01*
X173173022Y-76557413D01*
X173173020Y-76557414D01*
X172999142Y-76592000D01*
X172821858Y-76592000D01*
X172647980Y-76557414D01*
X172647978Y-76557413D01*
X172647977Y-76557413D01*
X172587475Y-76532352D01*
X172484190Y-76489570D01*
X172336783Y-76391076D01*
X172211424Y-76265717D01*
X172112930Y-76118310D01*
X172045086Y-75954520D01*
X172010500Y-75780642D01*
X172010500Y-75603358D01*
X172045086Y-75429480D01*
X172112930Y-75265690D01*
X172211424Y-75118283D01*
X172336783Y-74992924D01*
X172484190Y-74894430D01*
X172587475Y-74851648D01*
X172647977Y-74826587D01*
X172647978Y-74826587D01*
X172647980Y-74826586D01*
X172821858Y-74792000D01*
X172999142Y-74792000D01*
X173173020Y-74826586D01*
G37*
G36*
X26769835Y-73890182D02*
G01*
X26769837Y-73890183D01*
X26769838Y-73890183D01*
X26889950Y-73939935D01*
X26889952Y-73939936D01*
X26998047Y-74012162D01*
X27089980Y-74104095D01*
X27162206Y-74212190D01*
X27211960Y-74332307D01*
X27237323Y-74459813D01*
X27237323Y-74589825D01*
X27211960Y-74717331D01*
X27162206Y-74837448D01*
X27089980Y-74945543D01*
X26998047Y-75037476D01*
X26889952Y-75109702D01*
X26889951Y-75109703D01*
X26889950Y-75109703D01*
X26769838Y-75159455D01*
X26769837Y-75159455D01*
X26769835Y-75159456D01*
X26642329Y-75184819D01*
X26512317Y-75184819D01*
X26384811Y-75159456D01*
X26384809Y-75159455D01*
X26384808Y-75159455D01*
X26264696Y-75109703D01*
X26264695Y-75109703D01*
X26264694Y-75109702D01*
X26156599Y-75037476D01*
X26064666Y-74945543D01*
X25992440Y-74837448D01*
X25942686Y-74717331D01*
X25917323Y-74589825D01*
X25917323Y-74459813D01*
X25942686Y-74332307D01*
X25992440Y-74212190D01*
X26064666Y-74104095D01*
X26156599Y-74012162D01*
X26264694Y-73939936D01*
X26264696Y-73939935D01*
X26384808Y-73890183D01*
X26384809Y-73890183D01*
X26384811Y-73890182D01*
X26512317Y-73864819D01*
X26642329Y-73864819D01*
X26769835Y-73890182D01*
G37*
G36*
X32021720Y-71127287D02*
G01*
X32199159Y-71200785D01*
X32358850Y-71307487D01*
X32494655Y-71443292D01*
X32601357Y-71602983D01*
X32674855Y-71780422D01*
X32712323Y-71968790D01*
X32712323Y-72160848D01*
X32674855Y-72349216D01*
X32601357Y-72526655D01*
X32494655Y-72686346D01*
X32358850Y-72822151D01*
X32199159Y-72928853D01*
X32021720Y-73002351D01*
X31833352Y-73039819D01*
X31641294Y-73039819D01*
X31452926Y-73002351D01*
X31275487Y-72928853D01*
X31115796Y-72822151D01*
X30979991Y-72686346D01*
X30873289Y-72526655D01*
X30799791Y-72349216D01*
X30762323Y-72160848D01*
X30762323Y-71968790D01*
X30799791Y-71780422D01*
X30873289Y-71602983D01*
X30979991Y-71443292D01*
X31115796Y-71307487D01*
X31275487Y-71200785D01*
X31452926Y-71127287D01*
X31641294Y-71089819D01*
X31833352Y-71089819D01*
X32021720Y-71127287D01*
G37*
G36*
X161298520Y-68667086D02*
G01*
X161298522Y-68667087D01*
X161298523Y-68667087D01*
X161359025Y-68692148D01*
X161462310Y-68734930D01*
X161609717Y-68833424D01*
X161735076Y-68958783D01*
X161833570Y-69106190D01*
X161844340Y-69132192D01*
X161894093Y-69252304D01*
X161901414Y-69269980D01*
X161936000Y-69443858D01*
X161936000Y-69621142D01*
X161901414Y-69795020D01*
X161833570Y-69958810D01*
X161735076Y-70106217D01*
X161609717Y-70231576D01*
X161462310Y-70330070D01*
X161359025Y-70372852D01*
X161298523Y-70397913D01*
X161298522Y-70397913D01*
X161298520Y-70397914D01*
X161124642Y-70432500D01*
X160947358Y-70432500D01*
X160773480Y-70397914D01*
X160773478Y-70397913D01*
X160773477Y-70397913D01*
X160712975Y-70372852D01*
X160609690Y-70330070D01*
X160462283Y-70231576D01*
X160336924Y-70106217D01*
X160238430Y-69958810D01*
X160170586Y-69795020D01*
X160136000Y-69621142D01*
X160136000Y-69443858D01*
X160170586Y-69269980D01*
X160177908Y-69252304D01*
X160227660Y-69132192D01*
X160238430Y-69106190D01*
X160336924Y-68958783D01*
X160462283Y-68833424D01*
X160609690Y-68734930D01*
X160712975Y-68692148D01*
X160773477Y-68667087D01*
X160773478Y-68667087D01*
X160773480Y-68667086D01*
X160947358Y-68632500D01*
X161124642Y-68632500D01*
X161298520Y-68667086D01*
G37*
G36*
X158758520Y-68667086D02*
G01*
X158758522Y-68667087D01*
X158758523Y-68667087D01*
X158819025Y-68692148D01*
X158922310Y-68734930D01*
X159069717Y-68833424D01*
X159195076Y-68958783D01*
X159293570Y-69106190D01*
X159304340Y-69132192D01*
X159354093Y-69252304D01*
X159361414Y-69269980D01*
X159396000Y-69443858D01*
X159396000Y-69621142D01*
X159361414Y-69795020D01*
X159293570Y-69958810D01*
X159195076Y-70106217D01*
X159069717Y-70231576D01*
X158922310Y-70330070D01*
X158819025Y-70372852D01*
X158758523Y-70397913D01*
X158758522Y-70397913D01*
X158758520Y-70397914D01*
X158584642Y-70432500D01*
X158407358Y-70432500D01*
X158233480Y-70397914D01*
X158233478Y-70397913D01*
X158233477Y-70397913D01*
X158172975Y-70372852D01*
X158069690Y-70330070D01*
X157922283Y-70231576D01*
X157796924Y-70106217D01*
X157698430Y-69958810D01*
X157630586Y-69795020D01*
X157596000Y-69621142D01*
X157596000Y-69443858D01*
X157630586Y-69269980D01*
X157637908Y-69252304D01*
X157687660Y-69132192D01*
X157698430Y-69106190D01*
X157796924Y-68958783D01*
X157922283Y-68833424D01*
X158069690Y-68734930D01*
X158172975Y-68692148D01*
X158233477Y-68667087D01*
X158233478Y-68667087D01*
X158233480Y-68667086D01*
X158407358Y-68632500D01*
X158584642Y-68632500D01*
X158758520Y-68667086D01*
G37*
G36*
X34389835Y-68810182D02*
G01*
X34389837Y-68810183D01*
X34389838Y-68810183D01*
X34445949Y-68833425D01*
X34509952Y-68859936D01*
X34618047Y-68932162D01*
X34709980Y-69024095D01*
X34782206Y-69132190D01*
X34831960Y-69252307D01*
X34857323Y-69379813D01*
X34857323Y-69509825D01*
X34831960Y-69637331D01*
X34782206Y-69757448D01*
X34709980Y-69865543D01*
X34618047Y-69957476D01*
X34509952Y-70029702D01*
X34509951Y-70029703D01*
X34509950Y-70029703D01*
X34389838Y-70079455D01*
X34389837Y-70079455D01*
X34389835Y-70079456D01*
X34262329Y-70104819D01*
X34132317Y-70104819D01*
X34004811Y-70079456D01*
X34004809Y-70079455D01*
X34004808Y-70079455D01*
X33884696Y-70029703D01*
X33884695Y-70029703D01*
X33884694Y-70029702D01*
X33776599Y-69957476D01*
X33684666Y-69865543D01*
X33612440Y-69757448D01*
X33562686Y-69637331D01*
X33537323Y-69509825D01*
X33537323Y-69379813D01*
X33562686Y-69252307D01*
X33612440Y-69132190D01*
X33684666Y-69024095D01*
X33776599Y-68932162D01*
X33884694Y-68859936D01*
X33948697Y-68833425D01*
X34004808Y-68810183D01*
X34004809Y-68810183D01*
X34004811Y-68810182D01*
X34132317Y-68784819D01*
X34262329Y-68784819D01*
X34389835Y-68810182D01*
G37*
G36*
X27552323Y-67959819D02*
G01*
X25602323Y-67959819D01*
X25602323Y-66009819D01*
X27552323Y-66009819D01*
X27552323Y-67959819D01*
G37*
G36*
X161936000Y-67892500D02*
G01*
X160136000Y-67892500D01*
X160136000Y-66092500D01*
X161936000Y-66092500D01*
X161936000Y-67892500D01*
G37*
G36*
X158758520Y-66127086D02*
G01*
X158758522Y-66127087D01*
X158758523Y-66127087D01*
X158819025Y-66152148D01*
X158922310Y-66194930D01*
X159069717Y-66293424D01*
X159195076Y-66418783D01*
X159293570Y-66566190D01*
X159361414Y-66729980D01*
X159396000Y-66903858D01*
X159396000Y-67081142D01*
X159361414Y-67255020D01*
X159293570Y-67418810D01*
X159195076Y-67566217D01*
X159069717Y-67691576D01*
X158922310Y-67790070D01*
X158819025Y-67832852D01*
X158758523Y-67857913D01*
X158758522Y-67857913D01*
X158758520Y-67857914D01*
X158584642Y-67892500D01*
X158407358Y-67892500D01*
X158233480Y-67857914D01*
X158233478Y-67857913D01*
X158233477Y-67857913D01*
X158172975Y-67832852D01*
X158069690Y-67790070D01*
X157922283Y-67691576D01*
X157796924Y-67566217D01*
X157698430Y-67418810D01*
X157630586Y-67255020D01*
X157596000Y-67081142D01*
X157596000Y-66903858D01*
X157630586Y-66729980D01*
X157698430Y-66566190D01*
X157796924Y-66418783D01*
X157922283Y-66293424D01*
X158069690Y-66194930D01*
X158172975Y-66152148D01*
X158233477Y-66127087D01*
X158233478Y-66127087D01*
X158233480Y-66127086D01*
X158407358Y-66092500D01*
X158584642Y-66092500D01*
X158758520Y-66127086D01*
G37*
G36*
X26822512Y-60285363D02*
G01*
X26822514Y-60285364D01*
X26822515Y-60285364D01*
X26942627Y-60335116D01*
X26942629Y-60335117D01*
X27050724Y-60407343D01*
X27142657Y-60499276D01*
X27214883Y-60607371D01*
X27264637Y-60727488D01*
X27290000Y-60854994D01*
X27290000Y-60985006D01*
X27264637Y-61112512D01*
X27214883Y-61232629D01*
X27142657Y-61340724D01*
X27050724Y-61432657D01*
X26942629Y-61504883D01*
X26942628Y-61504884D01*
X26942627Y-61504884D01*
X26822515Y-61554636D01*
X26822514Y-61554636D01*
X26822512Y-61554637D01*
X26695006Y-61580000D01*
X26564994Y-61580000D01*
X26437488Y-61554637D01*
X26437486Y-61554636D01*
X26437485Y-61554636D01*
X26317373Y-61504884D01*
X26317372Y-61504884D01*
X26317371Y-61504883D01*
X26209276Y-61432657D01*
X26117343Y-61340724D01*
X26045117Y-61232629D01*
X25995363Y-61112512D01*
X25970000Y-60985006D01*
X25970000Y-60854994D01*
X25995363Y-60727488D01*
X26045117Y-60607371D01*
X26117343Y-60499276D01*
X26209276Y-60407343D01*
X26317371Y-60335117D01*
X26317373Y-60335116D01*
X26437485Y-60285364D01*
X26437486Y-60285364D01*
X26437488Y-60285363D01*
X26564994Y-60260000D01*
X26695006Y-60260000D01*
X26822512Y-60285363D01*
G37*
G36*
X32074397Y-57522468D02*
G01*
X32251836Y-57595966D01*
X32411527Y-57702668D01*
X32547332Y-57838473D01*
X32654034Y-57998164D01*
X32727532Y-58175603D01*
X32765000Y-58363971D01*
X32765000Y-58556029D01*
X32727532Y-58744397D01*
X32654034Y-58921836D01*
X32547332Y-59081527D01*
X32411527Y-59217332D01*
X32251836Y-59324034D01*
X32074397Y-59397532D01*
X31886029Y-59435000D01*
X31693971Y-59435000D01*
X31505603Y-59397532D01*
X31328164Y-59324034D01*
X31168473Y-59217332D01*
X31032668Y-59081527D01*
X30925966Y-58921836D01*
X30852468Y-58744397D01*
X30815000Y-58556029D01*
X30815000Y-58363971D01*
X30852468Y-58175603D01*
X30925966Y-57998164D01*
X31032668Y-57838473D01*
X31168473Y-57702668D01*
X31328164Y-57595966D01*
X31505603Y-57522468D01*
X31693971Y-57485000D01*
X31886029Y-57485000D01*
X32074397Y-57522468D01*
G37*
G36*
X34442512Y-55205363D02*
G01*
X34442514Y-55205364D01*
X34442515Y-55205364D01*
X34562627Y-55255116D01*
X34562629Y-55255117D01*
X34670724Y-55327343D01*
X34762657Y-55419276D01*
X34834883Y-55527371D01*
X34884637Y-55647488D01*
X34910000Y-55774994D01*
X34910000Y-55905006D01*
X34884637Y-56032512D01*
X34834883Y-56152629D01*
X34762657Y-56260724D01*
X34670724Y-56352657D01*
X34562629Y-56424883D01*
X34562628Y-56424884D01*
X34562627Y-56424884D01*
X34442515Y-56474636D01*
X34442514Y-56474636D01*
X34442512Y-56474637D01*
X34315006Y-56500000D01*
X34184994Y-56500000D01*
X34057488Y-56474637D01*
X34057486Y-56474636D01*
X34057485Y-56474636D01*
X33937373Y-56424884D01*
X33937372Y-56424884D01*
X33937371Y-56424883D01*
X33829276Y-56352657D01*
X33737343Y-56260724D01*
X33665117Y-56152629D01*
X33615363Y-56032512D01*
X33590000Y-55905006D01*
X33590000Y-55774994D01*
X33615363Y-55647488D01*
X33665117Y-55527371D01*
X33737343Y-55419276D01*
X33829276Y-55327343D01*
X33937371Y-55255117D01*
X33937373Y-55255116D01*
X34057485Y-55205364D01*
X34057486Y-55205364D01*
X34057488Y-55205363D01*
X34184994Y-55180000D01*
X34315006Y-55180000D01*
X34442512Y-55205363D01*
G37*
G36*
X27605000Y-54355000D02*
G01*
X25655000Y-54355000D01*
X25655000Y-52405000D01*
X27605000Y-52405000D01*
X27605000Y-54355000D01*
G37*
G36*
X95632039Y-49846721D02*
G01*
X95632041Y-49846722D01*
X95632042Y-49846722D01*
X95777502Y-49906974D01*
X95908416Y-49994448D01*
X96019748Y-50105780D01*
X96107222Y-50236694D01*
X96167475Y-50382157D01*
X96198192Y-50536580D01*
X96198192Y-50694028D01*
X96167475Y-50848451D01*
X96167474Y-50848454D01*
X96107222Y-50993914D01*
X96019748Y-51124828D01*
X95908416Y-51236160D01*
X95777502Y-51323634D01*
X95632042Y-51383886D01*
X95632041Y-51383886D01*
X95632039Y-51383887D01*
X95477616Y-51414604D01*
X95320168Y-51414604D01*
X95165745Y-51383887D01*
X95165743Y-51383886D01*
X95165742Y-51383886D01*
X95020282Y-51323634D01*
X94889368Y-51236160D01*
X94778036Y-51124828D01*
X94690562Y-50993914D01*
X94630310Y-50848454D01*
X94630309Y-50848451D01*
X94599592Y-50694028D01*
X94599592Y-50536580D01*
X94630309Y-50382157D01*
X94690562Y-50236694D01*
X94778036Y-50105780D01*
X94889368Y-49994448D01*
X95020282Y-49906974D01*
X95165742Y-49846722D01*
X95165743Y-49846722D01*
X95165745Y-49846721D01*
X95320168Y-49816004D01*
X95477616Y-49816004D01*
X95632039Y-49846721D01*
G37*
G36*
X93132039Y-49846721D02*
G01*
X93132041Y-49846722D01*
X93132042Y-49846722D01*
X93277502Y-49906974D01*
X93408416Y-49994448D01*
X93519748Y-50105780D01*
X93607222Y-50236694D01*
X93667475Y-50382157D01*
X93698192Y-50536580D01*
X93698192Y-50694028D01*
X93667475Y-50848451D01*
X93667474Y-50848454D01*
X93607222Y-50993914D01*
X93519748Y-51124828D01*
X93408416Y-51236160D01*
X93277502Y-51323634D01*
X93132042Y-51383886D01*
X93132041Y-51383886D01*
X93132039Y-51383887D01*
X92977616Y-51414604D01*
X92820168Y-51414604D01*
X92665745Y-51383887D01*
X92665743Y-51383886D01*
X92665742Y-51383886D01*
X92520282Y-51323634D01*
X92389368Y-51236160D01*
X92278036Y-51124828D01*
X92190562Y-50993914D01*
X92130310Y-50848454D01*
X92130309Y-50848451D01*
X92099592Y-50694028D01*
X92099592Y-50536580D01*
X92130309Y-50382157D01*
X92190562Y-50236694D01*
X92278036Y-50105780D01*
X92389368Y-49994448D01*
X92520282Y-49906974D01*
X92665742Y-49846722D01*
X92665743Y-49846722D01*
X92665745Y-49846721D01*
X92820168Y-49816004D01*
X92977616Y-49816004D01*
X93132039Y-49846721D01*
G37*
G36*
X98132039Y-49846721D02*
G01*
X98132041Y-49846722D01*
X98132042Y-49846722D01*
X98277502Y-49906974D01*
X98408416Y-49994448D01*
X98519748Y-50105780D01*
X98607222Y-50236694D01*
X98667475Y-50382157D01*
X98698192Y-50536580D01*
X98698192Y-50694028D01*
X98667475Y-50848451D01*
X98667474Y-50848454D01*
X98607222Y-50993914D01*
X98519748Y-51124828D01*
X98408416Y-51236160D01*
X98277502Y-51323634D01*
X98132042Y-51383886D01*
X98132041Y-51383886D01*
X98132039Y-51383887D01*
X97977616Y-51414604D01*
X97820168Y-51414604D01*
X97665745Y-51383887D01*
X97665743Y-51383886D01*
X97665742Y-51383886D01*
X97520282Y-51323634D01*
X97389368Y-51236160D01*
X97278036Y-51124828D01*
X97190562Y-50993914D01*
X97130310Y-50848454D01*
X97130309Y-50848451D01*
X97099592Y-50694028D01*
X97099592Y-50536580D01*
X97130309Y-50382157D01*
X97190562Y-50236694D01*
X97278036Y-50105780D01*
X97389368Y-49994448D01*
X97520282Y-49906974D01*
X97665742Y-49846722D01*
X97665743Y-49846722D01*
X97665745Y-49846721D01*
X97820168Y-49816004D01*
X97977616Y-49816004D01*
X98132039Y-49846721D01*
G37*
G36*
X72210000Y-49461000D02*
G01*
X70410000Y-49461000D01*
X70410000Y-47661000D01*
X72210000Y-47661000D01*
X72210000Y-49461000D01*
G37*
G36*
X63952520Y-47695586D02*
G01*
X63952522Y-47695587D01*
X63952523Y-47695587D01*
X64013025Y-47720648D01*
X64116310Y-47763430D01*
X64263717Y-47861924D01*
X64389076Y-47987283D01*
X64487570Y-48134690D01*
X64555414Y-48298480D01*
X64590000Y-48472358D01*
X64590000Y-48649642D01*
X64555414Y-48823520D01*
X64487570Y-48987310D01*
X64389076Y-49134717D01*
X64263717Y-49260076D01*
X64116310Y-49358570D01*
X64013025Y-49401352D01*
X63952523Y-49426413D01*
X63952522Y-49426413D01*
X63952520Y-49426414D01*
X63778642Y-49461000D01*
X63601358Y-49461000D01*
X63427480Y-49426414D01*
X63427478Y-49426413D01*
X63427477Y-49426413D01*
X63366975Y-49401352D01*
X63263690Y-49358570D01*
X63116283Y-49260076D01*
X62990924Y-49134717D01*
X62892430Y-48987310D01*
X62824586Y-48823520D01*
X62790000Y-48649642D01*
X62790000Y-48472358D01*
X62824586Y-48298480D01*
X62892430Y-48134690D01*
X62990924Y-47987283D01*
X63116283Y-47861924D01*
X63263690Y-47763430D01*
X63366975Y-47720648D01*
X63427477Y-47695587D01*
X63427478Y-47695587D01*
X63427480Y-47695586D01*
X63601358Y-47661000D01*
X63778642Y-47661000D01*
X63952520Y-47695586D01*
G37*
G36*
X75636520Y-47695586D02*
G01*
X75636522Y-47695587D01*
X75636523Y-47695587D01*
X75697025Y-47720648D01*
X75800310Y-47763430D01*
X75947717Y-47861924D01*
X76073076Y-47987283D01*
X76171570Y-48134690D01*
X76239414Y-48298480D01*
X76274000Y-48472358D01*
X76274000Y-48649642D01*
X76239414Y-48823520D01*
X76171570Y-48987310D01*
X76073076Y-49134717D01*
X75947717Y-49260076D01*
X75800310Y-49358570D01*
X75697025Y-49401352D01*
X75636523Y-49426413D01*
X75636522Y-49426413D01*
X75636520Y-49426414D01*
X75462642Y-49461000D01*
X75285358Y-49461000D01*
X75111480Y-49426414D01*
X75111478Y-49426413D01*
X75111477Y-49426413D01*
X75050975Y-49401352D01*
X74947690Y-49358570D01*
X74800283Y-49260076D01*
X74674924Y-49134717D01*
X74576430Y-48987310D01*
X74508586Y-48823520D01*
X74474000Y-48649642D01*
X74474000Y-48472358D01*
X74508586Y-48298480D01*
X74576430Y-48134690D01*
X74674924Y-47987283D01*
X74800283Y-47861924D01*
X74947690Y-47763430D01*
X75050975Y-47720648D01*
X75111477Y-47695587D01*
X75111478Y-47695587D01*
X75111480Y-47695586D01*
X75285358Y-47661000D01*
X75462642Y-47661000D01*
X75636520Y-47695586D01*
G37*
G36*
X83894000Y-49461000D02*
G01*
X82094000Y-49461000D01*
X82094000Y-47661000D01*
X83894000Y-47661000D01*
X83894000Y-49461000D01*
G37*
G36*
X61161000Y-49334000D02*
G01*
X59361000Y-49334000D01*
X59361000Y-47534000D01*
X61161000Y-47534000D01*
X61161000Y-49334000D01*
G37*
G36*
X41219520Y-47568586D02*
G01*
X41219522Y-47568587D01*
X41219523Y-47568587D01*
X41253090Y-47582491D01*
X41383310Y-47636430D01*
X41530717Y-47734924D01*
X41656076Y-47860283D01*
X41754570Y-48007690D01*
X41822414Y-48171480D01*
X41857000Y-48345358D01*
X41857000Y-48522642D01*
X41822414Y-48696520D01*
X41754570Y-48860310D01*
X41656076Y-49007717D01*
X41530717Y-49133076D01*
X41383310Y-49231570D01*
X41314490Y-49260076D01*
X41219523Y-49299413D01*
X41219522Y-49299413D01*
X41219520Y-49299414D01*
X41045642Y-49334000D01*
X40868358Y-49334000D01*
X40694480Y-49299414D01*
X40694478Y-49299413D01*
X40694477Y-49299413D01*
X40599510Y-49260076D01*
X40530690Y-49231570D01*
X40383283Y-49133076D01*
X40257924Y-49007717D01*
X40159430Y-48860310D01*
X40091586Y-48696520D01*
X40057000Y-48522642D01*
X40057000Y-48345358D01*
X40091586Y-48171480D01*
X40159430Y-48007690D01*
X40257924Y-47860283D01*
X40383283Y-47734924D01*
X40530690Y-47636430D01*
X40660910Y-47582491D01*
X40694477Y-47568587D01*
X40694478Y-47568587D01*
X40694480Y-47568586D01*
X40868358Y-47534000D01*
X41045642Y-47534000D01*
X41219520Y-47568586D01*
G37*
G36*
X52903520Y-47568586D02*
G01*
X52903522Y-47568587D01*
X52903523Y-47568587D01*
X52937090Y-47582491D01*
X53067310Y-47636430D01*
X53214717Y-47734924D01*
X53340076Y-47860283D01*
X53438570Y-48007690D01*
X53506414Y-48171480D01*
X53541000Y-48345358D01*
X53541000Y-48522642D01*
X53506414Y-48696520D01*
X53438570Y-48860310D01*
X53340076Y-49007717D01*
X53214717Y-49133076D01*
X53067310Y-49231570D01*
X52998490Y-49260076D01*
X52903523Y-49299413D01*
X52903522Y-49299413D01*
X52903520Y-49299414D01*
X52729642Y-49334000D01*
X52552358Y-49334000D01*
X52378480Y-49299414D01*
X52378478Y-49299413D01*
X52378477Y-49299413D01*
X52283510Y-49260076D01*
X52214690Y-49231570D01*
X52067283Y-49133076D01*
X51941924Y-49007717D01*
X51843430Y-48860310D01*
X51775586Y-48696520D01*
X51741000Y-48522642D01*
X51741000Y-48345358D01*
X51775586Y-48171480D01*
X51843430Y-48007690D01*
X51941924Y-47860283D01*
X52067283Y-47734924D01*
X52214690Y-47636430D01*
X52344910Y-47582491D01*
X52378477Y-47568587D01*
X52378478Y-47568587D01*
X52378480Y-47568586D01*
X52552358Y-47534000D01*
X52729642Y-47534000D01*
X52903520Y-47568586D01*
G37*
G36*
X49477000Y-49334000D02*
G01*
X47677000Y-49334000D01*
X47677000Y-47534000D01*
X49477000Y-47534000D01*
X49477000Y-49334000D01*
G37*
G36*
X27632323Y-48136766D02*
G01*
X25682323Y-48136766D01*
X25682323Y-46186766D01*
X27632323Y-46186766D01*
X27632323Y-48136766D01*
G37*
G36*
X34389835Y-46527129D02*
G01*
X34389837Y-46527130D01*
X34389838Y-46527130D01*
X34509950Y-46576882D01*
X34509952Y-46576883D01*
X34618047Y-46649109D01*
X34709980Y-46741042D01*
X34782206Y-46849137D01*
X34831960Y-46969254D01*
X34857323Y-47096760D01*
X34857323Y-47226772D01*
X34831960Y-47354278D01*
X34782206Y-47474395D01*
X34709980Y-47582490D01*
X34618047Y-47674423D01*
X34509952Y-47746649D01*
X34509951Y-47746650D01*
X34509950Y-47746650D01*
X34389838Y-47796402D01*
X34389837Y-47796402D01*
X34389835Y-47796403D01*
X34262329Y-47821766D01*
X34132317Y-47821766D01*
X34004811Y-47796403D01*
X34004809Y-47796402D01*
X34004808Y-47796402D01*
X33884696Y-47746650D01*
X33884695Y-47746650D01*
X33884694Y-47746649D01*
X33776599Y-47674423D01*
X33684666Y-47582490D01*
X33612440Y-47474395D01*
X33562686Y-47354278D01*
X33537323Y-47226772D01*
X33537323Y-47096760D01*
X33562686Y-46969254D01*
X33612440Y-46849137D01*
X33684666Y-46741042D01*
X33776599Y-46649109D01*
X33884694Y-46576883D01*
X33884696Y-46576882D01*
X34004808Y-46527130D01*
X34004809Y-46527130D01*
X34004811Y-46527129D01*
X34132317Y-46501766D01*
X34262329Y-46501766D01*
X34389835Y-46527129D01*
G37*
G36*
X71572520Y-45155586D02*
G01*
X71572522Y-45155587D01*
X71572523Y-45155587D01*
X71633025Y-45180648D01*
X71736310Y-45223430D01*
X71883717Y-45321924D01*
X72009076Y-45447283D01*
X72107570Y-45594690D01*
X72175414Y-45758480D01*
X72210000Y-45932358D01*
X72210000Y-46109642D01*
X72175414Y-46283520D01*
X72107570Y-46447310D01*
X72009076Y-46594717D01*
X71883717Y-46720076D01*
X71736310Y-46818570D01*
X71662510Y-46849139D01*
X71572523Y-46886413D01*
X71572522Y-46886413D01*
X71572520Y-46886414D01*
X71398642Y-46921000D01*
X71221358Y-46921000D01*
X71047480Y-46886414D01*
X71047478Y-46886413D01*
X71047477Y-46886413D01*
X70957490Y-46849139D01*
X70883690Y-46818570D01*
X70736283Y-46720076D01*
X70610924Y-46594717D01*
X70512430Y-46447310D01*
X70444586Y-46283520D01*
X70410000Y-46109642D01*
X70410000Y-45932358D01*
X70444586Y-45758480D01*
X70512430Y-45594690D01*
X70610924Y-45447283D01*
X70736283Y-45321924D01*
X70883690Y-45223430D01*
X70986975Y-45180648D01*
X71047477Y-45155587D01*
X71047478Y-45155587D01*
X71047480Y-45155586D01*
X71221358Y-45121000D01*
X71398642Y-45121000D01*
X71572520Y-45155586D01*
G37*
G36*
X75636520Y-45155586D02*
G01*
X75636522Y-45155587D01*
X75636523Y-45155587D01*
X75697025Y-45180648D01*
X75800310Y-45223430D01*
X75947717Y-45321924D01*
X76073076Y-45447283D01*
X76171570Y-45594690D01*
X76239414Y-45758480D01*
X76274000Y-45932358D01*
X76274000Y-46109642D01*
X76239414Y-46283520D01*
X76171570Y-46447310D01*
X76073076Y-46594717D01*
X75947717Y-46720076D01*
X75800310Y-46818570D01*
X75726510Y-46849139D01*
X75636523Y-46886413D01*
X75636522Y-46886413D01*
X75636520Y-46886414D01*
X75462642Y-46921000D01*
X75285358Y-46921000D01*
X75111480Y-46886414D01*
X75111478Y-46886413D01*
X75111477Y-46886413D01*
X75021490Y-46849139D01*
X74947690Y-46818570D01*
X74800283Y-46720076D01*
X74674924Y-46594717D01*
X74576430Y-46447310D01*
X74508586Y-46283520D01*
X74474000Y-46109642D01*
X74474000Y-45932358D01*
X74508586Y-45758480D01*
X74576430Y-45594690D01*
X74674924Y-45447283D01*
X74800283Y-45321924D01*
X74947690Y-45223430D01*
X75050975Y-45180648D01*
X75111477Y-45155587D01*
X75111478Y-45155587D01*
X75111480Y-45155586D01*
X75285358Y-45121000D01*
X75462642Y-45121000D01*
X75636520Y-45155586D01*
G37*
G36*
X83256520Y-45155586D02*
G01*
X83256522Y-45155587D01*
X83256523Y-45155587D01*
X83317025Y-45180648D01*
X83420310Y-45223430D01*
X83567717Y-45321924D01*
X83693076Y-45447283D01*
X83791570Y-45594690D01*
X83859414Y-45758480D01*
X83894000Y-45932358D01*
X83894000Y-46109642D01*
X83859414Y-46283520D01*
X83791570Y-46447310D01*
X83693076Y-46594717D01*
X83567717Y-46720076D01*
X83420310Y-46818570D01*
X83346510Y-46849139D01*
X83256523Y-46886413D01*
X83256522Y-46886413D01*
X83256520Y-46886414D01*
X83082642Y-46921000D01*
X82905358Y-46921000D01*
X82731480Y-46886414D01*
X82731478Y-46886413D01*
X82731477Y-46886413D01*
X82641490Y-46849139D01*
X82567690Y-46818570D01*
X82420283Y-46720076D01*
X82294924Y-46594717D01*
X82196430Y-46447310D01*
X82128586Y-46283520D01*
X82094000Y-46109642D01*
X82094000Y-45932358D01*
X82128586Y-45758480D01*
X82196430Y-45594690D01*
X82294924Y-45447283D01*
X82420283Y-45321924D01*
X82567690Y-45223430D01*
X82670975Y-45180648D01*
X82731477Y-45155587D01*
X82731478Y-45155587D01*
X82731480Y-45155586D01*
X82905358Y-45121000D01*
X83082642Y-45121000D01*
X83256520Y-45155586D01*
G37*
G36*
X63952520Y-45155586D02*
G01*
X63952522Y-45155587D01*
X63952523Y-45155587D01*
X64013025Y-45180648D01*
X64116310Y-45223430D01*
X64263717Y-45321924D01*
X64389076Y-45447283D01*
X64487570Y-45594690D01*
X64555414Y-45758480D01*
X64590000Y-45932358D01*
X64590000Y-46109642D01*
X64555414Y-46283520D01*
X64487570Y-46447310D01*
X64389076Y-46594717D01*
X64263717Y-46720076D01*
X64116310Y-46818570D01*
X64042510Y-46849139D01*
X63952523Y-46886413D01*
X63952522Y-46886413D01*
X63952520Y-46886414D01*
X63778642Y-46921000D01*
X63601358Y-46921000D01*
X63427480Y-46886414D01*
X63427478Y-46886413D01*
X63427477Y-46886413D01*
X63337490Y-46849139D01*
X63263690Y-46818570D01*
X63116283Y-46720076D01*
X62990924Y-46594717D01*
X62892430Y-46447310D01*
X62824586Y-46283520D01*
X62790000Y-46109642D01*
X62790000Y-45932358D01*
X62824586Y-45758480D01*
X62892430Y-45594690D01*
X62990924Y-45447283D01*
X63116283Y-45321924D01*
X63263690Y-45223430D01*
X63366975Y-45180648D01*
X63427477Y-45155587D01*
X63427478Y-45155587D01*
X63427480Y-45155586D01*
X63601358Y-45121000D01*
X63778642Y-45121000D01*
X63952520Y-45155586D01*
G37*
G36*
X48839520Y-45028586D02*
G01*
X48839522Y-45028587D01*
X48839523Y-45028587D01*
X48900025Y-45053648D01*
X49003310Y-45096430D01*
X49150717Y-45194924D01*
X49276076Y-45320283D01*
X49374570Y-45467690D01*
X49442414Y-45631480D01*
X49477000Y-45805358D01*
X49477000Y-45982642D01*
X49442414Y-46156520D01*
X49374570Y-46320310D01*
X49276076Y-46467717D01*
X49150717Y-46593076D01*
X49003310Y-46691570D01*
X48934490Y-46720076D01*
X48839523Y-46759413D01*
X48839522Y-46759413D01*
X48839520Y-46759414D01*
X48665642Y-46794000D01*
X48488358Y-46794000D01*
X48314480Y-46759414D01*
X48314478Y-46759413D01*
X48314477Y-46759413D01*
X48219510Y-46720076D01*
X48150690Y-46691570D01*
X48003283Y-46593076D01*
X47877924Y-46467717D01*
X47779430Y-46320310D01*
X47711586Y-46156520D01*
X47677000Y-45982642D01*
X47677000Y-45805358D01*
X47711586Y-45631480D01*
X47779430Y-45467690D01*
X47877924Y-45320283D01*
X48003283Y-45194924D01*
X48150690Y-45096430D01*
X48253975Y-45053648D01*
X48314477Y-45028587D01*
X48314478Y-45028587D01*
X48314480Y-45028586D01*
X48488358Y-44994000D01*
X48665642Y-44994000D01*
X48839520Y-45028586D01*
G37*
G36*
X60523520Y-45028586D02*
G01*
X60523522Y-45028587D01*
X60523523Y-45028587D01*
X60584025Y-45053648D01*
X60687310Y-45096430D01*
X60834717Y-45194924D01*
X60960076Y-45320283D01*
X61058570Y-45467690D01*
X61126414Y-45631480D01*
X61161000Y-45805358D01*
X61161000Y-45982642D01*
X61126414Y-46156520D01*
X61058570Y-46320310D01*
X60960076Y-46467717D01*
X60834717Y-46593076D01*
X60687310Y-46691570D01*
X60618490Y-46720076D01*
X60523523Y-46759413D01*
X60523522Y-46759413D01*
X60523520Y-46759414D01*
X60349642Y-46794000D01*
X60172358Y-46794000D01*
X59998480Y-46759414D01*
X59998478Y-46759413D01*
X59998477Y-46759413D01*
X59903510Y-46720076D01*
X59834690Y-46691570D01*
X59687283Y-46593076D01*
X59561924Y-46467717D01*
X59463430Y-46320310D01*
X59395586Y-46156520D01*
X59361000Y-45982642D01*
X59361000Y-45805358D01*
X59395586Y-45631480D01*
X59463430Y-45467690D01*
X59561924Y-45320283D01*
X59687283Y-45194924D01*
X59834690Y-45096430D01*
X59937975Y-45053648D01*
X59998477Y-45028587D01*
X59998478Y-45028587D01*
X59998480Y-45028586D01*
X60172358Y-44994000D01*
X60349642Y-44994000D01*
X60523520Y-45028586D01*
G37*
G36*
X52903520Y-45028586D02*
G01*
X52903522Y-45028587D01*
X52903523Y-45028587D01*
X52964025Y-45053648D01*
X53067310Y-45096430D01*
X53214717Y-45194924D01*
X53340076Y-45320283D01*
X53438570Y-45467690D01*
X53506414Y-45631480D01*
X53541000Y-45805358D01*
X53541000Y-45982642D01*
X53506414Y-46156520D01*
X53438570Y-46320310D01*
X53340076Y-46467717D01*
X53214717Y-46593076D01*
X53067310Y-46691570D01*
X52998490Y-46720076D01*
X52903523Y-46759413D01*
X52903522Y-46759413D01*
X52903520Y-46759414D01*
X52729642Y-46794000D01*
X52552358Y-46794000D01*
X52378480Y-46759414D01*
X52378478Y-46759413D01*
X52378477Y-46759413D01*
X52283510Y-46720076D01*
X52214690Y-46691570D01*
X52067283Y-46593076D01*
X51941924Y-46467717D01*
X51843430Y-46320310D01*
X51775586Y-46156520D01*
X51741000Y-45982642D01*
X51741000Y-45805358D01*
X51775586Y-45631480D01*
X51843430Y-45467690D01*
X51941924Y-45320283D01*
X52067283Y-45194924D01*
X52214690Y-45096430D01*
X52317975Y-45053648D01*
X52378477Y-45028587D01*
X52378478Y-45028587D01*
X52378480Y-45028586D01*
X52552358Y-44994000D01*
X52729642Y-44994000D01*
X52903520Y-45028586D01*
G37*
G36*
X41219520Y-45028586D02*
G01*
X41219522Y-45028587D01*
X41219523Y-45028587D01*
X41280025Y-45053648D01*
X41383310Y-45096430D01*
X41530717Y-45194924D01*
X41656076Y-45320283D01*
X41754570Y-45467690D01*
X41822414Y-45631480D01*
X41857000Y-45805358D01*
X41857000Y-45982642D01*
X41822414Y-46156520D01*
X41754570Y-46320310D01*
X41656076Y-46467717D01*
X41530717Y-46593076D01*
X41383310Y-46691570D01*
X41314490Y-46720076D01*
X41219523Y-46759413D01*
X41219522Y-46759413D01*
X41219520Y-46759414D01*
X41045642Y-46794000D01*
X40868358Y-46794000D01*
X40694480Y-46759414D01*
X40694478Y-46759413D01*
X40694477Y-46759413D01*
X40599510Y-46720076D01*
X40530690Y-46691570D01*
X40383283Y-46593076D01*
X40257924Y-46467717D01*
X40159430Y-46320310D01*
X40091586Y-46156520D01*
X40057000Y-45982642D01*
X40057000Y-45805358D01*
X40091586Y-45631480D01*
X40159430Y-45467690D01*
X40257924Y-45320283D01*
X40383283Y-45194924D01*
X40530690Y-45096430D01*
X40633975Y-45053648D01*
X40694477Y-45028587D01*
X40694478Y-45028587D01*
X40694480Y-45028586D01*
X40868358Y-44994000D01*
X41045642Y-44994000D01*
X41219520Y-45028586D01*
G37*
G36*
X102598892Y-44827304D02*
G01*
X99998892Y-44827304D01*
X99998892Y-42227304D01*
X102598892Y-42227304D01*
X102598892Y-44827304D01*
G37*
G36*
X90798892Y-44727304D02*
G01*
X88198892Y-44727304D01*
X88198892Y-42127304D01*
X90798892Y-42127304D01*
X90798892Y-44727304D01*
G37*
G36*
X75636520Y-42615586D02*
G01*
X75636522Y-42615587D01*
X75636523Y-42615587D01*
X75697025Y-42640648D01*
X75800310Y-42683430D01*
X75947717Y-42781924D01*
X76073076Y-42907283D01*
X76171570Y-43054690D01*
X76239414Y-43218480D01*
X76274000Y-43392358D01*
X76274000Y-43569642D01*
X76239414Y-43743520D01*
X76171570Y-43907310D01*
X76073076Y-44054717D01*
X75947717Y-44180076D01*
X75800310Y-44278570D01*
X75697025Y-44321352D01*
X75636523Y-44346413D01*
X75636522Y-44346413D01*
X75636520Y-44346414D01*
X75462642Y-44381000D01*
X75285358Y-44381000D01*
X75111480Y-44346414D01*
X75111478Y-44346413D01*
X75111477Y-44346413D01*
X75050975Y-44321352D01*
X74947690Y-44278570D01*
X74800283Y-44180076D01*
X74674924Y-44054717D01*
X74576430Y-43907310D01*
X74508586Y-43743520D01*
X74474000Y-43569642D01*
X74474000Y-43392358D01*
X74508586Y-43218480D01*
X74576430Y-43054690D01*
X74674924Y-42907283D01*
X74800283Y-42781924D01*
X74947690Y-42683430D01*
X75050975Y-42640648D01*
X75111477Y-42615587D01*
X75111478Y-42615587D01*
X75111480Y-42615586D01*
X75285358Y-42581000D01*
X75462642Y-42581000D01*
X75636520Y-42615586D01*
G37*
G36*
X71572520Y-42615586D02*
G01*
X71572522Y-42615587D01*
X71572523Y-42615587D01*
X71633025Y-42640648D01*
X71736310Y-42683430D01*
X71883717Y-42781924D01*
X72009076Y-42907283D01*
X72107570Y-43054690D01*
X72175414Y-43218480D01*
X72210000Y-43392358D01*
X72210000Y-43569642D01*
X72175414Y-43743520D01*
X72107570Y-43907310D01*
X72009076Y-44054717D01*
X71883717Y-44180076D01*
X71736310Y-44278570D01*
X71633025Y-44321352D01*
X71572523Y-44346413D01*
X71572522Y-44346413D01*
X71572520Y-44346414D01*
X71398642Y-44381000D01*
X71221358Y-44381000D01*
X71047480Y-44346414D01*
X71047478Y-44346413D01*
X71047477Y-44346413D01*
X70986975Y-44321352D01*
X70883690Y-44278570D01*
X70736283Y-44180076D01*
X70610924Y-44054717D01*
X70512430Y-43907310D01*
X70444586Y-43743520D01*
X70410000Y-43569642D01*
X70410000Y-43392358D01*
X70444586Y-43218480D01*
X70512430Y-43054690D01*
X70610924Y-42907283D01*
X70736283Y-42781924D01*
X70883690Y-42683430D01*
X70986975Y-42640648D01*
X71047477Y-42615587D01*
X71047478Y-42615587D01*
X71047480Y-42615586D01*
X71221358Y-42581000D01*
X71398642Y-42581000D01*
X71572520Y-42615586D01*
G37*
G36*
X83256520Y-42615586D02*
G01*
X83256522Y-42615587D01*
X83256523Y-42615587D01*
X83317025Y-42640648D01*
X83420310Y-42683430D01*
X83567717Y-42781924D01*
X83693076Y-42907283D01*
X83791570Y-43054690D01*
X83859414Y-43218480D01*
X83894000Y-43392358D01*
X83894000Y-43569642D01*
X83859414Y-43743520D01*
X83791570Y-43907310D01*
X83693076Y-44054717D01*
X83567717Y-44180076D01*
X83420310Y-44278570D01*
X83317025Y-44321352D01*
X83256523Y-44346413D01*
X83256522Y-44346413D01*
X83256520Y-44346414D01*
X83082642Y-44381000D01*
X82905358Y-44381000D01*
X82731480Y-44346414D01*
X82731478Y-44346413D01*
X82731477Y-44346413D01*
X82670975Y-44321352D01*
X82567690Y-44278570D01*
X82420283Y-44180076D01*
X82294924Y-44054717D01*
X82196430Y-43907310D01*
X82128586Y-43743520D01*
X82094000Y-43569642D01*
X82094000Y-43392358D01*
X82128586Y-43218480D01*
X82196430Y-43054690D01*
X82294924Y-42907283D01*
X82420283Y-42781924D01*
X82567690Y-42683430D01*
X82670975Y-42640648D01*
X82731477Y-42615587D01*
X82731478Y-42615587D01*
X82731480Y-42615586D01*
X82905358Y-42581000D01*
X83082642Y-42581000D01*
X83256520Y-42615586D01*
G37*
G36*
X63952520Y-42615586D02*
G01*
X63952522Y-42615587D01*
X63952523Y-42615587D01*
X64013025Y-42640648D01*
X64116310Y-42683430D01*
X64263717Y-42781924D01*
X64389076Y-42907283D01*
X64487570Y-43054690D01*
X64555414Y-43218480D01*
X64590000Y-43392358D01*
X64590000Y-43569642D01*
X64555414Y-43743520D01*
X64487570Y-43907310D01*
X64389076Y-44054717D01*
X64263717Y-44180076D01*
X64116310Y-44278570D01*
X64013025Y-44321352D01*
X63952523Y-44346413D01*
X63952522Y-44346413D01*
X63952520Y-44346414D01*
X63778642Y-44381000D01*
X63601358Y-44381000D01*
X63427480Y-44346414D01*
X63427478Y-44346413D01*
X63427477Y-44346413D01*
X63366975Y-44321352D01*
X63263690Y-44278570D01*
X63116283Y-44180076D01*
X62990924Y-44054717D01*
X62892430Y-43907310D01*
X62824586Y-43743520D01*
X62790000Y-43569642D01*
X62790000Y-43392358D01*
X62824586Y-43218480D01*
X62892430Y-43054690D01*
X62990924Y-42907283D01*
X63116283Y-42781924D01*
X63263690Y-42683430D01*
X63366975Y-42640648D01*
X63427477Y-42615587D01*
X63427478Y-42615587D01*
X63427480Y-42615586D01*
X63601358Y-42581000D01*
X63778642Y-42581000D01*
X63952520Y-42615586D01*
G37*
G36*
X48839520Y-42488586D02*
G01*
X48839522Y-42488587D01*
X48839523Y-42488587D01*
X48900025Y-42513648D01*
X49003310Y-42556430D01*
X49150717Y-42654924D01*
X49276076Y-42780283D01*
X49374570Y-42927690D01*
X49442414Y-43091480D01*
X49477000Y-43265358D01*
X49477000Y-43442642D01*
X49442414Y-43616520D01*
X49374570Y-43780310D01*
X49276076Y-43927717D01*
X49150717Y-44053076D01*
X49003310Y-44151570D01*
X48934490Y-44180076D01*
X48839523Y-44219413D01*
X48839522Y-44219413D01*
X48839520Y-44219414D01*
X48665642Y-44254000D01*
X48488358Y-44254000D01*
X48314480Y-44219414D01*
X48314478Y-44219413D01*
X48314477Y-44219413D01*
X48219510Y-44180076D01*
X48150690Y-44151570D01*
X48003283Y-44053076D01*
X47877924Y-43927717D01*
X47779430Y-43780310D01*
X47711586Y-43616520D01*
X47677000Y-43442642D01*
X47677000Y-43265358D01*
X47711586Y-43091480D01*
X47779430Y-42927690D01*
X47877924Y-42780283D01*
X48003283Y-42654924D01*
X48150690Y-42556430D01*
X48253975Y-42513648D01*
X48314477Y-42488587D01*
X48314478Y-42488587D01*
X48314480Y-42488586D01*
X48488358Y-42454000D01*
X48665642Y-42454000D01*
X48839520Y-42488586D01*
G37*
G36*
X60523520Y-42488586D02*
G01*
X60523522Y-42488587D01*
X60523523Y-42488587D01*
X60584025Y-42513648D01*
X60687310Y-42556430D01*
X60834717Y-42654924D01*
X60960076Y-42780283D01*
X61058570Y-42927690D01*
X61126414Y-43091480D01*
X61161000Y-43265358D01*
X61161000Y-43442642D01*
X61126414Y-43616520D01*
X61058570Y-43780310D01*
X60960076Y-43927717D01*
X60834717Y-44053076D01*
X60687310Y-44151570D01*
X60618490Y-44180076D01*
X60523523Y-44219413D01*
X60523522Y-44219413D01*
X60523520Y-44219414D01*
X60349642Y-44254000D01*
X60172358Y-44254000D01*
X59998480Y-44219414D01*
X59998478Y-44219413D01*
X59998477Y-44219413D01*
X59903510Y-44180076D01*
X59834690Y-44151570D01*
X59687283Y-44053076D01*
X59561924Y-43927717D01*
X59463430Y-43780310D01*
X59395586Y-43616520D01*
X59361000Y-43442642D01*
X59361000Y-43265358D01*
X59395586Y-43091480D01*
X59463430Y-42927690D01*
X59561924Y-42780283D01*
X59687283Y-42654924D01*
X59834690Y-42556430D01*
X59937975Y-42513648D01*
X59998477Y-42488587D01*
X59998478Y-42488587D01*
X59998480Y-42488586D01*
X60172358Y-42454000D01*
X60349642Y-42454000D01*
X60523520Y-42488586D01*
G37*
G36*
X52903520Y-42488586D02*
G01*
X52903522Y-42488587D01*
X52903523Y-42488587D01*
X52964025Y-42513648D01*
X53067310Y-42556430D01*
X53214717Y-42654924D01*
X53340076Y-42780283D01*
X53438570Y-42927690D01*
X53506414Y-43091480D01*
X53541000Y-43265358D01*
X53541000Y-43442642D01*
X53506414Y-43616520D01*
X53438570Y-43780310D01*
X53340076Y-43927717D01*
X53214717Y-44053076D01*
X53067310Y-44151570D01*
X52998490Y-44180076D01*
X52903523Y-44219413D01*
X52903522Y-44219413D01*
X52903520Y-44219414D01*
X52729642Y-44254000D01*
X52552358Y-44254000D01*
X52378480Y-44219414D01*
X52378478Y-44219413D01*
X52378477Y-44219413D01*
X52283510Y-44180076D01*
X52214690Y-44151570D01*
X52067283Y-44053076D01*
X51941924Y-43927717D01*
X51843430Y-43780310D01*
X51775586Y-43616520D01*
X51741000Y-43442642D01*
X51741000Y-43265358D01*
X51775586Y-43091480D01*
X51843430Y-42927690D01*
X51941924Y-42780283D01*
X52067283Y-42654924D01*
X52214690Y-42556430D01*
X52317975Y-42513648D01*
X52378477Y-42488587D01*
X52378478Y-42488587D01*
X52378480Y-42488586D01*
X52552358Y-42454000D01*
X52729642Y-42454000D01*
X52903520Y-42488586D01*
G37*
G36*
X41219520Y-42488586D02*
G01*
X41219522Y-42488587D01*
X41219523Y-42488587D01*
X41280025Y-42513648D01*
X41383310Y-42556430D01*
X41530717Y-42654924D01*
X41656076Y-42780283D01*
X41754570Y-42927690D01*
X41822414Y-43091480D01*
X41857000Y-43265358D01*
X41857000Y-43442642D01*
X41822414Y-43616520D01*
X41754570Y-43780310D01*
X41656076Y-43927717D01*
X41530717Y-44053076D01*
X41383310Y-44151570D01*
X41314490Y-44180076D01*
X41219523Y-44219413D01*
X41219522Y-44219413D01*
X41219520Y-44219414D01*
X41045642Y-44254000D01*
X40868358Y-44254000D01*
X40694480Y-44219414D01*
X40694478Y-44219413D01*
X40694477Y-44219413D01*
X40599510Y-44180076D01*
X40530690Y-44151570D01*
X40383283Y-44053076D01*
X40257924Y-43927717D01*
X40159430Y-43780310D01*
X40091586Y-43616520D01*
X40057000Y-43442642D01*
X40057000Y-43265358D01*
X40091586Y-43091480D01*
X40159430Y-42927690D01*
X40257924Y-42780283D01*
X40383283Y-42654924D01*
X40530690Y-42556430D01*
X40633975Y-42513648D01*
X40694477Y-42488587D01*
X40694478Y-42488587D01*
X40694480Y-42488586D01*
X40868358Y-42454000D01*
X41045642Y-42454000D01*
X41219520Y-42488586D01*
G37*
G36*
X32021720Y-41064234D02*
G01*
X32199159Y-41137732D01*
X32358850Y-41244434D01*
X32494655Y-41380239D01*
X32601357Y-41539930D01*
X32674855Y-41717369D01*
X32712323Y-41905737D01*
X32712323Y-42097795D01*
X32674855Y-42286163D01*
X32601357Y-42463602D01*
X32494655Y-42623293D01*
X32358850Y-42759098D01*
X32199159Y-42865800D01*
X32021720Y-42939298D01*
X31833352Y-42976766D01*
X31641294Y-42976766D01*
X31452926Y-42939298D01*
X31275487Y-42865800D01*
X31115796Y-42759098D01*
X30979991Y-42623293D01*
X30873289Y-42463602D01*
X30799791Y-42286163D01*
X30762323Y-42097795D01*
X30762323Y-41905737D01*
X30799791Y-41717369D01*
X30873289Y-41539930D01*
X30979991Y-41380239D01*
X31115796Y-41244434D01*
X31275487Y-41137732D01*
X31452926Y-41064234D01*
X31641294Y-41026766D01*
X31833352Y-41026766D01*
X32021720Y-41064234D01*
G37*
G36*
X71572520Y-40075586D02*
G01*
X71572522Y-40075587D01*
X71572523Y-40075587D01*
X71633025Y-40100648D01*
X71736310Y-40143430D01*
X71883717Y-40241924D01*
X72009076Y-40367283D01*
X72107570Y-40514690D01*
X72175414Y-40678480D01*
X72210000Y-40852358D01*
X72210000Y-41029642D01*
X72175414Y-41203520D01*
X72107570Y-41367310D01*
X72009076Y-41514717D01*
X71883717Y-41640076D01*
X71736310Y-41738570D01*
X71633025Y-41781352D01*
X71572523Y-41806413D01*
X71572522Y-41806413D01*
X71572520Y-41806414D01*
X71398642Y-41841000D01*
X71221358Y-41841000D01*
X71047480Y-41806414D01*
X71047478Y-41806413D01*
X71047477Y-41806413D01*
X70986975Y-41781352D01*
X70883690Y-41738570D01*
X70736283Y-41640076D01*
X70610924Y-41514717D01*
X70512430Y-41367310D01*
X70444586Y-41203520D01*
X70410000Y-41029642D01*
X70410000Y-40852358D01*
X70444586Y-40678480D01*
X70512430Y-40514690D01*
X70610924Y-40367283D01*
X70736283Y-40241924D01*
X70883690Y-40143430D01*
X70986975Y-40100648D01*
X71047477Y-40075587D01*
X71047478Y-40075587D01*
X71047480Y-40075586D01*
X71221358Y-40041000D01*
X71398642Y-40041000D01*
X71572520Y-40075586D01*
G37*
G36*
X63952520Y-40075586D02*
G01*
X63952522Y-40075587D01*
X63952523Y-40075587D01*
X64013025Y-40100648D01*
X64116310Y-40143430D01*
X64263717Y-40241924D01*
X64389076Y-40367283D01*
X64487570Y-40514690D01*
X64555414Y-40678480D01*
X64590000Y-40852358D01*
X64590000Y-41029642D01*
X64555414Y-41203520D01*
X64487570Y-41367310D01*
X64389076Y-41514717D01*
X64263717Y-41640076D01*
X64116310Y-41738570D01*
X64013025Y-41781352D01*
X63952523Y-41806413D01*
X63952522Y-41806413D01*
X63952520Y-41806414D01*
X63778642Y-41841000D01*
X63601358Y-41841000D01*
X63427480Y-41806414D01*
X63427478Y-41806413D01*
X63427477Y-41806413D01*
X63366975Y-41781352D01*
X63263690Y-41738570D01*
X63116283Y-41640076D01*
X62990924Y-41514717D01*
X62892430Y-41367310D01*
X62824586Y-41203520D01*
X62790000Y-41029642D01*
X62790000Y-40852358D01*
X62824586Y-40678480D01*
X62892430Y-40514690D01*
X62990924Y-40367283D01*
X63116283Y-40241924D01*
X63263690Y-40143430D01*
X63366975Y-40100648D01*
X63427477Y-40075587D01*
X63427478Y-40075587D01*
X63427480Y-40075586D01*
X63601358Y-40041000D01*
X63778642Y-40041000D01*
X63952520Y-40075586D01*
G37*
G36*
X75636520Y-40075586D02*
G01*
X75636522Y-40075587D01*
X75636523Y-40075587D01*
X75697025Y-40100648D01*
X75800310Y-40143430D01*
X75947717Y-40241924D01*
X76073076Y-40367283D01*
X76171570Y-40514690D01*
X76239414Y-40678480D01*
X76274000Y-40852358D01*
X76274000Y-41029642D01*
X76239414Y-41203520D01*
X76171570Y-41367310D01*
X76073076Y-41514717D01*
X75947717Y-41640076D01*
X75800310Y-41738570D01*
X75697025Y-41781352D01*
X75636523Y-41806413D01*
X75636522Y-41806413D01*
X75636520Y-41806414D01*
X75462642Y-41841000D01*
X75285358Y-41841000D01*
X75111480Y-41806414D01*
X75111478Y-41806413D01*
X75111477Y-41806413D01*
X75050975Y-41781352D01*
X74947690Y-41738570D01*
X74800283Y-41640076D01*
X74674924Y-41514717D01*
X74576430Y-41367310D01*
X74508586Y-41203520D01*
X74474000Y-41029642D01*
X74474000Y-40852358D01*
X74508586Y-40678480D01*
X74576430Y-40514690D01*
X74674924Y-40367283D01*
X74800283Y-40241924D01*
X74947690Y-40143430D01*
X75050975Y-40100648D01*
X75111477Y-40075587D01*
X75111478Y-40075587D01*
X75111480Y-40075586D01*
X75285358Y-40041000D01*
X75462642Y-40041000D01*
X75636520Y-40075586D01*
G37*
G36*
X83256520Y-40075586D02*
G01*
X83256522Y-40075587D01*
X83256523Y-40075587D01*
X83317025Y-40100648D01*
X83420310Y-40143430D01*
X83567717Y-40241924D01*
X83693076Y-40367283D01*
X83791570Y-40514690D01*
X83859414Y-40678480D01*
X83894000Y-40852358D01*
X83894000Y-41029642D01*
X83859414Y-41203520D01*
X83791570Y-41367310D01*
X83693076Y-41514717D01*
X83567717Y-41640076D01*
X83420310Y-41738570D01*
X83317025Y-41781352D01*
X83256523Y-41806413D01*
X83256522Y-41806413D01*
X83256520Y-41806414D01*
X83082642Y-41841000D01*
X82905358Y-41841000D01*
X82731480Y-41806414D01*
X82731478Y-41806413D01*
X82731477Y-41806413D01*
X82670975Y-41781352D01*
X82567690Y-41738570D01*
X82420283Y-41640076D01*
X82294924Y-41514717D01*
X82196430Y-41367310D01*
X82128586Y-41203520D01*
X82094000Y-41029642D01*
X82094000Y-40852358D01*
X82128586Y-40678480D01*
X82196430Y-40514690D01*
X82294924Y-40367283D01*
X82420283Y-40241924D01*
X82567690Y-40143430D01*
X82670975Y-40100648D01*
X82731477Y-40075587D01*
X82731478Y-40075587D01*
X82731480Y-40075586D01*
X82905358Y-40041000D01*
X83082642Y-40041000D01*
X83256520Y-40075586D01*
G37*
G36*
X41219520Y-39948586D02*
G01*
X41219522Y-39948587D01*
X41219523Y-39948587D01*
X41253090Y-39962491D01*
X41383310Y-40016430D01*
X41530717Y-40114924D01*
X41656076Y-40240283D01*
X41754570Y-40387690D01*
X41822414Y-40551480D01*
X41857000Y-40725358D01*
X41857000Y-40902642D01*
X41822414Y-41076520D01*
X41754570Y-41240310D01*
X41656076Y-41387717D01*
X41530717Y-41513076D01*
X41383310Y-41611570D01*
X41314490Y-41640076D01*
X41219523Y-41679413D01*
X41219522Y-41679413D01*
X41219520Y-41679414D01*
X41045642Y-41714000D01*
X40868358Y-41714000D01*
X40694480Y-41679414D01*
X40694478Y-41679413D01*
X40694477Y-41679413D01*
X40599510Y-41640076D01*
X40530690Y-41611570D01*
X40383283Y-41513076D01*
X40257924Y-41387717D01*
X40159430Y-41240310D01*
X40091586Y-41076520D01*
X40057000Y-40902642D01*
X40057000Y-40725358D01*
X40091586Y-40551480D01*
X40159430Y-40387690D01*
X40257924Y-40240283D01*
X40383283Y-40114924D01*
X40530690Y-40016430D01*
X40660910Y-39962491D01*
X40694477Y-39948587D01*
X40694478Y-39948587D01*
X40694480Y-39948586D01*
X40868358Y-39914000D01*
X41045642Y-39914000D01*
X41219520Y-39948586D01*
G37*
G36*
X48839520Y-39948586D02*
G01*
X48839522Y-39948587D01*
X48839523Y-39948587D01*
X48873090Y-39962491D01*
X49003310Y-40016430D01*
X49150717Y-40114924D01*
X49276076Y-40240283D01*
X49374570Y-40387690D01*
X49442414Y-40551480D01*
X49477000Y-40725358D01*
X49477000Y-40902642D01*
X49442414Y-41076520D01*
X49374570Y-41240310D01*
X49276076Y-41387717D01*
X49150717Y-41513076D01*
X49003310Y-41611570D01*
X48934490Y-41640076D01*
X48839523Y-41679413D01*
X48839522Y-41679413D01*
X48839520Y-41679414D01*
X48665642Y-41714000D01*
X48488358Y-41714000D01*
X48314480Y-41679414D01*
X48314478Y-41679413D01*
X48314477Y-41679413D01*
X48219510Y-41640076D01*
X48150690Y-41611570D01*
X48003283Y-41513076D01*
X47877924Y-41387717D01*
X47779430Y-41240310D01*
X47711586Y-41076520D01*
X47677000Y-40902642D01*
X47677000Y-40725358D01*
X47711586Y-40551480D01*
X47779430Y-40387690D01*
X47877924Y-40240283D01*
X48003283Y-40114924D01*
X48150690Y-40016430D01*
X48280910Y-39962491D01*
X48314477Y-39948587D01*
X48314478Y-39948587D01*
X48314480Y-39948586D01*
X48488358Y-39914000D01*
X48665642Y-39914000D01*
X48839520Y-39948586D01*
G37*
G36*
X60523520Y-39948586D02*
G01*
X60523522Y-39948587D01*
X60523523Y-39948587D01*
X60557090Y-39962491D01*
X60687310Y-40016430D01*
X60834717Y-40114924D01*
X60960076Y-40240283D01*
X61058570Y-40387690D01*
X61126414Y-40551480D01*
X61161000Y-40725358D01*
X61161000Y-40902642D01*
X61126414Y-41076520D01*
X61058570Y-41240310D01*
X60960076Y-41387717D01*
X60834717Y-41513076D01*
X60687310Y-41611570D01*
X60618490Y-41640076D01*
X60523523Y-41679413D01*
X60523522Y-41679413D01*
X60523520Y-41679414D01*
X60349642Y-41714000D01*
X60172358Y-41714000D01*
X59998480Y-41679414D01*
X59998478Y-41679413D01*
X59998477Y-41679413D01*
X59903510Y-41640076D01*
X59834690Y-41611570D01*
X59687283Y-41513076D01*
X59561924Y-41387717D01*
X59463430Y-41240310D01*
X59395586Y-41076520D01*
X59361000Y-40902642D01*
X59361000Y-40725358D01*
X59395586Y-40551480D01*
X59463430Y-40387690D01*
X59561924Y-40240283D01*
X59687283Y-40114924D01*
X59834690Y-40016430D01*
X59964910Y-39962491D01*
X59998477Y-39948587D01*
X59998478Y-39948587D01*
X59998480Y-39948586D01*
X60172358Y-39914000D01*
X60349642Y-39914000D01*
X60523520Y-39948586D01*
G37*
G36*
X52903520Y-39948586D02*
G01*
X52903522Y-39948587D01*
X52903523Y-39948587D01*
X52937090Y-39962491D01*
X53067310Y-40016430D01*
X53214717Y-40114924D01*
X53340076Y-40240283D01*
X53438570Y-40387690D01*
X53506414Y-40551480D01*
X53541000Y-40725358D01*
X53541000Y-40902642D01*
X53506414Y-41076520D01*
X53438570Y-41240310D01*
X53340076Y-41387717D01*
X53214717Y-41513076D01*
X53067310Y-41611570D01*
X52998490Y-41640076D01*
X52903523Y-41679413D01*
X52903522Y-41679413D01*
X52903520Y-41679414D01*
X52729642Y-41714000D01*
X52552358Y-41714000D01*
X52378480Y-41679414D01*
X52378478Y-41679413D01*
X52378477Y-41679413D01*
X52283510Y-41640076D01*
X52214690Y-41611570D01*
X52067283Y-41513076D01*
X51941924Y-41387717D01*
X51843430Y-41240310D01*
X51775586Y-41076520D01*
X51741000Y-40902642D01*
X51741000Y-40725358D01*
X51775586Y-40551480D01*
X51843430Y-40387690D01*
X51941924Y-40240283D01*
X52067283Y-40114924D01*
X52214690Y-40016430D01*
X52344910Y-39962491D01*
X52378477Y-39948587D01*
X52378478Y-39948587D01*
X52378480Y-39948586D01*
X52552358Y-39914000D01*
X52729642Y-39914000D01*
X52903520Y-39948586D01*
G37*
G36*
X29309835Y-38907129D02*
G01*
X29309837Y-38907130D01*
X29309838Y-38907130D01*
X29429950Y-38956882D01*
X29429952Y-38956883D01*
X29538047Y-39029109D01*
X29629980Y-39121042D01*
X29702206Y-39229137D01*
X29751960Y-39349254D01*
X29777323Y-39476760D01*
X29777323Y-39606772D01*
X29751960Y-39734278D01*
X29702206Y-39854395D01*
X29629980Y-39962490D01*
X29538047Y-40054423D01*
X29429952Y-40126649D01*
X29429951Y-40126650D01*
X29429950Y-40126650D01*
X29309838Y-40176402D01*
X29309837Y-40176402D01*
X29309835Y-40176403D01*
X29182329Y-40201766D01*
X29052317Y-40201766D01*
X28924811Y-40176403D01*
X28924809Y-40176402D01*
X28924808Y-40176402D01*
X28804696Y-40126650D01*
X28804695Y-40126650D01*
X28804694Y-40126649D01*
X28696599Y-40054423D01*
X28604666Y-39962490D01*
X28532440Y-39854395D01*
X28482686Y-39734278D01*
X28457323Y-39606772D01*
X28457323Y-39476760D01*
X28482686Y-39349254D01*
X28532440Y-39229137D01*
X28604666Y-39121042D01*
X28696599Y-39029109D01*
X28804694Y-38956883D01*
X28804696Y-38956882D01*
X28924808Y-38907130D01*
X28924809Y-38907130D01*
X28924811Y-38907129D01*
X29052317Y-38881766D01*
X29182329Y-38881766D01*
X29309835Y-38907129D01*
G37*
G36*
X83256520Y-37535586D02*
G01*
X83256522Y-37535587D01*
X83256523Y-37535587D01*
X83317025Y-37560648D01*
X83420310Y-37603430D01*
X83567717Y-37701924D01*
X83693076Y-37827283D01*
X83791570Y-37974690D01*
X83859414Y-38138480D01*
X83894000Y-38312358D01*
X83894000Y-38489642D01*
X83859414Y-38663520D01*
X83791570Y-38827310D01*
X83693076Y-38974717D01*
X83567717Y-39100076D01*
X83420310Y-39198570D01*
X83346510Y-39229139D01*
X83256523Y-39266413D01*
X83256522Y-39266413D01*
X83256520Y-39266414D01*
X83082642Y-39301000D01*
X82905358Y-39301000D01*
X82731480Y-39266414D01*
X82731478Y-39266413D01*
X82731477Y-39266413D01*
X82641490Y-39229139D01*
X82567690Y-39198570D01*
X82420283Y-39100076D01*
X82294924Y-38974717D01*
X82196430Y-38827310D01*
X82128586Y-38663520D01*
X82094000Y-38489642D01*
X82094000Y-38312358D01*
X82128586Y-38138480D01*
X82196430Y-37974690D01*
X82294924Y-37827283D01*
X82420283Y-37701924D01*
X82567690Y-37603430D01*
X82670975Y-37560648D01*
X82731477Y-37535587D01*
X82731478Y-37535587D01*
X82731480Y-37535586D01*
X82905358Y-37501000D01*
X83082642Y-37501000D01*
X83256520Y-37535586D01*
G37*
G36*
X71572520Y-37535586D02*
G01*
X71572522Y-37535587D01*
X71572523Y-37535587D01*
X71633025Y-37560648D01*
X71736310Y-37603430D01*
X71883717Y-37701924D01*
X72009076Y-37827283D01*
X72107570Y-37974690D01*
X72175414Y-38138480D01*
X72210000Y-38312358D01*
X72210000Y-38489642D01*
X72175414Y-38663520D01*
X72107570Y-38827310D01*
X72009076Y-38974717D01*
X71883717Y-39100076D01*
X71736310Y-39198570D01*
X71662510Y-39229139D01*
X71572523Y-39266413D01*
X71572522Y-39266413D01*
X71572520Y-39266414D01*
X71398642Y-39301000D01*
X71221358Y-39301000D01*
X71047480Y-39266414D01*
X71047478Y-39266413D01*
X71047477Y-39266413D01*
X70957490Y-39229139D01*
X70883690Y-39198570D01*
X70736283Y-39100076D01*
X70610924Y-38974717D01*
X70512430Y-38827310D01*
X70444586Y-38663520D01*
X70410000Y-38489642D01*
X70410000Y-38312358D01*
X70444586Y-38138480D01*
X70512430Y-37974690D01*
X70610924Y-37827283D01*
X70736283Y-37701924D01*
X70883690Y-37603430D01*
X70986975Y-37560648D01*
X71047477Y-37535587D01*
X71047478Y-37535587D01*
X71047480Y-37535586D01*
X71221358Y-37501000D01*
X71398642Y-37501000D01*
X71572520Y-37535586D01*
G37*
G36*
X75636520Y-37535586D02*
G01*
X75636522Y-37535587D01*
X75636523Y-37535587D01*
X75697025Y-37560648D01*
X75800310Y-37603430D01*
X75947717Y-37701924D01*
X76073076Y-37827283D01*
X76171570Y-37974690D01*
X76239414Y-38138480D01*
X76274000Y-38312358D01*
X76274000Y-38489642D01*
X76239414Y-38663520D01*
X76171570Y-38827310D01*
X76073076Y-38974717D01*
X75947717Y-39100076D01*
X75800310Y-39198570D01*
X75726510Y-39229139D01*
X75636523Y-39266413D01*
X75636522Y-39266413D01*
X75636520Y-39266414D01*
X75462642Y-39301000D01*
X75285358Y-39301000D01*
X75111480Y-39266414D01*
X75111478Y-39266413D01*
X75111477Y-39266413D01*
X75021490Y-39229139D01*
X74947690Y-39198570D01*
X74800283Y-39100076D01*
X74674924Y-38974717D01*
X74576430Y-38827310D01*
X74508586Y-38663520D01*
X74474000Y-38489642D01*
X74474000Y-38312358D01*
X74508586Y-38138480D01*
X74576430Y-37974690D01*
X74674924Y-37827283D01*
X74800283Y-37701924D01*
X74947690Y-37603430D01*
X75050975Y-37560648D01*
X75111477Y-37535587D01*
X75111478Y-37535587D01*
X75111480Y-37535586D01*
X75285358Y-37501000D01*
X75462642Y-37501000D01*
X75636520Y-37535586D01*
G37*
G36*
X63952520Y-37535586D02*
G01*
X63952522Y-37535587D01*
X63952523Y-37535587D01*
X64013025Y-37560648D01*
X64116310Y-37603430D01*
X64263717Y-37701924D01*
X64389076Y-37827283D01*
X64487570Y-37974690D01*
X64555414Y-38138480D01*
X64590000Y-38312358D01*
X64590000Y-38489642D01*
X64555414Y-38663520D01*
X64487570Y-38827310D01*
X64389076Y-38974717D01*
X64263717Y-39100076D01*
X64116310Y-39198570D01*
X64042510Y-39229139D01*
X63952523Y-39266413D01*
X63952522Y-39266413D01*
X63952520Y-39266414D01*
X63778642Y-39301000D01*
X63601358Y-39301000D01*
X63427480Y-39266414D01*
X63427478Y-39266413D01*
X63427477Y-39266413D01*
X63337490Y-39229139D01*
X63263690Y-39198570D01*
X63116283Y-39100076D01*
X62990924Y-38974717D01*
X62892430Y-38827310D01*
X62824586Y-38663520D01*
X62790000Y-38489642D01*
X62790000Y-38312358D01*
X62824586Y-38138480D01*
X62892430Y-37974690D01*
X62990924Y-37827283D01*
X63116283Y-37701924D01*
X63263690Y-37603430D01*
X63366975Y-37560648D01*
X63427477Y-37535587D01*
X63427478Y-37535587D01*
X63427480Y-37535586D01*
X63601358Y-37501000D01*
X63778642Y-37501000D01*
X63952520Y-37535586D01*
G37*
G36*
X41219520Y-37408586D02*
G01*
X41219522Y-37408587D01*
X41219523Y-37408587D01*
X41280025Y-37433648D01*
X41383310Y-37476430D01*
X41530717Y-37574924D01*
X41656076Y-37700283D01*
X41754570Y-37847690D01*
X41822414Y-38011480D01*
X41857000Y-38185358D01*
X41857000Y-38362642D01*
X41822414Y-38536520D01*
X41754570Y-38700310D01*
X41656076Y-38847717D01*
X41530717Y-38973076D01*
X41383310Y-39071570D01*
X41314490Y-39100076D01*
X41219523Y-39139413D01*
X41219522Y-39139413D01*
X41219520Y-39139414D01*
X41045642Y-39174000D01*
X40868358Y-39174000D01*
X40694480Y-39139414D01*
X40694478Y-39139413D01*
X40694477Y-39139413D01*
X40599510Y-39100076D01*
X40530690Y-39071570D01*
X40383283Y-38973076D01*
X40257924Y-38847717D01*
X40159430Y-38700310D01*
X40091586Y-38536520D01*
X40057000Y-38362642D01*
X40057000Y-38185358D01*
X40091586Y-38011480D01*
X40159430Y-37847690D01*
X40257924Y-37700283D01*
X40383283Y-37574924D01*
X40530690Y-37476430D01*
X40633975Y-37433648D01*
X40694477Y-37408587D01*
X40694478Y-37408587D01*
X40694480Y-37408586D01*
X40868358Y-37374000D01*
X41045642Y-37374000D01*
X41219520Y-37408586D01*
G37*
G36*
X52903520Y-37408586D02*
G01*
X52903522Y-37408587D01*
X52903523Y-37408587D01*
X52964025Y-37433648D01*
X53067310Y-37476430D01*
X53214717Y-37574924D01*
X53340076Y-37700283D01*
X53438570Y-37847690D01*
X53506414Y-38011480D01*
X53541000Y-38185358D01*
X53541000Y-38362642D01*
X53506414Y-38536520D01*
X53438570Y-38700310D01*
X53340076Y-38847717D01*
X53214717Y-38973076D01*
X53067310Y-39071570D01*
X52998490Y-39100076D01*
X52903523Y-39139413D01*
X52903522Y-39139413D01*
X52903520Y-39139414D01*
X52729642Y-39174000D01*
X52552358Y-39174000D01*
X52378480Y-39139414D01*
X52378478Y-39139413D01*
X52378477Y-39139413D01*
X52283510Y-39100076D01*
X52214690Y-39071570D01*
X52067283Y-38973076D01*
X51941924Y-38847717D01*
X51843430Y-38700310D01*
X51775586Y-38536520D01*
X51741000Y-38362642D01*
X51741000Y-38185358D01*
X51775586Y-38011480D01*
X51843430Y-37847690D01*
X51941924Y-37700283D01*
X52067283Y-37574924D01*
X52214690Y-37476430D01*
X52317975Y-37433648D01*
X52378477Y-37408587D01*
X52378478Y-37408587D01*
X52378480Y-37408586D01*
X52552358Y-37374000D01*
X52729642Y-37374000D01*
X52903520Y-37408586D01*
G37*
G36*
X60523520Y-37408586D02*
G01*
X60523522Y-37408587D01*
X60523523Y-37408587D01*
X60584025Y-37433648D01*
X60687310Y-37476430D01*
X60834717Y-37574924D01*
X60960076Y-37700283D01*
X61058570Y-37847690D01*
X61126414Y-38011480D01*
X61161000Y-38185358D01*
X61161000Y-38362642D01*
X61126414Y-38536520D01*
X61058570Y-38700310D01*
X60960076Y-38847717D01*
X60834717Y-38973076D01*
X60687310Y-39071570D01*
X60618490Y-39100076D01*
X60523523Y-39139413D01*
X60523522Y-39139413D01*
X60523520Y-39139414D01*
X60349642Y-39174000D01*
X60172358Y-39174000D01*
X59998480Y-39139414D01*
X59998478Y-39139413D01*
X59998477Y-39139413D01*
X59903510Y-39100076D01*
X59834690Y-39071570D01*
X59687283Y-38973076D01*
X59561924Y-38847717D01*
X59463430Y-38700310D01*
X59395586Y-38536520D01*
X59361000Y-38362642D01*
X59361000Y-38185358D01*
X59395586Y-38011480D01*
X59463430Y-37847690D01*
X59561924Y-37700283D01*
X59687283Y-37574924D01*
X59834690Y-37476430D01*
X59937975Y-37433648D01*
X59998477Y-37408587D01*
X59998478Y-37408587D01*
X59998480Y-37408586D01*
X60172358Y-37374000D01*
X60349642Y-37374000D01*
X60523520Y-37408586D01*
G37*
G36*
X48839520Y-37408586D02*
G01*
X48839522Y-37408587D01*
X48839523Y-37408587D01*
X48900025Y-37433648D01*
X49003310Y-37476430D01*
X49150717Y-37574924D01*
X49276076Y-37700283D01*
X49374570Y-37847690D01*
X49442414Y-38011480D01*
X49477000Y-38185358D01*
X49477000Y-38362642D01*
X49442414Y-38536520D01*
X49374570Y-38700310D01*
X49276076Y-38847717D01*
X49150717Y-38973076D01*
X49003310Y-39071570D01*
X48934490Y-39100076D01*
X48839523Y-39139413D01*
X48839522Y-39139413D01*
X48839520Y-39139414D01*
X48665642Y-39174000D01*
X48488358Y-39174000D01*
X48314480Y-39139414D01*
X48314478Y-39139413D01*
X48314477Y-39139413D01*
X48219510Y-39100076D01*
X48150690Y-39071570D01*
X48003283Y-38973076D01*
X47877924Y-38847717D01*
X47779430Y-38700310D01*
X47711586Y-38536520D01*
X47677000Y-38362642D01*
X47677000Y-38185358D01*
X47711586Y-38011480D01*
X47779430Y-37847690D01*
X47877924Y-37700283D01*
X48003283Y-37574924D01*
X48150690Y-37476430D01*
X48253975Y-37433648D01*
X48314477Y-37408587D01*
X48314478Y-37408587D01*
X48314480Y-37408586D01*
X48488358Y-37374000D01*
X48665642Y-37374000D01*
X48839520Y-37408586D01*
G37*
G36*
X98132039Y-36096721D02*
G01*
X98132041Y-36096722D01*
X98132042Y-36096722D01*
X98277502Y-36156974D01*
X98408416Y-36244448D01*
X98519748Y-36355780D01*
X98607222Y-36486694D01*
X98667475Y-36632157D01*
X98698192Y-36786580D01*
X98698192Y-36944028D01*
X98667475Y-37098451D01*
X98667474Y-37098454D01*
X98607222Y-37243914D01*
X98519748Y-37374828D01*
X98408416Y-37486160D01*
X98277502Y-37573634D01*
X98132042Y-37633886D01*
X98132041Y-37633886D01*
X98132039Y-37633887D01*
X97977616Y-37664604D01*
X97820168Y-37664604D01*
X97665745Y-37633887D01*
X97665743Y-37633886D01*
X97665742Y-37633886D01*
X97520282Y-37573634D01*
X97389368Y-37486160D01*
X97278036Y-37374828D01*
X97190562Y-37243914D01*
X97130310Y-37098454D01*
X97130309Y-37098451D01*
X97099592Y-36944028D01*
X97099592Y-36786580D01*
X97130309Y-36632157D01*
X97190562Y-36486694D01*
X97278036Y-36355780D01*
X97389368Y-36244448D01*
X97520282Y-36156974D01*
X97665742Y-36096722D01*
X97665743Y-36096722D01*
X97665745Y-36096721D01*
X97820168Y-36066004D01*
X97977616Y-36066004D01*
X98132039Y-36096721D01*
G37*
G36*
X93132039Y-36096721D02*
G01*
X93132041Y-36096722D01*
X93132042Y-36096722D01*
X93277502Y-36156974D01*
X93408416Y-36244448D01*
X93519748Y-36355780D01*
X93607222Y-36486694D01*
X93667475Y-36632157D01*
X93698192Y-36786580D01*
X93698192Y-36944028D01*
X93667475Y-37098451D01*
X93667474Y-37098454D01*
X93607222Y-37243914D01*
X93519748Y-37374828D01*
X93408416Y-37486160D01*
X93277502Y-37573634D01*
X93132042Y-37633886D01*
X93132041Y-37633886D01*
X93132039Y-37633887D01*
X92977616Y-37664604D01*
X92820168Y-37664604D01*
X92665745Y-37633887D01*
X92665743Y-37633886D01*
X92665742Y-37633886D01*
X92520282Y-37573634D01*
X92389368Y-37486160D01*
X92278036Y-37374828D01*
X92190562Y-37243914D01*
X92130310Y-37098454D01*
X92130309Y-37098451D01*
X92099592Y-36944028D01*
X92099592Y-36786580D01*
X92130309Y-36632157D01*
X92190562Y-36486694D01*
X92278036Y-36355780D01*
X92389368Y-36244448D01*
X92520282Y-36156974D01*
X92665742Y-36096722D01*
X92665743Y-36096722D01*
X92665745Y-36096721D01*
X92820168Y-36066004D01*
X92977616Y-36066004D01*
X93132039Y-36096721D01*
G37*
G36*
X121851990Y-28624896D02*
G01*
X121851992Y-28624897D01*
X121851993Y-28624897D01*
X122025229Y-28696654D01*
X122443452Y-28869888D01*
X122638870Y-29000462D01*
X122975753Y-29225559D01*
X123428441Y-29678247D01*
X123475573Y-29748785D01*
X123784112Y-30210548D01*
X124029104Y-30802010D01*
X124154000Y-31429903D01*
X124154000Y-32070097D01*
X124029104Y-32697990D01*
X123784112Y-33289452D01*
X123708419Y-33402735D01*
X123428441Y-33821753D01*
X122975753Y-34274441D01*
X122732678Y-34436858D01*
X122443452Y-34630112D01*
X122025229Y-34803346D01*
X121851993Y-34875103D01*
X121851992Y-34875103D01*
X121851990Y-34875104D01*
X121224097Y-35000000D01*
X120583903Y-35000000D01*
X119956010Y-34875104D01*
X119956008Y-34875103D01*
X119956007Y-34875103D01*
X119782771Y-34803346D01*
X119364548Y-34630112D01*
X119075322Y-34436858D01*
X118832247Y-34274441D01*
X118379559Y-33821753D01*
X118099581Y-33402735D01*
X118023888Y-33289452D01*
X117778896Y-32697990D01*
X117654000Y-32070097D01*
X117654000Y-31429903D01*
X117778896Y-30802010D01*
X118023888Y-30210548D01*
X118332427Y-29748785D01*
X118379559Y-29678247D01*
X118832247Y-29225559D01*
X119169130Y-29000462D01*
X119364548Y-28869888D01*
X119782771Y-28696654D01*
X119956007Y-28624897D01*
X119956008Y-28624897D01*
X119956010Y-28624896D01*
X120583903Y-28500000D01*
X121224097Y-28500000D01*
X121851990Y-28624896D01*
G37*
G36*
X169603990Y-28624896D02*
G01*
X169603992Y-28624897D01*
X169603993Y-28624897D01*
X169777229Y-28696654D01*
X170195452Y-28869888D01*
X170390870Y-29000462D01*
X170727753Y-29225559D01*
X171180441Y-29678247D01*
X171227573Y-29748785D01*
X171536112Y-30210548D01*
X171781104Y-30802010D01*
X171906000Y-31429903D01*
X171906000Y-32070097D01*
X171781104Y-32697990D01*
X171536112Y-33289452D01*
X171460419Y-33402735D01*
X171180441Y-33821753D01*
X170727753Y-34274441D01*
X170484678Y-34436858D01*
X170195452Y-34630112D01*
X169777229Y-34803346D01*
X169603993Y-34875103D01*
X169603992Y-34875103D01*
X169603990Y-34875104D01*
X168976097Y-35000000D01*
X168335903Y-35000000D01*
X167708010Y-34875104D01*
X167708008Y-34875103D01*
X167708007Y-34875103D01*
X167534771Y-34803346D01*
X167116548Y-34630112D01*
X166827322Y-34436858D01*
X166584247Y-34274441D01*
X166131559Y-33821753D01*
X165851581Y-33402735D01*
X165775888Y-33289452D01*
X165530896Y-32697990D01*
X165406000Y-32070097D01*
X165406000Y-31429903D01*
X165530896Y-30802010D01*
X165775888Y-30210548D01*
X166084427Y-29748785D01*
X166131559Y-29678247D01*
X166584247Y-29225559D01*
X166921130Y-29000462D01*
X167116548Y-28869888D01*
X167534771Y-28696654D01*
X167708007Y-28624897D01*
X167708008Y-28624897D01*
X167708010Y-28624896D01*
X168335903Y-28500000D01*
X168976097Y-28500000D01*
X169603990Y-28624896D01*
G37*
G36*
X24315990Y-28624896D02*
G01*
X24315992Y-28624897D01*
X24315993Y-28624897D01*
X24489229Y-28696654D01*
X24907452Y-28869888D01*
X25102870Y-29000462D01*
X25439753Y-29225559D01*
X25892441Y-29678247D01*
X25939573Y-29748785D01*
X26248112Y-30210548D01*
X26493104Y-30802010D01*
X26618000Y-31429903D01*
X26618000Y-32070097D01*
X26493104Y-32697990D01*
X26248112Y-33289452D01*
X26172419Y-33402735D01*
X25892441Y-33821753D01*
X25439753Y-34274441D01*
X25196678Y-34436858D01*
X24907452Y-34630112D01*
X24489229Y-34803346D01*
X24315993Y-34875103D01*
X24315992Y-34875103D01*
X24315990Y-34875104D01*
X23688097Y-35000000D01*
X23047903Y-35000000D01*
X22420010Y-34875104D01*
X22420008Y-34875103D01*
X22420007Y-34875103D01*
X22246771Y-34803346D01*
X21828548Y-34630112D01*
X21539322Y-34436858D01*
X21296247Y-34274441D01*
X20843559Y-33821753D01*
X20563581Y-33402735D01*
X20487888Y-33289452D01*
X20242896Y-32697990D01*
X20118000Y-32070097D01*
X20118000Y-31429903D01*
X20242896Y-30802010D01*
X20487888Y-30210548D01*
X20796427Y-29748785D01*
X20843559Y-29678247D01*
X21296247Y-29225559D01*
X21633130Y-29000462D01*
X21828548Y-28869888D01*
X22246771Y-28696654D01*
X22420007Y-28624897D01*
X22420008Y-28624897D01*
X22420010Y-28624896D01*
X23047903Y-28500000D01*
X23688097Y-28500000D01*
X24315990Y-28624896D01*
G37*
G36*
X107627990Y-28624896D02*
G01*
X107627992Y-28624897D01*
X107627993Y-28624897D01*
X107801229Y-28696654D01*
X108219452Y-28869888D01*
X108414870Y-29000462D01*
X108751753Y-29225559D01*
X109204441Y-29678247D01*
X109251573Y-29748785D01*
X109560112Y-30210548D01*
X109805104Y-30802010D01*
X109930000Y-31429903D01*
X109930000Y-32070097D01*
X109805104Y-32697990D01*
X109560112Y-33289452D01*
X109484419Y-33402735D01*
X109204441Y-33821753D01*
X108751753Y-34274441D01*
X108508678Y-34436858D01*
X108219452Y-34630112D01*
X107801229Y-34803346D01*
X107627993Y-34875103D01*
X107627992Y-34875103D01*
X107627990Y-34875104D01*
X107000097Y-35000000D01*
X106359903Y-35000000D01*
X105732010Y-34875104D01*
X105732008Y-34875103D01*
X105732007Y-34875103D01*
X105558771Y-34803346D01*
X105140548Y-34630112D01*
X104851322Y-34436858D01*
X104608247Y-34274441D01*
X104155559Y-33821753D01*
X103875581Y-33402735D01*
X103799888Y-33289452D01*
X103554896Y-32697990D01*
X103430000Y-32070097D01*
X103430000Y-31429903D01*
X103554896Y-30802010D01*
X103799888Y-30210548D01*
X104108427Y-29748785D01*
X104155559Y-29678247D01*
X104608247Y-29225559D01*
X104945130Y-29000462D01*
X105140548Y-28869888D01*
X105558771Y-28696654D01*
X105732007Y-28624897D01*
X105732008Y-28624897D01*
X105732010Y-28624896D01*
X106359903Y-28500000D01*
X107000097Y-28500000D01*
X107627990Y-28624896D01*
G37*
M02*
