%TF.GenerationSoftware,KiCad,Pcbnew,(5.1.6)-1*%
%TF.CreationDate,2020-10-20T11:52:01-07:00*%
%TF.ProjectId,ReflowOven,5265666c-6f77-44f7-9665-6e2e6b696361,rev?*%
%TF.SameCoordinates,Original*%
%TF.FileFunction,Paste,Top*%
%TF.FilePolarity,Positive*%
%FSLAX46Y46*%
G04 Gerber Fmt 4.6, Leading zero omitted, Abs format (unit mm)*
G04 Created by KiCad (PCBNEW (5.1.6)-1) date 2020-10-20 11:52:01*
%MOMM*%
%LPD*%
G01*
G04 APERTURE LIST*
%ADD10R,1.700000X0.800000*%
%ADD11R,1.100000X0.800000*%
%ADD12R,0.800000X0.600000*%
%ADD13R,2.200000X1.200000*%
%ADD14R,1.500000X1.000000*%
%ADD15R,0.000001X0.000001*%
%ADD16R,0.400000X0.650000*%
%ADD17R,0.650000X0.400000*%
%ADD18R,1.400000X0.300000*%
%ADD19R,0.300000X1.400000*%
%ADD20R,0.700000X0.510000*%
%ADD21R,0.800000X0.300000*%
%ADD22R,0.400000X0.900000*%
%ADD23R,0.700000X0.300000*%
%ADD24R,4.000000X1.650000*%
%ADD25R,2.800000X2.150000*%
%ADD26R,2.150000X2.800000*%
G04 APERTURE END LIST*
D10*
%TO.C,SW201*%
X101854000Y-122858000D03*
X101854000Y-119458000D03*
D11*
X103504000Y-121158000D03*
%TD*%
D12*
%TO.C,X401*%
X100437000Y-64075000D03*
X100437000Y-65875000D03*
X101637000Y-65875000D03*
X101637000Y-64075000D03*
%TD*%
%TO.C,X201*%
X109998000Y-126454000D03*
X109998000Y-124654000D03*
X108798000Y-124654000D03*
X108798000Y-126454000D03*
%TD*%
D13*
%TO.C,U409*%
X165526000Y-86973000D03*
X166726000Y-114823000D03*
D14*
X144526000Y-114423000D03*
X144526000Y-111073000D03*
X144526000Y-109373000D03*
X144526000Y-106948000D03*
X144526000Y-104448000D03*
X144526000Y-101948000D03*
X144526000Y-100248000D03*
X144526000Y-98598000D03*
X144526000Y-96948000D03*
X144526000Y-94448000D03*
X144526000Y-91948000D03*
%TD*%
%TO.C,U201*%
G36*
G01*
X113940000Y-124008000D02*
X113940000Y-122683000D01*
G75*
G02*
X114015000Y-122608000I75000J0D01*
G01*
X114165000Y-122608000D01*
G75*
G02*
X114240000Y-122683000I0J-75000D01*
G01*
X114240000Y-124008000D01*
G75*
G02*
X114165000Y-124083000I-75000J0D01*
G01*
X114015000Y-124083000D01*
G75*
G02*
X113940000Y-124008000I0J75000D01*
G01*
G37*
G36*
G01*
X114440000Y-124008000D02*
X114440000Y-122683000D01*
G75*
G02*
X114515000Y-122608000I75000J0D01*
G01*
X114665000Y-122608000D01*
G75*
G02*
X114740000Y-122683000I0J-75000D01*
G01*
X114740000Y-124008000D01*
G75*
G02*
X114665000Y-124083000I-75000J0D01*
G01*
X114515000Y-124083000D01*
G75*
G02*
X114440000Y-124008000I0J75000D01*
G01*
G37*
G36*
G01*
X114940000Y-124008000D02*
X114940000Y-122683000D01*
G75*
G02*
X115015000Y-122608000I75000J0D01*
G01*
X115165000Y-122608000D01*
G75*
G02*
X115240000Y-122683000I0J-75000D01*
G01*
X115240000Y-124008000D01*
G75*
G02*
X115165000Y-124083000I-75000J0D01*
G01*
X115015000Y-124083000D01*
G75*
G02*
X114940000Y-124008000I0J75000D01*
G01*
G37*
G36*
G01*
X115440000Y-124008000D02*
X115440000Y-122683000D01*
G75*
G02*
X115515000Y-122608000I75000J0D01*
G01*
X115665000Y-122608000D01*
G75*
G02*
X115740000Y-122683000I0J-75000D01*
G01*
X115740000Y-124008000D01*
G75*
G02*
X115665000Y-124083000I-75000J0D01*
G01*
X115515000Y-124083000D01*
G75*
G02*
X115440000Y-124008000I0J75000D01*
G01*
G37*
G36*
G01*
X115940000Y-124008000D02*
X115940000Y-122683000D01*
G75*
G02*
X116015000Y-122608000I75000J0D01*
G01*
X116165000Y-122608000D01*
G75*
G02*
X116240000Y-122683000I0J-75000D01*
G01*
X116240000Y-124008000D01*
G75*
G02*
X116165000Y-124083000I-75000J0D01*
G01*
X116015000Y-124083000D01*
G75*
G02*
X115940000Y-124008000I0J75000D01*
G01*
G37*
G36*
G01*
X116440000Y-124008000D02*
X116440000Y-122683000D01*
G75*
G02*
X116515000Y-122608000I75000J0D01*
G01*
X116665000Y-122608000D01*
G75*
G02*
X116740000Y-122683000I0J-75000D01*
G01*
X116740000Y-124008000D01*
G75*
G02*
X116665000Y-124083000I-75000J0D01*
G01*
X116515000Y-124083000D01*
G75*
G02*
X116440000Y-124008000I0J75000D01*
G01*
G37*
G36*
G01*
X116940000Y-124008000D02*
X116940000Y-122683000D01*
G75*
G02*
X117015000Y-122608000I75000J0D01*
G01*
X117165000Y-122608000D01*
G75*
G02*
X117240000Y-122683000I0J-75000D01*
G01*
X117240000Y-124008000D01*
G75*
G02*
X117165000Y-124083000I-75000J0D01*
G01*
X117015000Y-124083000D01*
G75*
G02*
X116940000Y-124008000I0J75000D01*
G01*
G37*
G36*
G01*
X117440000Y-124008000D02*
X117440000Y-122683000D01*
G75*
G02*
X117515000Y-122608000I75000J0D01*
G01*
X117665000Y-122608000D01*
G75*
G02*
X117740000Y-122683000I0J-75000D01*
G01*
X117740000Y-124008000D01*
G75*
G02*
X117665000Y-124083000I-75000J0D01*
G01*
X117515000Y-124083000D01*
G75*
G02*
X117440000Y-124008000I0J75000D01*
G01*
G37*
G36*
G01*
X117940000Y-124008000D02*
X117940000Y-122683000D01*
G75*
G02*
X118015000Y-122608000I75000J0D01*
G01*
X118165000Y-122608000D01*
G75*
G02*
X118240000Y-122683000I0J-75000D01*
G01*
X118240000Y-124008000D01*
G75*
G02*
X118165000Y-124083000I-75000J0D01*
G01*
X118015000Y-124083000D01*
G75*
G02*
X117940000Y-124008000I0J75000D01*
G01*
G37*
G36*
G01*
X118440000Y-124008000D02*
X118440000Y-122683000D01*
G75*
G02*
X118515000Y-122608000I75000J0D01*
G01*
X118665000Y-122608000D01*
G75*
G02*
X118740000Y-122683000I0J-75000D01*
G01*
X118740000Y-124008000D01*
G75*
G02*
X118665000Y-124083000I-75000J0D01*
G01*
X118515000Y-124083000D01*
G75*
G02*
X118440000Y-124008000I0J75000D01*
G01*
G37*
G36*
G01*
X118940000Y-124008000D02*
X118940000Y-122683000D01*
G75*
G02*
X119015000Y-122608000I75000J0D01*
G01*
X119165000Y-122608000D01*
G75*
G02*
X119240000Y-122683000I0J-75000D01*
G01*
X119240000Y-124008000D01*
G75*
G02*
X119165000Y-124083000I-75000J0D01*
G01*
X119015000Y-124083000D01*
G75*
G02*
X118940000Y-124008000I0J75000D01*
G01*
G37*
G36*
G01*
X119440000Y-124008000D02*
X119440000Y-122683000D01*
G75*
G02*
X119515000Y-122608000I75000J0D01*
G01*
X119665000Y-122608000D01*
G75*
G02*
X119740000Y-122683000I0J-75000D01*
G01*
X119740000Y-124008000D01*
G75*
G02*
X119665000Y-124083000I-75000J0D01*
G01*
X119515000Y-124083000D01*
G75*
G02*
X119440000Y-124008000I0J75000D01*
G01*
G37*
G36*
G01*
X120265000Y-124833000D02*
X120265000Y-124683000D01*
G75*
G02*
X120340000Y-124608000I75000J0D01*
G01*
X121665000Y-124608000D01*
G75*
G02*
X121740000Y-124683000I0J-75000D01*
G01*
X121740000Y-124833000D01*
G75*
G02*
X121665000Y-124908000I-75000J0D01*
G01*
X120340000Y-124908000D01*
G75*
G02*
X120265000Y-124833000I0J75000D01*
G01*
G37*
G36*
G01*
X120265000Y-125333000D02*
X120265000Y-125183000D01*
G75*
G02*
X120340000Y-125108000I75000J0D01*
G01*
X121665000Y-125108000D01*
G75*
G02*
X121740000Y-125183000I0J-75000D01*
G01*
X121740000Y-125333000D01*
G75*
G02*
X121665000Y-125408000I-75000J0D01*
G01*
X120340000Y-125408000D01*
G75*
G02*
X120265000Y-125333000I0J75000D01*
G01*
G37*
G36*
G01*
X120265000Y-125833000D02*
X120265000Y-125683000D01*
G75*
G02*
X120340000Y-125608000I75000J0D01*
G01*
X121665000Y-125608000D01*
G75*
G02*
X121740000Y-125683000I0J-75000D01*
G01*
X121740000Y-125833000D01*
G75*
G02*
X121665000Y-125908000I-75000J0D01*
G01*
X120340000Y-125908000D01*
G75*
G02*
X120265000Y-125833000I0J75000D01*
G01*
G37*
G36*
G01*
X120265000Y-126333000D02*
X120265000Y-126183000D01*
G75*
G02*
X120340000Y-126108000I75000J0D01*
G01*
X121665000Y-126108000D01*
G75*
G02*
X121740000Y-126183000I0J-75000D01*
G01*
X121740000Y-126333000D01*
G75*
G02*
X121665000Y-126408000I-75000J0D01*
G01*
X120340000Y-126408000D01*
G75*
G02*
X120265000Y-126333000I0J75000D01*
G01*
G37*
G36*
G01*
X120265000Y-126833000D02*
X120265000Y-126683000D01*
G75*
G02*
X120340000Y-126608000I75000J0D01*
G01*
X121665000Y-126608000D01*
G75*
G02*
X121740000Y-126683000I0J-75000D01*
G01*
X121740000Y-126833000D01*
G75*
G02*
X121665000Y-126908000I-75000J0D01*
G01*
X120340000Y-126908000D01*
G75*
G02*
X120265000Y-126833000I0J75000D01*
G01*
G37*
G36*
G01*
X120265000Y-127333000D02*
X120265000Y-127183000D01*
G75*
G02*
X120340000Y-127108000I75000J0D01*
G01*
X121665000Y-127108000D01*
G75*
G02*
X121740000Y-127183000I0J-75000D01*
G01*
X121740000Y-127333000D01*
G75*
G02*
X121665000Y-127408000I-75000J0D01*
G01*
X120340000Y-127408000D01*
G75*
G02*
X120265000Y-127333000I0J75000D01*
G01*
G37*
G36*
G01*
X120265000Y-127833000D02*
X120265000Y-127683000D01*
G75*
G02*
X120340000Y-127608000I75000J0D01*
G01*
X121665000Y-127608000D01*
G75*
G02*
X121740000Y-127683000I0J-75000D01*
G01*
X121740000Y-127833000D01*
G75*
G02*
X121665000Y-127908000I-75000J0D01*
G01*
X120340000Y-127908000D01*
G75*
G02*
X120265000Y-127833000I0J75000D01*
G01*
G37*
G36*
G01*
X120265000Y-128333000D02*
X120265000Y-128183000D01*
G75*
G02*
X120340000Y-128108000I75000J0D01*
G01*
X121665000Y-128108000D01*
G75*
G02*
X121740000Y-128183000I0J-75000D01*
G01*
X121740000Y-128333000D01*
G75*
G02*
X121665000Y-128408000I-75000J0D01*
G01*
X120340000Y-128408000D01*
G75*
G02*
X120265000Y-128333000I0J75000D01*
G01*
G37*
G36*
G01*
X120265000Y-128833000D02*
X120265000Y-128683000D01*
G75*
G02*
X120340000Y-128608000I75000J0D01*
G01*
X121665000Y-128608000D01*
G75*
G02*
X121740000Y-128683000I0J-75000D01*
G01*
X121740000Y-128833000D01*
G75*
G02*
X121665000Y-128908000I-75000J0D01*
G01*
X120340000Y-128908000D01*
G75*
G02*
X120265000Y-128833000I0J75000D01*
G01*
G37*
G36*
G01*
X120265000Y-129333000D02*
X120265000Y-129183000D01*
G75*
G02*
X120340000Y-129108000I75000J0D01*
G01*
X121665000Y-129108000D01*
G75*
G02*
X121740000Y-129183000I0J-75000D01*
G01*
X121740000Y-129333000D01*
G75*
G02*
X121665000Y-129408000I-75000J0D01*
G01*
X120340000Y-129408000D01*
G75*
G02*
X120265000Y-129333000I0J75000D01*
G01*
G37*
G36*
G01*
X120265000Y-129833000D02*
X120265000Y-129683000D01*
G75*
G02*
X120340000Y-129608000I75000J0D01*
G01*
X121665000Y-129608000D01*
G75*
G02*
X121740000Y-129683000I0J-75000D01*
G01*
X121740000Y-129833000D01*
G75*
G02*
X121665000Y-129908000I-75000J0D01*
G01*
X120340000Y-129908000D01*
G75*
G02*
X120265000Y-129833000I0J75000D01*
G01*
G37*
G36*
G01*
X120265000Y-130333000D02*
X120265000Y-130183000D01*
G75*
G02*
X120340000Y-130108000I75000J0D01*
G01*
X121665000Y-130108000D01*
G75*
G02*
X121740000Y-130183000I0J-75000D01*
G01*
X121740000Y-130333000D01*
G75*
G02*
X121665000Y-130408000I-75000J0D01*
G01*
X120340000Y-130408000D01*
G75*
G02*
X120265000Y-130333000I0J75000D01*
G01*
G37*
G36*
G01*
X119440000Y-132333000D02*
X119440000Y-131008000D01*
G75*
G02*
X119515000Y-130933000I75000J0D01*
G01*
X119665000Y-130933000D01*
G75*
G02*
X119740000Y-131008000I0J-75000D01*
G01*
X119740000Y-132333000D01*
G75*
G02*
X119665000Y-132408000I-75000J0D01*
G01*
X119515000Y-132408000D01*
G75*
G02*
X119440000Y-132333000I0J75000D01*
G01*
G37*
G36*
G01*
X118940000Y-132333000D02*
X118940000Y-131008000D01*
G75*
G02*
X119015000Y-130933000I75000J0D01*
G01*
X119165000Y-130933000D01*
G75*
G02*
X119240000Y-131008000I0J-75000D01*
G01*
X119240000Y-132333000D01*
G75*
G02*
X119165000Y-132408000I-75000J0D01*
G01*
X119015000Y-132408000D01*
G75*
G02*
X118940000Y-132333000I0J75000D01*
G01*
G37*
G36*
G01*
X118440000Y-132333000D02*
X118440000Y-131008000D01*
G75*
G02*
X118515000Y-130933000I75000J0D01*
G01*
X118665000Y-130933000D01*
G75*
G02*
X118740000Y-131008000I0J-75000D01*
G01*
X118740000Y-132333000D01*
G75*
G02*
X118665000Y-132408000I-75000J0D01*
G01*
X118515000Y-132408000D01*
G75*
G02*
X118440000Y-132333000I0J75000D01*
G01*
G37*
G36*
G01*
X117940000Y-132333000D02*
X117940000Y-131008000D01*
G75*
G02*
X118015000Y-130933000I75000J0D01*
G01*
X118165000Y-130933000D01*
G75*
G02*
X118240000Y-131008000I0J-75000D01*
G01*
X118240000Y-132333000D01*
G75*
G02*
X118165000Y-132408000I-75000J0D01*
G01*
X118015000Y-132408000D01*
G75*
G02*
X117940000Y-132333000I0J75000D01*
G01*
G37*
G36*
G01*
X117440000Y-132333000D02*
X117440000Y-131008000D01*
G75*
G02*
X117515000Y-130933000I75000J0D01*
G01*
X117665000Y-130933000D01*
G75*
G02*
X117740000Y-131008000I0J-75000D01*
G01*
X117740000Y-132333000D01*
G75*
G02*
X117665000Y-132408000I-75000J0D01*
G01*
X117515000Y-132408000D01*
G75*
G02*
X117440000Y-132333000I0J75000D01*
G01*
G37*
G36*
G01*
X116940000Y-132333000D02*
X116940000Y-131008000D01*
G75*
G02*
X117015000Y-130933000I75000J0D01*
G01*
X117165000Y-130933000D01*
G75*
G02*
X117240000Y-131008000I0J-75000D01*
G01*
X117240000Y-132333000D01*
G75*
G02*
X117165000Y-132408000I-75000J0D01*
G01*
X117015000Y-132408000D01*
G75*
G02*
X116940000Y-132333000I0J75000D01*
G01*
G37*
G36*
G01*
X116440000Y-132333000D02*
X116440000Y-131008000D01*
G75*
G02*
X116515000Y-130933000I75000J0D01*
G01*
X116665000Y-130933000D01*
G75*
G02*
X116740000Y-131008000I0J-75000D01*
G01*
X116740000Y-132333000D01*
G75*
G02*
X116665000Y-132408000I-75000J0D01*
G01*
X116515000Y-132408000D01*
G75*
G02*
X116440000Y-132333000I0J75000D01*
G01*
G37*
G36*
G01*
X115940000Y-132333000D02*
X115940000Y-131008000D01*
G75*
G02*
X116015000Y-130933000I75000J0D01*
G01*
X116165000Y-130933000D01*
G75*
G02*
X116240000Y-131008000I0J-75000D01*
G01*
X116240000Y-132333000D01*
G75*
G02*
X116165000Y-132408000I-75000J0D01*
G01*
X116015000Y-132408000D01*
G75*
G02*
X115940000Y-132333000I0J75000D01*
G01*
G37*
G36*
G01*
X115440000Y-132333000D02*
X115440000Y-131008000D01*
G75*
G02*
X115515000Y-130933000I75000J0D01*
G01*
X115665000Y-130933000D01*
G75*
G02*
X115740000Y-131008000I0J-75000D01*
G01*
X115740000Y-132333000D01*
G75*
G02*
X115665000Y-132408000I-75000J0D01*
G01*
X115515000Y-132408000D01*
G75*
G02*
X115440000Y-132333000I0J75000D01*
G01*
G37*
G36*
G01*
X114940000Y-132333000D02*
X114940000Y-131008000D01*
G75*
G02*
X115015000Y-130933000I75000J0D01*
G01*
X115165000Y-130933000D01*
G75*
G02*
X115240000Y-131008000I0J-75000D01*
G01*
X115240000Y-132333000D01*
G75*
G02*
X115165000Y-132408000I-75000J0D01*
G01*
X115015000Y-132408000D01*
G75*
G02*
X114940000Y-132333000I0J75000D01*
G01*
G37*
G36*
G01*
X114440000Y-132333000D02*
X114440000Y-131008000D01*
G75*
G02*
X114515000Y-130933000I75000J0D01*
G01*
X114665000Y-130933000D01*
G75*
G02*
X114740000Y-131008000I0J-75000D01*
G01*
X114740000Y-132333000D01*
G75*
G02*
X114665000Y-132408000I-75000J0D01*
G01*
X114515000Y-132408000D01*
G75*
G02*
X114440000Y-132333000I0J75000D01*
G01*
G37*
G36*
G01*
X113940000Y-132333000D02*
X113940000Y-131008000D01*
G75*
G02*
X114015000Y-130933000I75000J0D01*
G01*
X114165000Y-130933000D01*
G75*
G02*
X114240000Y-131008000I0J-75000D01*
G01*
X114240000Y-132333000D01*
G75*
G02*
X114165000Y-132408000I-75000J0D01*
G01*
X114015000Y-132408000D01*
G75*
G02*
X113940000Y-132333000I0J75000D01*
G01*
G37*
G36*
G01*
X111940000Y-130333000D02*
X111940000Y-130183000D01*
G75*
G02*
X112015000Y-130108000I75000J0D01*
G01*
X113340000Y-130108000D01*
G75*
G02*
X113415000Y-130183000I0J-75000D01*
G01*
X113415000Y-130333000D01*
G75*
G02*
X113340000Y-130408000I-75000J0D01*
G01*
X112015000Y-130408000D01*
G75*
G02*
X111940000Y-130333000I0J75000D01*
G01*
G37*
G36*
G01*
X111940000Y-129833000D02*
X111940000Y-129683000D01*
G75*
G02*
X112015000Y-129608000I75000J0D01*
G01*
X113340000Y-129608000D01*
G75*
G02*
X113415000Y-129683000I0J-75000D01*
G01*
X113415000Y-129833000D01*
G75*
G02*
X113340000Y-129908000I-75000J0D01*
G01*
X112015000Y-129908000D01*
G75*
G02*
X111940000Y-129833000I0J75000D01*
G01*
G37*
G36*
G01*
X111940000Y-129333000D02*
X111940000Y-129183000D01*
G75*
G02*
X112015000Y-129108000I75000J0D01*
G01*
X113340000Y-129108000D01*
G75*
G02*
X113415000Y-129183000I0J-75000D01*
G01*
X113415000Y-129333000D01*
G75*
G02*
X113340000Y-129408000I-75000J0D01*
G01*
X112015000Y-129408000D01*
G75*
G02*
X111940000Y-129333000I0J75000D01*
G01*
G37*
G36*
G01*
X111940000Y-128833000D02*
X111940000Y-128683000D01*
G75*
G02*
X112015000Y-128608000I75000J0D01*
G01*
X113340000Y-128608000D01*
G75*
G02*
X113415000Y-128683000I0J-75000D01*
G01*
X113415000Y-128833000D01*
G75*
G02*
X113340000Y-128908000I-75000J0D01*
G01*
X112015000Y-128908000D01*
G75*
G02*
X111940000Y-128833000I0J75000D01*
G01*
G37*
G36*
G01*
X111940000Y-128333000D02*
X111940000Y-128183000D01*
G75*
G02*
X112015000Y-128108000I75000J0D01*
G01*
X113340000Y-128108000D01*
G75*
G02*
X113415000Y-128183000I0J-75000D01*
G01*
X113415000Y-128333000D01*
G75*
G02*
X113340000Y-128408000I-75000J0D01*
G01*
X112015000Y-128408000D01*
G75*
G02*
X111940000Y-128333000I0J75000D01*
G01*
G37*
G36*
G01*
X111940000Y-127833000D02*
X111940000Y-127683000D01*
G75*
G02*
X112015000Y-127608000I75000J0D01*
G01*
X113340000Y-127608000D01*
G75*
G02*
X113415000Y-127683000I0J-75000D01*
G01*
X113415000Y-127833000D01*
G75*
G02*
X113340000Y-127908000I-75000J0D01*
G01*
X112015000Y-127908000D01*
G75*
G02*
X111940000Y-127833000I0J75000D01*
G01*
G37*
G36*
G01*
X111940000Y-127333000D02*
X111940000Y-127183000D01*
G75*
G02*
X112015000Y-127108000I75000J0D01*
G01*
X113340000Y-127108000D01*
G75*
G02*
X113415000Y-127183000I0J-75000D01*
G01*
X113415000Y-127333000D01*
G75*
G02*
X113340000Y-127408000I-75000J0D01*
G01*
X112015000Y-127408000D01*
G75*
G02*
X111940000Y-127333000I0J75000D01*
G01*
G37*
G36*
G01*
X111940000Y-126833000D02*
X111940000Y-126683000D01*
G75*
G02*
X112015000Y-126608000I75000J0D01*
G01*
X113340000Y-126608000D01*
G75*
G02*
X113415000Y-126683000I0J-75000D01*
G01*
X113415000Y-126833000D01*
G75*
G02*
X113340000Y-126908000I-75000J0D01*
G01*
X112015000Y-126908000D01*
G75*
G02*
X111940000Y-126833000I0J75000D01*
G01*
G37*
G36*
G01*
X111940000Y-126333000D02*
X111940000Y-126183000D01*
G75*
G02*
X112015000Y-126108000I75000J0D01*
G01*
X113340000Y-126108000D01*
G75*
G02*
X113415000Y-126183000I0J-75000D01*
G01*
X113415000Y-126333000D01*
G75*
G02*
X113340000Y-126408000I-75000J0D01*
G01*
X112015000Y-126408000D01*
G75*
G02*
X111940000Y-126333000I0J75000D01*
G01*
G37*
G36*
G01*
X111940000Y-125833000D02*
X111940000Y-125683000D01*
G75*
G02*
X112015000Y-125608000I75000J0D01*
G01*
X113340000Y-125608000D01*
G75*
G02*
X113415000Y-125683000I0J-75000D01*
G01*
X113415000Y-125833000D01*
G75*
G02*
X113340000Y-125908000I-75000J0D01*
G01*
X112015000Y-125908000D01*
G75*
G02*
X111940000Y-125833000I0J75000D01*
G01*
G37*
G36*
G01*
X111940000Y-125333000D02*
X111940000Y-125183000D01*
G75*
G02*
X112015000Y-125108000I75000J0D01*
G01*
X113340000Y-125108000D01*
G75*
G02*
X113415000Y-125183000I0J-75000D01*
G01*
X113415000Y-125333000D01*
G75*
G02*
X113340000Y-125408000I-75000J0D01*
G01*
X112015000Y-125408000D01*
G75*
G02*
X111940000Y-125333000I0J75000D01*
G01*
G37*
G36*
G01*
X111940000Y-124833000D02*
X111940000Y-124683000D01*
G75*
G02*
X112015000Y-124608000I75000J0D01*
G01*
X113340000Y-124608000D01*
G75*
G02*
X113415000Y-124683000I0J-75000D01*
G01*
X113415000Y-124833000D01*
G75*
G02*
X113340000Y-124908000I-75000J0D01*
G01*
X112015000Y-124908000D01*
G75*
G02*
X111940000Y-124833000I0J75000D01*
G01*
G37*
%TD*%
%TO.C,D501*%
G36*
G01*
X157638000Y-150873750D02*
X157638000Y-151386250D01*
G75*
G02*
X157419250Y-151605000I-218750J0D01*
G01*
X156981750Y-151605000D01*
G75*
G02*
X156763000Y-151386250I0J218750D01*
G01*
X156763000Y-150873750D01*
G75*
G02*
X156981750Y-150655000I218750J0D01*
G01*
X157419250Y-150655000D01*
G75*
G02*
X157638000Y-150873750I0J-218750D01*
G01*
G37*
G36*
G01*
X159213000Y-150873750D02*
X159213000Y-151386250D01*
G75*
G02*
X158994250Y-151605000I-218750J0D01*
G01*
X158556750Y-151605000D01*
G75*
G02*
X158338000Y-151386250I0J218750D01*
G01*
X158338000Y-150873750D01*
G75*
G02*
X158556750Y-150655000I218750J0D01*
G01*
X158994250Y-150655000D01*
G75*
G02*
X159213000Y-150873750I0J-218750D01*
G01*
G37*
%TD*%
%TO.C,U702*%
G36*
G01*
X155112500Y-121095000D02*
X154767500Y-121095000D01*
G75*
G02*
X154620000Y-120947500I0J147500D01*
G01*
X154620000Y-120652500D01*
G75*
G02*
X154767500Y-120505000I147500J0D01*
G01*
X155112500Y-120505000D01*
G75*
G02*
X155260000Y-120652500I0J-147500D01*
G01*
X155260000Y-120947500D01*
G75*
G02*
X155112500Y-121095000I-147500J0D01*
G01*
G37*
G36*
G01*
X155112500Y-122065000D02*
X154767500Y-122065000D01*
G75*
G02*
X154620000Y-121917500I0J147500D01*
G01*
X154620000Y-121622500D01*
G75*
G02*
X154767500Y-121475000I147500J0D01*
G01*
X155112500Y-121475000D01*
G75*
G02*
X155260000Y-121622500I0J-147500D01*
G01*
X155260000Y-121917500D01*
G75*
G02*
X155112500Y-122065000I-147500J0D01*
G01*
G37*
%TD*%
%TO.C,U701*%
G36*
G01*
X154767500Y-123951500D02*
X155112500Y-123951500D01*
G75*
G02*
X155260000Y-124099000I0J-147500D01*
G01*
X155260000Y-124394000D01*
G75*
G02*
X155112500Y-124541500I-147500J0D01*
G01*
X154767500Y-124541500D01*
G75*
G02*
X154620000Y-124394000I0J147500D01*
G01*
X154620000Y-124099000D01*
G75*
G02*
X154767500Y-123951500I147500J0D01*
G01*
G37*
G36*
G01*
X154767500Y-122981500D02*
X155112500Y-122981500D01*
G75*
G02*
X155260000Y-123129000I0J-147500D01*
G01*
X155260000Y-123424000D01*
G75*
G02*
X155112500Y-123571500I-147500J0D01*
G01*
X154767500Y-123571500D01*
G75*
G02*
X154620000Y-123424000I0J147500D01*
G01*
X154620000Y-123129000D01*
G75*
G02*
X154767500Y-122981500I147500J0D01*
G01*
G37*
%TD*%
D15*
%TO.C,U601*%
X151130000Y-137922000D03*
X151130000Y-139005333D03*
X151130000Y-140088666D03*
X152213333Y-137922000D03*
X152213333Y-139005333D03*
X152213333Y-140088666D03*
X153296666Y-137922000D03*
X153296666Y-139005333D03*
X153296666Y-140088666D03*
D16*
X153513333Y-141180333D03*
X152863333Y-141180333D03*
X152213333Y-141180333D03*
X151563333Y-141180333D03*
X150913333Y-141180333D03*
D17*
X150038333Y-140305333D03*
X150038333Y-139655333D03*
X150038333Y-139005333D03*
X150038333Y-138355333D03*
X150038333Y-137705333D03*
D16*
X150913333Y-136830333D03*
X151563333Y-136830333D03*
X152213333Y-136830333D03*
X152863333Y-136830333D03*
X153513333Y-136830333D03*
D17*
X154388333Y-137705333D03*
X154388333Y-138355333D03*
X154388333Y-139005333D03*
X154388333Y-139655333D03*
X154388333Y-140305333D03*
%TD*%
D18*
%TO.C,U502*%
X90764000Y-136128000D03*
X90764000Y-135628000D03*
X90764000Y-135128000D03*
X90764000Y-134628000D03*
X90764000Y-134128000D03*
X95164000Y-134128000D03*
X95164000Y-134628000D03*
X95164000Y-135128000D03*
X95164000Y-135628000D03*
X95164000Y-136128000D03*
%TD*%
D19*
%TO.C,U501*%
X68056000Y-128946000D03*
X67556000Y-128946000D03*
X67056000Y-128946000D03*
X66556000Y-128946000D03*
X66056000Y-128946000D03*
X66056000Y-124546000D03*
X66556000Y-124546000D03*
X67056000Y-124546000D03*
X67556000Y-124546000D03*
X68056000Y-124546000D03*
%TD*%
%TO.C,U408*%
G36*
G01*
X96496000Y-65682000D02*
X96496000Y-65382000D01*
G75*
G02*
X96646000Y-65232000I150000J0D01*
G01*
X98296000Y-65232000D01*
G75*
G02*
X98446000Y-65382000I0J-150000D01*
G01*
X98446000Y-65682000D01*
G75*
G02*
X98296000Y-65832000I-150000J0D01*
G01*
X96646000Y-65832000D01*
G75*
G02*
X96496000Y-65682000I0J150000D01*
G01*
G37*
G36*
G01*
X96496000Y-66952000D02*
X96496000Y-66652000D01*
G75*
G02*
X96646000Y-66502000I150000J0D01*
G01*
X98296000Y-66502000D01*
G75*
G02*
X98446000Y-66652000I0J-150000D01*
G01*
X98446000Y-66952000D01*
G75*
G02*
X98296000Y-67102000I-150000J0D01*
G01*
X96646000Y-67102000D01*
G75*
G02*
X96496000Y-66952000I0J150000D01*
G01*
G37*
G36*
G01*
X96496000Y-68222000D02*
X96496000Y-67922000D01*
G75*
G02*
X96646000Y-67772000I150000J0D01*
G01*
X98296000Y-67772000D01*
G75*
G02*
X98446000Y-67922000I0J-150000D01*
G01*
X98446000Y-68222000D01*
G75*
G02*
X98296000Y-68372000I-150000J0D01*
G01*
X96646000Y-68372000D01*
G75*
G02*
X96496000Y-68222000I0J150000D01*
G01*
G37*
G36*
G01*
X96496000Y-69492000D02*
X96496000Y-69192000D01*
G75*
G02*
X96646000Y-69042000I150000J0D01*
G01*
X98296000Y-69042000D01*
G75*
G02*
X98446000Y-69192000I0J-150000D01*
G01*
X98446000Y-69492000D01*
G75*
G02*
X98296000Y-69642000I-150000J0D01*
G01*
X96646000Y-69642000D01*
G75*
G02*
X96496000Y-69492000I0J150000D01*
G01*
G37*
G36*
G01*
X96496000Y-70762000D02*
X96496000Y-70462000D01*
G75*
G02*
X96646000Y-70312000I150000J0D01*
G01*
X98296000Y-70312000D01*
G75*
G02*
X98446000Y-70462000I0J-150000D01*
G01*
X98446000Y-70762000D01*
G75*
G02*
X98296000Y-70912000I-150000J0D01*
G01*
X96646000Y-70912000D01*
G75*
G02*
X96496000Y-70762000I0J150000D01*
G01*
G37*
G36*
G01*
X96496000Y-72032000D02*
X96496000Y-71732000D01*
G75*
G02*
X96646000Y-71582000I150000J0D01*
G01*
X98296000Y-71582000D01*
G75*
G02*
X98446000Y-71732000I0J-150000D01*
G01*
X98446000Y-72032000D01*
G75*
G02*
X98296000Y-72182000I-150000J0D01*
G01*
X96646000Y-72182000D01*
G75*
G02*
X96496000Y-72032000I0J150000D01*
G01*
G37*
G36*
G01*
X96496000Y-73302000D02*
X96496000Y-73002000D01*
G75*
G02*
X96646000Y-72852000I150000J0D01*
G01*
X98296000Y-72852000D01*
G75*
G02*
X98446000Y-73002000I0J-150000D01*
G01*
X98446000Y-73302000D01*
G75*
G02*
X98296000Y-73452000I-150000J0D01*
G01*
X96646000Y-73452000D01*
G75*
G02*
X96496000Y-73302000I0J150000D01*
G01*
G37*
G36*
G01*
X91546000Y-73302000D02*
X91546000Y-73002000D01*
G75*
G02*
X91696000Y-72852000I150000J0D01*
G01*
X93346000Y-72852000D01*
G75*
G02*
X93496000Y-73002000I0J-150000D01*
G01*
X93496000Y-73302000D01*
G75*
G02*
X93346000Y-73452000I-150000J0D01*
G01*
X91696000Y-73452000D01*
G75*
G02*
X91546000Y-73302000I0J150000D01*
G01*
G37*
G36*
G01*
X91546000Y-72032000D02*
X91546000Y-71732000D01*
G75*
G02*
X91696000Y-71582000I150000J0D01*
G01*
X93346000Y-71582000D01*
G75*
G02*
X93496000Y-71732000I0J-150000D01*
G01*
X93496000Y-72032000D01*
G75*
G02*
X93346000Y-72182000I-150000J0D01*
G01*
X91696000Y-72182000D01*
G75*
G02*
X91546000Y-72032000I0J150000D01*
G01*
G37*
G36*
G01*
X91546000Y-70762000D02*
X91546000Y-70462000D01*
G75*
G02*
X91696000Y-70312000I150000J0D01*
G01*
X93346000Y-70312000D01*
G75*
G02*
X93496000Y-70462000I0J-150000D01*
G01*
X93496000Y-70762000D01*
G75*
G02*
X93346000Y-70912000I-150000J0D01*
G01*
X91696000Y-70912000D01*
G75*
G02*
X91546000Y-70762000I0J150000D01*
G01*
G37*
G36*
G01*
X91546000Y-69492000D02*
X91546000Y-69192000D01*
G75*
G02*
X91696000Y-69042000I150000J0D01*
G01*
X93346000Y-69042000D01*
G75*
G02*
X93496000Y-69192000I0J-150000D01*
G01*
X93496000Y-69492000D01*
G75*
G02*
X93346000Y-69642000I-150000J0D01*
G01*
X91696000Y-69642000D01*
G75*
G02*
X91546000Y-69492000I0J150000D01*
G01*
G37*
G36*
G01*
X91546000Y-68222000D02*
X91546000Y-67922000D01*
G75*
G02*
X91696000Y-67772000I150000J0D01*
G01*
X93346000Y-67772000D01*
G75*
G02*
X93496000Y-67922000I0J-150000D01*
G01*
X93496000Y-68222000D01*
G75*
G02*
X93346000Y-68372000I-150000J0D01*
G01*
X91696000Y-68372000D01*
G75*
G02*
X91546000Y-68222000I0J150000D01*
G01*
G37*
G36*
G01*
X91546000Y-66952000D02*
X91546000Y-66652000D01*
G75*
G02*
X91696000Y-66502000I150000J0D01*
G01*
X93346000Y-66502000D01*
G75*
G02*
X93496000Y-66652000I0J-150000D01*
G01*
X93496000Y-66952000D01*
G75*
G02*
X93346000Y-67102000I-150000J0D01*
G01*
X91696000Y-67102000D01*
G75*
G02*
X91546000Y-66952000I0J150000D01*
G01*
G37*
G36*
G01*
X91546000Y-65682000D02*
X91546000Y-65382000D01*
G75*
G02*
X91696000Y-65232000I150000J0D01*
G01*
X93346000Y-65232000D01*
G75*
G02*
X93496000Y-65382000I0J-150000D01*
G01*
X93496000Y-65682000D01*
G75*
G02*
X93346000Y-65832000I-150000J0D01*
G01*
X91696000Y-65832000D01*
G75*
G02*
X91546000Y-65682000I0J150000D01*
G01*
G37*
%TD*%
%TO.C,U407*%
G36*
G01*
X86336000Y-56030000D02*
X86336000Y-55730000D01*
G75*
G02*
X86486000Y-55580000I150000J0D01*
G01*
X88136000Y-55580000D01*
G75*
G02*
X88286000Y-55730000I0J-150000D01*
G01*
X88286000Y-56030000D01*
G75*
G02*
X88136000Y-56180000I-150000J0D01*
G01*
X86486000Y-56180000D01*
G75*
G02*
X86336000Y-56030000I0J150000D01*
G01*
G37*
G36*
G01*
X86336000Y-57300000D02*
X86336000Y-57000000D01*
G75*
G02*
X86486000Y-56850000I150000J0D01*
G01*
X88136000Y-56850000D01*
G75*
G02*
X88286000Y-57000000I0J-150000D01*
G01*
X88286000Y-57300000D01*
G75*
G02*
X88136000Y-57450000I-150000J0D01*
G01*
X86486000Y-57450000D01*
G75*
G02*
X86336000Y-57300000I0J150000D01*
G01*
G37*
G36*
G01*
X86336000Y-58570000D02*
X86336000Y-58270000D01*
G75*
G02*
X86486000Y-58120000I150000J0D01*
G01*
X88136000Y-58120000D01*
G75*
G02*
X88286000Y-58270000I0J-150000D01*
G01*
X88286000Y-58570000D01*
G75*
G02*
X88136000Y-58720000I-150000J0D01*
G01*
X86486000Y-58720000D01*
G75*
G02*
X86336000Y-58570000I0J150000D01*
G01*
G37*
G36*
G01*
X86336000Y-59840000D02*
X86336000Y-59540000D01*
G75*
G02*
X86486000Y-59390000I150000J0D01*
G01*
X88136000Y-59390000D01*
G75*
G02*
X88286000Y-59540000I0J-150000D01*
G01*
X88286000Y-59840000D01*
G75*
G02*
X88136000Y-59990000I-150000J0D01*
G01*
X86486000Y-59990000D01*
G75*
G02*
X86336000Y-59840000I0J150000D01*
G01*
G37*
G36*
G01*
X86336000Y-61110000D02*
X86336000Y-60810000D01*
G75*
G02*
X86486000Y-60660000I150000J0D01*
G01*
X88136000Y-60660000D01*
G75*
G02*
X88286000Y-60810000I0J-150000D01*
G01*
X88286000Y-61110000D01*
G75*
G02*
X88136000Y-61260000I-150000J0D01*
G01*
X86486000Y-61260000D01*
G75*
G02*
X86336000Y-61110000I0J150000D01*
G01*
G37*
G36*
G01*
X86336000Y-62380000D02*
X86336000Y-62080000D01*
G75*
G02*
X86486000Y-61930000I150000J0D01*
G01*
X88136000Y-61930000D01*
G75*
G02*
X88286000Y-62080000I0J-150000D01*
G01*
X88286000Y-62380000D01*
G75*
G02*
X88136000Y-62530000I-150000J0D01*
G01*
X86486000Y-62530000D01*
G75*
G02*
X86336000Y-62380000I0J150000D01*
G01*
G37*
G36*
G01*
X86336000Y-63650000D02*
X86336000Y-63350000D01*
G75*
G02*
X86486000Y-63200000I150000J0D01*
G01*
X88136000Y-63200000D01*
G75*
G02*
X88286000Y-63350000I0J-150000D01*
G01*
X88286000Y-63650000D01*
G75*
G02*
X88136000Y-63800000I-150000J0D01*
G01*
X86486000Y-63800000D01*
G75*
G02*
X86336000Y-63650000I0J150000D01*
G01*
G37*
G36*
G01*
X81386000Y-63650000D02*
X81386000Y-63350000D01*
G75*
G02*
X81536000Y-63200000I150000J0D01*
G01*
X83186000Y-63200000D01*
G75*
G02*
X83336000Y-63350000I0J-150000D01*
G01*
X83336000Y-63650000D01*
G75*
G02*
X83186000Y-63800000I-150000J0D01*
G01*
X81536000Y-63800000D01*
G75*
G02*
X81386000Y-63650000I0J150000D01*
G01*
G37*
G36*
G01*
X81386000Y-62380000D02*
X81386000Y-62080000D01*
G75*
G02*
X81536000Y-61930000I150000J0D01*
G01*
X83186000Y-61930000D01*
G75*
G02*
X83336000Y-62080000I0J-150000D01*
G01*
X83336000Y-62380000D01*
G75*
G02*
X83186000Y-62530000I-150000J0D01*
G01*
X81536000Y-62530000D01*
G75*
G02*
X81386000Y-62380000I0J150000D01*
G01*
G37*
G36*
G01*
X81386000Y-61110000D02*
X81386000Y-60810000D01*
G75*
G02*
X81536000Y-60660000I150000J0D01*
G01*
X83186000Y-60660000D01*
G75*
G02*
X83336000Y-60810000I0J-150000D01*
G01*
X83336000Y-61110000D01*
G75*
G02*
X83186000Y-61260000I-150000J0D01*
G01*
X81536000Y-61260000D01*
G75*
G02*
X81386000Y-61110000I0J150000D01*
G01*
G37*
G36*
G01*
X81386000Y-59840000D02*
X81386000Y-59540000D01*
G75*
G02*
X81536000Y-59390000I150000J0D01*
G01*
X83186000Y-59390000D01*
G75*
G02*
X83336000Y-59540000I0J-150000D01*
G01*
X83336000Y-59840000D01*
G75*
G02*
X83186000Y-59990000I-150000J0D01*
G01*
X81536000Y-59990000D01*
G75*
G02*
X81386000Y-59840000I0J150000D01*
G01*
G37*
G36*
G01*
X81386000Y-58570000D02*
X81386000Y-58270000D01*
G75*
G02*
X81536000Y-58120000I150000J0D01*
G01*
X83186000Y-58120000D01*
G75*
G02*
X83336000Y-58270000I0J-150000D01*
G01*
X83336000Y-58570000D01*
G75*
G02*
X83186000Y-58720000I-150000J0D01*
G01*
X81536000Y-58720000D01*
G75*
G02*
X81386000Y-58570000I0J150000D01*
G01*
G37*
G36*
G01*
X81386000Y-57300000D02*
X81386000Y-57000000D01*
G75*
G02*
X81536000Y-56850000I150000J0D01*
G01*
X83186000Y-56850000D01*
G75*
G02*
X83336000Y-57000000I0J-150000D01*
G01*
X83336000Y-57300000D01*
G75*
G02*
X83186000Y-57450000I-150000J0D01*
G01*
X81536000Y-57450000D01*
G75*
G02*
X81386000Y-57300000I0J150000D01*
G01*
G37*
G36*
G01*
X81386000Y-56030000D02*
X81386000Y-55730000D01*
G75*
G02*
X81536000Y-55580000I150000J0D01*
G01*
X83186000Y-55580000D01*
G75*
G02*
X83336000Y-55730000I0J-150000D01*
G01*
X83336000Y-56030000D01*
G75*
G02*
X83186000Y-56180000I-150000J0D01*
G01*
X81536000Y-56180000D01*
G75*
G02*
X81386000Y-56030000I0J150000D01*
G01*
G37*
%TD*%
D20*
%TO.C,U406*%
X89552000Y-69154000D03*
X89552000Y-70104000D03*
X89552000Y-71054000D03*
X87232000Y-71054000D03*
X87232000Y-70104000D03*
X87232000Y-69154000D03*
%TD*%
D21*
%TO.C,U405*%
X86386000Y-65544000D03*
X86386000Y-66044000D03*
X86386000Y-66544000D03*
X86386000Y-67044000D03*
X83286000Y-67044000D03*
X83286000Y-66544000D03*
X83286000Y-66044000D03*
X83286000Y-65544000D03*
%TD*%
%TO.C,U404*%
G36*
G01*
X96496000Y-56030000D02*
X96496000Y-55730000D01*
G75*
G02*
X96646000Y-55580000I150000J0D01*
G01*
X98296000Y-55580000D01*
G75*
G02*
X98446000Y-55730000I0J-150000D01*
G01*
X98446000Y-56030000D01*
G75*
G02*
X98296000Y-56180000I-150000J0D01*
G01*
X96646000Y-56180000D01*
G75*
G02*
X96496000Y-56030000I0J150000D01*
G01*
G37*
G36*
G01*
X96496000Y-57300000D02*
X96496000Y-57000000D01*
G75*
G02*
X96646000Y-56850000I150000J0D01*
G01*
X98296000Y-56850000D01*
G75*
G02*
X98446000Y-57000000I0J-150000D01*
G01*
X98446000Y-57300000D01*
G75*
G02*
X98296000Y-57450000I-150000J0D01*
G01*
X96646000Y-57450000D01*
G75*
G02*
X96496000Y-57300000I0J150000D01*
G01*
G37*
G36*
G01*
X96496000Y-58570000D02*
X96496000Y-58270000D01*
G75*
G02*
X96646000Y-58120000I150000J0D01*
G01*
X98296000Y-58120000D01*
G75*
G02*
X98446000Y-58270000I0J-150000D01*
G01*
X98446000Y-58570000D01*
G75*
G02*
X98296000Y-58720000I-150000J0D01*
G01*
X96646000Y-58720000D01*
G75*
G02*
X96496000Y-58570000I0J150000D01*
G01*
G37*
G36*
G01*
X96496000Y-59840000D02*
X96496000Y-59540000D01*
G75*
G02*
X96646000Y-59390000I150000J0D01*
G01*
X98296000Y-59390000D01*
G75*
G02*
X98446000Y-59540000I0J-150000D01*
G01*
X98446000Y-59840000D01*
G75*
G02*
X98296000Y-59990000I-150000J0D01*
G01*
X96646000Y-59990000D01*
G75*
G02*
X96496000Y-59840000I0J150000D01*
G01*
G37*
G36*
G01*
X96496000Y-61110000D02*
X96496000Y-60810000D01*
G75*
G02*
X96646000Y-60660000I150000J0D01*
G01*
X98296000Y-60660000D01*
G75*
G02*
X98446000Y-60810000I0J-150000D01*
G01*
X98446000Y-61110000D01*
G75*
G02*
X98296000Y-61260000I-150000J0D01*
G01*
X96646000Y-61260000D01*
G75*
G02*
X96496000Y-61110000I0J150000D01*
G01*
G37*
G36*
G01*
X96496000Y-62380000D02*
X96496000Y-62080000D01*
G75*
G02*
X96646000Y-61930000I150000J0D01*
G01*
X98296000Y-61930000D01*
G75*
G02*
X98446000Y-62080000I0J-150000D01*
G01*
X98446000Y-62380000D01*
G75*
G02*
X98296000Y-62530000I-150000J0D01*
G01*
X96646000Y-62530000D01*
G75*
G02*
X96496000Y-62380000I0J150000D01*
G01*
G37*
G36*
G01*
X96496000Y-63650000D02*
X96496000Y-63350000D01*
G75*
G02*
X96646000Y-63200000I150000J0D01*
G01*
X98296000Y-63200000D01*
G75*
G02*
X98446000Y-63350000I0J-150000D01*
G01*
X98446000Y-63650000D01*
G75*
G02*
X98296000Y-63800000I-150000J0D01*
G01*
X96646000Y-63800000D01*
G75*
G02*
X96496000Y-63650000I0J150000D01*
G01*
G37*
G36*
G01*
X91546000Y-63650000D02*
X91546000Y-63350000D01*
G75*
G02*
X91696000Y-63200000I150000J0D01*
G01*
X93346000Y-63200000D01*
G75*
G02*
X93496000Y-63350000I0J-150000D01*
G01*
X93496000Y-63650000D01*
G75*
G02*
X93346000Y-63800000I-150000J0D01*
G01*
X91696000Y-63800000D01*
G75*
G02*
X91546000Y-63650000I0J150000D01*
G01*
G37*
G36*
G01*
X91546000Y-62380000D02*
X91546000Y-62080000D01*
G75*
G02*
X91696000Y-61930000I150000J0D01*
G01*
X93346000Y-61930000D01*
G75*
G02*
X93496000Y-62080000I0J-150000D01*
G01*
X93496000Y-62380000D01*
G75*
G02*
X93346000Y-62530000I-150000J0D01*
G01*
X91696000Y-62530000D01*
G75*
G02*
X91546000Y-62380000I0J150000D01*
G01*
G37*
G36*
G01*
X91546000Y-61110000D02*
X91546000Y-60810000D01*
G75*
G02*
X91696000Y-60660000I150000J0D01*
G01*
X93346000Y-60660000D01*
G75*
G02*
X93496000Y-60810000I0J-150000D01*
G01*
X93496000Y-61110000D01*
G75*
G02*
X93346000Y-61260000I-150000J0D01*
G01*
X91696000Y-61260000D01*
G75*
G02*
X91546000Y-61110000I0J150000D01*
G01*
G37*
G36*
G01*
X91546000Y-59840000D02*
X91546000Y-59540000D01*
G75*
G02*
X91696000Y-59390000I150000J0D01*
G01*
X93346000Y-59390000D01*
G75*
G02*
X93496000Y-59540000I0J-150000D01*
G01*
X93496000Y-59840000D01*
G75*
G02*
X93346000Y-59990000I-150000J0D01*
G01*
X91696000Y-59990000D01*
G75*
G02*
X91546000Y-59840000I0J150000D01*
G01*
G37*
G36*
G01*
X91546000Y-58570000D02*
X91546000Y-58270000D01*
G75*
G02*
X91696000Y-58120000I150000J0D01*
G01*
X93346000Y-58120000D01*
G75*
G02*
X93496000Y-58270000I0J-150000D01*
G01*
X93496000Y-58570000D01*
G75*
G02*
X93346000Y-58720000I-150000J0D01*
G01*
X91696000Y-58720000D01*
G75*
G02*
X91546000Y-58570000I0J150000D01*
G01*
G37*
G36*
G01*
X91546000Y-57300000D02*
X91546000Y-57000000D01*
G75*
G02*
X91696000Y-56850000I150000J0D01*
G01*
X93346000Y-56850000D01*
G75*
G02*
X93496000Y-57000000I0J-150000D01*
G01*
X93496000Y-57300000D01*
G75*
G02*
X93346000Y-57450000I-150000J0D01*
G01*
X91696000Y-57450000D01*
G75*
G02*
X91546000Y-57300000I0J150000D01*
G01*
G37*
G36*
G01*
X91546000Y-56030000D02*
X91546000Y-55730000D01*
G75*
G02*
X91696000Y-55580000I150000J0D01*
G01*
X93346000Y-55580000D01*
G75*
G02*
X93496000Y-55730000I0J-150000D01*
G01*
X93496000Y-56030000D01*
G75*
G02*
X93346000Y-56180000I-150000J0D01*
G01*
X91696000Y-56180000D01*
G75*
G02*
X91546000Y-56030000I0J150000D01*
G01*
G37*
%TD*%
%TO.C,U403*%
G36*
G01*
X68857000Y-75970000D02*
X68557000Y-75970000D01*
G75*
G02*
X68407000Y-75820000I0J150000D01*
G01*
X68407000Y-74170000D01*
G75*
G02*
X68557000Y-74020000I150000J0D01*
G01*
X68857000Y-74020000D01*
G75*
G02*
X69007000Y-74170000I0J-150000D01*
G01*
X69007000Y-75820000D01*
G75*
G02*
X68857000Y-75970000I-150000J0D01*
G01*
G37*
G36*
G01*
X70127000Y-75970000D02*
X69827000Y-75970000D01*
G75*
G02*
X69677000Y-75820000I0J150000D01*
G01*
X69677000Y-74170000D01*
G75*
G02*
X69827000Y-74020000I150000J0D01*
G01*
X70127000Y-74020000D01*
G75*
G02*
X70277000Y-74170000I0J-150000D01*
G01*
X70277000Y-75820000D01*
G75*
G02*
X70127000Y-75970000I-150000J0D01*
G01*
G37*
G36*
G01*
X71397000Y-75970000D02*
X71097000Y-75970000D01*
G75*
G02*
X70947000Y-75820000I0J150000D01*
G01*
X70947000Y-74170000D01*
G75*
G02*
X71097000Y-74020000I150000J0D01*
G01*
X71397000Y-74020000D01*
G75*
G02*
X71547000Y-74170000I0J-150000D01*
G01*
X71547000Y-75820000D01*
G75*
G02*
X71397000Y-75970000I-150000J0D01*
G01*
G37*
G36*
G01*
X72667000Y-75970000D02*
X72367000Y-75970000D01*
G75*
G02*
X72217000Y-75820000I0J150000D01*
G01*
X72217000Y-74170000D01*
G75*
G02*
X72367000Y-74020000I150000J0D01*
G01*
X72667000Y-74020000D01*
G75*
G02*
X72817000Y-74170000I0J-150000D01*
G01*
X72817000Y-75820000D01*
G75*
G02*
X72667000Y-75970000I-150000J0D01*
G01*
G37*
G36*
G01*
X73937000Y-75970000D02*
X73637000Y-75970000D01*
G75*
G02*
X73487000Y-75820000I0J150000D01*
G01*
X73487000Y-74170000D01*
G75*
G02*
X73637000Y-74020000I150000J0D01*
G01*
X73937000Y-74020000D01*
G75*
G02*
X74087000Y-74170000I0J-150000D01*
G01*
X74087000Y-75820000D01*
G75*
G02*
X73937000Y-75970000I-150000J0D01*
G01*
G37*
G36*
G01*
X75207000Y-75970000D02*
X74907000Y-75970000D01*
G75*
G02*
X74757000Y-75820000I0J150000D01*
G01*
X74757000Y-74170000D01*
G75*
G02*
X74907000Y-74020000I150000J0D01*
G01*
X75207000Y-74020000D01*
G75*
G02*
X75357000Y-74170000I0J-150000D01*
G01*
X75357000Y-75820000D01*
G75*
G02*
X75207000Y-75970000I-150000J0D01*
G01*
G37*
G36*
G01*
X76477000Y-75970000D02*
X76177000Y-75970000D01*
G75*
G02*
X76027000Y-75820000I0J150000D01*
G01*
X76027000Y-74170000D01*
G75*
G02*
X76177000Y-74020000I150000J0D01*
G01*
X76477000Y-74020000D01*
G75*
G02*
X76627000Y-74170000I0J-150000D01*
G01*
X76627000Y-75820000D01*
G75*
G02*
X76477000Y-75970000I-150000J0D01*
G01*
G37*
G36*
G01*
X77747000Y-75970000D02*
X77447000Y-75970000D01*
G75*
G02*
X77297000Y-75820000I0J150000D01*
G01*
X77297000Y-74170000D01*
G75*
G02*
X77447000Y-74020000I150000J0D01*
G01*
X77747000Y-74020000D01*
G75*
G02*
X77897000Y-74170000I0J-150000D01*
G01*
X77897000Y-75820000D01*
G75*
G02*
X77747000Y-75970000I-150000J0D01*
G01*
G37*
G36*
G01*
X77747000Y-80920000D02*
X77447000Y-80920000D01*
G75*
G02*
X77297000Y-80770000I0J150000D01*
G01*
X77297000Y-79120000D01*
G75*
G02*
X77447000Y-78970000I150000J0D01*
G01*
X77747000Y-78970000D01*
G75*
G02*
X77897000Y-79120000I0J-150000D01*
G01*
X77897000Y-80770000D01*
G75*
G02*
X77747000Y-80920000I-150000J0D01*
G01*
G37*
G36*
G01*
X76477000Y-80920000D02*
X76177000Y-80920000D01*
G75*
G02*
X76027000Y-80770000I0J150000D01*
G01*
X76027000Y-79120000D01*
G75*
G02*
X76177000Y-78970000I150000J0D01*
G01*
X76477000Y-78970000D01*
G75*
G02*
X76627000Y-79120000I0J-150000D01*
G01*
X76627000Y-80770000D01*
G75*
G02*
X76477000Y-80920000I-150000J0D01*
G01*
G37*
G36*
G01*
X75207000Y-80920000D02*
X74907000Y-80920000D01*
G75*
G02*
X74757000Y-80770000I0J150000D01*
G01*
X74757000Y-79120000D01*
G75*
G02*
X74907000Y-78970000I150000J0D01*
G01*
X75207000Y-78970000D01*
G75*
G02*
X75357000Y-79120000I0J-150000D01*
G01*
X75357000Y-80770000D01*
G75*
G02*
X75207000Y-80920000I-150000J0D01*
G01*
G37*
G36*
G01*
X73937000Y-80920000D02*
X73637000Y-80920000D01*
G75*
G02*
X73487000Y-80770000I0J150000D01*
G01*
X73487000Y-79120000D01*
G75*
G02*
X73637000Y-78970000I150000J0D01*
G01*
X73937000Y-78970000D01*
G75*
G02*
X74087000Y-79120000I0J-150000D01*
G01*
X74087000Y-80770000D01*
G75*
G02*
X73937000Y-80920000I-150000J0D01*
G01*
G37*
G36*
G01*
X72667000Y-80920000D02*
X72367000Y-80920000D01*
G75*
G02*
X72217000Y-80770000I0J150000D01*
G01*
X72217000Y-79120000D01*
G75*
G02*
X72367000Y-78970000I150000J0D01*
G01*
X72667000Y-78970000D01*
G75*
G02*
X72817000Y-79120000I0J-150000D01*
G01*
X72817000Y-80770000D01*
G75*
G02*
X72667000Y-80920000I-150000J0D01*
G01*
G37*
G36*
G01*
X71397000Y-80920000D02*
X71097000Y-80920000D01*
G75*
G02*
X70947000Y-80770000I0J150000D01*
G01*
X70947000Y-79120000D01*
G75*
G02*
X71097000Y-78970000I150000J0D01*
G01*
X71397000Y-78970000D01*
G75*
G02*
X71547000Y-79120000I0J-150000D01*
G01*
X71547000Y-80770000D01*
G75*
G02*
X71397000Y-80920000I-150000J0D01*
G01*
G37*
G36*
G01*
X70127000Y-80920000D02*
X69827000Y-80920000D01*
G75*
G02*
X69677000Y-80770000I0J150000D01*
G01*
X69677000Y-79120000D01*
G75*
G02*
X69827000Y-78970000I150000J0D01*
G01*
X70127000Y-78970000D01*
G75*
G02*
X70277000Y-79120000I0J-150000D01*
G01*
X70277000Y-80770000D01*
G75*
G02*
X70127000Y-80920000I-150000J0D01*
G01*
G37*
G36*
G01*
X68857000Y-80920000D02*
X68557000Y-80920000D01*
G75*
G02*
X68407000Y-80770000I0J150000D01*
G01*
X68407000Y-79120000D01*
G75*
G02*
X68557000Y-78970000I150000J0D01*
G01*
X68857000Y-78970000D01*
G75*
G02*
X69007000Y-79120000I0J-150000D01*
G01*
X69007000Y-80770000D01*
G75*
G02*
X68857000Y-80920000I-150000J0D01*
G01*
G37*
%TD*%
%TO.C,U402*%
G36*
G01*
X76615000Y-86757000D02*
X76615000Y-86957000D01*
G75*
G02*
X76515000Y-87057000I-100000J0D01*
G01*
X75240000Y-87057000D01*
G75*
G02*
X75140000Y-86957000I0J100000D01*
G01*
X75140000Y-86757000D01*
G75*
G02*
X75240000Y-86657000I100000J0D01*
G01*
X76515000Y-86657000D01*
G75*
G02*
X76615000Y-86757000I0J-100000D01*
G01*
G37*
G36*
G01*
X76615000Y-86107000D02*
X76615000Y-86307000D01*
G75*
G02*
X76515000Y-86407000I-100000J0D01*
G01*
X75240000Y-86407000D01*
G75*
G02*
X75140000Y-86307000I0J100000D01*
G01*
X75140000Y-86107000D01*
G75*
G02*
X75240000Y-86007000I100000J0D01*
G01*
X76515000Y-86007000D01*
G75*
G02*
X76615000Y-86107000I0J-100000D01*
G01*
G37*
G36*
G01*
X76615000Y-85457000D02*
X76615000Y-85657000D01*
G75*
G02*
X76515000Y-85757000I-100000J0D01*
G01*
X75240000Y-85757000D01*
G75*
G02*
X75140000Y-85657000I0J100000D01*
G01*
X75140000Y-85457000D01*
G75*
G02*
X75240000Y-85357000I100000J0D01*
G01*
X76515000Y-85357000D01*
G75*
G02*
X76615000Y-85457000I0J-100000D01*
G01*
G37*
G36*
G01*
X76615000Y-84807000D02*
X76615000Y-85007000D01*
G75*
G02*
X76515000Y-85107000I-100000J0D01*
G01*
X75240000Y-85107000D01*
G75*
G02*
X75140000Y-85007000I0J100000D01*
G01*
X75140000Y-84807000D01*
G75*
G02*
X75240000Y-84707000I100000J0D01*
G01*
X76515000Y-84707000D01*
G75*
G02*
X76615000Y-84807000I0J-100000D01*
G01*
G37*
G36*
G01*
X76615000Y-84157000D02*
X76615000Y-84357000D01*
G75*
G02*
X76515000Y-84457000I-100000J0D01*
G01*
X75240000Y-84457000D01*
G75*
G02*
X75140000Y-84357000I0J100000D01*
G01*
X75140000Y-84157000D01*
G75*
G02*
X75240000Y-84057000I100000J0D01*
G01*
X76515000Y-84057000D01*
G75*
G02*
X76615000Y-84157000I0J-100000D01*
G01*
G37*
G36*
G01*
X76615000Y-83507000D02*
X76615000Y-83707000D01*
G75*
G02*
X76515000Y-83807000I-100000J0D01*
G01*
X75240000Y-83807000D01*
G75*
G02*
X75140000Y-83707000I0J100000D01*
G01*
X75140000Y-83507000D01*
G75*
G02*
X75240000Y-83407000I100000J0D01*
G01*
X76515000Y-83407000D01*
G75*
G02*
X76615000Y-83507000I0J-100000D01*
G01*
G37*
G36*
G01*
X76615000Y-82857000D02*
X76615000Y-83057000D01*
G75*
G02*
X76515000Y-83157000I-100000J0D01*
G01*
X75240000Y-83157000D01*
G75*
G02*
X75140000Y-83057000I0J100000D01*
G01*
X75140000Y-82857000D01*
G75*
G02*
X75240000Y-82757000I100000J0D01*
G01*
X76515000Y-82757000D01*
G75*
G02*
X76615000Y-82857000I0J-100000D01*
G01*
G37*
G36*
G01*
X76615000Y-82207000D02*
X76615000Y-82407000D01*
G75*
G02*
X76515000Y-82507000I-100000J0D01*
G01*
X75240000Y-82507000D01*
G75*
G02*
X75140000Y-82407000I0J100000D01*
G01*
X75140000Y-82207000D01*
G75*
G02*
X75240000Y-82107000I100000J0D01*
G01*
X76515000Y-82107000D01*
G75*
G02*
X76615000Y-82207000I0J-100000D01*
G01*
G37*
G36*
G01*
X82340000Y-82207000D02*
X82340000Y-82407000D01*
G75*
G02*
X82240000Y-82507000I-100000J0D01*
G01*
X80965000Y-82507000D01*
G75*
G02*
X80865000Y-82407000I0J100000D01*
G01*
X80865000Y-82207000D01*
G75*
G02*
X80965000Y-82107000I100000J0D01*
G01*
X82240000Y-82107000D01*
G75*
G02*
X82340000Y-82207000I0J-100000D01*
G01*
G37*
G36*
G01*
X82340000Y-82857000D02*
X82340000Y-83057000D01*
G75*
G02*
X82240000Y-83157000I-100000J0D01*
G01*
X80965000Y-83157000D01*
G75*
G02*
X80865000Y-83057000I0J100000D01*
G01*
X80865000Y-82857000D01*
G75*
G02*
X80965000Y-82757000I100000J0D01*
G01*
X82240000Y-82757000D01*
G75*
G02*
X82340000Y-82857000I0J-100000D01*
G01*
G37*
G36*
G01*
X82340000Y-83507000D02*
X82340000Y-83707000D01*
G75*
G02*
X82240000Y-83807000I-100000J0D01*
G01*
X80965000Y-83807000D01*
G75*
G02*
X80865000Y-83707000I0J100000D01*
G01*
X80865000Y-83507000D01*
G75*
G02*
X80965000Y-83407000I100000J0D01*
G01*
X82240000Y-83407000D01*
G75*
G02*
X82340000Y-83507000I0J-100000D01*
G01*
G37*
G36*
G01*
X82340000Y-84157000D02*
X82340000Y-84357000D01*
G75*
G02*
X82240000Y-84457000I-100000J0D01*
G01*
X80965000Y-84457000D01*
G75*
G02*
X80865000Y-84357000I0J100000D01*
G01*
X80865000Y-84157000D01*
G75*
G02*
X80965000Y-84057000I100000J0D01*
G01*
X82240000Y-84057000D01*
G75*
G02*
X82340000Y-84157000I0J-100000D01*
G01*
G37*
G36*
G01*
X82340000Y-84807000D02*
X82340000Y-85007000D01*
G75*
G02*
X82240000Y-85107000I-100000J0D01*
G01*
X80965000Y-85107000D01*
G75*
G02*
X80865000Y-85007000I0J100000D01*
G01*
X80865000Y-84807000D01*
G75*
G02*
X80965000Y-84707000I100000J0D01*
G01*
X82240000Y-84707000D01*
G75*
G02*
X82340000Y-84807000I0J-100000D01*
G01*
G37*
G36*
G01*
X82340000Y-85457000D02*
X82340000Y-85657000D01*
G75*
G02*
X82240000Y-85757000I-100000J0D01*
G01*
X80965000Y-85757000D01*
G75*
G02*
X80865000Y-85657000I0J100000D01*
G01*
X80865000Y-85457000D01*
G75*
G02*
X80965000Y-85357000I100000J0D01*
G01*
X82240000Y-85357000D01*
G75*
G02*
X82340000Y-85457000I0J-100000D01*
G01*
G37*
G36*
G01*
X82340000Y-86107000D02*
X82340000Y-86307000D01*
G75*
G02*
X82240000Y-86407000I-100000J0D01*
G01*
X80965000Y-86407000D01*
G75*
G02*
X80865000Y-86307000I0J100000D01*
G01*
X80865000Y-86107000D01*
G75*
G02*
X80965000Y-86007000I100000J0D01*
G01*
X82240000Y-86007000D01*
G75*
G02*
X82340000Y-86107000I0J-100000D01*
G01*
G37*
G36*
G01*
X82340000Y-86757000D02*
X82340000Y-86957000D01*
G75*
G02*
X82240000Y-87057000I-100000J0D01*
G01*
X80965000Y-87057000D01*
G75*
G02*
X80865000Y-86957000I0J100000D01*
G01*
X80865000Y-86757000D01*
G75*
G02*
X80965000Y-86657000I100000J0D01*
G01*
X82240000Y-86657000D01*
G75*
G02*
X82340000Y-86757000I0J-100000D01*
G01*
G37*
%TD*%
%TO.C,U401*%
G36*
G01*
X79525000Y-75970000D02*
X79225000Y-75970000D01*
G75*
G02*
X79075000Y-75820000I0J150000D01*
G01*
X79075000Y-74170000D01*
G75*
G02*
X79225000Y-74020000I150000J0D01*
G01*
X79525000Y-74020000D01*
G75*
G02*
X79675000Y-74170000I0J-150000D01*
G01*
X79675000Y-75820000D01*
G75*
G02*
X79525000Y-75970000I-150000J0D01*
G01*
G37*
G36*
G01*
X80795000Y-75970000D02*
X80495000Y-75970000D01*
G75*
G02*
X80345000Y-75820000I0J150000D01*
G01*
X80345000Y-74170000D01*
G75*
G02*
X80495000Y-74020000I150000J0D01*
G01*
X80795000Y-74020000D01*
G75*
G02*
X80945000Y-74170000I0J-150000D01*
G01*
X80945000Y-75820000D01*
G75*
G02*
X80795000Y-75970000I-150000J0D01*
G01*
G37*
G36*
G01*
X82065000Y-75970000D02*
X81765000Y-75970000D01*
G75*
G02*
X81615000Y-75820000I0J150000D01*
G01*
X81615000Y-74170000D01*
G75*
G02*
X81765000Y-74020000I150000J0D01*
G01*
X82065000Y-74020000D01*
G75*
G02*
X82215000Y-74170000I0J-150000D01*
G01*
X82215000Y-75820000D01*
G75*
G02*
X82065000Y-75970000I-150000J0D01*
G01*
G37*
G36*
G01*
X83335000Y-75970000D02*
X83035000Y-75970000D01*
G75*
G02*
X82885000Y-75820000I0J150000D01*
G01*
X82885000Y-74170000D01*
G75*
G02*
X83035000Y-74020000I150000J0D01*
G01*
X83335000Y-74020000D01*
G75*
G02*
X83485000Y-74170000I0J-150000D01*
G01*
X83485000Y-75820000D01*
G75*
G02*
X83335000Y-75970000I-150000J0D01*
G01*
G37*
G36*
G01*
X84605000Y-75970000D02*
X84305000Y-75970000D01*
G75*
G02*
X84155000Y-75820000I0J150000D01*
G01*
X84155000Y-74170000D01*
G75*
G02*
X84305000Y-74020000I150000J0D01*
G01*
X84605000Y-74020000D01*
G75*
G02*
X84755000Y-74170000I0J-150000D01*
G01*
X84755000Y-75820000D01*
G75*
G02*
X84605000Y-75970000I-150000J0D01*
G01*
G37*
G36*
G01*
X85875000Y-75970000D02*
X85575000Y-75970000D01*
G75*
G02*
X85425000Y-75820000I0J150000D01*
G01*
X85425000Y-74170000D01*
G75*
G02*
X85575000Y-74020000I150000J0D01*
G01*
X85875000Y-74020000D01*
G75*
G02*
X86025000Y-74170000I0J-150000D01*
G01*
X86025000Y-75820000D01*
G75*
G02*
X85875000Y-75970000I-150000J0D01*
G01*
G37*
G36*
G01*
X87145000Y-75970000D02*
X86845000Y-75970000D01*
G75*
G02*
X86695000Y-75820000I0J150000D01*
G01*
X86695000Y-74170000D01*
G75*
G02*
X86845000Y-74020000I150000J0D01*
G01*
X87145000Y-74020000D01*
G75*
G02*
X87295000Y-74170000I0J-150000D01*
G01*
X87295000Y-75820000D01*
G75*
G02*
X87145000Y-75970000I-150000J0D01*
G01*
G37*
G36*
G01*
X88415000Y-75970000D02*
X88115000Y-75970000D01*
G75*
G02*
X87965000Y-75820000I0J150000D01*
G01*
X87965000Y-74170000D01*
G75*
G02*
X88115000Y-74020000I150000J0D01*
G01*
X88415000Y-74020000D01*
G75*
G02*
X88565000Y-74170000I0J-150000D01*
G01*
X88565000Y-75820000D01*
G75*
G02*
X88415000Y-75970000I-150000J0D01*
G01*
G37*
G36*
G01*
X88415000Y-80920000D02*
X88115000Y-80920000D01*
G75*
G02*
X87965000Y-80770000I0J150000D01*
G01*
X87965000Y-79120000D01*
G75*
G02*
X88115000Y-78970000I150000J0D01*
G01*
X88415000Y-78970000D01*
G75*
G02*
X88565000Y-79120000I0J-150000D01*
G01*
X88565000Y-80770000D01*
G75*
G02*
X88415000Y-80920000I-150000J0D01*
G01*
G37*
G36*
G01*
X87145000Y-80920000D02*
X86845000Y-80920000D01*
G75*
G02*
X86695000Y-80770000I0J150000D01*
G01*
X86695000Y-79120000D01*
G75*
G02*
X86845000Y-78970000I150000J0D01*
G01*
X87145000Y-78970000D01*
G75*
G02*
X87295000Y-79120000I0J-150000D01*
G01*
X87295000Y-80770000D01*
G75*
G02*
X87145000Y-80920000I-150000J0D01*
G01*
G37*
G36*
G01*
X85875000Y-80920000D02*
X85575000Y-80920000D01*
G75*
G02*
X85425000Y-80770000I0J150000D01*
G01*
X85425000Y-79120000D01*
G75*
G02*
X85575000Y-78970000I150000J0D01*
G01*
X85875000Y-78970000D01*
G75*
G02*
X86025000Y-79120000I0J-150000D01*
G01*
X86025000Y-80770000D01*
G75*
G02*
X85875000Y-80920000I-150000J0D01*
G01*
G37*
G36*
G01*
X84605000Y-80920000D02*
X84305000Y-80920000D01*
G75*
G02*
X84155000Y-80770000I0J150000D01*
G01*
X84155000Y-79120000D01*
G75*
G02*
X84305000Y-78970000I150000J0D01*
G01*
X84605000Y-78970000D01*
G75*
G02*
X84755000Y-79120000I0J-150000D01*
G01*
X84755000Y-80770000D01*
G75*
G02*
X84605000Y-80920000I-150000J0D01*
G01*
G37*
G36*
G01*
X83335000Y-80920000D02*
X83035000Y-80920000D01*
G75*
G02*
X82885000Y-80770000I0J150000D01*
G01*
X82885000Y-79120000D01*
G75*
G02*
X83035000Y-78970000I150000J0D01*
G01*
X83335000Y-78970000D01*
G75*
G02*
X83485000Y-79120000I0J-150000D01*
G01*
X83485000Y-80770000D01*
G75*
G02*
X83335000Y-80920000I-150000J0D01*
G01*
G37*
G36*
G01*
X82065000Y-80920000D02*
X81765000Y-80920000D01*
G75*
G02*
X81615000Y-80770000I0J150000D01*
G01*
X81615000Y-79120000D01*
G75*
G02*
X81765000Y-78970000I150000J0D01*
G01*
X82065000Y-78970000D01*
G75*
G02*
X82215000Y-79120000I0J-150000D01*
G01*
X82215000Y-80770000D01*
G75*
G02*
X82065000Y-80920000I-150000J0D01*
G01*
G37*
G36*
G01*
X80795000Y-80920000D02*
X80495000Y-80920000D01*
G75*
G02*
X80345000Y-80770000I0J150000D01*
G01*
X80345000Y-79120000D01*
G75*
G02*
X80495000Y-78970000I150000J0D01*
G01*
X80795000Y-78970000D01*
G75*
G02*
X80945000Y-79120000I0J-150000D01*
G01*
X80945000Y-80770000D01*
G75*
G02*
X80795000Y-80920000I-150000J0D01*
G01*
G37*
G36*
G01*
X79525000Y-80920000D02*
X79225000Y-80920000D01*
G75*
G02*
X79075000Y-80770000I0J150000D01*
G01*
X79075000Y-79120000D01*
G75*
G02*
X79225000Y-78970000I150000J0D01*
G01*
X79525000Y-78970000D01*
G75*
G02*
X79675000Y-79120000I0J-150000D01*
G01*
X79675000Y-80770000D01*
G75*
G02*
X79525000Y-80920000I-150000J0D01*
G01*
G37*
%TD*%
%TO.C,U301*%
G36*
G01*
X64443000Y-57063000D02*
X64443000Y-56913000D01*
G75*
G02*
X64518000Y-56838000I75000J0D01*
G01*
X65843000Y-56838000D01*
G75*
G02*
X65918000Y-56913000I0J-75000D01*
G01*
X65918000Y-57063000D01*
G75*
G02*
X65843000Y-57138000I-75000J0D01*
G01*
X64518000Y-57138000D01*
G75*
G02*
X64443000Y-57063000I0J75000D01*
G01*
G37*
G36*
G01*
X64443000Y-57563000D02*
X64443000Y-57413000D01*
G75*
G02*
X64518000Y-57338000I75000J0D01*
G01*
X65843000Y-57338000D01*
G75*
G02*
X65918000Y-57413000I0J-75000D01*
G01*
X65918000Y-57563000D01*
G75*
G02*
X65843000Y-57638000I-75000J0D01*
G01*
X64518000Y-57638000D01*
G75*
G02*
X64443000Y-57563000I0J75000D01*
G01*
G37*
G36*
G01*
X64443000Y-58063000D02*
X64443000Y-57913000D01*
G75*
G02*
X64518000Y-57838000I75000J0D01*
G01*
X65843000Y-57838000D01*
G75*
G02*
X65918000Y-57913000I0J-75000D01*
G01*
X65918000Y-58063000D01*
G75*
G02*
X65843000Y-58138000I-75000J0D01*
G01*
X64518000Y-58138000D01*
G75*
G02*
X64443000Y-58063000I0J75000D01*
G01*
G37*
G36*
G01*
X64443000Y-58563000D02*
X64443000Y-58413000D01*
G75*
G02*
X64518000Y-58338000I75000J0D01*
G01*
X65843000Y-58338000D01*
G75*
G02*
X65918000Y-58413000I0J-75000D01*
G01*
X65918000Y-58563000D01*
G75*
G02*
X65843000Y-58638000I-75000J0D01*
G01*
X64518000Y-58638000D01*
G75*
G02*
X64443000Y-58563000I0J75000D01*
G01*
G37*
G36*
G01*
X64443000Y-59063000D02*
X64443000Y-58913000D01*
G75*
G02*
X64518000Y-58838000I75000J0D01*
G01*
X65843000Y-58838000D01*
G75*
G02*
X65918000Y-58913000I0J-75000D01*
G01*
X65918000Y-59063000D01*
G75*
G02*
X65843000Y-59138000I-75000J0D01*
G01*
X64518000Y-59138000D01*
G75*
G02*
X64443000Y-59063000I0J75000D01*
G01*
G37*
G36*
G01*
X64443000Y-59563000D02*
X64443000Y-59413000D01*
G75*
G02*
X64518000Y-59338000I75000J0D01*
G01*
X65843000Y-59338000D01*
G75*
G02*
X65918000Y-59413000I0J-75000D01*
G01*
X65918000Y-59563000D01*
G75*
G02*
X65843000Y-59638000I-75000J0D01*
G01*
X64518000Y-59638000D01*
G75*
G02*
X64443000Y-59563000I0J75000D01*
G01*
G37*
G36*
G01*
X64443000Y-60063000D02*
X64443000Y-59913000D01*
G75*
G02*
X64518000Y-59838000I75000J0D01*
G01*
X65843000Y-59838000D01*
G75*
G02*
X65918000Y-59913000I0J-75000D01*
G01*
X65918000Y-60063000D01*
G75*
G02*
X65843000Y-60138000I-75000J0D01*
G01*
X64518000Y-60138000D01*
G75*
G02*
X64443000Y-60063000I0J75000D01*
G01*
G37*
G36*
G01*
X64443000Y-60563000D02*
X64443000Y-60413000D01*
G75*
G02*
X64518000Y-60338000I75000J0D01*
G01*
X65843000Y-60338000D01*
G75*
G02*
X65918000Y-60413000I0J-75000D01*
G01*
X65918000Y-60563000D01*
G75*
G02*
X65843000Y-60638000I-75000J0D01*
G01*
X64518000Y-60638000D01*
G75*
G02*
X64443000Y-60563000I0J75000D01*
G01*
G37*
G36*
G01*
X64443000Y-61063000D02*
X64443000Y-60913000D01*
G75*
G02*
X64518000Y-60838000I75000J0D01*
G01*
X65843000Y-60838000D01*
G75*
G02*
X65918000Y-60913000I0J-75000D01*
G01*
X65918000Y-61063000D01*
G75*
G02*
X65843000Y-61138000I-75000J0D01*
G01*
X64518000Y-61138000D01*
G75*
G02*
X64443000Y-61063000I0J75000D01*
G01*
G37*
G36*
G01*
X64443000Y-61563000D02*
X64443000Y-61413000D01*
G75*
G02*
X64518000Y-61338000I75000J0D01*
G01*
X65843000Y-61338000D01*
G75*
G02*
X65918000Y-61413000I0J-75000D01*
G01*
X65918000Y-61563000D01*
G75*
G02*
X65843000Y-61638000I-75000J0D01*
G01*
X64518000Y-61638000D01*
G75*
G02*
X64443000Y-61563000I0J75000D01*
G01*
G37*
G36*
G01*
X64443000Y-62063000D02*
X64443000Y-61913000D01*
G75*
G02*
X64518000Y-61838000I75000J0D01*
G01*
X65843000Y-61838000D01*
G75*
G02*
X65918000Y-61913000I0J-75000D01*
G01*
X65918000Y-62063000D01*
G75*
G02*
X65843000Y-62138000I-75000J0D01*
G01*
X64518000Y-62138000D01*
G75*
G02*
X64443000Y-62063000I0J75000D01*
G01*
G37*
G36*
G01*
X64443000Y-62563000D02*
X64443000Y-62413000D01*
G75*
G02*
X64518000Y-62338000I75000J0D01*
G01*
X65843000Y-62338000D01*
G75*
G02*
X65918000Y-62413000I0J-75000D01*
G01*
X65918000Y-62563000D01*
G75*
G02*
X65843000Y-62638000I-75000J0D01*
G01*
X64518000Y-62638000D01*
G75*
G02*
X64443000Y-62563000I0J75000D01*
G01*
G37*
G36*
G01*
X64443000Y-63063000D02*
X64443000Y-62913000D01*
G75*
G02*
X64518000Y-62838000I75000J0D01*
G01*
X65843000Y-62838000D01*
G75*
G02*
X65918000Y-62913000I0J-75000D01*
G01*
X65918000Y-63063000D01*
G75*
G02*
X65843000Y-63138000I-75000J0D01*
G01*
X64518000Y-63138000D01*
G75*
G02*
X64443000Y-63063000I0J75000D01*
G01*
G37*
G36*
G01*
X64443000Y-63563000D02*
X64443000Y-63413000D01*
G75*
G02*
X64518000Y-63338000I75000J0D01*
G01*
X65843000Y-63338000D01*
G75*
G02*
X65918000Y-63413000I0J-75000D01*
G01*
X65918000Y-63563000D01*
G75*
G02*
X65843000Y-63638000I-75000J0D01*
G01*
X64518000Y-63638000D01*
G75*
G02*
X64443000Y-63563000I0J75000D01*
G01*
G37*
G36*
G01*
X64443000Y-64063000D02*
X64443000Y-63913000D01*
G75*
G02*
X64518000Y-63838000I75000J0D01*
G01*
X65843000Y-63838000D01*
G75*
G02*
X65918000Y-63913000I0J-75000D01*
G01*
X65918000Y-64063000D01*
G75*
G02*
X65843000Y-64138000I-75000J0D01*
G01*
X64518000Y-64138000D01*
G75*
G02*
X64443000Y-64063000I0J75000D01*
G01*
G37*
G36*
G01*
X64443000Y-64563000D02*
X64443000Y-64413000D01*
G75*
G02*
X64518000Y-64338000I75000J0D01*
G01*
X65843000Y-64338000D01*
G75*
G02*
X65918000Y-64413000I0J-75000D01*
G01*
X65918000Y-64563000D01*
G75*
G02*
X65843000Y-64638000I-75000J0D01*
G01*
X64518000Y-64638000D01*
G75*
G02*
X64443000Y-64563000I0J75000D01*
G01*
G37*
G36*
G01*
X64443000Y-65063000D02*
X64443000Y-64913000D01*
G75*
G02*
X64518000Y-64838000I75000J0D01*
G01*
X65843000Y-64838000D01*
G75*
G02*
X65918000Y-64913000I0J-75000D01*
G01*
X65918000Y-65063000D01*
G75*
G02*
X65843000Y-65138000I-75000J0D01*
G01*
X64518000Y-65138000D01*
G75*
G02*
X64443000Y-65063000I0J75000D01*
G01*
G37*
G36*
G01*
X64443000Y-65563000D02*
X64443000Y-65413000D01*
G75*
G02*
X64518000Y-65338000I75000J0D01*
G01*
X65843000Y-65338000D01*
G75*
G02*
X65918000Y-65413000I0J-75000D01*
G01*
X65918000Y-65563000D01*
G75*
G02*
X65843000Y-65638000I-75000J0D01*
G01*
X64518000Y-65638000D01*
G75*
G02*
X64443000Y-65563000I0J75000D01*
G01*
G37*
G36*
G01*
X64443000Y-66063000D02*
X64443000Y-65913000D01*
G75*
G02*
X64518000Y-65838000I75000J0D01*
G01*
X65843000Y-65838000D01*
G75*
G02*
X65918000Y-65913000I0J-75000D01*
G01*
X65918000Y-66063000D01*
G75*
G02*
X65843000Y-66138000I-75000J0D01*
G01*
X64518000Y-66138000D01*
G75*
G02*
X64443000Y-66063000I0J75000D01*
G01*
G37*
G36*
G01*
X64443000Y-66563000D02*
X64443000Y-66413000D01*
G75*
G02*
X64518000Y-66338000I75000J0D01*
G01*
X65843000Y-66338000D01*
G75*
G02*
X65918000Y-66413000I0J-75000D01*
G01*
X65918000Y-66563000D01*
G75*
G02*
X65843000Y-66638000I-75000J0D01*
G01*
X64518000Y-66638000D01*
G75*
G02*
X64443000Y-66563000I0J75000D01*
G01*
G37*
G36*
G01*
X64443000Y-67063000D02*
X64443000Y-66913000D01*
G75*
G02*
X64518000Y-66838000I75000J0D01*
G01*
X65843000Y-66838000D01*
G75*
G02*
X65918000Y-66913000I0J-75000D01*
G01*
X65918000Y-67063000D01*
G75*
G02*
X65843000Y-67138000I-75000J0D01*
G01*
X64518000Y-67138000D01*
G75*
G02*
X64443000Y-67063000I0J75000D01*
G01*
G37*
G36*
G01*
X64443000Y-67563000D02*
X64443000Y-67413000D01*
G75*
G02*
X64518000Y-67338000I75000J0D01*
G01*
X65843000Y-67338000D01*
G75*
G02*
X65918000Y-67413000I0J-75000D01*
G01*
X65918000Y-67563000D01*
G75*
G02*
X65843000Y-67638000I-75000J0D01*
G01*
X64518000Y-67638000D01*
G75*
G02*
X64443000Y-67563000I0J75000D01*
G01*
G37*
G36*
G01*
X64443000Y-68063000D02*
X64443000Y-67913000D01*
G75*
G02*
X64518000Y-67838000I75000J0D01*
G01*
X65843000Y-67838000D01*
G75*
G02*
X65918000Y-67913000I0J-75000D01*
G01*
X65918000Y-68063000D01*
G75*
G02*
X65843000Y-68138000I-75000J0D01*
G01*
X64518000Y-68138000D01*
G75*
G02*
X64443000Y-68063000I0J75000D01*
G01*
G37*
G36*
G01*
X64443000Y-68563000D02*
X64443000Y-68413000D01*
G75*
G02*
X64518000Y-68338000I75000J0D01*
G01*
X65843000Y-68338000D01*
G75*
G02*
X65918000Y-68413000I0J-75000D01*
G01*
X65918000Y-68563000D01*
G75*
G02*
X65843000Y-68638000I-75000J0D01*
G01*
X64518000Y-68638000D01*
G75*
G02*
X64443000Y-68563000I0J75000D01*
G01*
G37*
G36*
G01*
X57018000Y-68563000D02*
X57018000Y-68413000D01*
G75*
G02*
X57093000Y-68338000I75000J0D01*
G01*
X58418000Y-68338000D01*
G75*
G02*
X58493000Y-68413000I0J-75000D01*
G01*
X58493000Y-68563000D01*
G75*
G02*
X58418000Y-68638000I-75000J0D01*
G01*
X57093000Y-68638000D01*
G75*
G02*
X57018000Y-68563000I0J75000D01*
G01*
G37*
G36*
G01*
X57018000Y-68063000D02*
X57018000Y-67913000D01*
G75*
G02*
X57093000Y-67838000I75000J0D01*
G01*
X58418000Y-67838000D01*
G75*
G02*
X58493000Y-67913000I0J-75000D01*
G01*
X58493000Y-68063000D01*
G75*
G02*
X58418000Y-68138000I-75000J0D01*
G01*
X57093000Y-68138000D01*
G75*
G02*
X57018000Y-68063000I0J75000D01*
G01*
G37*
G36*
G01*
X57018000Y-67563000D02*
X57018000Y-67413000D01*
G75*
G02*
X57093000Y-67338000I75000J0D01*
G01*
X58418000Y-67338000D01*
G75*
G02*
X58493000Y-67413000I0J-75000D01*
G01*
X58493000Y-67563000D01*
G75*
G02*
X58418000Y-67638000I-75000J0D01*
G01*
X57093000Y-67638000D01*
G75*
G02*
X57018000Y-67563000I0J75000D01*
G01*
G37*
G36*
G01*
X57018000Y-67063000D02*
X57018000Y-66913000D01*
G75*
G02*
X57093000Y-66838000I75000J0D01*
G01*
X58418000Y-66838000D01*
G75*
G02*
X58493000Y-66913000I0J-75000D01*
G01*
X58493000Y-67063000D01*
G75*
G02*
X58418000Y-67138000I-75000J0D01*
G01*
X57093000Y-67138000D01*
G75*
G02*
X57018000Y-67063000I0J75000D01*
G01*
G37*
G36*
G01*
X57018000Y-66563000D02*
X57018000Y-66413000D01*
G75*
G02*
X57093000Y-66338000I75000J0D01*
G01*
X58418000Y-66338000D01*
G75*
G02*
X58493000Y-66413000I0J-75000D01*
G01*
X58493000Y-66563000D01*
G75*
G02*
X58418000Y-66638000I-75000J0D01*
G01*
X57093000Y-66638000D01*
G75*
G02*
X57018000Y-66563000I0J75000D01*
G01*
G37*
G36*
G01*
X57018000Y-66063000D02*
X57018000Y-65913000D01*
G75*
G02*
X57093000Y-65838000I75000J0D01*
G01*
X58418000Y-65838000D01*
G75*
G02*
X58493000Y-65913000I0J-75000D01*
G01*
X58493000Y-66063000D01*
G75*
G02*
X58418000Y-66138000I-75000J0D01*
G01*
X57093000Y-66138000D01*
G75*
G02*
X57018000Y-66063000I0J75000D01*
G01*
G37*
G36*
G01*
X57018000Y-65563000D02*
X57018000Y-65413000D01*
G75*
G02*
X57093000Y-65338000I75000J0D01*
G01*
X58418000Y-65338000D01*
G75*
G02*
X58493000Y-65413000I0J-75000D01*
G01*
X58493000Y-65563000D01*
G75*
G02*
X58418000Y-65638000I-75000J0D01*
G01*
X57093000Y-65638000D01*
G75*
G02*
X57018000Y-65563000I0J75000D01*
G01*
G37*
G36*
G01*
X57018000Y-65063000D02*
X57018000Y-64913000D01*
G75*
G02*
X57093000Y-64838000I75000J0D01*
G01*
X58418000Y-64838000D01*
G75*
G02*
X58493000Y-64913000I0J-75000D01*
G01*
X58493000Y-65063000D01*
G75*
G02*
X58418000Y-65138000I-75000J0D01*
G01*
X57093000Y-65138000D01*
G75*
G02*
X57018000Y-65063000I0J75000D01*
G01*
G37*
G36*
G01*
X57018000Y-64563000D02*
X57018000Y-64413000D01*
G75*
G02*
X57093000Y-64338000I75000J0D01*
G01*
X58418000Y-64338000D01*
G75*
G02*
X58493000Y-64413000I0J-75000D01*
G01*
X58493000Y-64563000D01*
G75*
G02*
X58418000Y-64638000I-75000J0D01*
G01*
X57093000Y-64638000D01*
G75*
G02*
X57018000Y-64563000I0J75000D01*
G01*
G37*
G36*
G01*
X57018000Y-64063000D02*
X57018000Y-63913000D01*
G75*
G02*
X57093000Y-63838000I75000J0D01*
G01*
X58418000Y-63838000D01*
G75*
G02*
X58493000Y-63913000I0J-75000D01*
G01*
X58493000Y-64063000D01*
G75*
G02*
X58418000Y-64138000I-75000J0D01*
G01*
X57093000Y-64138000D01*
G75*
G02*
X57018000Y-64063000I0J75000D01*
G01*
G37*
G36*
G01*
X57018000Y-63563000D02*
X57018000Y-63413000D01*
G75*
G02*
X57093000Y-63338000I75000J0D01*
G01*
X58418000Y-63338000D01*
G75*
G02*
X58493000Y-63413000I0J-75000D01*
G01*
X58493000Y-63563000D01*
G75*
G02*
X58418000Y-63638000I-75000J0D01*
G01*
X57093000Y-63638000D01*
G75*
G02*
X57018000Y-63563000I0J75000D01*
G01*
G37*
G36*
G01*
X57018000Y-63063000D02*
X57018000Y-62913000D01*
G75*
G02*
X57093000Y-62838000I75000J0D01*
G01*
X58418000Y-62838000D01*
G75*
G02*
X58493000Y-62913000I0J-75000D01*
G01*
X58493000Y-63063000D01*
G75*
G02*
X58418000Y-63138000I-75000J0D01*
G01*
X57093000Y-63138000D01*
G75*
G02*
X57018000Y-63063000I0J75000D01*
G01*
G37*
G36*
G01*
X57018000Y-62563000D02*
X57018000Y-62413000D01*
G75*
G02*
X57093000Y-62338000I75000J0D01*
G01*
X58418000Y-62338000D01*
G75*
G02*
X58493000Y-62413000I0J-75000D01*
G01*
X58493000Y-62563000D01*
G75*
G02*
X58418000Y-62638000I-75000J0D01*
G01*
X57093000Y-62638000D01*
G75*
G02*
X57018000Y-62563000I0J75000D01*
G01*
G37*
G36*
G01*
X57018000Y-62063000D02*
X57018000Y-61913000D01*
G75*
G02*
X57093000Y-61838000I75000J0D01*
G01*
X58418000Y-61838000D01*
G75*
G02*
X58493000Y-61913000I0J-75000D01*
G01*
X58493000Y-62063000D01*
G75*
G02*
X58418000Y-62138000I-75000J0D01*
G01*
X57093000Y-62138000D01*
G75*
G02*
X57018000Y-62063000I0J75000D01*
G01*
G37*
G36*
G01*
X57018000Y-61563000D02*
X57018000Y-61413000D01*
G75*
G02*
X57093000Y-61338000I75000J0D01*
G01*
X58418000Y-61338000D01*
G75*
G02*
X58493000Y-61413000I0J-75000D01*
G01*
X58493000Y-61563000D01*
G75*
G02*
X58418000Y-61638000I-75000J0D01*
G01*
X57093000Y-61638000D01*
G75*
G02*
X57018000Y-61563000I0J75000D01*
G01*
G37*
G36*
G01*
X57018000Y-61063000D02*
X57018000Y-60913000D01*
G75*
G02*
X57093000Y-60838000I75000J0D01*
G01*
X58418000Y-60838000D01*
G75*
G02*
X58493000Y-60913000I0J-75000D01*
G01*
X58493000Y-61063000D01*
G75*
G02*
X58418000Y-61138000I-75000J0D01*
G01*
X57093000Y-61138000D01*
G75*
G02*
X57018000Y-61063000I0J75000D01*
G01*
G37*
G36*
G01*
X57018000Y-60563000D02*
X57018000Y-60413000D01*
G75*
G02*
X57093000Y-60338000I75000J0D01*
G01*
X58418000Y-60338000D01*
G75*
G02*
X58493000Y-60413000I0J-75000D01*
G01*
X58493000Y-60563000D01*
G75*
G02*
X58418000Y-60638000I-75000J0D01*
G01*
X57093000Y-60638000D01*
G75*
G02*
X57018000Y-60563000I0J75000D01*
G01*
G37*
G36*
G01*
X57018000Y-60063000D02*
X57018000Y-59913000D01*
G75*
G02*
X57093000Y-59838000I75000J0D01*
G01*
X58418000Y-59838000D01*
G75*
G02*
X58493000Y-59913000I0J-75000D01*
G01*
X58493000Y-60063000D01*
G75*
G02*
X58418000Y-60138000I-75000J0D01*
G01*
X57093000Y-60138000D01*
G75*
G02*
X57018000Y-60063000I0J75000D01*
G01*
G37*
G36*
G01*
X57018000Y-59563000D02*
X57018000Y-59413000D01*
G75*
G02*
X57093000Y-59338000I75000J0D01*
G01*
X58418000Y-59338000D01*
G75*
G02*
X58493000Y-59413000I0J-75000D01*
G01*
X58493000Y-59563000D01*
G75*
G02*
X58418000Y-59638000I-75000J0D01*
G01*
X57093000Y-59638000D01*
G75*
G02*
X57018000Y-59563000I0J75000D01*
G01*
G37*
G36*
G01*
X57018000Y-59063000D02*
X57018000Y-58913000D01*
G75*
G02*
X57093000Y-58838000I75000J0D01*
G01*
X58418000Y-58838000D01*
G75*
G02*
X58493000Y-58913000I0J-75000D01*
G01*
X58493000Y-59063000D01*
G75*
G02*
X58418000Y-59138000I-75000J0D01*
G01*
X57093000Y-59138000D01*
G75*
G02*
X57018000Y-59063000I0J75000D01*
G01*
G37*
G36*
G01*
X57018000Y-58563000D02*
X57018000Y-58413000D01*
G75*
G02*
X57093000Y-58338000I75000J0D01*
G01*
X58418000Y-58338000D01*
G75*
G02*
X58493000Y-58413000I0J-75000D01*
G01*
X58493000Y-58563000D01*
G75*
G02*
X58418000Y-58638000I-75000J0D01*
G01*
X57093000Y-58638000D01*
G75*
G02*
X57018000Y-58563000I0J75000D01*
G01*
G37*
G36*
G01*
X57018000Y-58063000D02*
X57018000Y-57913000D01*
G75*
G02*
X57093000Y-57838000I75000J0D01*
G01*
X58418000Y-57838000D01*
G75*
G02*
X58493000Y-57913000I0J-75000D01*
G01*
X58493000Y-58063000D01*
G75*
G02*
X58418000Y-58138000I-75000J0D01*
G01*
X57093000Y-58138000D01*
G75*
G02*
X57018000Y-58063000I0J75000D01*
G01*
G37*
G36*
G01*
X57018000Y-57563000D02*
X57018000Y-57413000D01*
G75*
G02*
X57093000Y-57338000I75000J0D01*
G01*
X58418000Y-57338000D01*
G75*
G02*
X58493000Y-57413000I0J-75000D01*
G01*
X58493000Y-57563000D01*
G75*
G02*
X58418000Y-57638000I-75000J0D01*
G01*
X57093000Y-57638000D01*
G75*
G02*
X57018000Y-57563000I0J75000D01*
G01*
G37*
G36*
G01*
X57018000Y-57063000D02*
X57018000Y-56913000D01*
G75*
G02*
X57093000Y-56838000I75000J0D01*
G01*
X58418000Y-56838000D01*
G75*
G02*
X58493000Y-56913000I0J-75000D01*
G01*
X58493000Y-57063000D01*
G75*
G02*
X58418000Y-57138000I-75000J0D01*
G01*
X57093000Y-57138000D01*
G75*
G02*
X57018000Y-57063000I0J75000D01*
G01*
G37*
%TD*%
%TO.C,U202*%
G36*
G01*
X129664000Y-118171000D02*
X129664000Y-117871000D01*
G75*
G02*
X129814000Y-117721000I150000J0D01*
G01*
X131464000Y-117721000D01*
G75*
G02*
X131614000Y-117871000I0J-150000D01*
G01*
X131614000Y-118171000D01*
G75*
G02*
X131464000Y-118321000I-150000J0D01*
G01*
X129814000Y-118321000D01*
G75*
G02*
X129664000Y-118171000I0J150000D01*
G01*
G37*
G36*
G01*
X129664000Y-119441000D02*
X129664000Y-119141000D01*
G75*
G02*
X129814000Y-118991000I150000J0D01*
G01*
X131464000Y-118991000D01*
G75*
G02*
X131614000Y-119141000I0J-150000D01*
G01*
X131614000Y-119441000D01*
G75*
G02*
X131464000Y-119591000I-150000J0D01*
G01*
X129814000Y-119591000D01*
G75*
G02*
X129664000Y-119441000I0J150000D01*
G01*
G37*
G36*
G01*
X129664000Y-120711000D02*
X129664000Y-120411000D01*
G75*
G02*
X129814000Y-120261000I150000J0D01*
G01*
X131464000Y-120261000D01*
G75*
G02*
X131614000Y-120411000I0J-150000D01*
G01*
X131614000Y-120711000D01*
G75*
G02*
X131464000Y-120861000I-150000J0D01*
G01*
X129814000Y-120861000D01*
G75*
G02*
X129664000Y-120711000I0J150000D01*
G01*
G37*
G36*
G01*
X129664000Y-121981000D02*
X129664000Y-121681000D01*
G75*
G02*
X129814000Y-121531000I150000J0D01*
G01*
X131464000Y-121531000D01*
G75*
G02*
X131614000Y-121681000I0J-150000D01*
G01*
X131614000Y-121981000D01*
G75*
G02*
X131464000Y-122131000I-150000J0D01*
G01*
X129814000Y-122131000D01*
G75*
G02*
X129664000Y-121981000I0J150000D01*
G01*
G37*
G36*
G01*
X124714000Y-121981000D02*
X124714000Y-121681000D01*
G75*
G02*
X124864000Y-121531000I150000J0D01*
G01*
X126514000Y-121531000D01*
G75*
G02*
X126664000Y-121681000I0J-150000D01*
G01*
X126664000Y-121981000D01*
G75*
G02*
X126514000Y-122131000I-150000J0D01*
G01*
X124864000Y-122131000D01*
G75*
G02*
X124714000Y-121981000I0J150000D01*
G01*
G37*
G36*
G01*
X124714000Y-120711000D02*
X124714000Y-120411000D01*
G75*
G02*
X124864000Y-120261000I150000J0D01*
G01*
X126514000Y-120261000D01*
G75*
G02*
X126664000Y-120411000I0J-150000D01*
G01*
X126664000Y-120711000D01*
G75*
G02*
X126514000Y-120861000I-150000J0D01*
G01*
X124864000Y-120861000D01*
G75*
G02*
X124714000Y-120711000I0J150000D01*
G01*
G37*
G36*
G01*
X124714000Y-119441000D02*
X124714000Y-119141000D01*
G75*
G02*
X124864000Y-118991000I150000J0D01*
G01*
X126514000Y-118991000D01*
G75*
G02*
X126664000Y-119141000I0J-150000D01*
G01*
X126664000Y-119441000D01*
G75*
G02*
X126514000Y-119591000I-150000J0D01*
G01*
X124864000Y-119591000D01*
G75*
G02*
X124714000Y-119441000I0J150000D01*
G01*
G37*
G36*
G01*
X124714000Y-118171000D02*
X124714000Y-117871000D01*
G75*
G02*
X124864000Y-117721000I150000J0D01*
G01*
X126514000Y-117721000D01*
G75*
G02*
X126664000Y-117871000I0J-150000D01*
G01*
X126664000Y-118171000D01*
G75*
G02*
X126514000Y-118321000I-150000J0D01*
G01*
X124864000Y-118321000D01*
G75*
G02*
X124714000Y-118171000I0J150000D01*
G01*
G37*
%TD*%
%TO.C,R702*%
G36*
G01*
X161194000Y-117599750D02*
X161194000Y-118112250D01*
G75*
G02*
X160975250Y-118331000I-218750J0D01*
G01*
X160537750Y-118331000D01*
G75*
G02*
X160319000Y-118112250I0J218750D01*
G01*
X160319000Y-117599750D01*
G75*
G02*
X160537750Y-117381000I218750J0D01*
G01*
X160975250Y-117381000D01*
G75*
G02*
X161194000Y-117599750I0J-218750D01*
G01*
G37*
G36*
G01*
X162769000Y-117599750D02*
X162769000Y-118112250D01*
G75*
G02*
X162550250Y-118331000I-218750J0D01*
G01*
X162112750Y-118331000D01*
G75*
G02*
X161894000Y-118112250I0J218750D01*
G01*
X161894000Y-117599750D01*
G75*
G02*
X162112750Y-117381000I218750J0D01*
G01*
X162550250Y-117381000D01*
G75*
G02*
X162769000Y-117599750I0J-218750D01*
G01*
G37*
%TD*%
%TO.C,R701*%
G36*
G01*
X161894000Y-119890250D02*
X161894000Y-119377750D01*
G75*
G02*
X162112750Y-119159000I218750J0D01*
G01*
X162550250Y-119159000D01*
G75*
G02*
X162769000Y-119377750I0J-218750D01*
G01*
X162769000Y-119890250D01*
G75*
G02*
X162550250Y-120109000I-218750J0D01*
G01*
X162112750Y-120109000D01*
G75*
G02*
X161894000Y-119890250I0J218750D01*
G01*
G37*
G36*
G01*
X160319000Y-119890250D02*
X160319000Y-119377750D01*
G75*
G02*
X160537750Y-119159000I218750J0D01*
G01*
X160975250Y-119159000D01*
G75*
G02*
X161194000Y-119377750I0J-218750D01*
G01*
X161194000Y-119890250D01*
G75*
G02*
X160975250Y-120109000I-218750J0D01*
G01*
X160537750Y-120109000D01*
G75*
G02*
X160319000Y-119890250I0J218750D01*
G01*
G37*
%TD*%
%TO.C,R603*%
G36*
G01*
X154688250Y-133762000D02*
X154175750Y-133762000D01*
G75*
G02*
X153957000Y-133543250I0J218750D01*
G01*
X153957000Y-133105750D01*
G75*
G02*
X154175750Y-132887000I218750J0D01*
G01*
X154688250Y-132887000D01*
G75*
G02*
X154907000Y-133105750I0J-218750D01*
G01*
X154907000Y-133543250D01*
G75*
G02*
X154688250Y-133762000I-218750J0D01*
G01*
G37*
G36*
G01*
X154688250Y-135337000D02*
X154175750Y-135337000D01*
G75*
G02*
X153957000Y-135118250I0J218750D01*
G01*
X153957000Y-134680750D01*
G75*
G02*
X154175750Y-134462000I218750J0D01*
G01*
X154688250Y-134462000D01*
G75*
G02*
X154907000Y-134680750I0J-218750D01*
G01*
X154907000Y-135118250D01*
G75*
G02*
X154688250Y-135337000I-218750J0D01*
G01*
G37*
%TD*%
%TO.C,R602*%
G36*
G01*
X152242000Y-133606250D02*
X152242000Y-133093750D01*
G75*
G02*
X152460750Y-132875000I218750J0D01*
G01*
X152898250Y-132875000D01*
G75*
G02*
X153117000Y-133093750I0J-218750D01*
G01*
X153117000Y-133606250D01*
G75*
G02*
X152898250Y-133825000I-218750J0D01*
G01*
X152460750Y-133825000D01*
G75*
G02*
X152242000Y-133606250I0J218750D01*
G01*
G37*
G36*
G01*
X150667000Y-133606250D02*
X150667000Y-133093750D01*
G75*
G02*
X150885750Y-132875000I218750J0D01*
G01*
X151323250Y-132875000D01*
G75*
G02*
X151542000Y-133093750I0J-218750D01*
G01*
X151542000Y-133606250D01*
G75*
G02*
X151323250Y-133825000I-218750J0D01*
G01*
X150885750Y-133825000D01*
G75*
G02*
X150667000Y-133606250I0J218750D01*
G01*
G37*
%TD*%
%TO.C,R601*%
G36*
G01*
X152242000Y-131828250D02*
X152242000Y-131315750D01*
G75*
G02*
X152460750Y-131097000I218750J0D01*
G01*
X152898250Y-131097000D01*
G75*
G02*
X153117000Y-131315750I0J-218750D01*
G01*
X153117000Y-131828250D01*
G75*
G02*
X152898250Y-132047000I-218750J0D01*
G01*
X152460750Y-132047000D01*
G75*
G02*
X152242000Y-131828250I0J218750D01*
G01*
G37*
G36*
G01*
X150667000Y-131828250D02*
X150667000Y-131315750D01*
G75*
G02*
X150885750Y-131097000I218750J0D01*
G01*
X151323250Y-131097000D01*
G75*
G02*
X151542000Y-131315750I0J-218750D01*
G01*
X151542000Y-131828250D01*
G75*
G02*
X151323250Y-132047000I-218750J0D01*
G01*
X150885750Y-132047000D01*
G75*
G02*
X150667000Y-131828250I0J218750D01*
G01*
G37*
%TD*%
%TO.C,R505*%
G36*
G01*
X87026000Y-133093750D02*
X87026000Y-133606250D01*
G75*
G02*
X86807250Y-133825000I-218750J0D01*
G01*
X86369750Y-133825000D01*
G75*
G02*
X86151000Y-133606250I0J218750D01*
G01*
X86151000Y-133093750D01*
G75*
G02*
X86369750Y-132875000I218750J0D01*
G01*
X86807250Y-132875000D01*
G75*
G02*
X87026000Y-133093750I0J-218750D01*
G01*
G37*
G36*
G01*
X88601000Y-133093750D02*
X88601000Y-133606250D01*
G75*
G02*
X88382250Y-133825000I-218750J0D01*
G01*
X87944750Y-133825000D01*
G75*
G02*
X87726000Y-133606250I0J218750D01*
G01*
X87726000Y-133093750D01*
G75*
G02*
X87944750Y-132875000I218750J0D01*
G01*
X88382250Y-132875000D01*
G75*
G02*
X88601000Y-133093750I0J-218750D01*
G01*
G37*
%TD*%
%TO.C,R504*%
G36*
G01*
X83871750Y-136340000D02*
X84784250Y-136340000D01*
G75*
G02*
X85028000Y-136583750I0J-243750D01*
G01*
X85028000Y-137071250D01*
G75*
G02*
X84784250Y-137315000I-243750J0D01*
G01*
X83871750Y-137315000D01*
G75*
G02*
X83628000Y-137071250I0J243750D01*
G01*
X83628000Y-136583750D01*
G75*
G02*
X83871750Y-136340000I243750J0D01*
G01*
G37*
G36*
G01*
X83871750Y-134465000D02*
X84784250Y-134465000D01*
G75*
G02*
X85028000Y-134708750I0J-243750D01*
G01*
X85028000Y-135196250D01*
G75*
G02*
X84784250Y-135440000I-243750J0D01*
G01*
X83871750Y-135440000D01*
G75*
G02*
X83628000Y-135196250I0J243750D01*
G01*
X83628000Y-134708750D01*
G75*
G02*
X83871750Y-134465000I243750J0D01*
G01*
G37*
%TD*%
%TO.C,R503*%
G36*
G01*
X86743250Y-136937000D02*
X86230750Y-136937000D01*
G75*
G02*
X86012000Y-136718250I0J218750D01*
G01*
X86012000Y-136280750D01*
G75*
G02*
X86230750Y-136062000I218750J0D01*
G01*
X86743250Y-136062000D01*
G75*
G02*
X86962000Y-136280750I0J-218750D01*
G01*
X86962000Y-136718250D01*
G75*
G02*
X86743250Y-136937000I-218750J0D01*
G01*
G37*
G36*
G01*
X86743250Y-138512000D02*
X86230750Y-138512000D01*
G75*
G02*
X86012000Y-138293250I0J218750D01*
G01*
X86012000Y-137855750D01*
G75*
G02*
X86230750Y-137637000I218750J0D01*
G01*
X86743250Y-137637000D01*
G75*
G02*
X86962000Y-137855750I0J-218750D01*
G01*
X86962000Y-138293250D01*
G75*
G02*
X86743250Y-138512000I-218750J0D01*
G01*
G37*
%TD*%
%TO.C,R502*%
G36*
G01*
X67406000Y-122938250D02*
X67406000Y-122425750D01*
G75*
G02*
X67624750Y-122207000I218750J0D01*
G01*
X68062250Y-122207000D01*
G75*
G02*
X68281000Y-122425750I0J-218750D01*
G01*
X68281000Y-122938250D01*
G75*
G02*
X68062250Y-123157000I-218750J0D01*
G01*
X67624750Y-123157000D01*
G75*
G02*
X67406000Y-122938250I0J218750D01*
G01*
G37*
G36*
G01*
X65831000Y-122938250D02*
X65831000Y-122425750D01*
G75*
G02*
X66049750Y-122207000I218750J0D01*
G01*
X66487250Y-122207000D01*
G75*
G02*
X66706000Y-122425750I0J-218750D01*
G01*
X66706000Y-122938250D01*
G75*
G02*
X66487250Y-123157000I-218750J0D01*
G01*
X66049750Y-123157000D01*
G75*
G02*
X65831000Y-122938250I0J218750D01*
G01*
G37*
%TD*%
%TO.C,R501*%
G36*
G01*
X150718000Y-151386250D02*
X150718000Y-150873750D01*
G75*
G02*
X150936750Y-150655000I218750J0D01*
G01*
X151374250Y-150655000D01*
G75*
G02*
X151593000Y-150873750I0J-218750D01*
G01*
X151593000Y-151386250D01*
G75*
G02*
X151374250Y-151605000I-218750J0D01*
G01*
X150936750Y-151605000D01*
G75*
G02*
X150718000Y-151386250I0J218750D01*
G01*
G37*
G36*
G01*
X149143000Y-151386250D02*
X149143000Y-150873750D01*
G75*
G02*
X149361750Y-150655000I218750J0D01*
G01*
X149799250Y-150655000D01*
G75*
G02*
X150018000Y-150873750I0J-218750D01*
G01*
X150018000Y-151386250D01*
G75*
G02*
X149799250Y-151605000I-218750J0D01*
G01*
X149361750Y-151605000D01*
G75*
G02*
X149143000Y-151386250I0J218750D01*
G01*
G37*
%TD*%
%TO.C,R406*%
G36*
G01*
X105220000Y-43942250D02*
X105220000Y-43429750D01*
G75*
G02*
X105438750Y-43211000I218750J0D01*
G01*
X105876250Y-43211000D01*
G75*
G02*
X106095000Y-43429750I0J-218750D01*
G01*
X106095000Y-43942250D01*
G75*
G02*
X105876250Y-44161000I-218750J0D01*
G01*
X105438750Y-44161000D01*
G75*
G02*
X105220000Y-43942250I0J218750D01*
G01*
G37*
G36*
G01*
X103645000Y-43942250D02*
X103645000Y-43429750D01*
G75*
G02*
X103863750Y-43211000I218750J0D01*
G01*
X104301250Y-43211000D01*
G75*
G02*
X104520000Y-43429750I0J-218750D01*
G01*
X104520000Y-43942250D01*
G75*
G02*
X104301250Y-44161000I-218750J0D01*
G01*
X103863750Y-44161000D01*
G75*
G02*
X103645000Y-43942250I0J218750D01*
G01*
G37*
%TD*%
%TO.C,R405*%
G36*
G01*
X90266000Y-52834250D02*
X90266000Y-52321750D01*
G75*
G02*
X90484750Y-52103000I218750J0D01*
G01*
X90922250Y-52103000D01*
G75*
G02*
X91141000Y-52321750I0J-218750D01*
G01*
X91141000Y-52834250D01*
G75*
G02*
X90922250Y-53053000I-218750J0D01*
G01*
X90484750Y-53053000D01*
G75*
G02*
X90266000Y-52834250I0J218750D01*
G01*
G37*
G36*
G01*
X88691000Y-52834250D02*
X88691000Y-52321750D01*
G75*
G02*
X88909750Y-52103000I218750J0D01*
G01*
X89347250Y-52103000D01*
G75*
G02*
X89566000Y-52321750I0J-218750D01*
G01*
X89566000Y-52834250D01*
G75*
G02*
X89347250Y-53053000I-218750J0D01*
G01*
X88909750Y-53053000D01*
G75*
G02*
X88691000Y-52834250I0J218750D01*
G01*
G37*
%TD*%
%TO.C,R404*%
G36*
G01*
X100234000Y-52321750D02*
X100234000Y-52834250D01*
G75*
G02*
X100015250Y-53053000I-218750J0D01*
G01*
X99577750Y-53053000D01*
G75*
G02*
X99359000Y-52834250I0J218750D01*
G01*
X99359000Y-52321750D01*
G75*
G02*
X99577750Y-52103000I218750J0D01*
G01*
X100015250Y-52103000D01*
G75*
G02*
X100234000Y-52321750I0J-218750D01*
G01*
G37*
G36*
G01*
X101809000Y-52321750D02*
X101809000Y-52834250D01*
G75*
G02*
X101590250Y-53053000I-218750J0D01*
G01*
X101152750Y-53053000D01*
G75*
G02*
X100934000Y-52834250I0J218750D01*
G01*
X100934000Y-52321750D01*
G75*
G02*
X101152750Y-52103000I218750J0D01*
G01*
X101590250Y-52103000D01*
G75*
G02*
X101809000Y-52321750I0J-218750D01*
G01*
G37*
%TD*%
%TO.C,R403*%
G36*
G01*
X39106000Y-53632250D02*
X39106000Y-53119750D01*
G75*
G02*
X39324750Y-52901000I218750J0D01*
G01*
X39762250Y-52901000D01*
G75*
G02*
X39981000Y-53119750I0J-218750D01*
G01*
X39981000Y-53632250D01*
G75*
G02*
X39762250Y-53851000I-218750J0D01*
G01*
X39324750Y-53851000D01*
G75*
G02*
X39106000Y-53632250I0J218750D01*
G01*
G37*
G36*
G01*
X37531000Y-53632250D02*
X37531000Y-53119750D01*
G75*
G02*
X37749750Y-52901000I218750J0D01*
G01*
X38187250Y-52901000D01*
G75*
G02*
X38406000Y-53119750I0J-218750D01*
G01*
X38406000Y-53632250D01*
G75*
G02*
X38187250Y-53851000I-218750J0D01*
G01*
X37749750Y-53851000D01*
G75*
G02*
X37531000Y-53632250I0J218750D01*
G01*
G37*
%TD*%
%TO.C,R402*%
G36*
G01*
X38958000Y-60454250D02*
X38958000Y-59941750D01*
G75*
G02*
X39176750Y-59723000I218750J0D01*
G01*
X39614250Y-59723000D01*
G75*
G02*
X39833000Y-59941750I0J-218750D01*
G01*
X39833000Y-60454250D01*
G75*
G02*
X39614250Y-60673000I-218750J0D01*
G01*
X39176750Y-60673000D01*
G75*
G02*
X38958000Y-60454250I0J218750D01*
G01*
G37*
G36*
G01*
X37383000Y-60454250D02*
X37383000Y-59941750D01*
G75*
G02*
X37601750Y-59723000I218750J0D01*
G01*
X38039250Y-59723000D01*
G75*
G02*
X38258000Y-59941750I0J-218750D01*
G01*
X38258000Y-60454250D01*
G75*
G02*
X38039250Y-60673000I-218750J0D01*
G01*
X37601750Y-60673000D01*
G75*
G02*
X37383000Y-60454250I0J218750D01*
G01*
G37*
%TD*%
%TO.C,R401*%
G36*
G01*
X39180000Y-67566250D02*
X39180000Y-67053750D01*
G75*
G02*
X39398750Y-66835000I218750J0D01*
G01*
X39836250Y-66835000D01*
G75*
G02*
X40055000Y-67053750I0J-218750D01*
G01*
X40055000Y-67566250D01*
G75*
G02*
X39836250Y-67785000I-218750J0D01*
G01*
X39398750Y-67785000D01*
G75*
G02*
X39180000Y-67566250I0J218750D01*
G01*
G37*
G36*
G01*
X37605000Y-67566250D02*
X37605000Y-67053750D01*
G75*
G02*
X37823750Y-66835000I218750J0D01*
G01*
X38261250Y-66835000D01*
G75*
G02*
X38480000Y-67053750I0J-218750D01*
G01*
X38480000Y-67566250D01*
G75*
G02*
X38261250Y-67785000I-218750J0D01*
G01*
X37823750Y-67785000D01*
G75*
G02*
X37605000Y-67566250I0J218750D01*
G01*
G37*
%TD*%
%TO.C,R316*%
G36*
G01*
X70135000Y-56385750D02*
X70135000Y-56898250D01*
G75*
G02*
X69916250Y-57117000I-218750J0D01*
G01*
X69478750Y-57117000D01*
G75*
G02*
X69260000Y-56898250I0J218750D01*
G01*
X69260000Y-56385750D01*
G75*
G02*
X69478750Y-56167000I218750J0D01*
G01*
X69916250Y-56167000D01*
G75*
G02*
X70135000Y-56385750I0J-218750D01*
G01*
G37*
G36*
G01*
X71710000Y-56385750D02*
X71710000Y-56898250D01*
G75*
G02*
X71491250Y-57117000I-218750J0D01*
G01*
X71053750Y-57117000D01*
G75*
G02*
X70835000Y-56898250I0J218750D01*
G01*
X70835000Y-56385750D01*
G75*
G02*
X71053750Y-56167000I218750J0D01*
G01*
X71491250Y-56167000D01*
G75*
G02*
X71710000Y-56385750I0J-218750D01*
G01*
G37*
%TD*%
%TO.C,R315*%
G36*
G01*
X70135000Y-57909750D02*
X70135000Y-58422250D01*
G75*
G02*
X69916250Y-58641000I-218750J0D01*
G01*
X69478750Y-58641000D01*
G75*
G02*
X69260000Y-58422250I0J218750D01*
G01*
X69260000Y-57909750D01*
G75*
G02*
X69478750Y-57691000I218750J0D01*
G01*
X69916250Y-57691000D01*
G75*
G02*
X70135000Y-57909750I0J-218750D01*
G01*
G37*
G36*
G01*
X71710000Y-57909750D02*
X71710000Y-58422250D01*
G75*
G02*
X71491250Y-58641000I-218750J0D01*
G01*
X71053750Y-58641000D01*
G75*
G02*
X70835000Y-58422250I0J218750D01*
G01*
X70835000Y-57909750D01*
G75*
G02*
X71053750Y-57691000I218750J0D01*
G01*
X71491250Y-57691000D01*
G75*
G02*
X71710000Y-57909750I0J-218750D01*
G01*
G37*
%TD*%
%TO.C,R314*%
G36*
G01*
X70135000Y-59433750D02*
X70135000Y-59946250D01*
G75*
G02*
X69916250Y-60165000I-218750J0D01*
G01*
X69478750Y-60165000D01*
G75*
G02*
X69260000Y-59946250I0J218750D01*
G01*
X69260000Y-59433750D01*
G75*
G02*
X69478750Y-59215000I218750J0D01*
G01*
X69916250Y-59215000D01*
G75*
G02*
X70135000Y-59433750I0J-218750D01*
G01*
G37*
G36*
G01*
X71710000Y-59433750D02*
X71710000Y-59946250D01*
G75*
G02*
X71491250Y-60165000I-218750J0D01*
G01*
X71053750Y-60165000D01*
G75*
G02*
X70835000Y-59946250I0J218750D01*
G01*
X70835000Y-59433750D01*
G75*
G02*
X71053750Y-59215000I218750J0D01*
G01*
X71491250Y-59215000D01*
G75*
G02*
X71710000Y-59433750I0J-218750D01*
G01*
G37*
%TD*%
%TO.C,R313*%
G36*
G01*
X70135000Y-60957750D02*
X70135000Y-61470250D01*
G75*
G02*
X69916250Y-61689000I-218750J0D01*
G01*
X69478750Y-61689000D01*
G75*
G02*
X69260000Y-61470250I0J218750D01*
G01*
X69260000Y-60957750D01*
G75*
G02*
X69478750Y-60739000I218750J0D01*
G01*
X69916250Y-60739000D01*
G75*
G02*
X70135000Y-60957750I0J-218750D01*
G01*
G37*
G36*
G01*
X71710000Y-60957750D02*
X71710000Y-61470250D01*
G75*
G02*
X71491250Y-61689000I-218750J0D01*
G01*
X71053750Y-61689000D01*
G75*
G02*
X70835000Y-61470250I0J218750D01*
G01*
X70835000Y-60957750D01*
G75*
G02*
X71053750Y-60739000I218750J0D01*
G01*
X71491250Y-60739000D01*
G75*
G02*
X71710000Y-60957750I0J-218750D01*
G01*
G37*
%TD*%
%TO.C,R312*%
G36*
G01*
X70135000Y-62481750D02*
X70135000Y-62994250D01*
G75*
G02*
X69916250Y-63213000I-218750J0D01*
G01*
X69478750Y-63213000D01*
G75*
G02*
X69260000Y-62994250I0J218750D01*
G01*
X69260000Y-62481750D01*
G75*
G02*
X69478750Y-62263000I218750J0D01*
G01*
X69916250Y-62263000D01*
G75*
G02*
X70135000Y-62481750I0J-218750D01*
G01*
G37*
G36*
G01*
X71710000Y-62481750D02*
X71710000Y-62994250D01*
G75*
G02*
X71491250Y-63213000I-218750J0D01*
G01*
X71053750Y-63213000D01*
G75*
G02*
X70835000Y-62994250I0J218750D01*
G01*
X70835000Y-62481750D01*
G75*
G02*
X71053750Y-62263000I218750J0D01*
G01*
X71491250Y-62263000D01*
G75*
G02*
X71710000Y-62481750I0J-218750D01*
G01*
G37*
%TD*%
%TO.C,R311*%
G36*
G01*
X70135000Y-64005750D02*
X70135000Y-64518250D01*
G75*
G02*
X69916250Y-64737000I-218750J0D01*
G01*
X69478750Y-64737000D01*
G75*
G02*
X69260000Y-64518250I0J218750D01*
G01*
X69260000Y-64005750D01*
G75*
G02*
X69478750Y-63787000I218750J0D01*
G01*
X69916250Y-63787000D01*
G75*
G02*
X70135000Y-64005750I0J-218750D01*
G01*
G37*
G36*
G01*
X71710000Y-64005750D02*
X71710000Y-64518250D01*
G75*
G02*
X71491250Y-64737000I-218750J0D01*
G01*
X71053750Y-64737000D01*
G75*
G02*
X70835000Y-64518250I0J218750D01*
G01*
X70835000Y-64005750D01*
G75*
G02*
X71053750Y-63787000I218750J0D01*
G01*
X71491250Y-63787000D01*
G75*
G02*
X71710000Y-64005750I0J-218750D01*
G01*
G37*
%TD*%
%TO.C,R310*%
G36*
G01*
X70135000Y-65529750D02*
X70135000Y-66042250D01*
G75*
G02*
X69916250Y-66261000I-218750J0D01*
G01*
X69478750Y-66261000D01*
G75*
G02*
X69260000Y-66042250I0J218750D01*
G01*
X69260000Y-65529750D01*
G75*
G02*
X69478750Y-65311000I218750J0D01*
G01*
X69916250Y-65311000D01*
G75*
G02*
X70135000Y-65529750I0J-218750D01*
G01*
G37*
G36*
G01*
X71710000Y-65529750D02*
X71710000Y-66042250D01*
G75*
G02*
X71491250Y-66261000I-218750J0D01*
G01*
X71053750Y-66261000D01*
G75*
G02*
X70835000Y-66042250I0J218750D01*
G01*
X70835000Y-65529750D01*
G75*
G02*
X71053750Y-65311000I218750J0D01*
G01*
X71491250Y-65311000D01*
G75*
G02*
X71710000Y-65529750I0J-218750D01*
G01*
G37*
%TD*%
%TO.C,R309*%
G36*
G01*
X70135000Y-67104550D02*
X70135000Y-67617050D01*
G75*
G02*
X69916250Y-67835800I-218750J0D01*
G01*
X69478750Y-67835800D01*
G75*
G02*
X69260000Y-67617050I0J218750D01*
G01*
X69260000Y-67104550D01*
G75*
G02*
X69478750Y-66885800I218750J0D01*
G01*
X69916250Y-66885800D01*
G75*
G02*
X70135000Y-67104550I0J-218750D01*
G01*
G37*
G36*
G01*
X71710000Y-67104550D02*
X71710000Y-67617050D01*
G75*
G02*
X71491250Y-67835800I-218750J0D01*
G01*
X71053750Y-67835800D01*
G75*
G02*
X70835000Y-67617050I0J218750D01*
G01*
X70835000Y-67104550D01*
G75*
G02*
X71053750Y-66885800I218750J0D01*
G01*
X71491250Y-66885800D01*
G75*
G02*
X71710000Y-67104550I0J-218750D01*
G01*
G37*
%TD*%
%TO.C,R308*%
G36*
G01*
X70135000Y-68577750D02*
X70135000Y-69090250D01*
G75*
G02*
X69916250Y-69309000I-218750J0D01*
G01*
X69478750Y-69309000D01*
G75*
G02*
X69260000Y-69090250I0J218750D01*
G01*
X69260000Y-68577750D01*
G75*
G02*
X69478750Y-68359000I218750J0D01*
G01*
X69916250Y-68359000D01*
G75*
G02*
X70135000Y-68577750I0J-218750D01*
G01*
G37*
G36*
G01*
X71710000Y-68577750D02*
X71710000Y-69090250D01*
G75*
G02*
X71491250Y-69309000I-218750J0D01*
G01*
X71053750Y-69309000D01*
G75*
G02*
X70835000Y-69090250I0J218750D01*
G01*
X70835000Y-68577750D01*
G75*
G02*
X71053750Y-68359000I218750J0D01*
G01*
X71491250Y-68359000D01*
G75*
G02*
X71710000Y-68577750I0J-218750D01*
G01*
G37*
%TD*%
%TO.C,R307*%
G36*
G01*
X53182000Y-69090250D02*
X53182000Y-68577750D01*
G75*
G02*
X53400750Y-68359000I218750J0D01*
G01*
X53838250Y-68359000D01*
G75*
G02*
X54057000Y-68577750I0J-218750D01*
G01*
X54057000Y-69090250D01*
G75*
G02*
X53838250Y-69309000I-218750J0D01*
G01*
X53400750Y-69309000D01*
G75*
G02*
X53182000Y-69090250I0J218750D01*
G01*
G37*
G36*
G01*
X51607000Y-69090250D02*
X51607000Y-68577750D01*
G75*
G02*
X51825750Y-68359000I218750J0D01*
G01*
X52263250Y-68359000D01*
G75*
G02*
X52482000Y-68577750I0J-218750D01*
G01*
X52482000Y-69090250D01*
G75*
G02*
X52263250Y-69309000I-218750J0D01*
G01*
X51825750Y-69309000D01*
G75*
G02*
X51607000Y-69090250I0J218750D01*
G01*
G37*
%TD*%
%TO.C,R306*%
G36*
G01*
X53182000Y-67566250D02*
X53182000Y-67053750D01*
G75*
G02*
X53400750Y-66835000I218750J0D01*
G01*
X53838250Y-66835000D01*
G75*
G02*
X54057000Y-67053750I0J-218750D01*
G01*
X54057000Y-67566250D01*
G75*
G02*
X53838250Y-67785000I-218750J0D01*
G01*
X53400750Y-67785000D01*
G75*
G02*
X53182000Y-67566250I0J218750D01*
G01*
G37*
G36*
G01*
X51607000Y-67566250D02*
X51607000Y-67053750D01*
G75*
G02*
X51825750Y-66835000I218750J0D01*
G01*
X52263250Y-66835000D01*
G75*
G02*
X52482000Y-67053750I0J-218750D01*
G01*
X52482000Y-67566250D01*
G75*
G02*
X52263250Y-67785000I-218750J0D01*
G01*
X51825750Y-67785000D01*
G75*
G02*
X51607000Y-67566250I0J218750D01*
G01*
G37*
%TD*%
%TO.C,R305*%
G36*
G01*
X53182000Y-66042250D02*
X53182000Y-65529750D01*
G75*
G02*
X53400750Y-65311000I218750J0D01*
G01*
X53838250Y-65311000D01*
G75*
G02*
X54057000Y-65529750I0J-218750D01*
G01*
X54057000Y-66042250D01*
G75*
G02*
X53838250Y-66261000I-218750J0D01*
G01*
X53400750Y-66261000D01*
G75*
G02*
X53182000Y-66042250I0J218750D01*
G01*
G37*
G36*
G01*
X51607000Y-66042250D02*
X51607000Y-65529750D01*
G75*
G02*
X51825750Y-65311000I218750J0D01*
G01*
X52263250Y-65311000D01*
G75*
G02*
X52482000Y-65529750I0J-218750D01*
G01*
X52482000Y-66042250D01*
G75*
G02*
X52263250Y-66261000I-218750J0D01*
G01*
X51825750Y-66261000D01*
G75*
G02*
X51607000Y-66042250I0J218750D01*
G01*
G37*
%TD*%
%TO.C,R304*%
G36*
G01*
X53182000Y-64518250D02*
X53182000Y-64005750D01*
G75*
G02*
X53400750Y-63787000I218750J0D01*
G01*
X53838250Y-63787000D01*
G75*
G02*
X54057000Y-64005750I0J-218750D01*
G01*
X54057000Y-64518250D01*
G75*
G02*
X53838250Y-64737000I-218750J0D01*
G01*
X53400750Y-64737000D01*
G75*
G02*
X53182000Y-64518250I0J218750D01*
G01*
G37*
G36*
G01*
X51607000Y-64518250D02*
X51607000Y-64005750D01*
G75*
G02*
X51825750Y-63787000I218750J0D01*
G01*
X52263250Y-63787000D01*
G75*
G02*
X52482000Y-64005750I0J-218750D01*
G01*
X52482000Y-64518250D01*
G75*
G02*
X52263250Y-64737000I-218750J0D01*
G01*
X51825750Y-64737000D01*
G75*
G02*
X51607000Y-64518250I0J218750D01*
G01*
G37*
%TD*%
%TO.C,R303*%
G36*
G01*
X53182000Y-62994250D02*
X53182000Y-62481750D01*
G75*
G02*
X53400750Y-62263000I218750J0D01*
G01*
X53838250Y-62263000D01*
G75*
G02*
X54057000Y-62481750I0J-218750D01*
G01*
X54057000Y-62994250D01*
G75*
G02*
X53838250Y-63213000I-218750J0D01*
G01*
X53400750Y-63213000D01*
G75*
G02*
X53182000Y-62994250I0J218750D01*
G01*
G37*
G36*
G01*
X51607000Y-62994250D02*
X51607000Y-62481750D01*
G75*
G02*
X51825750Y-62263000I218750J0D01*
G01*
X52263250Y-62263000D01*
G75*
G02*
X52482000Y-62481750I0J-218750D01*
G01*
X52482000Y-62994250D01*
G75*
G02*
X52263250Y-63213000I-218750J0D01*
G01*
X51825750Y-63213000D01*
G75*
G02*
X51607000Y-62994250I0J218750D01*
G01*
G37*
%TD*%
%TO.C,R302*%
G36*
G01*
X53182000Y-61470250D02*
X53182000Y-60957750D01*
G75*
G02*
X53400750Y-60739000I218750J0D01*
G01*
X53838250Y-60739000D01*
G75*
G02*
X54057000Y-60957750I0J-218750D01*
G01*
X54057000Y-61470250D01*
G75*
G02*
X53838250Y-61689000I-218750J0D01*
G01*
X53400750Y-61689000D01*
G75*
G02*
X53182000Y-61470250I0J218750D01*
G01*
G37*
G36*
G01*
X51607000Y-61470250D02*
X51607000Y-60957750D01*
G75*
G02*
X51825750Y-60739000I218750J0D01*
G01*
X52263250Y-60739000D01*
G75*
G02*
X52482000Y-60957750I0J-218750D01*
G01*
X52482000Y-61470250D01*
G75*
G02*
X52263250Y-61689000I-218750J0D01*
G01*
X51825750Y-61689000D01*
G75*
G02*
X51607000Y-61470250I0J218750D01*
G01*
G37*
%TD*%
%TO.C,R301*%
G36*
G01*
X53182000Y-59946250D02*
X53182000Y-59433750D01*
G75*
G02*
X53400750Y-59215000I218750J0D01*
G01*
X53838250Y-59215000D01*
G75*
G02*
X54057000Y-59433750I0J-218750D01*
G01*
X54057000Y-59946250D01*
G75*
G02*
X53838250Y-60165000I-218750J0D01*
G01*
X53400750Y-60165000D01*
G75*
G02*
X53182000Y-59946250I0J218750D01*
G01*
G37*
G36*
G01*
X51607000Y-59946250D02*
X51607000Y-59433750D01*
G75*
G02*
X51825750Y-59215000I218750J0D01*
G01*
X52263250Y-59215000D01*
G75*
G02*
X52482000Y-59433750I0J-218750D01*
G01*
X52482000Y-59946250D01*
G75*
G02*
X52263250Y-60165000I-218750J0D01*
G01*
X51825750Y-60165000D01*
G75*
G02*
X51607000Y-59946250I0J218750D01*
G01*
G37*
%TD*%
%TO.C,R211*%
G36*
G01*
X120774750Y-118841000D02*
X121287250Y-118841000D01*
G75*
G02*
X121506000Y-119059750I0J-218750D01*
G01*
X121506000Y-119497250D01*
G75*
G02*
X121287250Y-119716000I-218750J0D01*
G01*
X120774750Y-119716000D01*
G75*
G02*
X120556000Y-119497250I0J218750D01*
G01*
X120556000Y-119059750D01*
G75*
G02*
X120774750Y-118841000I218750J0D01*
G01*
G37*
G36*
G01*
X120774750Y-117266000D02*
X121287250Y-117266000D01*
G75*
G02*
X121506000Y-117484750I0J-218750D01*
G01*
X121506000Y-117922250D01*
G75*
G02*
X121287250Y-118141000I-218750J0D01*
G01*
X120774750Y-118141000D01*
G75*
G02*
X120556000Y-117922250I0J218750D01*
G01*
X120556000Y-117484750D01*
G75*
G02*
X120774750Y-117266000I218750J0D01*
G01*
G37*
%TD*%
%TO.C,R210*%
G36*
G01*
X119509250Y-118141000D02*
X118996750Y-118141000D01*
G75*
G02*
X118778000Y-117922250I0J218750D01*
G01*
X118778000Y-117484750D01*
G75*
G02*
X118996750Y-117266000I218750J0D01*
G01*
X119509250Y-117266000D01*
G75*
G02*
X119728000Y-117484750I0J-218750D01*
G01*
X119728000Y-117922250D01*
G75*
G02*
X119509250Y-118141000I-218750J0D01*
G01*
G37*
G36*
G01*
X119509250Y-119716000D02*
X118996750Y-119716000D01*
G75*
G02*
X118778000Y-119497250I0J218750D01*
G01*
X118778000Y-119059750D01*
G75*
G02*
X118996750Y-118841000I218750J0D01*
G01*
X119509250Y-118841000D01*
G75*
G02*
X119728000Y-119059750I0J-218750D01*
G01*
X119728000Y-119497250D01*
G75*
G02*
X119509250Y-119716000I-218750J0D01*
G01*
G37*
%TD*%
%TO.C,R209*%
G36*
G01*
X127920000Y-115567750D02*
X127920000Y-116080250D01*
G75*
G02*
X127701250Y-116299000I-218750J0D01*
G01*
X127263750Y-116299000D01*
G75*
G02*
X127045000Y-116080250I0J218750D01*
G01*
X127045000Y-115567750D01*
G75*
G02*
X127263750Y-115349000I218750J0D01*
G01*
X127701250Y-115349000D01*
G75*
G02*
X127920000Y-115567750I0J-218750D01*
G01*
G37*
G36*
G01*
X129495000Y-115567750D02*
X129495000Y-116080250D01*
G75*
G02*
X129276250Y-116299000I-218750J0D01*
G01*
X128838750Y-116299000D01*
G75*
G02*
X128620000Y-116080250I0J218750D01*
G01*
X128620000Y-115567750D01*
G75*
G02*
X128838750Y-115349000I218750J0D01*
G01*
X129276250Y-115349000D01*
G75*
G02*
X129495000Y-115567750I0J-218750D01*
G01*
G37*
%TD*%
%TO.C,R208*%
G36*
G01*
X160808500Y-64257500D02*
X161009500Y-64257500D01*
G75*
G02*
X161089000Y-64337000I0J-79500D01*
G01*
X161089000Y-64496000D01*
G75*
G02*
X161009500Y-64575500I-79500J0D01*
G01*
X160808500Y-64575500D01*
G75*
G02*
X160729000Y-64496000I0J79500D01*
G01*
X160729000Y-64337000D01*
G75*
G02*
X160808500Y-64257500I79500J0D01*
G01*
G37*
G36*
G01*
X160808500Y-63567500D02*
X161009500Y-63567500D01*
G75*
G02*
X161089000Y-63647000I0J-79500D01*
G01*
X161089000Y-63806000D01*
G75*
G02*
X161009500Y-63885500I-79500J0D01*
G01*
X160808500Y-63885500D01*
G75*
G02*
X160729000Y-63806000I0J79500D01*
G01*
X160729000Y-63647000D01*
G75*
G02*
X160808500Y-63567500I79500J0D01*
G01*
G37*
%TD*%
%TO.C,R207*%
G36*
G01*
X117190000Y-120144250D02*
X117190000Y-119631750D01*
G75*
G02*
X117408750Y-119413000I218750J0D01*
G01*
X117846250Y-119413000D01*
G75*
G02*
X118065000Y-119631750I0J-218750D01*
G01*
X118065000Y-120144250D01*
G75*
G02*
X117846250Y-120363000I-218750J0D01*
G01*
X117408750Y-120363000D01*
G75*
G02*
X117190000Y-120144250I0J218750D01*
G01*
G37*
G36*
G01*
X115615000Y-120144250D02*
X115615000Y-119631750D01*
G75*
G02*
X115833750Y-119413000I218750J0D01*
G01*
X116271250Y-119413000D01*
G75*
G02*
X116490000Y-119631750I0J-218750D01*
G01*
X116490000Y-120144250D01*
G75*
G02*
X116271250Y-120363000I-218750J0D01*
G01*
X115833750Y-120363000D01*
G75*
G02*
X115615000Y-120144250I0J218750D01*
G01*
G37*
%TD*%
%TO.C,R206*%
G36*
G01*
X158019000Y-63561250D02*
X158019000Y-64073750D01*
G75*
G02*
X157800250Y-64292500I-218750J0D01*
G01*
X157362750Y-64292500D01*
G75*
G02*
X157144000Y-64073750I0J218750D01*
G01*
X157144000Y-63561250D01*
G75*
G02*
X157362750Y-63342500I218750J0D01*
G01*
X157800250Y-63342500D01*
G75*
G02*
X158019000Y-63561250I0J-218750D01*
G01*
G37*
G36*
G01*
X159594000Y-63561250D02*
X159594000Y-64073750D01*
G75*
G02*
X159375250Y-64292500I-218750J0D01*
G01*
X158937750Y-64292500D01*
G75*
G02*
X158719000Y-64073750I0J218750D01*
G01*
X158719000Y-63561250D01*
G75*
G02*
X158937750Y-63342500I218750J0D01*
G01*
X159375250Y-63342500D01*
G75*
G02*
X159594000Y-63561250I0J-218750D01*
G01*
G37*
%TD*%
%TO.C,R205*%
G36*
G01*
X162021000Y-62041750D02*
X162021000Y-61529250D01*
G75*
G02*
X162239750Y-61310500I218750J0D01*
G01*
X162677250Y-61310500D01*
G75*
G02*
X162896000Y-61529250I0J-218750D01*
G01*
X162896000Y-62041750D01*
G75*
G02*
X162677250Y-62260500I-218750J0D01*
G01*
X162239750Y-62260500D01*
G75*
G02*
X162021000Y-62041750I0J218750D01*
G01*
G37*
G36*
G01*
X160446000Y-62041750D02*
X160446000Y-61529250D01*
G75*
G02*
X160664750Y-61310500I218750J0D01*
G01*
X161102250Y-61310500D01*
G75*
G02*
X161321000Y-61529250I0J-218750D01*
G01*
X161321000Y-62041750D01*
G75*
G02*
X161102250Y-62260500I-218750J0D01*
G01*
X160664750Y-62260500D01*
G75*
G02*
X160446000Y-62041750I0J218750D01*
G01*
G37*
%TD*%
%TO.C,R204*%
G36*
G01*
X114740000Y-119988500D02*
X114740000Y-119787500D01*
G75*
G02*
X114819500Y-119708000I79500J0D01*
G01*
X114978500Y-119708000D01*
G75*
G02*
X115058000Y-119787500I0J-79500D01*
G01*
X115058000Y-119988500D01*
G75*
G02*
X114978500Y-120068000I-79500J0D01*
G01*
X114819500Y-120068000D01*
G75*
G02*
X114740000Y-119988500I0J79500D01*
G01*
G37*
G36*
G01*
X114050000Y-119988500D02*
X114050000Y-119787500D01*
G75*
G02*
X114129500Y-119708000I79500J0D01*
G01*
X114288500Y-119708000D01*
G75*
G02*
X114368000Y-119787500I0J-79500D01*
G01*
X114368000Y-119988500D01*
G75*
G02*
X114288500Y-120068000I-79500J0D01*
G01*
X114129500Y-120068000D01*
G75*
G02*
X114050000Y-119988500I0J79500D01*
G01*
G37*
%TD*%
%TO.C,R203*%
G36*
G01*
X162279500Y-63885500D02*
X162078500Y-63885500D01*
G75*
G02*
X161999000Y-63806000I0J79500D01*
G01*
X161999000Y-63647000D01*
G75*
G02*
X162078500Y-63567500I79500J0D01*
G01*
X162279500Y-63567500D01*
G75*
G02*
X162359000Y-63647000I0J-79500D01*
G01*
X162359000Y-63806000D01*
G75*
G02*
X162279500Y-63885500I-79500J0D01*
G01*
G37*
G36*
G01*
X162279500Y-64575500D02*
X162078500Y-64575500D01*
G75*
G02*
X161999000Y-64496000I0J79500D01*
G01*
X161999000Y-64337000D01*
G75*
G02*
X162078500Y-64257500I79500J0D01*
G01*
X162279500Y-64257500D01*
G75*
G02*
X162359000Y-64337000I0J-79500D01*
G01*
X162359000Y-64496000D01*
G75*
G02*
X162279500Y-64575500I-79500J0D01*
G01*
G37*
%TD*%
%TO.C,R202*%
G36*
G01*
X102110250Y-125380000D02*
X101597750Y-125380000D01*
G75*
G02*
X101379000Y-125161250I0J218750D01*
G01*
X101379000Y-124723750D01*
G75*
G02*
X101597750Y-124505000I218750J0D01*
G01*
X102110250Y-124505000D01*
G75*
G02*
X102329000Y-124723750I0J-218750D01*
G01*
X102329000Y-125161250D01*
G75*
G02*
X102110250Y-125380000I-218750J0D01*
G01*
G37*
G36*
G01*
X102110250Y-126955000D02*
X101597750Y-126955000D01*
G75*
G02*
X101379000Y-126736250I0J218750D01*
G01*
X101379000Y-126298750D01*
G75*
G02*
X101597750Y-126080000I218750J0D01*
G01*
X102110250Y-126080000D01*
G75*
G02*
X102329000Y-126298750I0J-218750D01*
G01*
X102329000Y-126736250D01*
G75*
G02*
X102110250Y-126955000I-218750J0D01*
G01*
G37*
%TD*%
%TO.C,R201*%
G36*
G01*
X100332250Y-125380000D02*
X99819750Y-125380000D01*
G75*
G02*
X99601000Y-125161250I0J218750D01*
G01*
X99601000Y-124723750D01*
G75*
G02*
X99819750Y-124505000I218750J0D01*
G01*
X100332250Y-124505000D01*
G75*
G02*
X100551000Y-124723750I0J-218750D01*
G01*
X100551000Y-125161250D01*
G75*
G02*
X100332250Y-125380000I-218750J0D01*
G01*
G37*
G36*
G01*
X100332250Y-126955000D02*
X99819750Y-126955000D01*
G75*
G02*
X99601000Y-126736250I0J218750D01*
G01*
X99601000Y-126298750D01*
G75*
G02*
X99819750Y-126080000I218750J0D01*
G01*
X100332250Y-126080000D01*
G75*
G02*
X100551000Y-126298750I0J-218750D01*
G01*
X100551000Y-126736250D01*
G75*
G02*
X100332250Y-126955000I-218750J0D01*
G01*
G37*
%TD*%
D22*
%TO.C,L701*%
X160382000Y-123532000D03*
X160382000Y-121832000D03*
X161182000Y-121832000D03*
X161182000Y-123532000D03*
%TD*%
D23*
%TO.C,J704*%
X166098000Y-125428000D03*
X166098000Y-124928000D03*
X166098000Y-124428000D03*
X166098000Y-123928000D03*
X166098000Y-123428000D03*
X166098000Y-122928000D03*
X166098000Y-122428000D03*
X166098000Y-121928000D03*
X166098000Y-121428000D03*
X166098000Y-120928000D03*
X166098000Y-120428000D03*
X166098000Y-119928000D03*
X164398000Y-120178000D03*
X164398000Y-121678000D03*
X164398000Y-121178000D03*
X164398000Y-120678000D03*
X164398000Y-119678000D03*
X164398000Y-122178000D03*
X164398000Y-122678000D03*
X164398000Y-123178000D03*
X164398000Y-123678000D03*
X164398000Y-124178000D03*
X164398000Y-124678000D03*
X164398000Y-125178000D03*
%TD*%
D24*
%TO.C,J502*%
X35865000Y-116448000D03*
X35865000Y-110228000D03*
X33865000Y-113338000D03*
X47065000Y-116548000D03*
X47065000Y-110328000D03*
X45065000Y-113438000D03*
X57865000Y-116648000D03*
X55865000Y-113538000D03*
X57865000Y-110428000D03*
%TD*%
%TO.C,J501*%
X36373000Y-178043000D03*
X36373000Y-171823000D03*
X34373000Y-174933000D03*
X47573000Y-178143000D03*
X47573000Y-171923000D03*
X45573000Y-175033000D03*
X58373000Y-178243000D03*
X56373000Y-175133000D03*
X58373000Y-172023000D03*
%TD*%
%TO.C,FB701*%
G36*
G01*
X162148000Y-126748250D02*
X162148000Y-126235750D01*
G75*
G02*
X162366750Y-126017000I218750J0D01*
G01*
X162804250Y-126017000D01*
G75*
G02*
X163023000Y-126235750I0J-218750D01*
G01*
X163023000Y-126748250D01*
G75*
G02*
X162804250Y-126967000I-218750J0D01*
G01*
X162366750Y-126967000D01*
G75*
G02*
X162148000Y-126748250I0J218750D01*
G01*
G37*
G36*
G01*
X160573000Y-126748250D02*
X160573000Y-126235750D01*
G75*
G02*
X160791750Y-126017000I218750J0D01*
G01*
X161229250Y-126017000D01*
G75*
G02*
X161448000Y-126235750I0J-218750D01*
G01*
X161448000Y-126748250D01*
G75*
G02*
X161229250Y-126967000I-218750J0D01*
G01*
X160791750Y-126967000D01*
G75*
G02*
X160573000Y-126748250I0J218750D01*
G01*
G37*
%TD*%
%TO.C,FB501*%
G36*
G01*
X146301750Y-143606000D02*
X146814250Y-143606000D01*
G75*
G02*
X147033000Y-143824750I0J-218750D01*
G01*
X147033000Y-144262250D01*
G75*
G02*
X146814250Y-144481000I-218750J0D01*
G01*
X146301750Y-144481000D01*
G75*
G02*
X146083000Y-144262250I0J218750D01*
G01*
X146083000Y-143824750D01*
G75*
G02*
X146301750Y-143606000I218750J0D01*
G01*
G37*
G36*
G01*
X146301750Y-142031000D02*
X146814250Y-142031000D01*
G75*
G02*
X147033000Y-142249750I0J-218750D01*
G01*
X147033000Y-142687250D01*
G75*
G02*
X146814250Y-142906000I-218750J0D01*
G01*
X146301750Y-142906000D01*
G75*
G02*
X146083000Y-142687250I0J218750D01*
G01*
X146083000Y-142249750D01*
G75*
G02*
X146301750Y-142031000I218750J0D01*
G01*
G37*
%TD*%
D25*
%TO.C,F502*%
X73152000Y-172678000D03*
X73152000Y-177588000D03*
%TD*%
D26*
%TO.C,F501*%
X55711000Y-167640000D03*
X60621000Y-167640000D03*
%TD*%
%TO.C,D206*%
G36*
G01*
X157638000Y-153413750D02*
X157638000Y-153926250D01*
G75*
G02*
X157419250Y-154145000I-218750J0D01*
G01*
X156981750Y-154145000D01*
G75*
G02*
X156763000Y-153926250I0J218750D01*
G01*
X156763000Y-153413750D01*
G75*
G02*
X156981750Y-153195000I218750J0D01*
G01*
X157419250Y-153195000D01*
G75*
G02*
X157638000Y-153413750I0J-218750D01*
G01*
G37*
G36*
G01*
X159213000Y-153413750D02*
X159213000Y-153926250D01*
G75*
G02*
X158994250Y-154145000I-218750J0D01*
G01*
X158556750Y-154145000D01*
G75*
G02*
X158338000Y-153926250I0J218750D01*
G01*
X158338000Y-153413750D01*
G75*
G02*
X158556750Y-153195000I218750J0D01*
G01*
X158994250Y-153195000D01*
G75*
G02*
X159213000Y-153413750I0J-218750D01*
G01*
G37*
%TD*%
%TO.C,D205*%
G36*
G01*
X157638000Y-155191750D02*
X157638000Y-155704250D01*
G75*
G02*
X157419250Y-155923000I-218750J0D01*
G01*
X156981750Y-155923000D01*
G75*
G02*
X156763000Y-155704250I0J218750D01*
G01*
X156763000Y-155191750D01*
G75*
G02*
X156981750Y-154973000I218750J0D01*
G01*
X157419250Y-154973000D01*
G75*
G02*
X157638000Y-155191750I0J-218750D01*
G01*
G37*
G36*
G01*
X159213000Y-155191750D02*
X159213000Y-155704250D01*
G75*
G02*
X158994250Y-155923000I-218750J0D01*
G01*
X158556750Y-155923000D01*
G75*
G02*
X158338000Y-155704250I0J218750D01*
G01*
X158338000Y-155191750D01*
G75*
G02*
X158556750Y-154973000I218750J0D01*
G01*
X158994250Y-154973000D01*
G75*
G02*
X159213000Y-155191750I0J-218750D01*
G01*
G37*
%TD*%
%TO.C,D204*%
G36*
G01*
X157612500Y-157223750D02*
X157612500Y-157736250D01*
G75*
G02*
X157393750Y-157955000I-218750J0D01*
G01*
X156956250Y-157955000D01*
G75*
G02*
X156737500Y-157736250I0J218750D01*
G01*
X156737500Y-157223750D01*
G75*
G02*
X156956250Y-157005000I218750J0D01*
G01*
X157393750Y-157005000D01*
G75*
G02*
X157612500Y-157223750I0J-218750D01*
G01*
G37*
G36*
G01*
X159187500Y-157223750D02*
X159187500Y-157736250D01*
G75*
G02*
X158968750Y-157955000I-218750J0D01*
G01*
X158531250Y-157955000D01*
G75*
G02*
X158312500Y-157736250I0J218750D01*
G01*
X158312500Y-157223750D01*
G75*
G02*
X158531250Y-157005000I218750J0D01*
G01*
X158968750Y-157005000D01*
G75*
G02*
X159187500Y-157223750I0J-218750D01*
G01*
G37*
%TD*%
%TO.C,D203*%
G36*
G01*
X157638000Y-159255750D02*
X157638000Y-159768250D01*
G75*
G02*
X157419250Y-159987000I-218750J0D01*
G01*
X156981750Y-159987000D01*
G75*
G02*
X156763000Y-159768250I0J218750D01*
G01*
X156763000Y-159255750D01*
G75*
G02*
X156981750Y-159037000I218750J0D01*
G01*
X157419250Y-159037000D01*
G75*
G02*
X157638000Y-159255750I0J-218750D01*
G01*
G37*
G36*
G01*
X159213000Y-159255750D02*
X159213000Y-159768250D01*
G75*
G02*
X158994250Y-159987000I-218750J0D01*
G01*
X158556750Y-159987000D01*
G75*
G02*
X158338000Y-159768250I0J218750D01*
G01*
X158338000Y-159255750D01*
G75*
G02*
X158556750Y-159037000I218750J0D01*
G01*
X158994250Y-159037000D01*
G75*
G02*
X159213000Y-159255750I0J-218750D01*
G01*
G37*
%TD*%
%TO.C,D202*%
G36*
G01*
X157638000Y-161541750D02*
X157638000Y-162054250D01*
G75*
G02*
X157419250Y-162273000I-218750J0D01*
G01*
X156981750Y-162273000D01*
G75*
G02*
X156763000Y-162054250I0J218750D01*
G01*
X156763000Y-161541750D01*
G75*
G02*
X156981750Y-161323000I218750J0D01*
G01*
X157419250Y-161323000D01*
G75*
G02*
X157638000Y-161541750I0J-218750D01*
G01*
G37*
G36*
G01*
X159213000Y-161541750D02*
X159213000Y-162054250D01*
G75*
G02*
X158994250Y-162273000I-218750J0D01*
G01*
X158556750Y-162273000D01*
G75*
G02*
X158338000Y-162054250I0J218750D01*
G01*
X158338000Y-161541750D01*
G75*
G02*
X158556750Y-161323000I218750J0D01*
G01*
X158994250Y-161323000D01*
G75*
G02*
X159213000Y-161541750I0J-218750D01*
G01*
G37*
%TD*%
%TO.C,D201*%
G36*
G01*
X157638000Y-163827750D02*
X157638000Y-164340250D01*
G75*
G02*
X157419250Y-164559000I-218750J0D01*
G01*
X156981750Y-164559000D01*
G75*
G02*
X156763000Y-164340250I0J218750D01*
G01*
X156763000Y-163827750D01*
G75*
G02*
X156981750Y-163609000I218750J0D01*
G01*
X157419250Y-163609000D01*
G75*
G02*
X157638000Y-163827750I0J-218750D01*
G01*
G37*
G36*
G01*
X159213000Y-163827750D02*
X159213000Y-164340250D01*
G75*
G02*
X158994250Y-164559000I-218750J0D01*
G01*
X158556750Y-164559000D01*
G75*
G02*
X158338000Y-164340250I0J218750D01*
G01*
X158338000Y-163827750D01*
G75*
G02*
X158556750Y-163609000I218750J0D01*
G01*
X158994250Y-163609000D01*
G75*
G02*
X159213000Y-163827750I0J-218750D01*
G01*
G37*
%TD*%
%TO.C,C602*%
G36*
G01*
X144876000Y-133606250D02*
X144876000Y-133093750D01*
G75*
G02*
X145094750Y-132875000I218750J0D01*
G01*
X145532250Y-132875000D01*
G75*
G02*
X145751000Y-133093750I0J-218750D01*
G01*
X145751000Y-133606250D01*
G75*
G02*
X145532250Y-133825000I-218750J0D01*
G01*
X145094750Y-133825000D01*
G75*
G02*
X144876000Y-133606250I0J218750D01*
G01*
G37*
G36*
G01*
X143301000Y-133606250D02*
X143301000Y-133093750D01*
G75*
G02*
X143519750Y-132875000I218750J0D01*
G01*
X143957250Y-132875000D01*
G75*
G02*
X144176000Y-133093750I0J-218750D01*
G01*
X144176000Y-133606250D01*
G75*
G02*
X143957250Y-133825000I-218750J0D01*
G01*
X143519750Y-133825000D01*
G75*
G02*
X143301000Y-133606250I0J218750D01*
G01*
G37*
%TD*%
%TO.C,C601*%
G36*
G01*
X146970000Y-135125750D02*
X146970000Y-135638250D01*
G75*
G02*
X146751250Y-135857000I-218750J0D01*
G01*
X146313750Y-135857000D01*
G75*
G02*
X146095000Y-135638250I0J218750D01*
G01*
X146095000Y-135125750D01*
G75*
G02*
X146313750Y-134907000I218750J0D01*
G01*
X146751250Y-134907000D01*
G75*
G02*
X146970000Y-135125750I0J-218750D01*
G01*
G37*
G36*
G01*
X148545000Y-135125750D02*
X148545000Y-135638250D01*
G75*
G02*
X148326250Y-135857000I-218750J0D01*
G01*
X147888750Y-135857000D01*
G75*
G02*
X147670000Y-135638250I0J218750D01*
G01*
X147670000Y-135125750D01*
G75*
G02*
X147888750Y-134907000I218750J0D01*
G01*
X148326250Y-134907000D01*
G75*
G02*
X148545000Y-135125750I0J-218750D01*
G01*
G37*
%TD*%
%TO.C,C516*%
G36*
G01*
X85600250Y-116998000D02*
X85087750Y-116998000D01*
G75*
G02*
X84869000Y-116779250I0J218750D01*
G01*
X84869000Y-116341750D01*
G75*
G02*
X85087750Y-116123000I218750J0D01*
G01*
X85600250Y-116123000D01*
G75*
G02*
X85819000Y-116341750I0J-218750D01*
G01*
X85819000Y-116779250D01*
G75*
G02*
X85600250Y-116998000I-218750J0D01*
G01*
G37*
G36*
G01*
X85600250Y-118573000D02*
X85087750Y-118573000D01*
G75*
G02*
X84869000Y-118354250I0J218750D01*
G01*
X84869000Y-117916750D01*
G75*
G02*
X85087750Y-117698000I218750J0D01*
G01*
X85600250Y-117698000D01*
G75*
G02*
X85819000Y-117916750I0J-218750D01*
G01*
X85819000Y-118354250D01*
G75*
G02*
X85600250Y-118573000I-218750J0D01*
G01*
G37*
%TD*%
%TO.C,C515*%
G36*
G01*
X84076250Y-116998000D02*
X83563750Y-116998000D01*
G75*
G02*
X83345000Y-116779250I0J218750D01*
G01*
X83345000Y-116341750D01*
G75*
G02*
X83563750Y-116123000I218750J0D01*
G01*
X84076250Y-116123000D01*
G75*
G02*
X84295000Y-116341750I0J-218750D01*
G01*
X84295000Y-116779250D01*
G75*
G02*
X84076250Y-116998000I-218750J0D01*
G01*
G37*
G36*
G01*
X84076250Y-118573000D02*
X83563750Y-118573000D01*
G75*
G02*
X83345000Y-118354250I0J218750D01*
G01*
X83345000Y-117916750D01*
G75*
G02*
X83563750Y-117698000I218750J0D01*
G01*
X84076250Y-117698000D01*
G75*
G02*
X84295000Y-117916750I0J-218750D01*
G01*
X84295000Y-118354250D01*
G75*
G02*
X84076250Y-118573000I-218750J0D01*
G01*
G37*
%TD*%
%TO.C,C514*%
G36*
G01*
X82552250Y-116998000D02*
X82039750Y-116998000D01*
G75*
G02*
X81821000Y-116779250I0J218750D01*
G01*
X81821000Y-116341750D01*
G75*
G02*
X82039750Y-116123000I218750J0D01*
G01*
X82552250Y-116123000D01*
G75*
G02*
X82771000Y-116341750I0J-218750D01*
G01*
X82771000Y-116779250D01*
G75*
G02*
X82552250Y-116998000I-218750J0D01*
G01*
G37*
G36*
G01*
X82552250Y-118573000D02*
X82039750Y-118573000D01*
G75*
G02*
X81821000Y-118354250I0J218750D01*
G01*
X81821000Y-117916750D01*
G75*
G02*
X82039750Y-117698000I218750J0D01*
G01*
X82552250Y-117698000D01*
G75*
G02*
X82771000Y-117916750I0J-218750D01*
G01*
X82771000Y-118354250D01*
G75*
G02*
X82552250Y-118573000I-218750J0D01*
G01*
G37*
%TD*%
%TO.C,C513*%
G36*
G01*
X81028250Y-116998000D02*
X80515750Y-116998000D01*
G75*
G02*
X80297000Y-116779250I0J218750D01*
G01*
X80297000Y-116341750D01*
G75*
G02*
X80515750Y-116123000I218750J0D01*
G01*
X81028250Y-116123000D01*
G75*
G02*
X81247000Y-116341750I0J-218750D01*
G01*
X81247000Y-116779250D01*
G75*
G02*
X81028250Y-116998000I-218750J0D01*
G01*
G37*
G36*
G01*
X81028250Y-118573000D02*
X80515750Y-118573000D01*
G75*
G02*
X80297000Y-118354250I0J218750D01*
G01*
X80297000Y-117916750D01*
G75*
G02*
X80515750Y-117698000I218750J0D01*
G01*
X81028250Y-117698000D01*
G75*
G02*
X81247000Y-117916750I0J-218750D01*
G01*
X81247000Y-118354250D01*
G75*
G02*
X81028250Y-118573000I-218750J0D01*
G01*
G37*
%TD*%
%TO.C,C512*%
G36*
G01*
X79504250Y-116998000D02*
X78991750Y-116998000D01*
G75*
G02*
X78773000Y-116779250I0J218750D01*
G01*
X78773000Y-116341750D01*
G75*
G02*
X78991750Y-116123000I218750J0D01*
G01*
X79504250Y-116123000D01*
G75*
G02*
X79723000Y-116341750I0J-218750D01*
G01*
X79723000Y-116779250D01*
G75*
G02*
X79504250Y-116998000I-218750J0D01*
G01*
G37*
G36*
G01*
X79504250Y-118573000D02*
X78991750Y-118573000D01*
G75*
G02*
X78773000Y-118354250I0J218750D01*
G01*
X78773000Y-117916750D01*
G75*
G02*
X78991750Y-117698000I218750J0D01*
G01*
X79504250Y-117698000D01*
G75*
G02*
X79723000Y-117916750I0J-218750D01*
G01*
X79723000Y-118354250D01*
G75*
G02*
X79504250Y-118573000I-218750J0D01*
G01*
G37*
%TD*%
%TO.C,C511*%
G36*
G01*
X77980250Y-116998000D02*
X77467750Y-116998000D01*
G75*
G02*
X77249000Y-116779250I0J218750D01*
G01*
X77249000Y-116341750D01*
G75*
G02*
X77467750Y-116123000I218750J0D01*
G01*
X77980250Y-116123000D01*
G75*
G02*
X78199000Y-116341750I0J-218750D01*
G01*
X78199000Y-116779250D01*
G75*
G02*
X77980250Y-116998000I-218750J0D01*
G01*
G37*
G36*
G01*
X77980250Y-118573000D02*
X77467750Y-118573000D01*
G75*
G02*
X77249000Y-118354250I0J218750D01*
G01*
X77249000Y-117916750D01*
G75*
G02*
X77467750Y-117698000I218750J0D01*
G01*
X77980250Y-117698000D01*
G75*
G02*
X78199000Y-117916750I0J-218750D01*
G01*
X78199000Y-118354250D01*
G75*
G02*
X77980250Y-118573000I-218750J0D01*
G01*
G37*
%TD*%
%TO.C,C510*%
G36*
G01*
X76456250Y-116998000D02*
X75943750Y-116998000D01*
G75*
G02*
X75725000Y-116779250I0J218750D01*
G01*
X75725000Y-116341750D01*
G75*
G02*
X75943750Y-116123000I218750J0D01*
G01*
X76456250Y-116123000D01*
G75*
G02*
X76675000Y-116341750I0J-218750D01*
G01*
X76675000Y-116779250D01*
G75*
G02*
X76456250Y-116998000I-218750J0D01*
G01*
G37*
G36*
G01*
X76456250Y-118573000D02*
X75943750Y-118573000D01*
G75*
G02*
X75725000Y-118354250I0J218750D01*
G01*
X75725000Y-117916750D01*
G75*
G02*
X75943750Y-117698000I218750J0D01*
G01*
X76456250Y-117698000D01*
G75*
G02*
X76675000Y-117916750I0J-218750D01*
G01*
X76675000Y-118354250D01*
G75*
G02*
X76456250Y-118573000I-218750J0D01*
G01*
G37*
%TD*%
%TO.C,C509*%
G36*
G01*
X88135750Y-136240000D02*
X88648250Y-136240000D01*
G75*
G02*
X88867000Y-136458750I0J-218750D01*
G01*
X88867000Y-136896250D01*
G75*
G02*
X88648250Y-137115000I-218750J0D01*
G01*
X88135750Y-137115000D01*
G75*
G02*
X87917000Y-136896250I0J218750D01*
G01*
X87917000Y-136458750D01*
G75*
G02*
X88135750Y-136240000I218750J0D01*
G01*
G37*
G36*
G01*
X88135750Y-134665000D02*
X88648250Y-134665000D01*
G75*
G02*
X88867000Y-134883750I0J-218750D01*
G01*
X88867000Y-135321250D01*
G75*
G02*
X88648250Y-135540000I-218750J0D01*
G01*
X88135750Y-135540000D01*
G75*
G02*
X87917000Y-135321250I0J218750D01*
G01*
X87917000Y-134883750D01*
G75*
G02*
X88135750Y-134665000I218750J0D01*
G01*
G37*
%TD*%
%TO.C,C508*%
G36*
G01*
X91090000Y-131569750D02*
X91090000Y-132082250D01*
G75*
G02*
X90871250Y-132301000I-218750J0D01*
G01*
X90433750Y-132301000D01*
G75*
G02*
X90215000Y-132082250I0J218750D01*
G01*
X90215000Y-131569750D01*
G75*
G02*
X90433750Y-131351000I218750J0D01*
G01*
X90871250Y-131351000D01*
G75*
G02*
X91090000Y-131569750I0J-218750D01*
G01*
G37*
G36*
G01*
X92665000Y-131569750D02*
X92665000Y-132082250D01*
G75*
G02*
X92446250Y-132301000I-218750J0D01*
G01*
X92008750Y-132301000D01*
G75*
G02*
X91790000Y-132082250I0J218750D01*
G01*
X91790000Y-131569750D01*
G75*
G02*
X92008750Y-131351000I218750J0D01*
G01*
X92446250Y-131351000D01*
G75*
G02*
X92665000Y-131569750I0J-218750D01*
G01*
G37*
%TD*%
%TO.C,C507*%
G36*
G01*
X69754000Y-120901750D02*
X69754000Y-121414250D01*
G75*
G02*
X69535250Y-121633000I-218750J0D01*
G01*
X69097750Y-121633000D01*
G75*
G02*
X68879000Y-121414250I0J218750D01*
G01*
X68879000Y-120901750D01*
G75*
G02*
X69097750Y-120683000I218750J0D01*
G01*
X69535250Y-120683000D01*
G75*
G02*
X69754000Y-120901750I0J-218750D01*
G01*
G37*
G36*
G01*
X71329000Y-120901750D02*
X71329000Y-121414250D01*
G75*
G02*
X71110250Y-121633000I-218750J0D01*
G01*
X70672750Y-121633000D01*
G75*
G02*
X70454000Y-121414250I0J218750D01*
G01*
X70454000Y-120901750D01*
G75*
G02*
X70672750Y-120683000I218750J0D01*
G01*
X71110250Y-120683000D01*
G75*
G02*
X71329000Y-120901750I0J-218750D01*
G01*
G37*
%TD*%
%TO.C,C506*%
G36*
G01*
X69754000Y-122425750D02*
X69754000Y-122938250D01*
G75*
G02*
X69535250Y-123157000I-218750J0D01*
G01*
X69097750Y-123157000D01*
G75*
G02*
X68879000Y-122938250I0J218750D01*
G01*
X68879000Y-122425750D01*
G75*
G02*
X69097750Y-122207000I218750J0D01*
G01*
X69535250Y-122207000D01*
G75*
G02*
X69754000Y-122425750I0J-218750D01*
G01*
G37*
G36*
G01*
X71329000Y-122425750D02*
X71329000Y-122938250D01*
G75*
G02*
X71110250Y-123157000I-218750J0D01*
G01*
X70672750Y-123157000D01*
G75*
G02*
X70454000Y-122938250I0J218750D01*
G01*
X70454000Y-122425750D01*
G75*
G02*
X70672750Y-122207000I218750J0D01*
G01*
X71110250Y-122207000D01*
G75*
G02*
X71329000Y-122425750I0J-218750D01*
G01*
G37*
%TD*%
%TO.C,C505*%
G36*
G01*
X147670000Y-137416250D02*
X147670000Y-136903750D01*
G75*
G02*
X147888750Y-136685000I218750J0D01*
G01*
X148326250Y-136685000D01*
G75*
G02*
X148545000Y-136903750I0J-218750D01*
G01*
X148545000Y-137416250D01*
G75*
G02*
X148326250Y-137635000I-218750J0D01*
G01*
X147888750Y-137635000D01*
G75*
G02*
X147670000Y-137416250I0J218750D01*
G01*
G37*
G36*
G01*
X146095000Y-137416250D02*
X146095000Y-136903750D01*
G75*
G02*
X146313750Y-136685000I218750J0D01*
G01*
X146751250Y-136685000D01*
G75*
G02*
X146970000Y-136903750I0J-218750D01*
G01*
X146970000Y-137416250D01*
G75*
G02*
X146751250Y-137635000I-218750J0D01*
G01*
X146313750Y-137635000D01*
G75*
G02*
X146095000Y-137416250I0J218750D01*
G01*
G37*
%TD*%
%TO.C,C504*%
G36*
G01*
X147670000Y-139194250D02*
X147670000Y-138681750D01*
G75*
G02*
X147888750Y-138463000I218750J0D01*
G01*
X148326250Y-138463000D01*
G75*
G02*
X148545000Y-138681750I0J-218750D01*
G01*
X148545000Y-139194250D01*
G75*
G02*
X148326250Y-139413000I-218750J0D01*
G01*
X147888750Y-139413000D01*
G75*
G02*
X147670000Y-139194250I0J218750D01*
G01*
G37*
G36*
G01*
X146095000Y-139194250D02*
X146095000Y-138681750D01*
G75*
G02*
X146313750Y-138463000I218750J0D01*
G01*
X146751250Y-138463000D01*
G75*
G02*
X146970000Y-138681750I0J-218750D01*
G01*
X146970000Y-139194250D01*
G75*
G02*
X146751250Y-139413000I-218750J0D01*
G01*
X146313750Y-139413000D01*
G75*
G02*
X146095000Y-139194250I0J218750D01*
G01*
G37*
%TD*%
%TO.C,C503*%
G36*
G01*
X147670000Y-140972250D02*
X147670000Y-140459750D01*
G75*
G02*
X147888750Y-140241000I218750J0D01*
G01*
X148326250Y-140241000D01*
G75*
G02*
X148545000Y-140459750I0J-218750D01*
G01*
X148545000Y-140972250D01*
G75*
G02*
X148326250Y-141191000I-218750J0D01*
G01*
X147888750Y-141191000D01*
G75*
G02*
X147670000Y-140972250I0J218750D01*
G01*
G37*
G36*
G01*
X146095000Y-140972250D02*
X146095000Y-140459750D01*
G75*
G02*
X146313750Y-140241000I218750J0D01*
G01*
X146751250Y-140241000D01*
G75*
G02*
X146970000Y-140459750I0J-218750D01*
G01*
X146970000Y-140972250D01*
G75*
G02*
X146751250Y-141191000I-218750J0D01*
G01*
X146313750Y-141191000D01*
G75*
G02*
X146095000Y-140972250I0J218750D01*
G01*
G37*
%TD*%
%TO.C,C502*%
G36*
G01*
X147670000Y-146052250D02*
X147670000Y-145539750D01*
G75*
G02*
X147888750Y-145321000I218750J0D01*
G01*
X148326250Y-145321000D01*
G75*
G02*
X148545000Y-145539750I0J-218750D01*
G01*
X148545000Y-146052250D01*
G75*
G02*
X148326250Y-146271000I-218750J0D01*
G01*
X147888750Y-146271000D01*
G75*
G02*
X147670000Y-146052250I0J218750D01*
G01*
G37*
G36*
G01*
X146095000Y-146052250D02*
X146095000Y-145539750D01*
G75*
G02*
X146313750Y-145321000I218750J0D01*
G01*
X146751250Y-145321000D01*
G75*
G02*
X146970000Y-145539750I0J-218750D01*
G01*
X146970000Y-146052250D01*
G75*
G02*
X146751250Y-146271000I-218750J0D01*
G01*
X146313750Y-146271000D01*
G75*
G02*
X146095000Y-146052250I0J218750D01*
G01*
G37*
%TD*%
%TO.C,C501*%
G36*
G01*
X147670000Y-148084250D02*
X147670000Y-147571750D01*
G75*
G02*
X147888750Y-147353000I218750J0D01*
G01*
X148326250Y-147353000D01*
G75*
G02*
X148545000Y-147571750I0J-218750D01*
G01*
X148545000Y-148084250D01*
G75*
G02*
X148326250Y-148303000I-218750J0D01*
G01*
X147888750Y-148303000D01*
G75*
G02*
X147670000Y-148084250I0J218750D01*
G01*
G37*
G36*
G01*
X146095000Y-148084250D02*
X146095000Y-147571750D01*
G75*
G02*
X146313750Y-147353000I218750J0D01*
G01*
X146751250Y-147353000D01*
G75*
G02*
X146970000Y-147571750I0J-218750D01*
G01*
X146970000Y-148084250D01*
G75*
G02*
X146751250Y-148303000I-218750J0D01*
G01*
X146313750Y-148303000D01*
G75*
G02*
X146095000Y-148084250I0J218750D01*
G01*
G37*
%TD*%
%TO.C,C415*%
G36*
G01*
X100073750Y-70200000D02*
X100586250Y-70200000D01*
G75*
G02*
X100805000Y-70418750I0J-218750D01*
G01*
X100805000Y-70856250D01*
G75*
G02*
X100586250Y-71075000I-218750J0D01*
G01*
X100073750Y-71075000D01*
G75*
G02*
X99855000Y-70856250I0J218750D01*
G01*
X99855000Y-70418750D01*
G75*
G02*
X100073750Y-70200000I218750J0D01*
G01*
G37*
G36*
G01*
X100073750Y-68625000D02*
X100586250Y-68625000D01*
G75*
G02*
X100805000Y-68843750I0J-218750D01*
G01*
X100805000Y-69281250D01*
G75*
G02*
X100586250Y-69500000I-218750J0D01*
G01*
X100073750Y-69500000D01*
G75*
G02*
X99855000Y-69281250I0J218750D01*
G01*
X99855000Y-68843750D01*
G75*
G02*
X100073750Y-68625000I218750J0D01*
G01*
G37*
%TD*%
%TO.C,C414*%
G36*
G01*
X100934000Y-55882250D02*
X100934000Y-55369750D01*
G75*
G02*
X101152750Y-55151000I218750J0D01*
G01*
X101590250Y-55151000D01*
G75*
G02*
X101809000Y-55369750I0J-218750D01*
G01*
X101809000Y-55882250D01*
G75*
G02*
X101590250Y-56101000I-218750J0D01*
G01*
X101152750Y-56101000D01*
G75*
G02*
X100934000Y-55882250I0J218750D01*
G01*
G37*
G36*
G01*
X99359000Y-55882250D02*
X99359000Y-55369750D01*
G75*
G02*
X99577750Y-55151000I218750J0D01*
G01*
X100015250Y-55151000D01*
G75*
G02*
X100234000Y-55369750I0J-218750D01*
G01*
X100234000Y-55882250D01*
G75*
G02*
X100015250Y-56101000I-218750J0D01*
G01*
X99577750Y-56101000D01*
G75*
G02*
X99359000Y-55882250I0J218750D01*
G01*
G37*
%TD*%
%TO.C,C413*%
G36*
G01*
X105226500Y-45722250D02*
X105226500Y-45209750D01*
G75*
G02*
X105445250Y-44991000I218750J0D01*
G01*
X105882750Y-44991000D01*
G75*
G02*
X106101500Y-45209750I0J-218750D01*
G01*
X106101500Y-45722250D01*
G75*
G02*
X105882750Y-45941000I-218750J0D01*
G01*
X105445250Y-45941000D01*
G75*
G02*
X105226500Y-45722250I0J218750D01*
G01*
G37*
G36*
G01*
X103651500Y-45722250D02*
X103651500Y-45209750D01*
G75*
G02*
X103870250Y-44991000I218750J0D01*
G01*
X104307750Y-44991000D01*
G75*
G02*
X104526500Y-45209750I0J-218750D01*
G01*
X104526500Y-45722250D01*
G75*
G02*
X104307750Y-45941000I-218750J0D01*
G01*
X103870250Y-45941000D01*
G75*
G02*
X103651500Y-45722250I0J218750D01*
G01*
G37*
%TD*%
%TO.C,C412*%
G36*
G01*
X105220000Y-42166250D02*
X105220000Y-41653750D01*
G75*
G02*
X105438750Y-41435000I218750J0D01*
G01*
X105876250Y-41435000D01*
G75*
G02*
X106095000Y-41653750I0J-218750D01*
G01*
X106095000Y-42166250D01*
G75*
G02*
X105876250Y-42385000I-218750J0D01*
G01*
X105438750Y-42385000D01*
G75*
G02*
X105220000Y-42166250I0J218750D01*
G01*
G37*
G36*
G01*
X103645000Y-42166250D02*
X103645000Y-41653750D01*
G75*
G02*
X103863750Y-41435000I218750J0D01*
G01*
X104301250Y-41435000D01*
G75*
G02*
X104520000Y-41653750I0J-218750D01*
G01*
X104520000Y-42166250D01*
G75*
G02*
X104301250Y-42385000I-218750J0D01*
G01*
X103863750Y-42385000D01*
G75*
G02*
X103645000Y-42166250I0J218750D01*
G01*
G37*
%TD*%
%TO.C,C411*%
G36*
G01*
X103888250Y-64420000D02*
X103375750Y-64420000D01*
G75*
G02*
X103157000Y-64201250I0J218750D01*
G01*
X103157000Y-63763750D01*
G75*
G02*
X103375750Y-63545000I218750J0D01*
G01*
X103888250Y-63545000D01*
G75*
G02*
X104107000Y-63763750I0J-218750D01*
G01*
X104107000Y-64201250D01*
G75*
G02*
X103888250Y-64420000I-218750J0D01*
G01*
G37*
G36*
G01*
X103888250Y-65995000D02*
X103375750Y-65995000D01*
G75*
G02*
X103157000Y-65776250I0J218750D01*
G01*
X103157000Y-65338750D01*
G75*
G02*
X103375750Y-65120000I218750J0D01*
G01*
X103888250Y-65120000D01*
G75*
G02*
X104107000Y-65338750I0J-218750D01*
G01*
X104107000Y-65776250D01*
G75*
G02*
X103888250Y-65995000I-218750J0D01*
G01*
G37*
%TD*%
%TO.C,C410*%
G36*
G01*
X39180000Y-65816250D02*
X39180000Y-65303750D01*
G75*
G02*
X39398750Y-65085000I218750J0D01*
G01*
X39836250Y-65085000D01*
G75*
G02*
X40055000Y-65303750I0J-218750D01*
G01*
X40055000Y-65816250D01*
G75*
G02*
X39836250Y-66035000I-218750J0D01*
G01*
X39398750Y-66035000D01*
G75*
G02*
X39180000Y-65816250I0J218750D01*
G01*
G37*
G36*
G01*
X37605000Y-65816250D02*
X37605000Y-65303750D01*
G75*
G02*
X37823750Y-65085000I218750J0D01*
G01*
X38261250Y-65085000D01*
G75*
G02*
X38480000Y-65303750I0J-218750D01*
G01*
X38480000Y-65816250D01*
G75*
G02*
X38261250Y-66035000I-218750J0D01*
G01*
X37823750Y-66035000D01*
G75*
G02*
X37605000Y-65816250I0J218750D01*
G01*
G37*
%TD*%
%TO.C,C409*%
G36*
G01*
X38958000Y-61978250D02*
X38958000Y-61465750D01*
G75*
G02*
X39176750Y-61247000I218750J0D01*
G01*
X39614250Y-61247000D01*
G75*
G02*
X39833000Y-61465750I0J-218750D01*
G01*
X39833000Y-61978250D01*
G75*
G02*
X39614250Y-62197000I-218750J0D01*
G01*
X39176750Y-62197000D01*
G75*
G02*
X38958000Y-61978250I0J218750D01*
G01*
G37*
G36*
G01*
X37383000Y-61978250D02*
X37383000Y-61465750D01*
G75*
G02*
X37601750Y-61247000I218750J0D01*
G01*
X38039250Y-61247000D01*
G75*
G02*
X38258000Y-61465750I0J-218750D01*
G01*
X38258000Y-61978250D01*
G75*
G02*
X38039250Y-62197000I-218750J0D01*
G01*
X37601750Y-62197000D01*
G75*
G02*
X37383000Y-61978250I0J218750D01*
G01*
G37*
%TD*%
%TO.C,C408*%
G36*
G01*
X39106000Y-55374250D02*
X39106000Y-54861750D01*
G75*
G02*
X39324750Y-54643000I218750J0D01*
G01*
X39762250Y-54643000D01*
G75*
G02*
X39981000Y-54861750I0J-218750D01*
G01*
X39981000Y-55374250D01*
G75*
G02*
X39762250Y-55593000I-218750J0D01*
G01*
X39324750Y-55593000D01*
G75*
G02*
X39106000Y-55374250I0J218750D01*
G01*
G37*
G36*
G01*
X37531000Y-55374250D02*
X37531000Y-54861750D01*
G75*
G02*
X37749750Y-54643000I218750J0D01*
G01*
X38187250Y-54643000D01*
G75*
G02*
X38406000Y-54861750I0J-218750D01*
G01*
X38406000Y-55374250D01*
G75*
G02*
X38187250Y-55593000I-218750J0D01*
G01*
X37749750Y-55593000D01*
G75*
G02*
X37531000Y-55374250I0J218750D01*
G01*
G37*
%TD*%
%TO.C,C407*%
G36*
G01*
X89765850Y-55326800D02*
X89253350Y-55326800D01*
G75*
G02*
X89034600Y-55108050I0J218750D01*
G01*
X89034600Y-54670550D01*
G75*
G02*
X89253350Y-54451800I218750J0D01*
G01*
X89765850Y-54451800D01*
G75*
G02*
X89984600Y-54670550I0J-218750D01*
G01*
X89984600Y-55108050D01*
G75*
G02*
X89765850Y-55326800I-218750J0D01*
G01*
G37*
G36*
G01*
X89765850Y-56901800D02*
X89253350Y-56901800D01*
G75*
G02*
X89034600Y-56683050I0J218750D01*
G01*
X89034600Y-56245550D01*
G75*
G02*
X89253350Y-56026800I218750J0D01*
G01*
X89765850Y-56026800D01*
G75*
G02*
X89984600Y-56245550I0J-218750D01*
G01*
X89984600Y-56683050D01*
G75*
G02*
X89765850Y-56901800I-218750J0D01*
G01*
G37*
%TD*%
%TO.C,C406*%
G36*
G01*
X88742000Y-73154250D02*
X88742000Y-72641750D01*
G75*
G02*
X88960750Y-72423000I218750J0D01*
G01*
X89398250Y-72423000D01*
G75*
G02*
X89617000Y-72641750I0J-218750D01*
G01*
X89617000Y-73154250D01*
G75*
G02*
X89398250Y-73373000I-218750J0D01*
G01*
X88960750Y-73373000D01*
G75*
G02*
X88742000Y-73154250I0J218750D01*
G01*
G37*
G36*
G01*
X87167000Y-73154250D02*
X87167000Y-72641750D01*
G75*
G02*
X87385750Y-72423000I218750J0D01*
G01*
X87823250Y-72423000D01*
G75*
G02*
X88042000Y-72641750I0J-218750D01*
G01*
X88042000Y-73154250D01*
G75*
G02*
X87823250Y-73373000I-218750J0D01*
G01*
X87385750Y-73373000D01*
G75*
G02*
X87167000Y-73154250I0J218750D01*
G01*
G37*
%TD*%
%TO.C,C405*%
G36*
G01*
X89664250Y-65944000D02*
X89151750Y-65944000D01*
G75*
G02*
X88933000Y-65725250I0J218750D01*
G01*
X88933000Y-65287750D01*
G75*
G02*
X89151750Y-65069000I218750J0D01*
G01*
X89664250Y-65069000D01*
G75*
G02*
X89883000Y-65287750I0J-218750D01*
G01*
X89883000Y-65725250D01*
G75*
G02*
X89664250Y-65944000I-218750J0D01*
G01*
G37*
G36*
G01*
X89664250Y-67519000D02*
X89151750Y-67519000D01*
G75*
G02*
X88933000Y-67300250I0J218750D01*
G01*
X88933000Y-66862750D01*
G75*
G02*
X89151750Y-66644000I218750J0D01*
G01*
X89664250Y-66644000D01*
G75*
G02*
X89883000Y-66862750I0J-218750D01*
G01*
X89883000Y-67300250D01*
G75*
G02*
X89664250Y-67519000I-218750J0D01*
G01*
G37*
%TD*%
%TO.C,C404*%
G36*
G01*
X70454000Y-73154250D02*
X70454000Y-72641750D01*
G75*
G02*
X70672750Y-72423000I218750J0D01*
G01*
X71110250Y-72423000D01*
G75*
G02*
X71329000Y-72641750I0J-218750D01*
G01*
X71329000Y-73154250D01*
G75*
G02*
X71110250Y-73373000I-218750J0D01*
G01*
X70672750Y-73373000D01*
G75*
G02*
X70454000Y-73154250I0J218750D01*
G01*
G37*
G36*
G01*
X68879000Y-73154250D02*
X68879000Y-72641750D01*
G75*
G02*
X69097750Y-72423000I218750J0D01*
G01*
X69535250Y-72423000D01*
G75*
G02*
X69754000Y-72641750I0J-218750D01*
G01*
X69754000Y-73154250D01*
G75*
G02*
X69535250Y-73373000I-218750J0D01*
G01*
X69097750Y-73373000D01*
G75*
G02*
X68879000Y-73154250I0J218750D01*
G01*
G37*
%TD*%
%TO.C,C403*%
G36*
G01*
X75407000Y-88521250D02*
X75407000Y-88008750D01*
G75*
G02*
X75625750Y-87790000I218750J0D01*
G01*
X76063250Y-87790000D01*
G75*
G02*
X76282000Y-88008750I0J-218750D01*
G01*
X76282000Y-88521250D01*
G75*
G02*
X76063250Y-88740000I-218750J0D01*
G01*
X75625750Y-88740000D01*
G75*
G02*
X75407000Y-88521250I0J218750D01*
G01*
G37*
G36*
G01*
X73832000Y-88521250D02*
X73832000Y-88008750D01*
G75*
G02*
X74050750Y-87790000I218750J0D01*
G01*
X74488250Y-87790000D01*
G75*
G02*
X74707000Y-88008750I0J-218750D01*
G01*
X74707000Y-88521250D01*
G75*
G02*
X74488250Y-88740000I-218750J0D01*
G01*
X74050750Y-88740000D01*
G75*
G02*
X73832000Y-88521250I0J218750D01*
G01*
G37*
%TD*%
%TO.C,C402*%
G36*
G01*
X142877250Y-100742000D02*
X142364750Y-100742000D01*
G75*
G02*
X142146000Y-100523250I0J218750D01*
G01*
X142146000Y-100085750D01*
G75*
G02*
X142364750Y-99867000I218750J0D01*
G01*
X142877250Y-99867000D01*
G75*
G02*
X143096000Y-100085750I0J-218750D01*
G01*
X143096000Y-100523250D01*
G75*
G02*
X142877250Y-100742000I-218750J0D01*
G01*
G37*
G36*
G01*
X142877250Y-102317000D02*
X142364750Y-102317000D01*
G75*
G02*
X142146000Y-102098250I0J218750D01*
G01*
X142146000Y-101660750D01*
G75*
G02*
X142364750Y-101442000I218750J0D01*
G01*
X142877250Y-101442000D01*
G75*
G02*
X143096000Y-101660750I0J-218750D01*
G01*
X143096000Y-102098250D01*
G75*
G02*
X142877250Y-102317000I-218750J0D01*
G01*
G37*
%TD*%
%TO.C,C401*%
G36*
G01*
X80614000Y-72646250D02*
X80614000Y-72133750D01*
G75*
G02*
X80832750Y-71915000I218750J0D01*
G01*
X81270250Y-71915000D01*
G75*
G02*
X81489000Y-72133750I0J-218750D01*
G01*
X81489000Y-72646250D01*
G75*
G02*
X81270250Y-72865000I-218750J0D01*
G01*
X80832750Y-72865000D01*
G75*
G02*
X80614000Y-72646250I0J218750D01*
G01*
G37*
G36*
G01*
X79039000Y-72646250D02*
X79039000Y-72133750D01*
G75*
G02*
X79257750Y-71915000I218750J0D01*
G01*
X79695250Y-71915000D01*
G75*
G02*
X79914000Y-72133750I0J-218750D01*
G01*
X79914000Y-72646250D01*
G75*
G02*
X79695250Y-72865000I-218750J0D01*
G01*
X79257750Y-72865000D01*
G75*
G02*
X79039000Y-72646250I0J218750D01*
G01*
G37*
%TD*%
%TO.C,C302*%
G36*
G01*
X55623750Y-61564000D02*
X56136250Y-61564000D01*
G75*
G02*
X56355000Y-61782750I0J-218750D01*
G01*
X56355000Y-62220250D01*
G75*
G02*
X56136250Y-62439000I-218750J0D01*
G01*
X55623750Y-62439000D01*
G75*
G02*
X55405000Y-62220250I0J218750D01*
G01*
X55405000Y-61782750D01*
G75*
G02*
X55623750Y-61564000I218750J0D01*
G01*
G37*
G36*
G01*
X55623750Y-59989000D02*
X56136250Y-59989000D01*
G75*
G02*
X56355000Y-60207750I0J-218750D01*
G01*
X56355000Y-60645250D01*
G75*
G02*
X56136250Y-60864000I-218750J0D01*
G01*
X55623750Y-60864000D01*
G75*
G02*
X55405000Y-60645250I0J218750D01*
G01*
X55405000Y-60207750D01*
G75*
G02*
X55623750Y-59989000I218750J0D01*
G01*
G37*
%TD*%
%TO.C,C301*%
G36*
G01*
X56136250Y-57816000D02*
X55623750Y-57816000D01*
G75*
G02*
X55405000Y-57597250I0J218750D01*
G01*
X55405000Y-57159750D01*
G75*
G02*
X55623750Y-56941000I218750J0D01*
G01*
X56136250Y-56941000D01*
G75*
G02*
X56355000Y-57159750I0J-218750D01*
G01*
X56355000Y-57597250D01*
G75*
G02*
X56136250Y-57816000I-218750J0D01*
G01*
G37*
G36*
G01*
X56136250Y-59391000D02*
X55623750Y-59391000D01*
G75*
G02*
X55405000Y-59172250I0J218750D01*
G01*
X55405000Y-58734750D01*
G75*
G02*
X55623750Y-58516000I218750J0D01*
G01*
X56136250Y-58516000D01*
G75*
G02*
X56355000Y-58734750I0J-218750D01*
G01*
X56355000Y-59172250D01*
G75*
G02*
X56136250Y-59391000I-218750J0D01*
G01*
G37*
%TD*%
%TO.C,C212*%
G36*
G01*
X123094000Y-133474750D02*
X123094000Y-133987250D01*
G75*
G02*
X122875250Y-134206000I-218750J0D01*
G01*
X122437750Y-134206000D01*
G75*
G02*
X122219000Y-133987250I0J218750D01*
G01*
X122219000Y-133474750D01*
G75*
G02*
X122437750Y-133256000I218750J0D01*
G01*
X122875250Y-133256000D01*
G75*
G02*
X123094000Y-133474750I0J-218750D01*
G01*
G37*
G36*
G01*
X124669000Y-133474750D02*
X124669000Y-133987250D01*
G75*
G02*
X124450250Y-134206000I-218750J0D01*
G01*
X124012750Y-134206000D01*
G75*
G02*
X123794000Y-133987250I0J218750D01*
G01*
X123794000Y-133474750D01*
G75*
G02*
X124012750Y-133256000I218750J0D01*
G01*
X124450250Y-133256000D01*
G75*
G02*
X124669000Y-133474750I0J-218750D01*
G01*
G37*
%TD*%
%TO.C,C211*%
G36*
G01*
X113188000Y-121155750D02*
X113188000Y-121668250D01*
G75*
G02*
X112969250Y-121887000I-218750J0D01*
G01*
X112531750Y-121887000D01*
G75*
G02*
X112313000Y-121668250I0J218750D01*
G01*
X112313000Y-121155750D01*
G75*
G02*
X112531750Y-120937000I218750J0D01*
G01*
X112969250Y-120937000D01*
G75*
G02*
X113188000Y-121155750I0J-218750D01*
G01*
G37*
G36*
G01*
X114763000Y-121155750D02*
X114763000Y-121668250D01*
G75*
G02*
X114544250Y-121887000I-218750J0D01*
G01*
X114106750Y-121887000D01*
G75*
G02*
X113888000Y-121668250I0J218750D01*
G01*
X113888000Y-121155750D01*
G75*
G02*
X114106750Y-120937000I218750J0D01*
G01*
X114544250Y-120937000D01*
G75*
G02*
X114763000Y-121155750I0J-218750D01*
G01*
G37*
%TD*%
%TO.C,C210*%
G36*
G01*
X123192250Y-124110000D02*
X122679750Y-124110000D01*
G75*
G02*
X122461000Y-123891250I0J218750D01*
G01*
X122461000Y-123453750D01*
G75*
G02*
X122679750Y-123235000I218750J0D01*
G01*
X123192250Y-123235000D01*
G75*
G02*
X123411000Y-123453750I0J-218750D01*
G01*
X123411000Y-123891250D01*
G75*
G02*
X123192250Y-124110000I-218750J0D01*
G01*
G37*
G36*
G01*
X123192250Y-125685000D02*
X122679750Y-125685000D01*
G75*
G02*
X122461000Y-125466250I0J218750D01*
G01*
X122461000Y-125028750D01*
G75*
G02*
X122679750Y-124810000I218750J0D01*
G01*
X123192250Y-124810000D01*
G75*
G02*
X123411000Y-125028750I0J-218750D01*
G01*
X123411000Y-125466250D01*
G75*
G02*
X123192250Y-125685000I-218750J0D01*
G01*
G37*
%TD*%
%TO.C,C209*%
G36*
G01*
X109378000Y-122425750D02*
X109378000Y-122938250D01*
G75*
G02*
X109159250Y-123157000I-218750J0D01*
G01*
X108721750Y-123157000D01*
G75*
G02*
X108503000Y-122938250I0J218750D01*
G01*
X108503000Y-122425750D01*
G75*
G02*
X108721750Y-122207000I218750J0D01*
G01*
X109159250Y-122207000D01*
G75*
G02*
X109378000Y-122425750I0J-218750D01*
G01*
G37*
G36*
G01*
X110953000Y-122425750D02*
X110953000Y-122938250D01*
G75*
G02*
X110734250Y-123157000I-218750J0D01*
G01*
X110296750Y-123157000D01*
G75*
G02*
X110078000Y-122938250I0J218750D01*
G01*
X110078000Y-122425750D01*
G75*
G02*
X110296750Y-122207000I218750J0D01*
G01*
X110734250Y-122207000D01*
G75*
G02*
X110953000Y-122425750I0J-218750D01*
G01*
G37*
%TD*%
%TO.C,C208*%
G36*
G01*
X108300000Y-119890250D02*
X108300000Y-119377750D01*
G75*
G02*
X108518750Y-119159000I218750J0D01*
G01*
X108956250Y-119159000D01*
G75*
G02*
X109175000Y-119377750I0J-218750D01*
G01*
X109175000Y-119890250D01*
G75*
G02*
X108956250Y-120109000I-218750J0D01*
G01*
X108518750Y-120109000D01*
G75*
G02*
X108300000Y-119890250I0J218750D01*
G01*
G37*
G36*
G01*
X106725000Y-119890250D02*
X106725000Y-119377750D01*
G75*
G02*
X106943750Y-119159000I218750J0D01*
G01*
X107381250Y-119159000D01*
G75*
G02*
X107600000Y-119377750I0J-218750D01*
G01*
X107600000Y-119890250D01*
G75*
G02*
X107381250Y-120109000I-218750J0D01*
G01*
X106943750Y-120109000D01*
G75*
G02*
X106725000Y-119890250I0J218750D01*
G01*
G37*
%TD*%
%TO.C,C207*%
G36*
G01*
X106076000Y-131163350D02*
X106076000Y-131675850D01*
G75*
G02*
X105857250Y-131894600I-218750J0D01*
G01*
X105419750Y-131894600D01*
G75*
G02*
X105201000Y-131675850I0J218750D01*
G01*
X105201000Y-131163350D01*
G75*
G02*
X105419750Y-130944600I218750J0D01*
G01*
X105857250Y-130944600D01*
G75*
G02*
X106076000Y-131163350I0J-218750D01*
G01*
G37*
G36*
G01*
X107651000Y-131163350D02*
X107651000Y-131675850D01*
G75*
G02*
X107432250Y-131894600I-218750J0D01*
G01*
X106994750Y-131894600D01*
G75*
G02*
X106776000Y-131675850I0J218750D01*
G01*
X106776000Y-131163350D01*
G75*
G02*
X106994750Y-130944600I218750J0D01*
G01*
X107432250Y-130944600D01*
G75*
G02*
X107651000Y-131163350I0J-218750D01*
G01*
G37*
%TD*%
%TO.C,C206*%
G36*
G01*
X130913850Y-130764800D02*
X130401350Y-130764800D01*
G75*
G02*
X130182600Y-130546050I0J218750D01*
G01*
X130182600Y-130108550D01*
G75*
G02*
X130401350Y-129889800I218750J0D01*
G01*
X130913850Y-129889800D01*
G75*
G02*
X131132600Y-130108550I0J-218750D01*
G01*
X131132600Y-130546050D01*
G75*
G02*
X130913850Y-130764800I-218750J0D01*
G01*
G37*
G36*
G01*
X130913850Y-132339800D02*
X130401350Y-132339800D01*
G75*
G02*
X130182600Y-132121050I0J218750D01*
G01*
X130182600Y-131683550D01*
G75*
G02*
X130401350Y-131464800I218750J0D01*
G01*
X130913850Y-131464800D01*
G75*
G02*
X131132600Y-131683550I0J-218750D01*
G01*
X131132600Y-132121050D01*
G75*
G02*
X130913850Y-132339800I-218750J0D01*
G01*
G37*
%TD*%
%TO.C,C205*%
G36*
G01*
X109632000Y-128267750D02*
X109632000Y-128780250D01*
G75*
G02*
X109413250Y-128999000I-218750J0D01*
G01*
X108975750Y-128999000D01*
G75*
G02*
X108757000Y-128780250I0J218750D01*
G01*
X108757000Y-128267750D01*
G75*
G02*
X108975750Y-128049000I218750J0D01*
G01*
X109413250Y-128049000D01*
G75*
G02*
X109632000Y-128267750I0J-218750D01*
G01*
G37*
G36*
G01*
X111207000Y-128267750D02*
X111207000Y-128780250D01*
G75*
G02*
X110988250Y-128999000I-218750J0D01*
G01*
X110550750Y-128999000D01*
G75*
G02*
X110332000Y-128780250I0J218750D01*
G01*
X110332000Y-128267750D01*
G75*
G02*
X110550750Y-128049000I218750J0D01*
G01*
X110988250Y-128049000D01*
G75*
G02*
X111207000Y-128267750I0J-218750D01*
G01*
G37*
%TD*%
%TO.C,C204*%
G36*
G01*
X123700250Y-119538000D02*
X123187750Y-119538000D01*
G75*
G02*
X122969000Y-119319250I0J218750D01*
G01*
X122969000Y-118881750D01*
G75*
G02*
X123187750Y-118663000I218750J0D01*
G01*
X123700250Y-118663000D01*
G75*
G02*
X123919000Y-118881750I0J-218750D01*
G01*
X123919000Y-119319250D01*
G75*
G02*
X123700250Y-119538000I-218750J0D01*
G01*
G37*
G36*
G01*
X123700250Y-121113000D02*
X123187750Y-121113000D01*
G75*
G02*
X122969000Y-120894250I0J218750D01*
G01*
X122969000Y-120456750D01*
G75*
G02*
X123187750Y-120238000I218750J0D01*
G01*
X123700250Y-120238000D01*
G75*
G02*
X123919000Y-120456750I0J-218750D01*
G01*
X123919000Y-120894250D01*
G75*
G02*
X123700250Y-121113000I-218750J0D01*
G01*
G37*
%TD*%
%TO.C,C203*%
G36*
G01*
X158719000Y-62041750D02*
X158719000Y-61529250D01*
G75*
G02*
X158937750Y-61310500I218750J0D01*
G01*
X159375250Y-61310500D01*
G75*
G02*
X159594000Y-61529250I0J-218750D01*
G01*
X159594000Y-62041750D01*
G75*
G02*
X159375250Y-62260500I-218750J0D01*
G01*
X158937750Y-62260500D01*
G75*
G02*
X158719000Y-62041750I0J218750D01*
G01*
G37*
G36*
G01*
X157144000Y-62041750D02*
X157144000Y-61529250D01*
G75*
G02*
X157362750Y-61310500I218750J0D01*
G01*
X157800250Y-61310500D01*
G75*
G02*
X158019000Y-61529250I0J-218750D01*
G01*
X158019000Y-62041750D01*
G75*
G02*
X157800250Y-62260500I-218750J0D01*
G01*
X157362750Y-62260500D01*
G75*
G02*
X157144000Y-62041750I0J218750D01*
G01*
G37*
%TD*%
%TO.C,C202*%
G36*
G01*
X106677750Y-126080000D02*
X107190250Y-126080000D01*
G75*
G02*
X107409000Y-126298750I0J-218750D01*
G01*
X107409000Y-126736250D01*
G75*
G02*
X107190250Y-126955000I-218750J0D01*
G01*
X106677750Y-126955000D01*
G75*
G02*
X106459000Y-126736250I0J218750D01*
G01*
X106459000Y-126298750D01*
G75*
G02*
X106677750Y-126080000I218750J0D01*
G01*
G37*
G36*
G01*
X106677750Y-124505000D02*
X107190250Y-124505000D01*
G75*
G02*
X107409000Y-124723750I0J-218750D01*
G01*
X107409000Y-125161250D01*
G75*
G02*
X107190250Y-125380000I-218750J0D01*
G01*
X106677750Y-125380000D01*
G75*
G02*
X106459000Y-125161250I0J218750D01*
G01*
X106459000Y-124723750D01*
G75*
G02*
X106677750Y-124505000I218750J0D01*
G01*
G37*
%TD*%
%TO.C,C201*%
G36*
G01*
X103375750Y-126080000D02*
X103888250Y-126080000D01*
G75*
G02*
X104107000Y-126298750I0J-218750D01*
G01*
X104107000Y-126736250D01*
G75*
G02*
X103888250Y-126955000I-218750J0D01*
G01*
X103375750Y-126955000D01*
G75*
G02*
X103157000Y-126736250I0J218750D01*
G01*
X103157000Y-126298750D01*
G75*
G02*
X103375750Y-126080000I218750J0D01*
G01*
G37*
G36*
G01*
X103375750Y-124505000D02*
X103888250Y-124505000D01*
G75*
G02*
X104107000Y-124723750I0J-218750D01*
G01*
X104107000Y-125161250D01*
G75*
G02*
X103888250Y-125380000I-218750J0D01*
G01*
X103375750Y-125380000D01*
G75*
G02*
X103157000Y-125161250I0J218750D01*
G01*
X103157000Y-124723750D01*
G75*
G02*
X103375750Y-124505000I218750J0D01*
G01*
G37*
%TD*%
M02*
