M48
; DRILL file {KiCad (5.1.7)-1} date 10/22/20 13:49:35
; FORMAT={-:-/ absolute / inch / decimal}
; #@! TF.CreationDate,2020-10-22T13:49:35-07:00
; #@! TF.GenerationSoftware,Kicad,Pcbnew,(5.1.7)-1
; #@! TF.FileFunction,Plated,1,4,PTH
FMAT,2
INCH
T1C0.0107
T2C0.0157
T3C0.0177
T4C0.0197
T5C0.0276
T6C0.0300
T7C0.0315
T8C0.0390
T9C0.0394
T10C0.0480
T11C0.0591
T12C0.0697
T13C0.0827
T14C0.1260
%
G90
G05
T1
X5.95Y-5.43
X5.95Y-5.4727
X5.95Y-5.5153
X5.9927Y-5.43
X5.9927Y-5.4727
X5.9927Y-5.5153
X6.0353Y-5.43
X6.0353Y-5.4727
X6.0353Y-5.5153
T2
X2.775Y-4.105
X2.775Y-4.215
X2.885Y-4.335
X2.99Y-4.105
X2.99Y-4.22
X3.925Y-4.09
X3.93Y-4.25
X4.1575Y-5.2325
X4.2225Y-5.2275
X4.235Y-4.085
X4.24Y-4.24
X4.2412Y-5.0337
X4.29Y-5.2025
X4.31Y-5.155
X4.311Y-5.3413
X4.35Y-5.3475
X5.02Y-4.5025
X5.15Y-1.5
X5.15Y-1.65
X5.15Y-1.8
X5.15Y-1.955
X5.15Y-2.105
X5.15Y-2.255
X5.2179Y-4.6954
X5.242Y-4.7266
X5.45Y-1.495
X5.45Y-1.65
X5.45Y-1.8
X5.45Y-1.95
X5.45Y-2.105
X5.45Y-2.255
X5.5025Y-3.935
X5.5075Y-4.0275
X5.62Y-4.2125
X5.75Y-1.495
X5.75Y-1.65
X5.75Y-1.8
X5.75Y-1.945
X5.75Y-2.1
X5.75Y-2.25
X6.11Y-2.9459
X6.215Y-2.3825
X6.44Y-3.425
X6.475Y-4.52
T3
X1.575Y-2.24
X1.58Y-2.475
X1.58Y-5.6
X1.615Y-2.695
X1.67Y-5.6
X1.985Y-2.58
X1.99Y-2.495
X2.1Y-2.185
X2.145Y-2.18
X2.15Y-2.25
X2.155Y-2.3
X2.155Y-2.35
X2.33Y-2.57
X2.335Y-2.46
X2.335Y-2.49
X2.335Y-2.775
X2.36Y-2.22
X2.36Y-2.275
X2.36Y-2.33
X2.37Y-2.46
X2.455Y-2.775
X2.46Y-2.21
X2.46Y-2.27
X2.46Y-2.325
X2.54Y-4.93
X2.595Y-5.01
X2.61Y-5.135
X2.655Y-4.98
X2.66Y-4.78
X2.66Y-5.135
X2.68Y-4.755
X2.6861Y-4.9748
X2.71Y-3.02
X2.7152Y-3.6034
X2.72Y-3.085
X2.72Y-3.565
X2.735Y-4.8735
X2.74Y-5.1
X2.78Y-4.875
X2.785Y-4.955
X2.835Y-2.865
X2.835Y-4.76
X2.8482Y-3.402
X2.86Y-2.595
X2.905Y-2.49
X2.9079Y-3.3654
X2.92Y-3.525
X2.921Y-3.394
X2.945Y-3.02
X2.98Y-4.53
X2.985Y-3.53
X3.0Y-4.872
X3.0Y-5.05
X3.002Y-4.748
X3.004Y-5.192
X3.006Y-5.26
X3.015Y-2.885
X3.045Y-2.885
X3.045Y-3.0869
X3.05Y-4.53
X3.058Y-5.052
X3.058Y-5.19
X3.06Y-5.26
X3.078Y-4.876
X3.092Y-4.746
X3.095Y-3.24
X3.1125Y-4.53
X3.116Y-5.26
X3.12Y-3.02
X3.12Y-3.42
X3.135Y-2.8
X3.14Y-3.395
X3.16Y-3.37
X3.164Y-2.502
X3.165Y-3.24
X3.174Y-5.26
X3.185Y-4.53
X3.19Y-2.89
X3.225Y-2.6
X3.23Y-2.652
X3.238Y-5.26
X3.24Y-2.84
X3.24Y-2.885
X3.2525Y-4.5275
X3.284Y-5.112
X3.286Y-5.046
X3.29Y-4.734
X3.292Y-4.806
X3.292Y-4.886
X3.3275Y-4.4475
X3.36Y-2.665
X3.36Y-4.882
X3.36Y-5.046
X3.362Y-5.112
X3.3625Y-4.1825
X3.3634Y-2.3754
X3.366Y-4.806
X3.37Y-2.33
X3.37Y-3.02
X3.37Y-4.73
X3.405Y-3.025
X3.415Y-2.545
X3.462Y-2.046
X3.47Y-3.025
X3.48Y-2.71
X3.48Y-2.745
X3.48Y-2.79
X3.52Y-5.275
X3.525Y-2.535
X3.525Y-2.925
X3.53Y-3.145
X3.535Y-2.68
X3.57Y-2.504
X3.575Y-2.58
X3.575Y-2.835
X3.576Y-2.15
X3.576Y-2.23
X3.642Y-2.926
X3.685Y-5.18
X3.715Y-2.235
X3.715Y-2.38
X3.725Y-2.78
X3.75Y-2.835
X3.76Y-2.235
X3.76Y-2.45
X3.76Y-2.575
X3.8225Y-5.255
X3.8229Y-5.293
X3.854Y-2.146
X3.8975Y-5.32
X3.94Y-5.02
X3.952Y-2.142
X3.975Y-2.565
X3.995Y-2.72
X3.995Y-2.785
X4.01Y-2.46
X4.01Y-4.66
X4.032Y-2.096
X4.032Y-2.158
X4.04Y-2.65
X4.08Y-5.025
X4.098Y-1.596
X4.13Y-2.46
X4.135Y-2.65
X4.16Y-1.596
X4.16Y-1.848
X4.185Y-4.71
X4.21Y-4.88
X4.212Y-1.72
X4.25Y-4.8
X4.275Y-5.095
X4.28Y-4.945
X4.3179Y-4.709
X4.33Y-4.945
X4.335Y-5.095
X4.385Y-4.965
X4.395Y-4.83
X4.4Y-5.49
X4.42Y-4.88
X4.44Y-4.74
X4.44Y-5.4575
X4.4825Y-5.44
X4.5092Y-5.0584
X4.512Y-4.904
X4.514Y-5.002
X4.53Y-4.6895
X4.5394Y-4.7694
X4.56Y-4.91
X4.57Y-4.675
X4.5738Y-4.9664
X4.5931Y-4.9054
X4.606Y-5.436
X4.63Y-4.675
X4.64Y-5.432
X4.652Y-5.102
X4.6545Y-4.9625
X4.655Y-5.86
X4.66Y-5.9025
X4.6704Y-4.5789
X4.676Y-5.43
X4.684Y-5.03
X4.6846Y-4.9533
X4.695Y-4.735
X4.7047Y-5.1181
X4.706Y-5.448
X4.7075Y-4.9075
X4.708Y-5.006
X4.716Y-4.9515
X4.742Y-5.448
X4.75Y-4.85
X4.7625Y-4.735
X4.77Y-4.88
X4.8016Y-4.6186
X4.825Y-5.32
X4.9Y-4.875
X4.9Y-4.925
X4.9Y-5.32
X4.9975Y-4.975
X5.002Y-5.094
X5.002Y-5.13
X5.01Y-4.745
X5.013Y-4.695
X5.0225Y-4.9275
X5.045Y-4.9025
X5.045Y-4.9625
X5.165Y-5.06
X5.17Y-5.26
X5.61Y-4.1125
X5.6125Y-3.8175
X5.6175Y-3.7175
X5.62Y-4.305
X5.6275Y-4.505
X5.7Y-5.74
X5.7Y-5.78
X5.7Y-5.82
X5.7575Y-3.8875
X5.765Y-5.285
X5.835Y-5.5825
X5.8375Y-5.285
X5.86Y-6.0
X5.87Y-5.31
X5.875Y-2.945
X5.8775Y-5.7975
X5.88Y-5.7525
X5.91Y-5.5575
X5.9125Y-5.3875
X5.9675Y-5.5975
X5.975Y-2.945
X5.9875Y-5.295
X6.0Y-5.595
X6.025Y-2.945
X6.0775Y-5.3925
X6.08Y-5.205
X6.0875Y-5.555
X6.1122Y-4.685
X6.1417Y-4.9016
X6.1425Y-5.4725
X6.2795Y-4.5965
X6.2795Y-4.7539
X6.2992Y-4.9311
X6.31Y-5.99
X6.3583Y-4.9311
X6.3878Y-4.8425
X6.3976Y-4.7539
X6.4173Y-4.8996
X6.4272Y-4.8062
X6.437Y-4.6555
X6.437Y-4.7047
X6.5846Y-4.8031
X6.5846Y-4.8425
T4
X6.5455Y-1.25
X6.5732Y-1.1832
X6.5732Y-1.3168
X6.64Y-1.1555
X6.64Y-1.3445
X6.7068Y-1.1832
X6.7068Y-1.3168
X6.7345Y-1.25
X3.085Y-4.0775
X3.1244Y-4.0775
X3.1637Y-4.0775
X3.2031Y-4.0775
X3.2425Y-4.0775
X3.2819Y-4.0775
X3.3212Y-4.0775
X3.3606Y-4.0775
X3.4Y-4.0775
X3.4393Y-4.0775
X6.5523Y-6.87
X6.58Y-6.8032
X6.58Y-6.9368
X6.6468Y-6.7755
X6.6468Y-6.9645
X6.7136Y-6.8032
X6.7136Y-6.9368
X6.7413Y-6.87
X3.085Y-3.91
X3.1244Y-3.91
X3.1637Y-3.91
X3.2031Y-3.91
X3.2425Y-3.91
X3.2819Y-3.91
X3.3212Y-3.91
X3.3606Y-3.91
X3.4Y-3.91
X3.4393Y-3.91
X6.5476Y-4.6574
X6.5476Y-4.9826
X6.7818Y-4.6432
X6.7818Y-4.9968
X0.8655Y-6.89
X0.8932Y-6.8232
X0.8932Y-6.9568
X0.96Y-6.7955
X0.96Y-6.9845
X1.0268Y-6.8232
X1.0268Y-6.9568
X1.0545Y-6.89
X0.8255Y-3.63
X0.8532Y-3.5632
X0.8532Y-3.6968
X0.92Y-3.5355
X0.92Y-3.7245
X0.9868Y-3.5632
X0.9868Y-3.6968
X1.0145Y-3.63
X4.1055Y-3.63
X4.1332Y-3.5632
X4.1332Y-3.6968
X4.2Y-3.5355
X4.2Y-3.7245
X4.2668Y-3.5632
X4.2668Y-3.6968
X4.2945Y-3.63
X3.0875Y-3.7175
X3.1269Y-3.7175
X3.1662Y-3.7175
X3.2056Y-3.7175
X3.245Y-3.7175
X3.2844Y-3.7175
X3.3237Y-3.7175
X3.3631Y-3.7175
X3.4025Y-3.7175
X3.4418Y-3.7175
X4.1055Y-1.25
X4.1332Y-1.1832
X4.1332Y-1.3168
X4.2Y-1.1555
X4.2Y-1.3445
X4.2668Y-1.1832
X4.2668Y-1.3168
X4.2945Y-1.25
X0.8255Y-4.19
X0.8532Y-4.1232
X0.8532Y-4.2568
X0.92Y-4.0955
X0.92Y-4.2845
X0.9868Y-4.1232
X0.9868Y-4.2568
X1.0145Y-4.19
X0.8255Y-1.25
X0.8532Y-1.1832
X0.8532Y-1.3168
X0.92Y-1.1555
X0.92Y-1.3445
X0.9868Y-1.1832
X0.9868Y-1.3168
X1.0145Y-1.25
X4.6655Y-1.25
X4.6932Y-1.1832
X4.6932Y-1.3168
X4.76Y-1.1555
X4.76Y-1.3445
X4.8268Y-1.1832
X4.8268Y-1.3168
X4.8545Y-1.25
X4.6655Y-3.63
X4.6932Y-3.5632
X4.6932Y-3.6968
X4.76Y-3.5355
X4.76Y-3.7245
X4.8268Y-3.5632
X4.8268Y-3.6968
X4.8545Y-3.63
T5
X5.875Y-3.055
X5.875Y-3.105
X5.925Y-3.055
X5.925Y-3.105
X5.975Y-3.055
X5.975Y-3.105
X6.025Y-3.055
X6.025Y-3.105
X6.075Y-3.055
X6.075Y-3.105
T6
X1.36Y-4.85
X1.36Y-5.1453
X1.9506Y-4.85
X1.9506Y-5.1453
X2.1474Y-4.85
X2.1474Y-5.1453
X2.3443Y-4.85
X2.3443Y-5.1453
T7
X3.18Y-4.7713
X3.18Y-4.85
X5.66Y-6.75
X5.76Y-6.75
X5.86Y-6.75
X5.96Y-6.75
X6.06Y-6.75
X6.16Y-6.75
X6.26Y-6.75
X3.18Y-5.0713
X3.18Y-5.15
T8
X3.6574Y-1.4514
X3.6574Y-1.9927
X3.7559Y-1.9927
X3.8543Y-1.4514
X3.8543Y-1.9927
T9
X2.9675Y-1.5119
X2.9675Y-1.6119
X2.9675Y-1.7119
X2.9675Y-1.8119
X2.9675Y-1.9119
X3.2675Y-1.5119
X3.2675Y-1.6119
X3.2675Y-1.7119
X3.2675Y-1.8119
X3.2675Y-1.9119
X1.815Y-5.6
X1.815Y-6.4
X3.615Y-5.6
X3.615Y-6.0
X3.615Y-6.4
X6.31Y-3.14
X6.41Y-3.14
X6.51Y-3.14
X6.61Y-3.14
X6.71Y-3.14
X6.81Y-3.14
X2.5075Y-1.5119
X2.5075Y-1.6119
X2.5075Y-1.7119
X2.5075Y-1.8119
X2.5075Y-1.9119
X2.8075Y-1.5119
X2.8075Y-1.6119
X2.8075Y-1.7119
X2.8075Y-1.8119
X2.8075Y-1.9119
X6.6075Y-2.98
X6.7075Y-2.98
X6.8075Y-2.98
X6.24Y-2.6375
X6.24Y-2.7375
X6.34Y-2.6375
X6.34Y-2.7375
X2.0725Y-1.5069
X2.0725Y-1.6069
X2.0725Y-1.7069
X2.0725Y-1.8069
X2.0725Y-1.9069
X2.3725Y-1.5069
X2.3725Y-1.6069
X2.3725Y-1.7069
X2.3725Y-1.8069
X2.3725Y-1.9069
X1.6125Y-1.5069
X1.6125Y-1.6069
X1.6125Y-1.7069
X1.6125Y-1.8069
X1.6125Y-1.9069
X1.9125Y-1.5069
X1.9125Y-1.6069
X1.9125Y-1.7069
X1.9125Y-1.8069
X1.9125Y-1.9069
T10
X1.0495Y-1.8568
X1.2495Y-1.6536
X1.0484Y-2.1016
X1.2516Y-2.3016
X1.0464Y-2.6372
X1.2495Y-2.8372
T11
X6.6467Y-3.5127
X6.6467Y-4.4655
T12
X6.21Y-5.2006
X6.21Y-5.74
X6.7415Y-5.1613
X6.7415Y-5.7794
T13
X3.5236Y-1.7097
X3.9881Y-1.7137
T14
X6.6468Y-6.87
X0.96Y-6.89
X0.92Y-3.63
X4.2Y-3.63
X4.2Y-1.25
X0.92Y-4.19
X0.92Y-1.25
X4.76Y-1.25
X4.76Y-3.63
X6.64Y-1.25
T0
M30
